<?xml version="1.0" encoding="utf-8"?>
<!-- Generator: Adobe Illustrator 28.1.0, SVG Export Plug-In . SVG Version: 6.00 Build 0)  -->
<svg version="1.1" xmlns="http://www.w3.org/2000/svg" xmlns:xlink="http://www.w3.org/1999/xlink" x="0px" y="0px"
	 viewBox="0 0 1226 673" style="enable-background:new 0 0 1226 673;" xml:space="preserve">
<style type="text/css">
	.st0{fill:#FFFFFF;}
	.st1{fill:none;stroke:#5E4FA2;stroke-width:22.8986;}
	.st2{fill:none;stroke:#5E4FA2;stroke-width:20.9903;}
	.st3{fill:none;stroke:#4478B2;stroke-width:3.8164;}
	.st4{fill:none;stroke:#4BA0B1;stroke-width:1.9082;}
	.st5{fill:none;stroke:#4F63AB;stroke-width:28.6232;}
	.st6{fill:none;stroke:#5E4FA2;stroke-width:9.5411;}
	.st7{fill:none;stroke:#5E4FA2;stroke-width:3.8164;}
	.st8{fill:none;stroke:#4F63AB;stroke-width:7.6329;}
	.st9{fill:none;stroke:#4F63AB;stroke-width:1.9082;}
	.st10{fill:none;stroke:#5E4FA2;stroke-width:5.7246;}
	.st11{fill:none;stroke:#5E4FA2;stroke-width:32.4396;}
	.st12{fill:none;stroke:#438CB4;stroke-width:11.4493;}
	.st13{fill:none;stroke:#4F63AB;stroke-width:19.0821;}
	.st14{fill:none;stroke:#4F63AB;stroke-width:3.8164;}
	.st15{fill:none;stroke:#5CB3AC;stroke-width:1.9082;}
	.st16{fill:none;stroke:#4BA0B1;stroke-width:3.8164;}
	.st17{fill:none;stroke:#5CB3AC;stroke-width:3.8164;}
	.st18{fill:none;stroke:#4478B2;stroke-width:1.9082;}
	.st19{fill:none;stroke:#438CB4;stroke-width:7.6329;}
	.st20{fill:none;stroke:#4478B2;stroke-width:5.7246;}
	.st21{fill:none;stroke:#438CB4;stroke-width:3.8164;}
	.st22{fill:none;stroke:#4F63AB;stroke-width:5.7246;}
	.st23{fill:none;stroke:#438CB4;stroke-width:1.9082;}
	.st24{fill:none;stroke:#5E4FA2;stroke-width:7.6329;}
	.st25{fill:none;stroke:#5E4FA2;stroke-width:13.3575;}
	.st26{fill:none;stroke:#4F63AB;stroke-width:13.3575;}
	.st27{fill:none;stroke:#5E4FA2;stroke-width:1.9082;}
	.st28{fill:none;stroke:#CCEA9F;stroke-width:1.9082;}
	.st29{fill:none;stroke:#72C3A7;stroke-width:1.9082;}
	.st30{fill:none;stroke:#FDF2A8;stroke-width:1.9082;}
	.st31{fill:none;stroke:#EC6449;stroke-width:1.9082;}
	.st32{fill:none;stroke:#72C3A7;stroke-width:3.8164;}
	.st33{fill:none;stroke:#9E0142;stroke-width:5.7246;}
	.st34{fill:none;stroke:#CCEA9F;stroke-width:3.8164;}
	.st35{fill:none;stroke:#B11746;stroke-width:3.8164;}
	.st36{fill:none;stroke:#72C3A7;stroke-width:13.3575;}
	.st37{fill:none;stroke:#FDCA79;stroke-width:1.9082;}
	.st38{fill:none;stroke:#FBF8B0;stroke-width:7.6329;}
	.st39{fill:none;stroke:#F3784C;stroke-width:1.9082;}
	.st40{fill:none;stroke:#FBF8B0;stroke-width:5.7246;}
	.st41{fill:none;stroke:#89CFA5;stroke-width:1.9082;}
	.st42{fill:none;stroke:#A0D9A3;stroke-width:1.9082;}
	.st43{fill:none;stroke:#DDF1A0;stroke-width:3.8164;}
	.st44{fill:none;stroke:#FEE89A;stroke-width:1.9082;}
	.st45{fill:none;stroke:#72C3A7;stroke-width:9.5411;}
	.st46{fill:none;stroke:#FBF8B0;stroke-width:9.5411;}
	.st47{fill:none;stroke:#FEDA89;stroke-width:1.9082;}
	.st48{fill:none;stroke:#FBF8B0;stroke-width:3.8164;}
	.st49{fill:none;stroke:#CCEA9F;stroke-width:7.6329;}
	.st50{fill:none;stroke:#FBF8B0;stroke-width:1.9082;}
	.st51{fill:none;stroke:#D43F4B;stroke-width:1.9082;}
	.st52{fill:none;stroke:#FDB76B;stroke-width:3.8164;}
	.st53{fill:none;stroke:#F88E53;stroke-width:1.9082;}
	.st54{fill:none;stroke:#FDB76B;stroke-width:1.9082;}
	.st55{fill:none;stroke:#F5FAAD;stroke-width:1.9082;}
	.st56{fill:none;stroke:#F88E53;stroke-width:3.8164;}
	.st57{fill:none;stroke:#9E0142;stroke-width:1.9082;}
	.st58{fill:none;stroke:#C42C4A;stroke-width:1.9082;}
	.st59{fill:none;stroke:#FEE89A;stroke-width:7.6329;}
	.st60{fill:none;stroke:#E1524A;stroke-width:1.9082;}
	.st61{fill:none;stroke:#B11746;stroke-width:1.9082;}
	.st62{fill:none;stroke:#CCEA9F;stroke-width:5.7246;}
	.st63{fill:none;stroke:#EBF7A6;stroke-width:3.8164;}
	.st64{fill:none;stroke:#FDB76B;stroke-width:5.7246;}
	.st65{fill:none;stroke:#DDF1A0;stroke-width:1.9082;}
	.st66{fill:none;stroke:#EBF7A6;stroke-width:1.9082;}
	.st67{fill:none;stroke:#FBA35E;stroke-width:1.9082;}
	.st68{fill:none;stroke:#B7E2A1;stroke-width:1.9082;}
	.st69{opacity:0.64;}
	.st70{font-family:'Arial-BoldMT';}
	.st71{font-size:10px;}
	.st72{fill:#7B7B7B;}
	.st73{font-size:12px;}
</style>
<g id="Layer_2">
	<rect id="background" x="193" y="61" class="st0" width="805" height="600"/>
</g>
<g id="Layer_3">
	<g>
		<path class="st1" d="M208,527.1c192.5,0,192.5-23.3,385-23.3"/>
	</g>
	<g>
		<path class="st2" d="M208,560.5c192.5,0,192.5,42.5,385,42.5"/>
	</g>
	<g>
		<path class="st3" d="M208,259.5c192.5,0,192.5,217.6,385,217.6"/>
	</g>
	<g>
		<path class="st4" d="M208,183.7c192.5,0,192.5,143.4,385,143.4"/>
	</g>
	<g>
		<path class="st5" d="M208,393.3c192.5,0,192.5,184.9,385,184.9"/>
	</g>
	<g>
		<path class="st6" d="M208,426.9c192.5,0,192.5-235.2,385-235.2"/>
	</g>
	<g>
		<path class="st7" d="M208,414.5c192.5,0,192.5-296.5,385-296.5"/>
	</g>
	<g>
		<path class="st8" d="M208,283.6c192.5,0,192.5-147.2,385-147.2"/>
	</g>
	<g>
		<path class="st9" d="M208,324.6c192.5,0,192.5,4.4,385,4.4"/>
	</g>
	<g>
		<path class="st10" d="M208,455.6c192.5,0,192.5-177.8,385-177.8"/>
	</g>
	<g>
		<path class="st11" d="M208,486.1c192.5,0,192.5-92.9,385-92.9"/>
	</g>
	<g>
		<path class="st7" d="M208,433.6c192.5,0,192.5-230.2,385-230.2"/>
	</g>
	<g>
		<path class="st12" d="M208,224c192.5,0,192.5,124.4,385,124.4"/>
	</g>
	<g>
		<path class="st9" d="M208,378c192.5,0,192.5,168.4,385,168.4"/>
	</g>
	<g>
		<path class="st13" d="M208,335.1c192.5,0,192.5,32.3,385,32.3"/>
	</g>
	<g>
		<path class="st14" d="M208,375.2c192.5,0,192.5,153.9,385,153.9"/>
	</g>
	<g>
		<path class="st8" d="M208,356.1c192.5,0,192.5,93.1,385,93.1"/>
	</g>
	<g>
		<path class="st14" d="M208,321.7c192.5,0,192.5-10.1,385-10.1"/>
	</g>
	<g>
		<path class="st15" d="M208,167.2c192.5,0,192.5,390,385,390"/>
	</g>
	<g>
		<path class="st10" d="M208,543.3c192.5,0,192.5-9.5,385-9.5"/>
	</g>
	<g>
		<path class="st7" d="M208,460.3c192.5,0,192.5-167.1,385-167.1"/>
	</g>
	<g>
		<path class="st16" d="M208,186.5c192.5,0,192.5,154.2,385,154.2"/>
	</g>
	<g>
		<path class="st17" d="M208,158.6c192.5,0,192.5,178.2,385,178.2"/>
	</g>
	<g>
		<path class="st15" d="M208,152c192.5,0,192.5,8.8,385,8.8"/>
	</g>
	<g>
		<path class="st16" d="M208,177c192.5,0,192.5,58.6,385,58.6"/>
	</g>
	<g>
		<path class="st18" d="M208,245.2c192.5,0,192.5-33.9,385-33.9"/>
	</g>
	<g>
		<path class="st19" d="M208,210.6c192.5,0,192.5,30.7,385,30.7"/>
	</g>
	<g>
		<path class="st20" d="M208,266.2c192.5,0,192.5,294.8,385,294.8"/>
	</g>
	<g>
		<path class="st7" d="M208,548.1c192.5,0,192.5,1.2,385,1.2"/>
	</g>
	<g>
		<path class="st21" d="M208,233.5c192.5,0,192.5,239.8,385,239.8"/>
	</g>
	<g>
		<path class="st9" d="M208,303.6c192.5,0,192.5-90.5,385-90.5"/>
	</g>
	<g>
		<path class="st14" d="M208,300.8c192.5,0,192.5-115.7,385-115.7"/>
	</g>
	<g>
		<path class="st22" d="M208,347.5c192.5,0,192.5,69.7,385,69.7"/>
	</g>
	<g>
		<path class="st7" d="M208,437.4c192.5,0,192.5-221.4,385-221.4"/>
	</g>
	<g>
		<path class="st22" d="M208,276.9c192.5,0,192.5-163.6,385-163.6"/>
	</g>
	<g>
		<path class="st17" d="M208,154.8c192.5,0,192.5,76.9,385,76.9"/>
	</g>
	<g>
		<path class="st4" d="M208,191.3c192.5,0,192.5,279.1,385,279.1"/>
	</g>
	<g>
		<path class="st22" d="M208,290.3c192.5,0,192.5-138.4,385-138.4"/>
	</g>
	<g>
		<path class="st23" d="M208,215.4c192.5,0,192.5,71.2,385,71.2"/>
	</g>
	<g>
		<path class="st24" d="M208,466c192.5,0,192.5-148.7,385-148.7"/>
	</g>
	<g>
		<path class="st16" d="M208,180.8c192.5,0,192.5,121.3,385,121.3"/>
	</g>
	<g>
		<path class="st25" d="M208,446c192.5,0,192.5-184.7,385-184.7"/>
	</g>
	<g>
		<path class="st18" d="M208,262.4c192.5,0,192.5,282.2,385,282.2"/>
	</g>
	<g>
		<path class="st22" d="M208,296c192.5,0,192.5-126.5,385-126.5"/>
	</g>
	<g>
		<path class="st15" d="M208,165.3c192.5,0,192.5,303.2,385,303.2"/>
	</g>
	<g>
		<path class="st9" d="M208,315.1c192.5,0,192.5-41.1,385-41.1"/>
	</g>
	<g>
		<path class="st8" d="M208,310.3c192.5,0,192.5-59.5,385-59.5"/>
	</g>
	<g>
		<path class="st4" d="M208,174.1c192.5,0,192.5-48.2,385-48.2"/>
	</g>
	<g>
		<path class="st26" d="M208,366.6c192.5,0,192.5,119.1,385,119.1"/>
	</g>
	<g>
		<path class="st3" d="M208,250c192.5,0,192.5,57.8,385,57.8"/>
	</g>
	<g>
		<path class="st27" d="M208,421.2c192.5,0,192.5-247.9,385-247.9"/>
	</g>
	<g>
		<path class="st18" d="M208,256.6c192.5,0,192.5,175.2,385,175.2"/>
	</g>
	<g>
		<path class="st23" d="M208,205.8c192.5,0,192.5-25.6,385-25.6"/>
	</g>
	<g>
		<path class="st7" d="M208,418.3c192.5,0,192.5-276.2,385-276.2"/>
	</g>
	<g>
		<path class="st6" d="M208,510.9c192.5,0,192.5-53.1,385-53.1"/>
	</g>
	<g>
		<path class="st23" d="M208,230.6c192.5,0,192.5,213.8,385,213.8"/>
	</g>
	<g>
		<path class="st21" d="M208,203c192.5,0,192.5-74.2,385-74.2"/>
	</g>
	<g>
		<path class="st14" d="M208,317.9c192.5,0,192.5-28.5,385-28.5"/>
	</g>
	<g>
		<path class="st18" d="M208,247.1c192.5,0,192.5-1.1,385-1.1"/>
	</g>
	<g>
		<path class="st23" d="M208,217.3c192.5,0,192.5,87.6,385,87.6"/>
	</g>
	<g>
		<path class="st9" d="M208,351.3c192.5,0,192.5,82.4,385,82.4"/>
	</g>
	<g>
		<path class="st9" d="M208,305.5c192.5,0,192.5-81.7,385-81.7"/>
	</g>
	<g>
		<path class="st27" d="M208,539.5c192.5,0,192.5-18.3,385-18.3"/>
	</g>
	<g>
		<path class="st7" d="M208,504.2c192.5,0,192.5-67.6,385-67.6"/>
	</g>
	<g>
		<path class="st4" d="M208,189.4c192.5,0,192.5,240.5,385,240.5"/>
	</g>
	<g>
		<path class="st18" d="M208,241.4c192.5,0,192.5-109.7,385-109.7"/>
	</g>
	<g>
		<path class="st17" d="M208,162.4c192.5,0,192.5,264.6,385,264.6"/>
	</g>
	<g>
		<path class="st3" d="M208,253.8c192.5,0,192.5,102.2,385,102.2"/>
	</g>
	<g>
		<path class="st4" d="M208,193.2c192.5,0,192.5,349.5,385,349.5"/>
	</g>
	<g>
		<path class="st23" d="M208,200.1c192.5,0,192.5-90.7,385-90.7"/>
	</g>
	<g>
		<path class="st18" d="M208,243.3c192.5,0,192.5-61.1,385-61.1"/>
	</g>
	<g>
		<path class="st28" d="M598,478.1c192.5,0,192.5-339.6,385-339.6"/>
	</g>
	<g>
		<path class="st29" d="M598,606.8c192.5,0,192.5-9.9,385-9.9"/>
	</g>
	<g>
		<path class="st28" d="M598,497.1c192.5,0,192.5-45.4,385-45.4"/>
	</g>
	<g>
		<path class="st30" d="M598,329c192.5,0,192.5,255.2,385,255.2"/>
	</g>
	<g>
		<path class="st29" d="M598,593.5c192.5,0,192.5-255.4,385-255.4"/>
	</g>
	<g>
		<path class="st31" d="M598,182.2c192.5,0,192.5-55.1,385-55.1"/>
	</g>
	<g>
		<path class="st32" d="M598,577.2c192.5,0,192.5-291.4,385-291.4"/>
	</g>
	<g>
		<path class="st33" d="M598,111.4c192.5,0,192.5,58.1,385,58.1"/>
	</g>
	<g>
		<path class="st34" d="M598,500c192.5,0,192.5-28.9,385-28.9"/>
	</g>
	<g>
		<path class="st35" d="M598,128.8c192.5,0,192.5,45.5,385,45.5"/>
	</g>
	<g>
		<path class="st36" d="M598,585.8c192.5,0,192.5-275,385-275"/>
	</g>
	<g>
		<path class="st32" d="M598,609.7c192.5,0,192.5,12.2,385,12.2"/>
	</g>
	<g>
		<path class="st29" d="M598,566.7c192.5,0,192.5-424.5,385-424.5"/>
	</g>
	<g>
		<path class="st30" d="M598,327.1c192.5,0,192.5-103,385-103"/>
	</g>
	<g>
		<path class="st37" d="M598,279.7c192.5,0,192.5,154.9,385,154.9"/>
	</g>
	<g>
		<path class="st38" d="M598,384.6c192.5,0,192.5,58.6,385,58.6"/>
	</g>
	<g>
		<path class="st39" d="M598,202.4c192.5,0,192.5-97.6,385-97.6"/>
	</g>
	<g>
		<path class="st29" d="M598,574.4c192.5,0,192.5-314.8,385-314.8"/>
	</g>
	<g>
		<path class="st40" d="M598,391.3c192.5,0,192.5,75,385,75"/>
	</g>
	<g>
		<path class="st41" d="M598,544.6c192.5,0,192.5-335,385-335"/>
	</g>
	<g>
		<path class="st38" d="M598,346.4c192.5,0,192.5-151.2,385-151.2"/>
	</g>
	<g>
		<path class="st42" d="M598,531.9c192.5,0,192.5-324.3,385-324.3"/>
	</g>
	<g>
		<path class="st43" d="M598,460.6c192.5,0,192.5,151.7,385,151.7"/>
	</g>
	<g>
		<path class="st44" d="M598,320.2c192.5,0,192.5,287.4,385,287.4"/>
	</g>
	<g>
		<path class="st45" d="M598,561c192.5,0,192.5-444.7,385-444.7"/>
	</g>
	<g>
		<path class="st46" d="M598,360.7c192.5,0,192.5-112.6,385-112.6"/>
	</g>
	<g>
		<path class="st34" d="M598,488.5c192.5,0,192.5-231.8,385-231.8"/>
	</g>
	<g>
		<path class="st42" d="M598,530c192.5,0,192.5-389.6,385-389.6"/>
	</g>
	<g>
		<path class="st47" d="M598,288.5c192.5,0,192.5-157.6,385-157.6"/>
	</g>
	<g>
		<path class="st48" d="M598,336.9c192.5,0,192.5-262.1,385-262.1"/>
	</g>
	<g>
		<path class="st49" d="M598,471.4c192.5,0,192.5-385.1,385-385.1"/>
	</g>
	<g>
		<path class="st50" d="M598,400.8c192.5,0,192.5,105.3,385,105.3"/>
	</g>
	<g>
		<path class="st51" d="M598,160.7c192.5,0,192.5,364.9,385,364.9"/>
	</g>
	<g>
		<path class="st52" d="M598,235.6c192.5,0,192.5-48,385-48"/>
	</g>
	<g>
		<path class="st53" d="M598,211.2c192.5,0,192.5-28.4,385-28.4"/>
	</g>
	<g>
		<path class="st54" d="M598,242.2c192.5,0,192.5,104.6,385,104.6"/>
	</g>
	<g>
		<path class="st48" d="M598,378.9c192.5,0,192.5,40.2,385,40.2"/>
	</g>
	<g>
		<path class="st29" d="M598,597.3c192.5,0,192.5-175.4,385-175.4"/>
	</g>
	<g>
		<path class="st41" d="M598,546.5c192.5,0,192.5-92.8,385-92.8"/>
	</g>
	<g>
		<path class="st52" d="M598,231.7c192.5,0,192.5-79.7,385-79.7"/>
	</g>
	<g>
		<path class="st39" d="M598,204.3c192.5,0,192.5-75.4,385-75.4"/>
	</g>
	<g>
		<path class="st47" d="M598,294.2c192.5,0,192.5,353.9,385,353.9"/>
	</g>
	<g>
		<path class="st37" d="M598,273.9c192.5,0,192.5-7.4,385-7.4"/>
	</g>
	<g>
		<path class="st42" d="M598,533.9c192.5,0,192.5-230.6,385-230.6"/>
	</g>
	<g>
		<path class="st28" d="M598,506.7c192.5,0,192.5,59.9,385,59.9"/>
	</g>
	<g>
		<path class="st53" d="M598,213.1c192.5,0,192.5,80.5,385,80.5"/>
	</g>
	<g>
		<path class="st31" d="M598,184.1c192.5,0,192.5-3.2,385-3.2"/>
	</g>
	<g>
		<path class="st28" d="M598,491.4c192.5,0,192.5-215.4,385-215.4"/>
	</g>
	<g>
		<path class="st50" d="M598,341.7c192.5,0,192.5-186.7,385-186.7"/>
	</g>
	<g>
		<path class="st55" d="M598,415.3c192.5,0,192.5-258.5,385-258.5"/>
	</g>
	<g>
		<path class="st50" d="M598,374.1c192.5,0,192.5,24.5,385,24.5"/>
	</g>
	<g>
		<path class="st50" d="M598,402.7c192.5,0,192.5,124.8,385,124.8"/>
	</g>
	<g>
		<path class="st56" d="M598,216c192.5,0,192.5,343.9,385,343.9"/>
	</g>
	<g>
		<path class="st57" d="M598,117.1c192.5,0,192.5,227.9,385,227.9"/>
	</g>
	<g>
		<path class="st55" d="M598,419.2c192.5,0,192.5-83,385-83"/>
	</g>
	<g>
		<path class="st52" d="M598,239.4c192.5,0,192.5,2.1,385,2.1"/>
	</g>
	<g>
		<path class="st28" d="M598,504.8c192.5,0,192.5,36.6,385,36.6"/>
	</g>
	<g>
		<path class="st58" d="M598,150c192.5,0,192.5,27.1,385,27.1"/>
	</g>
	<g>
		<path class="st50" d="M598,404.6c192.5,0,192.5,190.4,385,190.4"/>
	</g>
	<g>
		<path class="st28" d="M598,476.1c192.5,0,192.5-369.4,385-369.4"/>
	</g>
	<g>
		<path class="st47" d="M598,292.3c192.5,0,192.5,144.2,385,144.2"/>
	</g>
	<g>
		<path class="st59" d="M598,307.8c192.5,0,192.5-36.5,385-36.5"/>
	</g>
	<g>
		<path class="st44" d="M598,318.3c192.5,0,192.5,264,385,264"/>
	</g>
	<g>
		<path class="st41" d="M598,542.7c192.5,0,192.5-432.1,385-432.1"/>
	</g>
	<g>
		<path class="st50" d="M598,406.5c192.5,0,192.5,203,385,203"/>
	</g>
	<g>
		<path class="st60" d="M598,167.6c192.5,0,192.5,11.4,385,11.4"/>
	</g>
	<g>
		<path class="st29" d="M598,612.5c192.5,0,192.5,26.8,385,26.8"/>
	</g>
	<g>
		<path class="st28" d="M598,502.9c192.5,0,192.5,31.6,385,31.6"/>
	</g>
	<g>
		<path class="st37" d="M598,277.8c192.5,0,192.5,138.4,385,138.4"/>
	</g>
	<g>
		<path class="st44" d="M598,303c192.5,0,192.5-112.6,385-112.6"/>
	</g>
	<g>
		<path class="st61" d="M598,131.6c192.5,0,192.5,88.6,385,88.6"/>
	</g>
	<g>
		<path class="st32" d="M598,571.5c192.5,0,192.5-359.1,385-359.1"/>
	</g>
	<g>
		<path class="st52" d="M598,260.4c192.5,0,192.5,303.4,385,303.4"/>
	</g>
	<g>
		<path class="st62" d="M598,510.5c192.5,0,192.5,106.7,385,106.7"/>
	</g>
	<g>
		<path class="st40" d="M598,353.1c192.5,0,192.5-125.2,385-125.2"/>
	</g>
	<g>
		<path class="st44" d="M598,314.5c192.5,0,192.5,123.9,385,123.9"/>
	</g>
	<g>
		<path class="st60" d="M598,173.3c192.5,0,192.5,402.1,385,402.1"/>
	</g>
	<g>
		<path class="st63" d="M598,436.6c192.5,0,192.5,12.3,385,12.3"/>
	</g>
	<g>
		<path class="st64" d="M598,253.7c192.5,0,192.5,177.1,385,177.1"/>
	</g>
	<g>
		<path class="st31" d="M598,189.8c192.5,0,192.5,314.4,385,314.4"/>
	</g>
	<g>
		<path class="st35" d="M598,136.4c192.5,0,192.5,419.7,385,419.7"/>
	</g>
	<g>
		<path class="st28" d="M598,495.2c192.5,0,192.5-193.9,385-193.9"/>
	</g>
	<g>
		<path class="st65" d="M598,452.1c192.5,0,192.5-198.2,385-198.2"/>
	</g>
	<g>
		<path class="st62" d="M598,483.8c192.5,0,192.5-280,385-280"/>
	</g>
	<g>
		<path class="st65" d="M598,454c192.5,0,192.5-96.4,385-96.4"/>
	</g>
	<g>
		<path class="st35" d="M598,142.1c192.5,0,192.5,488.6,385,488.6"/>
	</g>
	<g>
		<path class="st43" d="M598,445.4c192.5,0,192.5-364.8,385-364.8"/>
	</g>
	<g>
		<path class="st47" d="M598,290.4c192.5,0,192.5-68.2,385-68.2"/>
	</g>
	<g>
		<path class="st40" d="M598,397c192.5,0,192.5,85.7,385,85.7"/>
	</g>
	<g>
		<path class="st29" d="M598,603c192.5,0,192.5-34.5,385-34.5"/>
	</g>
	<g>
		<path class="st50" d="M598,339.7c192.5,0,192.5-207,385-207"/>
	</g>
	<g>
		<path class="st29" d="M598,601.1c192.5,0,192.5-127.2,385-127.2"/>
	</g>
	<g>
		<path class="st54" d="M598,267c192.5,0,192.5,379.2,385,379.2"/>
	</g>
	<g>
		<path class="st28" d="M598,514.3c192.5,0,192.5,135.7,385,135.7"/>
	</g>
	<g>
		<path class="st66" d="M598,428c192.5,0,192.5-228,385-228"/>
	</g>
	<g>
		<path class="st67" d="M598,223.9c192.5,0,192.5-39.1,385-39.1"/>
	</g>
	<g>
		<path class="st44" d="M598,312.6c192.5,0,192.5-17,385-17"/>
	</g>
	<g>
		<path class="st43" d="M598,449.2c192.5,0,192.5-313.6,385-313.6"/>
	</g>
	<g>
		<path class="st60" d="M598,169.5c192.5,0,192.5,162.8,385,162.8"/>
	</g>
	<g>
		<path class="st68" d="M598,521.2c192.5,0,192.5-34.7,385-34.7"/>
	</g>
	<g>
		<path class="st28" d="M598,493.3c192.5,0,192.5-210.4,385-210.4"/>
	</g>
	<g>
		<path class="st50" d="M598,370.3c192.5,0,192.5-36.1,385-36.1"/>
	</g>
	<g>
		<path class="st48" d="M598,367.4c192.5,0,192.5-68.9,385-68.9"/>
	</g>
	<g>
		<path class="st41" d="M598,548.4c192.5,0,192.5-59.9,385-59.9"/>
	</g>
	<g>
		<path class="st61" d="M598,133.5c192.5,0,192.5,390.2,385,390.2"/>
	</g>
	<g>
		<path class="st44" d="M598,316.4c192.5,0,192.5,198.5,385,198.5"/>
	</g>
	<g>
		<path class="st60" d="M598,171.4c192.5,0,192.5,205.7,385,205.7"/>
	</g>
	<g>
		<path class="st31" d="M598,187.9c192.5,0,192.5,205,385,205"/>
	</g>
	<g>
		<path class="st28" d="M598,480c192.5,0,192.5-321.2,385-321.2"/>
	</g>
	<g>
		<path class="st63" d="M598,430.8c192.5,0,192.5-76.1,385-76.1"/>
	</g>
	<g>
		<path class="st31" d="M598,191.7c192.5,0,192.5,321.3,385,321.3"/>
	</g>
	<g>
		<path class="st50" d="M598,408.4c192.5,0,192.5,229,385,229"/>
	</g>
	<g>
		<path class="st42" d="M598,535.8c192.5,0,192.5-18.9,385-18.9"/>
	</g>
	<g>
		<path class="st65" d="M598,457.8c192.5,0,192.5,39.5,385,39.5"/>
	</g>
	<g>
		<path class="st61" d="M598,125.9c192.5,0,192.5,23.3,385,23.3"/>
	</g>
	<g>
		<path class="st29" d="M598,604.9c192.5,0,192.5-16.8,385-16.8"/>
	</g>
	<g>
		<path class="st29" d="M598,599.2c192.5,0,192.5-143.6,385-143.6"/>
	</g>
	<g>
		<path class="st52" d="M598,248.9c192.5,0,192.5,146.8,385,146.8"/>
	</g>
	<g>
		<path class="st41" d="M598,550.3c192.5,0,192.5,35.9,385,35.9"/>
	</g>
	<g>
		<path class="st57" d="M598,119c192.5,0,192.5,271.9,385,271.9"/>
	</g>
	<g>
		<path class="st50" d="M598,376c192.5,0,192.5,31.4,385,31.4"/>
	</g>
	<g>
		<path class="st44" d="M598,301.1C790.5,301.1,790.5,72,983,72"/>
	</g>
	<g>
		<path class="st42" d="M598,528.1c192.5,0,192.5-419.5,385-419.5"/>
	</g>
	<g>
		<path class="st29" d="M598,595.4c192.5,0,192.5-225.2,385-225.2"/>
	</g>
	<g>
		<path class="st52" d="M598,245.1c192.5,0,192.5,122.3,385,122.3"/>
	</g>
	<g>
		<path class="st66" d="M598,426.1c192.5,0,192.5-348.4,385-348.4"/>
	</g>
	<g>
		<path class="st61" d="M598,139.3c192.5,0,192.5,464.5,385,464.5"/>
	</g>
	<g>
		<path class="st54" d="M598,257.5c192.5,0,192.5,205,385,205"/>
	</g>
	<g>
		<path class="st58" d="M598,153.8c192.5,0,192.5,341.6,385,341.6"/>
	</g>
	<g>
		<path class="st47" d="M598,286.6c192.5,0,192.5-188.6,385-188.6"/>
	</g>
	<g>
		<path class="st37" d="M598,275.9c192.5,0,192.5,49.6,385,49.6"/>
	</g>
	<g>
		<path class="st31" d="M598,180.3c192.5,0,192.5-84.2,385-84.2"/>
	</g>
	<g>
		<path class="st58" d="M598,151.9c192.5,0,192.5,212.6,385,212.6"/>
	</g>
	<g>
		<path class="st31" d="M598,195.5c192.5,0,192.5,438.1,385,438.1"/>
	</g>
	<g>
		<path class="st55" d="M598,417.3c192.5,0,192.5-185.5,385-185.5"/>
	</g>
	<g>
		<path class="st54" d="M598,265.1c192.5,0,192.5,370.4,385,370.4"/>
	</g>
	<g>
		<path class="st57" d="M598,115.2c192.5,0,192.5,123.4,385,123.4"/>
	</g>
	<g>
		<path class="st31" d="M598,193.6c192.5,0,192.5,354.6,385,354.6"/>
	</g>
	<g>
		<path class="st50" d="M598,372.2c192.5,0,192.5,11.8,385,11.8"/>
	</g>
	<g>
		<path class="st66" d="M598,433.7c192.5,0,192.5-33.2,385-33.2"/>
	</g>
	<g>
		<path class="st65" d="M598,455.9c192.5,0,192.5-46.6,385-46.6"/>
	</g>
	<g>
		<path class="st54" d="M598,263.2c192.5,0,192.5,342.5,385,342.5"/>
	</g>
	<g>
		<path class="st29" d="M598,568.7c192.5,0,192.5-408,385-408"/>
	</g>
	<g>
		<path class="st31" d="M598,186c192.5,0,192.5,137.5,385,137.5"/>
	</g>
</g>
<g id="Layer_4">
	<rect x="597.8" y="104.9" class="st69" width="28" height="512.6"/>
</g>
<g id="Layer_1">
	<g>
		<rect x="593" y="108.5" width="5" height="11.4"/>
		<rect x="593" y="124.9" width="5" height="19.1"/>
		<rect x="593" y="149" width="5" height="5.7"/>
		<rect x="593" y="159.8" width="5" height="1.9"/>
		<rect x="593" y="166.7" width="5" height="7.6"/>
		<rect x="593" y="179.3" width="5" height="17.2"/>
		<rect x="593" y="201.5" width="5" height="3.8"/>
		<rect x="593" y="210.3" width="5" height="7.6"/>
		<rect x="593" y="222.9" width="5" height="1.9"/>
		<rect x="593" y="229.8" width="5" height="38.2"/>
		<rect x="593" y="273" width="5" height="7.6"/>
		<rect x="593" y="285.6" width="5" height="9.5"/>
		<rect x="593" y="300.2" width="5" height="21"/>
		<rect x="593" y="326.2" width="5" height="3.8"/>
		<rect x="593" y="335" width="5" height="74.4"/>
		<rect x="593" y="414.4" width="5" height="5.7"/>
		<rect x="593" y="425.1" width="5" height="13.4"/>
		<rect x="593" y="443.5" width="5" height="19.1"/>
		<rect x="593" y="467.6" width="5" height="47.7"/>
		<rect x="593" y="520.3" width="5" height="1.9"/>
		<rect x="593" y="527.2" width="5" height="9.5"/>
		<rect x="593" y="541.7" width="5" height="9.5"/>
		<rect x="593" y="556.3" width="5" height="57.2"/>
		<rect x="983" y="71" width="5" height="19.1"/>
		<rect x="983" y="95.1" width="5" height="3.8"/>
		<rect x="983" y="103.9" width="5" height="17.2"/>
		<rect x="983" y="126.1" width="5" height="17.2"/>
		<rect x="983" y="148.2" width="5" height="13.4"/>
		<rect x="203" y="151" width="5" height="17.2"/>
		<rect x="203" y="173.2" width="5" height="21"/>
		<rect x="203" y="199.2" width="5" height="36.3"/>
		<rect x="203" y="240.4" width="5" height="28.6"/>
		<rect x="203" y="274" width="5" height="133.6"/>
		<rect x="203" y="412.6" width="5" height="158.4"/>
		<rect x="983" y="166.6" width="5" height="47.7"/>
		<rect x="983" y="219.3" width="5" height="13.4"/>
		<rect x="983" y="237.7" width="5" height="22.9"/>
		<rect x="983" y="265.6" width="5" height="11.4"/>
		<rect x="983" y="282" width="5" height="5.7"/>
		<rect x="983" y="292.7" width="5" height="24.8"/>
		<rect x="983" y="322.5" width="5" height="3.8"/>
		<rect x="983" y="331.4" width="5" height="7.6"/>
		<rect x="983" y="344" width="5" height="3.8"/>
		<rect x="983" y="352.8" width="5" height="5.7"/>
		<rect x="983" y="363.5" width="5" height="7.6"/>
		<rect x="983" y="376.2" width="5" height="1.9"/>
		<rect x="983" y="383.1" width="5" height="1.9"/>
		<rect x="983" y="390" width="5" height="11.4"/>
		<rect x="983" y="406.4" width="5" height="3.8"/>
		<rect x="983" y="415.3" width="5" height="7.6"/>
		<rect x="983" y="427.9" width="5" height="28.6"/>
		<rect x="983" y="461.5" width="5" height="13.4"/>
		<rect x="983" y="479.9" width="5" height="9.5"/>
		<rect x="983" y="494.4" width="5" height="3.8"/>
		<rect x="983" y="503.2" width="5" height="3.8"/>
		<rect x="983" y="512" width="5" height="5.7"/>
		<rect x="983" y="522.8" width="5" height="5.7"/>
		<rect x="983" y="533.5" width="5" height="1.9"/>
		<rect x="983" y="540.4" width="5" height="1.9"/>
		<rect x="983" y="547.3" width="5" height="1.9"/>
		<rect x="983" y="554.2" width="5" height="15.3"/>
		<rect x="983" y="574.5" width="5" height="1.9"/>
		<rect x="983" y="581.4" width="5" height="7.6"/>
		<rect x="983" y="594" width="5" height="3.8"/>
		<rect x="983" y="602.8" width="5" height="21"/>
		<rect x="983" y="628.8" width="5" height="11.4"/>
		<rect x="983" y="645.3" width="5" height="5.7"/>
	</g>
	<text transform="matrix(1 0 0 1 602 116.7057)" class="st0 st70 st71">4</text>
	<text transform="matrix(1 0 0 1 602 136.9713)" class="st0 st70 st71">4.5</text>
	<text transform="matrix(1 0 0 1 602 154.3748)" class="st0 st70 st71">4.6</text>
	<text transform="matrix(1 0 0 1 602 163.1912)" class="st0 st70 st71">4.7</text>
	<text transform="matrix(1 0 0 1 602 172.9617)" class="st0 st70 st71">4.8</text>
	<text transform="matrix(1 0 0 1 602 190.3651)" class="st0 st70 st71">5</text>
	<text transform="matrix(1 0 0 1 602 205.8602)" class="st0 st70 st71">5.2</text>
	<text transform="matrix(1 0 0 1 602 216.5848)" class="st0 st70 st71">5.3</text>
	<text transform="matrix(1 0 0 1 602 226.3554)" class="st0 st70 st71">5.4</text>
	<text transform="matrix(1 0 0 1 602 251.3916)" class="st0 st70 st71">5.5</text>
	<text transform="matrix(1 0 0 1 602 279.2902)" class="st0 st70 st71">5.6</text>
	<text transform="matrix(1 0 0 1 602 292.8771)" class="st0 st70 st71">5.7</text>
	<text transform="matrix(1 0 0 1 602 313.1428)" class="st0 st70 st71">5.8</text>
	<text transform="matrix(1 0 0 1 602 330.5462)" class="st0 st70 st71">5.9</text>
	<text transform="matrix(1 0 0 1 602 374.6646)" class="st0 st70 st71">6</text>
	<text transform="matrix(1 0 0 1 602 419.7371)" class="st0 st70 st71">6.1</text>
	<text transform="matrix(1 0 0 1 602 434.2781)" class="st0 st70 st71">6.2</text>
	<text transform="matrix(1 0 0 1 602 455.4979)" class="st0 st70 st71">6.3</text>
	<text transform="matrix(1 0 0 1 602 493.8916)" class="st0 st70 st71">6.5</text>
	<text transform="matrix(1 0 0 1 602 523.6984)" class="st0 st70 st71">6.6</text>
	<text transform="matrix(1 0 0 1 602 534.423)" class="st0 st70 st71">6.7</text>
	<text transform="matrix(1 0 0 1 602 548.9641)" class="st0 st70 st71">6.8</text>
	<text transform="matrix(1 0 0 1 602 587.3578)" class="st0 st70 st71">7</text>
	<text transform="matrix(1 0 0 1 995.626 82.0221)" class="st70 st71">Abud Carrillo, Jenny</text>
	<text transform="matrix(1 0 0 1 995.626 98.4713)" class="st70 st71">Benavides Bermúdez, Paola</text>
	<text transform="matrix(1 0 0 1 995.626 113.9666)" class="st70 st71">Castillo Espinoza, Eduardo</text>
	<text transform="matrix(1 0 0 1 995.626 136.1404)" class="st70 st71">Cortez Orellana, Felipe</text>
	<text transform="matrix(1 0 0 1 995.626 156.4061)" class="st70 st71">De la Sotta Lazzerini, Paola</text>
	<text transform="matrix(1 0 0 1 144.5132 163.068)" class="st70 st71">Diseñador</text>
	<text transform="matrix(1 0 0 1 129.085 187.1501)" class="st70 st71">Diseñador I-S</text>
	<text transform="matrix(1 0 0 1 124.085 220.7733)" class="st70 st71">Diseñador V-M</text>
	<text transform="matrix(1 0 0 1 139.0801 258.2129)" class="st70 st71">Diseñadora</text>
	<text transform="matrix(1 0 0 1 123.5234 344.312)" class="st70 st71">Diseñadora I-S</text>
	<text transform="matrix(1 0 0 1 118.5234 495.2902)" class="st70 st71">Diseñadora V-M</text>
	<text transform="matrix(1 0 0 1 995.626 191.9375)" class="st70 st71">Domínguez González, Pablo</text>
	<text transform="matrix(1 0 0 1 995.626 227.4689)" class="st70 st71">Donoso Cisternas, Sergio</text>
	<text transform="matrix(1 0 0 1 995.626 250.5969)" class="st70 st71">Dueñas Santander, Rodrigo</text>
	<text transform="matrix(1 0 0 1 995.626 272.7709)" class="st70 st71">Gatica Ramírez, Pamela</text>
	<text transform="matrix(1 0 0 1 995.626 286.3578)" class="st70 st71">Gómez Moya, Cristián</text>
	<text transform="matrix(1 0 0 1 995.626 306.6235)" class="st70 st71">Jacob Dazarola, Rubén</text>
	<text transform="matrix(1 0 0 1 995.626 325.9351)" class="st70 st71">Jove Avilés, Trinidad</text>
	<text transform="matrix(1 0 0 1 995.626 336.6597)" class="st70 st71">Lares López, Lorna</text>
	<text transform="matrix(1 0 0 1 995.626 347.3844)" class="st70 st71">Lepe Muñoz, Juan Carlos</text>
	<text transform="matrix(1 0 0 1 995.626 357.1549)" class="st70 st71">Maldonado de la Fuente, Felix</text>
	<text transform="matrix(1 0 0 1 995.626 368.8337)" class="st70 st71">Marín Pacheco, Antonio</text>
	<text transform="matrix(1 0 0 1 995.626 378.6042)" class="st70 st71">Molina Oyarzún, Raúl</text>
	<text transform="matrix(1 0 0 1 995.626 385.5124)" class="st70 st71">Mora Briones, Alfredo</text>
	<text transform="matrix(1 0 0 1 995.626 397.1912)" class="st70 st71">Morales Mujica, María Paz</text>
	<text transform="matrix(1 0 0 1 995.626 409.824)" class="st70 st71">Méndez Olivares, Iván</text>
	<text transform="matrix(1 0 0 1 995.626 420.5486)" class="st70 st71">Nuñez Gutiérrez, Pablo</text>
	<text transform="matrix(1 0 0 1 995.626 443.6766)" class="st70 st71">Ode Saleh, Verónica</text>
	<text transform="matrix(1 0 0 1 995.626 470.667)" class="st70 st71">Osses Flores, Roberto</text>
	<text transform="matrix(1 0 0 1 995.626 487.1163)" class="st70 st71">Pagueguy Fenner, Sebastián</text>
	<text transform="matrix(1 0 0 1 995.626 498.795)" class="st70 st71">Perea Morales, René</text>
	<text transform="matrix(1 0 0 1 995.626 508.6115)" class="st70 st71">Perelli Soto, Bruno</text>
	<text transform="matrix(1 0 0 1 995.626 518.382)" class="st70 st71">Pradenas Guentherodt, Gabriela</text>
	<text transform="matrix(1 0 0 1 995.626 527.1066)" class="st70 st71">Reyes León, Daniel</text>
	<text transform="matrix(1 0 0 1 995.626 535.923)" class="st70 st71">Ruiz Balart, Macarena</text>
	<text transform="matrix(1 0 0 1 995.626 543.8312)" class="st70 st71">Santibañez Boric, Mónica</text>
	<text transform="matrix(1 0 0 1 995.626 552.7394)" class="st70 st71">Silva Roquefort, Rebeca</text>
	<text transform="matrix(1 0 0 1 995.626 563.3264)" class="st70 st71">Soto Calquín, Leonardo</text>
	<text transform="matrix(1 0 0 1 995.626 577.9134)" class="st70 st71">Stange Marcus, Hans</text>
	<text transform="matrix(1 0 0 1 995.626 588.6839)" class="st70 st71">Tapia Reyes, Mauricio</text>
	<text transform="matrix(1 0 0 1 995.626 599.4086)" class="st70 st71">Vico Sánchez, Mauricio</text>
	<text transform="matrix(1 0 0 1 995.626 616.812)" class="st70 st71">Wechsler Pizarro, Andrea</text>
	<text transform="matrix(1 0 0 1 995.6416 638.0317)" class="st70 st71">Young Araya, Mariana</text>
	<text transform="matrix(1 0 0 1 995.626 651.6187)" class="st70 st71">Zorzano Betancourt, Osvaldo</text>
	<text transform="matrix(1 0 0 1 569.1592 91.5)" class="st72 st70 st73">nota_proyecto</text>
	<text transform="matrix(1 0 0 1 954.8291 56)" class="st72 st70 st73">profe_guia</text>
	<text transform="matrix(1 0 0 1 155.165 136)" class="st72 st70 st73">titulo_profesional</text>
</g>
</svg>
