<?xml version="1.0" encoding="utf-8"?>
<!-- Generator: Adobe Illustrator 26.3.0, SVG Export Plug-In . SVG Version: 6.00 Build 0)  -->
<svg version="1.1" xmlns="http://www.w3.org/2000/svg" xmlns:xlink="http://www.w3.org/1999/xlink" x="0px" y="0px"
	 viewBox="0 0 930.6 631.6" style="enable-background:new 0 0 930.6 631.6;" xml:space="preserve">
<style type="text/css">
	.st0{fill:#FFFFFF;stroke:#000000;stroke-miterlimit:10;}
	.st1{fill:none;stroke:#000000;}
	.st2{display:none;}
	.st3{display:inline;}
	.st4{fill:none;stroke:#000000;stroke-width:0.5;stroke-miterlimit:10;}
	.st5{opacity:0.11;fill:#00B9D4;enable-background:new    ;}
	.st6{fill:none;stroke:#FF7F0E;stroke-dasharray:4;}
	.st7{fill:none;stroke:#FF7F0E;}
	.st8{fill:#FF7F0E;}
	.st9{fill:none;stroke:#FFFFFF;}
	.st10{fill:none;stroke:#D62728;stroke-dasharray:4;}
	.st11{fill:none;stroke:#D62728;}
	.st12{fill:#D62728;}
	.st13{fill:none;stroke:#8C564B;stroke-dasharray:4;}
	.st14{fill:none;stroke:#8C564B;}
	.st15{fill:#8C564B;}
	.st16{fill:none;stroke:#2CA02C;stroke-dasharray:4;}
	.st17{fill:none;stroke:#2CA02C;}
	.st18{fill:#2CA02C;}
	.st19{fill:none;stroke:#9467BD;stroke-dasharray:4;}
	.st20{fill:none;stroke:#9467BD;}
	.st21{fill:#9467BD;}
	.st22{fill:none;stroke:#1F77B4;stroke-dasharray:4;}
	.st23{fill:none;stroke:#1F77B4;}
	.st24{fill:#1F77B4;}
	.st25{font-family:'ArialMT';}
	.st26{font-size:10px;}
	.st27{display:inline;fill:#7B7B7B;}
	.st28{font-family:'Arial-BoldMT';}
	.st29{font-size:12px;}
	.st30{enable-background:new    ;}
	.st31{fill:#7B7B7B;}
</style>
<g id="Capa_2">
	<rect class="st0" width="930.6" height="631.6"/>
</g>
<g id="Capa_3">
</g>
<g id="Capa_1">
	<g id="Layer_2">
	</g>
	<path class="st1" d="M35.2,604.8h6.5v-560h-6.5"/>
	<line class="st1" x1="41.2" y1="604.8" x2="35.2" y2="604.8"/>
	<line class="st1" x1="41.2" y1="567.5" x2="35.2" y2="567.5"/>
	<line class="st1" x1="41.2" y1="530.1" x2="35.2" y2="530.1"/>
	<line class="st1" x1="41.2" y1="492.8" x2="35.2" y2="492.8"/>
	<line class="st1" x1="41.2" y1="455.5" x2="35.2" y2="455.5"/>
	<line class="st1" x1="41.2" y1="418.1" x2="35.2" y2="418.1"/>
	<line class="st1" x1="41.2" y1="380.8" x2="35.2" y2="380.8"/>
	<line class="st1" x1="41.2" y1="343.5" x2="35.2" y2="343.5"/>
	<line class="st1" x1="41.2" y1="306.1" x2="35.2" y2="306.1"/>
	<line class="st1" x1="41.2" y1="268.8" x2="35.2" y2="268.8"/>
	<line class="st1" x1="41.2" y1="231.5" x2="35.2" y2="231.5"/>
	<line class="st1" x1="41.2" y1="194.1" x2="35.2" y2="194.1"/>
	<line class="st1" x1="41.2" y1="156.8" x2="35.2" y2="156.8"/>
	<line class="st1" x1="41.2" y1="119.5" x2="35.2" y2="119.5"/>
	<line class="st1" x1="41.2" y1="82.1" x2="35.2" y2="82.1"/>
	<line class="st1" x1="41.2" y1="44.8" x2="35.2" y2="44.8"/>
	<path class="st1" d="M41.7,610.3v-5.5h874.6v5.5"/>
	<g id="Layer_4" class="st2">
		<g class="st3">
			<rect x="41.2" y="31.6" class="st4" width="1749.1" height="600"/>
			<line class="st4" x1="41.2" y1="531.6" x2="1790.3" y2="531.6"/>
			<line class="st4" x1="41.2" y1="431.6" x2="1790.3" y2="431.6"/>
			<line class="st4" x1="41.2" y1="331.6" x2="1790.3" y2="331.6"/>
			<line class="st4" x1="41.2" y1="231.6" x2="1790.3" y2="231.6"/>
			<line class="st4" x1="41.2" y1="131.6" x2="1790.3" y2="131.6"/>
			<line class="st4" x1="1498.8" y1="31.6" x2="1498.8" y2="631.6"/>
			<line class="st4" x1="1207.3" y1="31.6" x2="1207.3" y2="631.6"/>
			<line class="st4" x1="915.8" y1="31.6" x2="915.8" y2="631.6"/>
			<line class="st4" x1="624.2" y1="31.6" x2="624.2" y2="631.6"/>
			<line class="st4" x1="332.7" y1="31.6" x2="332.7" y2="631.6"/>
		</g>
	</g>
	<g id="Layer_5">
		<rect x="41.2" y="31.6" class="st5" width="291.5" height="572.8"/>
		<rect x="624.7" y="31.6" class="st5" width="291.5" height="572.8"/>
	</g>
	<line class="st1" x1="121.7" y1="604.3" x2="121.7" y2="610.3"/>
	<line class="st1" x1="701.7" y1="604.3" x2="701.7" y2="610.3"/>
	<line class="st1" x1="561.5" y1="604.8" x2="561.5" y2="610.8"/>
	<line class="st1" x1="406.8" y1="603.5" x2="406.8" y2="609.5"/>
	<line class="st1" x1="269.7" y1="604.3" x2="269.7" y2="610.3"/>
	<line class="st1" x1="841.7" y1="604.3" x2="841.7" y2="610.3"/>
	<g>
		<line class="st6" x1="121.2" y1="44.3" x2="121.2" y2="604.3"/>
		<line class="st7" x1="111.2" y1="44.3" x2="131.2" y2="44.3"/>
		<line class="st7" x1="111.2" y1="604.3" x2="131.2" y2="604.3"/>
		<rect x="111.2" y="137.7" class="st8" width="20" height="177.3"/>
		<line class="st9" x1="111.2" y1="231" x2="131.2" y2="231"/>
	</g>
	<line class="st10" x1="701.2" y1="44.3" x2="701.2" y2="511"/>
	<line class="st11" x1="691.2" y1="44.3" x2="711.2" y2="44.3"/>
	<line class="st11" x1="691.2" y1="511" x2="711.2" y2="511"/>
	<rect x="691.2" y="109.7" class="st12" width="20" height="186.7"/>
	<line class="st9" x1="691.2" y1="231" x2="711.2" y2="231"/>
	<line class="st13" x1="561" y1="82.2" x2="561" y2="511.5"/>
	<line class="st14" x1="551" y1="82.2" x2="571" y2="82.2"/>
	<line class="st14" x1="551" y1="511.5" x2="571" y2="511.5"/>
	<rect x="551" y="212.8" class="st15" width="20" height="84"/>
	<line class="st9" x1="551" y1="250.2" x2="571" y2="250.2"/>
	<line class="st16" x1="406.3" y1="43.5" x2="406.3" y2="603.5"/>
	<line class="st17" x1="396.3" y1="43.5" x2="416.3" y2="43.5"/>
	<line class="st17" x1="396.3" y1="603.5" x2="416.3" y2="603.5"/>
	<rect x="396.3" y="108.9" class="st18" width="20" height="214.7"/>
	<line class="st9" x1="396.3" y1="230.2" x2="416.3" y2="230.2"/>
	<line class="st19" x1="269.2" y1="137.7" x2="269.2" y2="604.3"/>
	<line class="st20" x1="259.2" y1="137.7" x2="279.2" y2="137.7"/>
	<line class="st20" x1="259.2" y1="604.3" x2="279.2" y2="604.3"/>
	<rect x="259.2" y="231" class="st21" width="20" height="93.3"/>
	<line class="st9" x1="259.2" y1="268.3" x2="279.2" y2="268.3"/>
	<line class="st22" x1="841.2" y1="44.3" x2="841.2" y2="473.7"/>
	<line class="st23" x1="831.2" y1="44.3" x2="851.2" y2="44.3"/>
	<line class="st23" x1="831.2" y1="473.7" x2="851.2" y2="473.7"/>
	<rect x="831.2" y="193.7" class="st24" width="20" height="130.7"/>
	<line class="st9" x1="831.2" y1="231" x2="851.2" y2="231"/>
</g>
<g id="Capa_4" class="st2">
	<text transform="matrix(1 0 0 1 18.2994 608.0491)" class="st3 st25 st26">4.0</text>
	<text transform="matrix(1 0 0 1 18.2994 570.7158)" class="st3 st25 st26">4.2</text>
	<text transform="matrix(1 0 0 1 18.2994 533.3823)" class="st3 st25 st26">4.4</text>
	<text transform="matrix(1 0 0 1 18.2994 496.0491)" class="st3 st25 st26">4.6</text>
	<text transform="matrix(1 0 0 1 18.2994 458.7156)" class="st3 st25 st26">4.8</text>
	<text transform="matrix(1 0 0 1 18.2994 421.3823)" class="st3 st25 st26">5.0</text>
	<text transform="matrix(1 0 0 1 18.2994 384.0491)" class="st3 st25 st26">5.2</text>
	<text transform="matrix(1 0 0 1 18.2994 346.7156)" class="st3 st25 st26">5.4</text>
	<text transform="matrix(1 0 0 1 18.2994 309.3823)" class="st3 st25 st26">5.6</text>
	<text transform="matrix(1 0 0 1 18.2994 272.049)" class="st3 st25 st26">5.8</text>
	<text transform="matrix(1 0 0 1 18.2994 234.7158)" class="st3 st25 st26">6.0</text>
	<text transform="matrix(1 0 0 1 18.2994 197.3823)" class="st3 st25 st26">6.2</text>
	<text transform="matrix(1 0 0 1 18.2994 160.049)" class="st3 st25 st26">6.4</text>
	<text transform="matrix(1 0 0 1 18.2994 122.7156)" class="st3 st25 st26">6.6</text>
	<text transform="matrix(1 0 0 1 18.2994 85.3823)" class="st3 st25 st26">6.8</text>
	<text transform="matrix(1 0 0 1 18.2994 48.049)" class="st3 st25 st26">7.0</text>
	<text transform="matrix(1 0 0 1 41.2007 24.644)" class="st27 st28 st29">nota_proyecto</text>
	<text transform="matrix(1 0 0 1 83.6734 620.449)" class="st3 st28 st26">Diseñadora V-M</text>
	<text transform="matrix(1 0 0 1 676.1294 620.449)" class="st3 st28 st26">Diseñadora</text>
	<text transform="matrix(1 0 0 1 531.6948 620.9493)" class="st3 st28 st26">Diseñador I-S</text>
	<text transform="matrix(1 0 0 1 374.2977 619.6443)" class="st3 st28 st26">Diseñadora I-S</text>
	<text transform="matrix(1 0 0 1 234.4542 620.449)" class="st3 st28 st26">Diseñador V-M</text>
	<text transform="matrix(1 0 0 1 818.9103 620.449)" class="st3 st28 st26">Diseñador</text>
	<g class="st3">
		<text transform="matrix(1 0 0 1 135.2007 44.349)" class="st25 st26">7</text>
		<text transform="matrix(1 0 0 1 135.2007 604.3491)" class="st25 st26">4</text>
		<text transform="matrix(1 0 0 1 135.2007 231.0157)" class="st25 st26">6</text>
		<text transform="matrix(1 0 0 1 87.7378 315.0157)" class="st25 st26">5.55</text>
		<text transform="matrix(1 0 0 1 103.2993 137.6823)" class="st25 st26">6.5</text>
	</g>
	<text transform="matrix(1 0 0 1 715.2007 44.349)" class="st3 st25 st26">7</text>
	<text transform="matrix(1 0 0 1 715.2007 511.0157)" class="st3 st25 st26">4.5</text>
	<text transform="matrix(1 0 0 1 715.2007 231.0157)" class="st3 st25 st26">6</text>
	<text transform="matrix(1 0 0 1 667.7378 296.349)" class="st3 st25 st26">5.65</text>
	<text transform="matrix(1 0 0 1 677.7378 109.6824)" class="st3 st25 st26">6.65</text>
	<g class="st3">
		<text transform="matrix(1 0 0 1 574.9629 82.1827)" class="st25 st26">6.8</text>
		<text transform="matrix(1 0 0 1 574.9629 511.5159)" class="st25 st26">4.5</text>
		<text transform="matrix(1 0 0 1 574.9629 250.1826)" class="st25 st26">5.9</text>
		<text transform="matrix(1 0 0 1 527.5 296.8493)" class="st25 st26">5.65</text>
		<text transform="matrix(1 0 0 1 543.0615 212.8493)" class="st25 st26">6.1</text>
	</g>
	<g class="st3">
		<text transform="matrix(1 0 0 1 420.3466 43.5443)" class="st25 st26">7</text>
		<text transform="matrix(1 0 0 1 420.3466 603.5443)" class="st25 st26">4</text>
		<text transform="matrix(1 0 0 1 420.3466 230.2109)" class="st25 st26">6</text>
		<text transform="matrix(1 0 0 1 378.4453 323.5443)" class="st25 st26">5.5</text>
		<text transform="matrix(1 0 0 1 382.8837 108.8776)" class="st25 st26">6.65</text>
	</g>
	<g class="st3">
		<text transform="matrix(1 0 0 1 283.2008 137.6823)" class="st25 st26">6.5</text>
		<text transform="matrix(1 0 0 1 283.2008 604.3491)" class="st25 st26">4</text>
		<text transform="matrix(1 0 0 1 283.2008 268.349)" class="st25 st26">5.8</text>
		<text transform="matrix(1 0 0 1 241.2994 324.349)" class="st25 st26">5.5</text>
		<text transform="matrix(1 0 0 1 259.6393 231.0157)" class="st25 st26">6</text>
	</g>
	<g class="st3">
		<text transform="matrix(1 0 0 1 855.2008 44.349)" class="st25 st26">7</text>
		<text transform="matrix(1 0 0 1 855.2008 473.6824)" class="st25 st26">4.7</text>
		<text transform="matrix(1 0 0 1 855.2008 231.0157)" class="st25 st26">6</text>
		<text transform="matrix(1 0 0 1 813.2993 324.349)" class="st25 st26">5.5</text>
		<text transform="matrix(1 0 0 1 823.2993 193.6824)" class="st25 st26">6.2</text>
	</g>
</g>
<g id="Capa_5">
	<g class="st30">
		<path d="M21.5,608v-1.7h-3.1v-0.8l3.3-4.6h0.7v4.6h1v0.8h-1v1.7H21.5z M21.5,605.5v-3.2l-2.2,3.2H21.5z"/>
		<path d="M24.8,608v-1h1v1H24.8z"/>
		<path d="M27.1,604.5c0-0.8,0.1-1.5,0.3-2c0.2-0.5,0.4-0.9,0.8-1.2s0.8-0.4,1.3-0.4c0.4,0,0.7,0.1,1,0.2c0.3,0.2,0.5,0.4,0.7,0.7
			c0.2,0.3,0.3,0.6,0.4,1.1c0.1,0.4,0.2,1,0.2,1.7c0,0.8-0.1,1.5-0.3,2c-0.2,0.5-0.4,0.9-0.8,1.2c-0.3,0.3-0.8,0.4-1.3,0.4
			c-0.7,0-1.2-0.2-1.6-0.7C27.3,606.8,27.1,605.9,27.1,604.5z M28,604.5c0,1.2,0.1,2,0.4,2.3c0.3,0.4,0.6,0.6,1,0.6s0.7-0.2,1-0.6
			s0.4-1.2,0.4-2.3c0-1.2-0.1-2-0.4-2.3s-0.6-0.6-1-0.6c-0.4,0-0.7,0.2-1,0.5C28.1,602.5,28,603.3,28,604.5z"/>
	</g>
	<g class="st30">
		<path d="M21.5,570.7V569h-3.1v-0.8l3.3-4.6h0.7v4.6h1v0.8h-1v1.7H21.5z M21.5,568.2V565l-2.2,3.2H21.5z"/>
		<path d="M24.8,570.7v-1h1v1H24.8z"/>
		<path d="M31.7,569.9v0.8h-4.7c0-0.2,0-0.4,0.1-0.6c0.1-0.3,0.3-0.6,0.6-1s0.6-0.7,1.1-1.1c0.8-0.6,1.3-1.1,1.6-1.5
			c0.3-0.4,0.4-0.7,0.4-1.1c0-0.3-0.1-0.6-0.4-0.9c-0.2-0.2-0.6-0.4-1-0.4c-0.4,0-0.8,0.1-1,0.4s-0.4,0.6-0.4,1.1l-0.9-0.1
			c0.1-0.7,0.3-1.2,0.7-1.5c0.4-0.4,0.9-0.5,1.6-0.5c0.7,0,1.2,0.2,1.6,0.6s0.6,0.9,0.6,1.4c0,0.3-0.1,0.6-0.2,0.8s-0.3,0.6-0.6,0.9
			s-0.7,0.7-1.4,1.3c-0.5,0.4-0.9,0.7-1,0.9c-0.1,0.2-0.3,0.3-0.4,0.5H31.7z"/>
	</g>
	<g class="st30">
		<path d="M21.5,533.4v-1.7h-3.1v-0.8l3.3-4.6h0.7v4.6h1v0.8h-1v1.7H21.5z M21.5,530.9v-3.2l-2.2,3.2H21.5z"/>
		<path d="M24.8,533.4v-1h1v1H24.8z"/>
		<path d="M29.9,533.4v-1.7h-3.1v-0.8l3.3-4.6h0.7v4.6h1v0.8h-1v1.7H29.9z M29.9,530.9v-3.2l-2.2,3.2H29.9z"/>
	</g>
	<g class="st30">
		<path d="M21.5,496v-1.7h-3.1v-0.8l3.3-4.6h0.7v4.6h1v0.8h-1v1.7H21.5z M21.5,493.5v-3.2l-2.2,3.2H21.5z"/>
		<path d="M24.8,496v-1h1v1H24.8z"/>
		<path d="M31.6,490.6l-0.9,0.1c-0.1-0.3-0.2-0.6-0.3-0.8c-0.2-0.3-0.5-0.4-0.9-0.4c-0.3,0-0.5,0.1-0.7,0.2
			c-0.3,0.2-0.5,0.5-0.7,0.9s-0.2,0.9-0.2,1.7c0.2-0.3,0.5-0.6,0.8-0.7s0.6-0.2,1-0.2c0.6,0,1.1,0.2,1.5,0.6c0.4,0.4,0.6,1,0.6,1.7
			c0,0.4-0.1,0.9-0.3,1.3c-0.2,0.4-0.5,0.7-0.8,0.9s-0.7,0.3-1.2,0.3c-0.7,0-1.3-0.3-1.8-0.8c-0.5-0.5-0.7-1.4-0.7-2.7
			c0-1.4,0.3-2.4,0.8-3c0.4-0.5,1-0.8,1.8-0.8c0.6,0,1,0.2,1.4,0.5S31.5,490.1,31.6,490.6z M28,493.7c0,0.3,0.1,0.6,0.2,0.9
			s0.3,0.5,0.5,0.6c0.2,0.1,0.5,0.2,0.7,0.2c0.4,0,0.7-0.1,1-0.4s0.4-0.7,0.4-1.2c0-0.5-0.1-0.9-0.4-1.2c-0.3-0.3-0.6-0.4-1-0.4
			c-0.4,0-0.7,0.1-1,0.4C28.2,492.9,28,493.3,28,493.7z"/>
	</g>
	<g class="st30">
		<path d="M21.5,458.7V457h-3.1v-0.8l3.3-4.6h0.7v4.6h1v0.8h-1v1.7H21.5z M21.5,456.2V453l-2.2,3.2H21.5z"/>
		<path d="M24.8,458.7v-1h1v1H24.8z"/>
		<path d="M28.4,454.8c-0.4-0.1-0.6-0.3-0.8-0.6s-0.3-0.5-0.3-0.9c0-0.5,0.2-1,0.6-1.3s0.9-0.5,1.5-0.5c0.6,0,1.1,0.2,1.5,0.5
			c0.4,0.4,0.6,0.8,0.6,1.3c0,0.3-0.1,0.6-0.3,0.9c-0.2,0.2-0.4,0.4-0.8,0.6c0.4,0.1,0.8,0.4,1,0.7s0.3,0.7,0.3,1.1
			c0,0.6-0.2,1.1-0.6,1.5s-1,0.6-1.7,0.6s-1.3-0.2-1.7-0.6c-0.4-0.4-0.6-0.9-0.6-1.6c0-0.5,0.1-0.9,0.4-1.2
			C27.6,455.2,28,454.9,28.4,454.8z M27.9,456.7c0,0.3,0.1,0.5,0.2,0.7s0.3,0.4,0.5,0.5c0.2,0.1,0.5,0.2,0.8,0.2
			c0.4,0,0.8-0.1,1-0.4s0.4-0.6,0.4-1c0-0.4-0.1-0.8-0.4-1s-0.6-0.4-1.1-0.4c-0.4,0-0.8,0.1-1,0.4S27.9,456.2,27.9,456.7z
			 M28.2,453.3c0,0.3,0.1,0.6,0.3,0.8s0.5,0.3,0.8,0.3c0.3,0,0.6-0.1,0.8-0.3c0.2-0.2,0.3-0.5,0.3-0.8c0-0.3-0.1-0.6-0.3-0.8
			c-0.2-0.2-0.5-0.3-0.8-0.3c-0.3,0-0.6,0.1-0.8,0.3S28.2,453,28.2,453.3z"/>
	</g>
	<g class="st30">
		<path d="M18.7,419.5l0.9-0.1c0.1,0.4,0.2,0.8,0.5,1c0.2,0.2,0.5,0.3,0.9,0.3c0.4,0,0.8-0.2,1.1-0.5c0.3-0.3,0.4-0.7,0.4-1.3
			c0-0.5-0.1-0.9-0.4-1.2c-0.3-0.3-0.7-0.4-1.1-0.4c-0.3,0-0.5,0.1-0.8,0.2s-0.4,0.3-0.5,0.5l-0.8-0.1l0.7-3.7h3.6v0.8h-2.9
			l-0.4,1.9c0.4-0.3,0.9-0.4,1.4-0.4c0.6,0,1.2,0.2,1.6,0.6c0.4,0.4,0.6,1,0.6,1.7c0,0.6-0.2,1.2-0.6,1.7c-0.5,0.6-1.1,0.9-1.9,0.9
			c-0.7,0-1.2-0.2-1.6-0.5C19,420.6,18.8,420.1,18.7,419.5z"/>
		<path d="M24.8,421.4v-1h1v1H24.8z"/>
		<path d="M27.1,417.9c0-0.8,0.1-1.5,0.3-2s0.4-0.9,0.8-1.2c0.3-0.3,0.8-0.4,1.3-0.4c0.4,0,0.7,0.1,1,0.2c0.3,0.2,0.5,0.4,0.7,0.7
			s0.3,0.6,0.4,1.1s0.2,1,0.2,1.7c0,0.8-0.1,1.5-0.3,2c-0.2,0.5-0.4,0.9-0.8,1.2s-0.8,0.4-1.3,0.4c-0.7,0-1.2-0.2-1.6-0.7
			C27.3,420.2,27.1,419.2,27.1,417.9z M28,417.9c0,1.2,0.1,2,0.4,2.3c0.3,0.4,0.6,0.6,1,0.6s0.7-0.2,1-0.6s0.4-1.2,0.4-2.3
			c0-1.2-0.1-2-0.4-2.3c-0.3-0.4-0.6-0.6-1-0.6c-0.4,0-0.7,0.2-1,0.5C28.1,415.9,28,416.7,28,417.9z"/>
	</g>
	<g class="st30">
		<path d="M18.7,382.2l0.9-0.1c0.1,0.4,0.2,0.8,0.5,1c0.2,0.2,0.5,0.3,0.9,0.3c0.4,0,0.8-0.2,1.1-0.5s0.4-0.7,0.4-1.3
			c0-0.5-0.1-0.9-0.4-1.2s-0.7-0.4-1.1-0.4c-0.3,0-0.5,0.1-0.8,0.2c-0.2,0.1-0.4,0.3-0.5,0.5l-0.8-0.1l0.7-3.7h3.6v0.8h-2.9
			l-0.4,1.9c0.4-0.3,0.9-0.4,1.4-0.4c0.6,0,1.2,0.2,1.6,0.6s0.6,1,0.6,1.7c0,0.6-0.2,1.2-0.6,1.7c-0.5,0.6-1.1,0.9-1.9,0.9
			c-0.7,0-1.2-0.2-1.6-0.5S18.8,382.8,18.7,382.2z"/>
		<path d="M24.8,384v-1h1v1H24.8z"/>
		<path d="M31.7,383.2v0.8h-4.7c0-0.2,0-0.4,0.1-0.6c0.1-0.3,0.3-0.6,0.6-1s0.6-0.7,1.1-1.1c0.8-0.6,1.3-1.1,1.6-1.5
			c0.3-0.4,0.4-0.7,0.4-1.1c0-0.3-0.1-0.6-0.4-0.9c-0.2-0.2-0.6-0.4-1-0.4c-0.4,0-0.8,0.1-1,0.4S28,378.6,28,379l-0.9-0.1
			c0.1-0.7,0.3-1.2,0.7-1.5c0.4-0.4,0.9-0.5,1.6-0.5c0.7,0,1.2,0.2,1.6,0.6s0.6,0.9,0.6,1.4c0,0.3-0.1,0.6-0.2,0.8s-0.3,0.6-0.6,0.9
			s-0.7,0.7-1.4,1.3c-0.5,0.4-0.9,0.7-1,0.9c-0.1,0.2-0.3,0.3-0.4,0.5H31.7z"/>
	</g>
	<g class="st30">
		<path d="M18.7,344.8l0.9-0.1c0.1,0.4,0.2,0.8,0.5,1c0.2,0.2,0.5,0.3,0.9,0.3c0.4,0,0.8-0.2,1.1-0.5s0.4-0.7,0.4-1.3
			c0-0.5-0.1-0.9-0.4-1.2s-0.7-0.4-1.1-0.4c-0.3,0-0.5,0.1-0.8,0.2c-0.2,0.1-0.4,0.3-0.5,0.5l-0.8-0.1l0.7-3.7h3.6v0.8h-2.9
			l-0.4,1.9c0.4-0.3,0.9-0.4,1.4-0.4c0.6,0,1.2,0.2,1.6,0.6s0.6,1,0.6,1.7c0,0.6-0.2,1.2-0.6,1.7c-0.5,0.6-1.1,0.9-1.9,0.9
			c-0.7,0-1.2-0.2-1.6-0.5S18.8,345.4,18.7,344.8z"/>
		<path d="M24.8,346.7v-1h1v1H24.8z"/>
		<path d="M29.9,346.7V345h-3.1v-0.8l3.3-4.6h0.7v4.6h1v0.8h-1v1.7H29.9z M29.9,344.2V341l-2.2,3.2H29.9z"/>
	</g>
	<g class="st30">
		<path d="M18.7,307.5l0.9-0.1c0.1,0.4,0.2,0.8,0.5,1c0.2,0.2,0.5,0.3,0.9,0.3c0.4,0,0.8-0.2,1.1-0.5s0.4-0.7,0.4-1.3
			c0-0.5-0.1-0.9-0.4-1.2s-0.7-0.4-1.1-0.4c-0.3,0-0.5,0.1-0.8,0.2c-0.2,0.1-0.4,0.3-0.5,0.5l-0.8-0.1l0.7-3.7h3.6v0.8h-2.9
			l-0.4,1.9c0.4-0.3,0.9-0.4,1.4-0.4c0.6,0,1.2,0.2,1.6,0.6s0.6,1,0.6,1.7c0,0.6-0.2,1.2-0.6,1.7c-0.5,0.6-1.1,0.9-1.9,0.9
			c-0.7,0-1.2-0.2-1.6-0.5S18.8,308.1,18.7,307.5z"/>
		<path d="M24.8,309.4v-1h1v1H24.8z"/>
		<path d="M31.6,304l-0.9,0.1c-0.1-0.3-0.2-0.6-0.3-0.8c-0.2-0.3-0.5-0.4-0.9-0.4c-0.3,0-0.5,0.1-0.7,0.2c-0.3,0.2-0.5,0.5-0.7,0.9
			s-0.2,0.9-0.2,1.7c0.2-0.3,0.5-0.6,0.8-0.7s0.6-0.2,1-0.2c0.6,0,1.1,0.2,1.5,0.6c0.4,0.4,0.6,1,0.6,1.7c0,0.4-0.1,0.9-0.3,1.3
			c-0.2,0.4-0.5,0.7-0.8,0.9s-0.7,0.3-1.2,0.3c-0.7,0-1.3-0.3-1.8-0.8c-0.5-0.5-0.7-1.4-0.7-2.7c0-1.4,0.3-2.4,0.8-3
			c0.4-0.5,1-0.8,1.8-0.8c0.6,0,1,0.2,1.4,0.5S31.5,303.4,31.6,304z M28,307.1c0,0.3,0.1,0.6,0.2,0.9s0.3,0.5,0.5,0.6
			c0.2,0.1,0.5,0.2,0.7,0.2c0.4,0,0.7-0.1,1-0.4s0.4-0.7,0.4-1.2c0-0.5-0.1-0.9-0.4-1.2c-0.3-0.3-0.6-0.4-1-0.4
			c-0.4,0-0.7,0.1-1,0.4C28.2,306.2,28,306.6,28,307.1z"/>
	</g>
	<g class="st30">
		<path d="M18.7,270.2l0.9-0.1c0.1,0.4,0.2,0.8,0.5,1c0.2,0.2,0.5,0.3,0.9,0.3c0.4,0,0.8-0.2,1.1-0.5s0.4-0.7,0.4-1.3
			c0-0.5-0.1-0.9-0.4-1.2s-0.7-0.4-1.1-0.4c-0.3,0-0.5,0.1-0.8,0.2c-0.2,0.1-0.4,0.3-0.5,0.5l-0.8-0.1l0.7-3.7h3.6v0.8h-2.9
			l-0.4,1.9c0.4-0.3,0.9-0.4,1.4-0.4c0.6,0,1.2,0.2,1.6,0.6s0.6,1,0.6,1.7c0,0.6-0.2,1.2-0.6,1.7c-0.5,0.6-1.1,0.9-1.9,0.9
			c-0.7,0-1.2-0.2-1.6-0.5S18.8,270.8,18.7,270.2z"/>
		<path d="M24.8,272v-1h1v1H24.8z"/>
		<path d="M28.4,268.2c-0.4-0.1-0.6-0.3-0.8-0.6s-0.3-0.5-0.3-0.9c0-0.5,0.2-1,0.6-1.3s0.9-0.5,1.5-0.5c0.6,0,1.1,0.2,1.5,0.5
			c0.4,0.4,0.6,0.8,0.6,1.3c0,0.3-0.1,0.6-0.3,0.9c-0.2,0.2-0.4,0.4-0.8,0.6c0.4,0.1,0.8,0.4,1,0.7s0.3,0.7,0.3,1.1
			c0,0.6-0.2,1.1-0.6,1.5s-1,0.6-1.7,0.6s-1.3-0.2-1.7-0.6c-0.4-0.4-0.6-0.9-0.6-1.6c0-0.5,0.1-0.9,0.4-1.2
			C27.6,268.5,28,268.3,28.4,268.2z M27.9,270c0,0.3,0.1,0.5,0.2,0.7s0.3,0.4,0.5,0.5c0.2,0.1,0.5,0.2,0.8,0.2c0.4,0,0.8-0.1,1-0.4
			s0.4-0.6,0.4-1c0-0.4-0.1-0.8-0.4-1s-0.6-0.4-1.1-0.4c-0.4,0-0.8,0.1-1,0.4S27.9,269.6,27.9,270z M28.2,266.7
			c0,0.3,0.1,0.6,0.3,0.8s0.5,0.3,0.8,0.3c0.3,0,0.6-0.1,0.8-0.3c0.2-0.2,0.3-0.5,0.3-0.8c0-0.3-0.1-0.6-0.3-0.8
			c-0.2-0.2-0.5-0.3-0.8-0.3c-0.3,0-0.6,0.1-0.8,0.3S28.2,266.4,28.2,266.7z"/>
	</g>
	<g class="st30">
		<path d="M23.3,229.3l-0.9,0.1c-0.1-0.3-0.2-0.6-0.3-0.8c-0.2-0.3-0.5-0.4-0.9-0.4c-0.3,0-0.5,0.1-0.7,0.2
			c-0.3,0.2-0.5,0.5-0.7,0.9s-0.2,0.9-0.2,1.7c0.2-0.3,0.5-0.6,0.8-0.7s0.6-0.2,1-0.2c0.6,0,1.1,0.2,1.5,0.6c0.4,0.4,0.6,1,0.6,1.7
			c0,0.4-0.1,0.9-0.3,1.3c-0.2,0.4-0.5,0.7-0.8,0.9s-0.7,0.3-1.2,0.3c-0.7,0-1.3-0.3-1.8-0.8c-0.5-0.5-0.7-1.4-0.7-2.7
			c0-1.4,0.3-2.4,0.8-3c0.4-0.5,1-0.8,1.8-0.8c0.6,0,1,0.2,1.4,0.5S23.2,228.8,23.3,229.3z M19.7,232.4c0,0.3,0.1,0.6,0.2,0.9
			s0.3,0.5,0.5,0.6c0.2,0.1,0.5,0.2,0.7,0.2c0.4,0,0.7-0.1,1-0.4s0.4-0.7,0.4-1.2c0-0.5-0.1-0.9-0.4-1.2c-0.3-0.3-0.6-0.4-1-0.4
			c-0.4,0-0.7,0.1-1,0.4C19.8,231.6,19.7,231.9,19.7,232.4z"/>
		<path d="M24.8,234.7v-1h1v1H24.8z"/>
		<path d="M27.1,231.2c0-0.8,0.1-1.5,0.3-2c0.2-0.5,0.4-0.9,0.8-1.2s0.8-0.4,1.3-0.4c0.4,0,0.7,0.1,1,0.2c0.3,0.2,0.5,0.4,0.7,0.7
			c0.2,0.3,0.3,0.6,0.4,1.1c0.1,0.4,0.2,1,0.2,1.7c0,0.8-0.1,1.5-0.3,2c-0.2,0.5-0.4,0.9-0.8,1.2c-0.3,0.3-0.8,0.4-1.3,0.4
			c-0.7,0-1.2-0.2-1.6-0.7C27.3,233.5,27.1,232.5,27.1,231.2z M28,231.2c0,1.2,0.1,2,0.4,2.3c0.3,0.4,0.6,0.6,1,0.6s0.7-0.2,1-0.6
			s0.4-1.2,0.4-2.3c0-1.2-0.1-2-0.4-2.3s-0.6-0.6-1-0.6c-0.4,0-0.7,0.2-1,0.5C28.1,229.2,28,230,28,231.2z"/>
	</g>
	<g class="st30">
		<path d="M23.3,192l-0.9,0.1c-0.1-0.3-0.2-0.6-0.3-0.8c-0.2-0.3-0.5-0.4-0.9-0.4c-0.3,0-0.5,0.1-0.7,0.2c-0.3,0.2-0.5,0.5-0.7,0.9
			s-0.2,0.9-0.2,1.7c0.2-0.3,0.5-0.6,0.8-0.7s0.6-0.2,1-0.2c0.6,0,1.1,0.2,1.5,0.6c0.4,0.4,0.6,1,0.6,1.7c0,0.4-0.1,0.9-0.3,1.3
			c-0.2,0.4-0.5,0.7-0.8,0.9s-0.7,0.3-1.2,0.3c-0.7,0-1.3-0.3-1.8-0.8c-0.5-0.5-0.7-1.4-0.7-2.7c0-1.4,0.3-2.4,0.8-3
			c0.4-0.5,1-0.8,1.8-0.8c0.6,0,1,0.2,1.4,0.5S23.2,191.4,23.3,192z M19.7,195.1c0,0.3,0.1,0.6,0.2,0.9s0.3,0.5,0.5,0.6
			c0.2,0.1,0.5,0.2,0.7,0.2c0.4,0,0.7-0.1,1-0.4s0.4-0.7,0.4-1.2c0-0.5-0.1-0.9-0.4-1.2c-0.3-0.3-0.6-0.4-1-0.4
			c-0.4,0-0.7,0.1-1,0.4C19.8,194.2,19.7,194.6,19.7,195.1z"/>
		<path d="M24.8,197.4v-1h1v1H24.8z"/>
		<path d="M31.7,196.5v0.8h-4.7c0-0.2,0-0.4,0.1-0.6c0.1-0.3,0.3-0.6,0.6-1s0.6-0.7,1.1-1.1c0.8-0.6,1.3-1.1,1.6-1.5
			c0.3-0.4,0.4-0.7,0.4-1.1c0-0.3-0.1-0.6-0.4-0.9c-0.2-0.2-0.6-0.4-1-0.4c-0.4,0-0.8,0.1-1,0.4s-0.4,0.6-0.4,1.1l-0.9-0.1
			c0.1-0.7,0.3-1.2,0.7-1.5c0.4-0.4,0.9-0.5,1.6-0.5c0.7,0,1.2,0.2,1.6,0.6s0.6,0.9,0.6,1.4c0,0.3-0.1,0.6-0.2,0.8s-0.3,0.6-0.6,0.9
			s-0.7,0.7-1.4,1.3c-0.5,0.4-0.9,0.7-1,0.9c-0.1,0.2-0.3,0.3-0.4,0.5H31.7z"/>
	</g>
	<g class="st30">
		<path d="M23.3,154.6l-0.9,0.1c-0.1-0.3-0.2-0.6-0.3-0.8c-0.2-0.3-0.5-0.4-0.9-0.4c-0.3,0-0.5,0.1-0.7,0.2
			c-0.3,0.2-0.5,0.5-0.7,0.9s-0.2,0.9-0.2,1.7c0.2-0.3,0.5-0.6,0.8-0.7s0.6-0.2,1-0.2c0.6,0,1.1,0.2,1.5,0.6c0.4,0.4,0.6,1,0.6,1.7
			c0,0.4-0.1,0.9-0.3,1.3c-0.2,0.4-0.5,0.7-0.8,0.9s-0.7,0.3-1.2,0.3c-0.7,0-1.3-0.3-1.8-0.8c-0.5-0.5-0.7-1.4-0.7-2.7
			c0-1.4,0.3-2.4,0.8-3c0.4-0.5,1-0.8,1.8-0.8c0.6,0,1,0.2,1.4,0.5S23.2,154.1,23.3,154.6z M19.7,157.7c0,0.3,0.1,0.6,0.2,0.9
			s0.3,0.5,0.5,0.6c0.2,0.1,0.5,0.2,0.7,0.2c0.4,0,0.7-0.1,1-0.4s0.4-0.7,0.4-1.2c0-0.5-0.1-0.9-0.4-1.2c-0.3-0.3-0.6-0.4-1-0.4
			c-0.4,0-0.7,0.1-1,0.4C19.8,156.9,19.7,157.3,19.7,157.7z"/>
		<path d="M24.8,160v-1h1v1H24.8z"/>
		<path d="M29.9,160v-1.7h-3.1v-0.8l3.3-4.6h0.7v4.6h1v0.8h-1v1.7H29.9z M29.9,157.5v-3.2l-2.2,3.2H29.9z"/>
	</g>
	<g class="st30">
		<path d="M23.3,117.3l-0.9,0.1c-0.1-0.3-0.2-0.6-0.3-0.8c-0.2-0.3-0.5-0.4-0.9-0.4c-0.3,0-0.5,0.1-0.7,0.2
			c-0.3,0.2-0.5,0.5-0.7,0.9s-0.2,0.9-0.2,1.7c0.2-0.3,0.5-0.6,0.8-0.7s0.6-0.2,1-0.2c0.6,0,1.1,0.2,1.5,0.6c0.4,0.4,0.6,1,0.6,1.7
			c0,0.4-0.1,0.9-0.3,1.3c-0.2,0.4-0.5,0.7-0.8,0.9s-0.7,0.3-1.2,0.3c-0.7,0-1.3-0.3-1.8-0.8c-0.5-0.5-0.7-1.4-0.7-2.7
			c0-1.4,0.3-2.4,0.8-3c0.4-0.5,1-0.8,1.8-0.8c0.6,0,1,0.2,1.4,0.5S23.2,116.8,23.3,117.3z M19.7,120.4c0,0.3,0.1,0.6,0.2,0.9
			s0.3,0.5,0.5,0.6c0.2,0.1,0.5,0.2,0.7,0.2c0.4,0,0.7-0.1,1-0.4s0.4-0.7,0.4-1.2c0-0.5-0.1-0.9-0.4-1.2c-0.3-0.3-0.6-0.4-1-0.4
			c-0.4,0-0.7,0.1-1,0.4C19.8,119.6,19.7,119.9,19.7,120.4z"/>
		<path d="M24.8,122.7v-1h1v1H24.8z"/>
		<path d="M31.6,117.3l-0.9,0.1c-0.1-0.3-0.2-0.6-0.3-0.8c-0.2-0.3-0.5-0.4-0.9-0.4c-0.3,0-0.5,0.1-0.7,0.2
			c-0.3,0.2-0.5,0.5-0.7,0.9s-0.2,0.9-0.2,1.7c0.2-0.3,0.5-0.6,0.8-0.7s0.6-0.2,1-0.2c0.6,0,1.1,0.2,1.5,0.6c0.4,0.4,0.6,1,0.6,1.7
			c0,0.4-0.1,0.9-0.3,1.3c-0.2,0.4-0.5,0.7-0.8,0.9s-0.7,0.3-1.2,0.3c-0.7,0-1.3-0.3-1.8-0.8c-0.5-0.5-0.7-1.4-0.7-2.7
			c0-1.4,0.3-2.4,0.8-3c0.4-0.5,1-0.8,1.8-0.8c0.6,0,1,0.2,1.4,0.5S31.5,116.8,31.6,117.3z M28,120.4c0,0.3,0.1,0.6,0.2,0.9
			s0.3,0.5,0.5,0.6c0.2,0.1,0.5,0.2,0.7,0.2c0.4,0,0.7-0.1,1-0.4s0.4-0.7,0.4-1.2c0-0.5-0.1-0.9-0.4-1.2c-0.3-0.3-0.6-0.4-1-0.4
			c-0.4,0-0.7,0.1-1,0.4C28.2,119.6,28,119.9,28,120.4z"/>
	</g>
	<g class="st30">
		<path d="M23.3,80L22.4,80c-0.1-0.3-0.2-0.6-0.3-0.8c-0.2-0.3-0.5-0.4-0.9-0.4c-0.3,0-0.5,0.1-0.7,0.2c-0.3,0.2-0.5,0.5-0.7,0.9
			s-0.2,0.9-0.2,1.7c0.2-0.3,0.5-0.6,0.8-0.7s0.6-0.2,1-0.2c0.6,0,1.1,0.2,1.5,0.6c0.4,0.4,0.6,1,0.6,1.7c0,0.4-0.1,0.9-0.3,1.3
			c-0.2,0.4-0.5,0.7-0.8,0.9s-0.7,0.3-1.2,0.3c-0.7,0-1.3-0.3-1.8-0.8c-0.5-0.5-0.7-1.4-0.7-2.7c0-1.4,0.3-2.4,0.8-3
			c0.4-0.5,1-0.8,1.8-0.8c0.6,0,1,0.2,1.4,0.5S23.2,79.4,23.3,80z M19.7,83.1c0,0.3,0.1,0.6,0.2,0.9s0.3,0.5,0.5,0.6
			c0.2,0.1,0.5,0.2,0.7,0.2c0.4,0,0.7-0.1,1-0.4s0.4-0.7,0.4-1.2c0-0.5-0.1-0.9-0.4-1.2c-0.3-0.3-0.6-0.4-1-0.4
			c-0.4,0-0.7,0.1-1,0.4C19.8,82.2,19.7,82.6,19.7,83.1z"/>
		<path d="M24.8,85.4v-1h1v1H24.8z"/>
		<path d="M28.4,81.5c-0.4-0.1-0.6-0.3-0.8-0.6s-0.3-0.5-0.3-0.9c0-0.5,0.2-1,0.6-1.3s0.9-0.5,1.5-0.5c0.6,0,1.1,0.2,1.5,0.5
			c0.4,0.4,0.6,0.8,0.6,1.3c0,0.3-0.1,0.6-0.3,0.9c-0.2,0.2-0.4,0.4-0.8,0.6c0.4,0.1,0.8,0.4,1,0.7s0.3,0.7,0.3,1.1
			c0,0.6-0.2,1.1-0.6,1.5s-1,0.6-1.7,0.6s-1.3-0.2-1.7-0.6c-0.4-0.4-0.6-0.9-0.6-1.6c0-0.5,0.1-0.9,0.4-1.2
			C27.6,81.8,28,81.6,28.4,81.5z M27.9,83.3c0,0.3,0.1,0.5,0.2,0.7s0.3,0.4,0.5,0.5c0.2,0.1,0.5,0.2,0.8,0.2c0.4,0,0.8-0.1,1-0.4
			s0.4-0.6,0.4-1c0-0.4-0.1-0.8-0.4-1s-0.6-0.4-1.1-0.4c-0.4,0-0.8,0.1-1,0.4S27.9,82.9,27.9,83.3z M28.2,80c0,0.3,0.1,0.6,0.3,0.8
			s0.5,0.3,0.8,0.3c0.3,0,0.6-0.1,0.8-0.3c0.2-0.2,0.3-0.5,0.3-0.8c0-0.3-0.1-0.6-0.3-0.8c-0.2-0.2-0.5-0.3-0.8-0.3
			c-0.3,0-0.6,0.1-0.8,0.3S28.2,79.7,28.2,80z"/>
	</g>
	<g class="st30">
		<path d="M18.8,41.8V41h4.6v0.7c-0.5,0.5-0.9,1.1-1.4,1.9s-0.8,1.6-1,2.5c-0.2,0.6-0.3,1.3-0.3,2h-0.9c0-0.6,0.1-1.2,0.3-2
			s0.5-1.6,0.9-2.3c0.4-0.7,0.8-1.4,1.3-1.9H18.8z"/>
		<path d="M24.8,48v-1h1v1H24.8z"/>
		<path d="M27.1,44.5c0-0.8,0.1-1.5,0.3-2c0.2-0.5,0.4-0.9,0.8-1.2s0.8-0.4,1.3-0.4c0.4,0,0.7,0.1,1,0.2c0.3,0.2,0.5,0.4,0.7,0.7
			c0.2,0.3,0.3,0.6,0.4,1.1c0.1,0.4,0.2,1,0.2,1.7c0,0.8-0.1,1.5-0.3,2c-0.2,0.5-0.4,0.9-0.8,1.2c-0.3,0.3-0.8,0.4-1.3,0.4
			c-0.7,0-1.2-0.2-1.6-0.7C27.3,46.8,27.1,45.9,27.1,44.5z M28,44.5c0,1.2,0.1,2,0.4,2.3c0.3,0.4,0.6,0.6,1,0.6s0.7-0.2,1-0.6
			s0.4-1.2,0.4-2.3c0-1.2-0.1-2-0.4-2.3s-0.6-0.6-1-0.6c-0.4,0-0.7,0.2-1,0.5C28.1,42.5,28,43.3,28,44.5z"/>
	</g>
	<g class="st30">
		<path class="st31" d="M47.7,24.6h-1.6v-3.2c0-0.7,0-1.1-0.1-1.3s-0.2-0.4-0.3-0.5s-0.3-0.2-0.6-0.2c-0.3,0-0.5,0.1-0.8,0.2
			s-0.4,0.4-0.5,0.6s-0.1,0.7-0.1,1.4v2.8h-1.6v-6.2h1.5v0.9c0.5-0.7,1.2-1.1,2.1-1.1c0.4,0,0.7,0.1,1,0.2s0.5,0.3,0.7,0.5
			s0.3,0.4,0.3,0.7s0.1,0.6,0.1,1.1V24.6z"/>
		<path class="st31" d="M49,21.4c0-0.5,0.1-1.1,0.4-1.6s0.7-0.9,1.1-1.2s1-0.4,1.7-0.4c0.9,0,1.7,0.3,2.3,0.9s0.9,1.4,0.9,2.3
			c0,0.9-0.3,1.7-0.9,2.3s-1.4,0.9-2.3,0.9c-0.6,0-1.1-0.1-1.6-0.4s-0.9-0.6-1.2-1.1S49,22.2,49,21.4z M50.7,21.5
			c0,0.6,0.1,1.1,0.4,1.4s0.7,0.5,1.1,0.5s0.8-0.2,1.1-0.5s0.4-0.8,0.4-1.4c0-0.6-0.1-1.1-0.4-1.4s-0.7-0.5-1.1-0.5
			s-0.8,0.2-1.1,0.5S50.7,20.9,50.7,21.5z"/>
		<path class="st31" d="M59.6,18.4v1.3h-1.1v2.5c0,0.5,0,0.8,0,0.9s0.1,0.2,0.1,0.2s0.2,0.1,0.3,0.1c0.2,0,0.4-0.1,0.7-0.2l0.1,1.3
			c-0.4,0.2-0.8,0.2-1.3,0.2c-0.3,0-0.6,0-0.8-0.1s-0.4-0.2-0.5-0.4s-0.2-0.4-0.2-0.6c0-0.2-0.1-0.6-0.1-1.2v-2.7H56v-1.3h0.8v-1.2
			l1.7-1v2.2H59.6z"/>
		<path class="st31" d="M61.9,20.3l-1.5-0.3c0.2-0.6,0.5-1,0.9-1.3s1-0.4,1.8-0.4c0.7,0,1.3,0.1,1.6,0.3s0.6,0.4,0.8,0.7
			s0.2,0.8,0.2,1.5l0,1.9c0,0.5,0,1,0.1,1.2s0.2,0.5,0.3,0.8h-1.6c0-0.1-0.1-0.3-0.2-0.5c0-0.1,0-0.2-0.1-0.2
			c-0.3,0.3-0.6,0.5-0.9,0.6s-0.7,0.2-1,0.2c-0.6,0-1.1-0.2-1.5-0.5s-0.6-0.8-0.6-1.3c0-0.4,0.1-0.7,0.3-0.9s0.4-0.5,0.7-0.6
			s0.7-0.3,1.3-0.4c0.8-0.1,1.3-0.3,1.6-0.4v-0.2c0-0.3-0.1-0.5-0.2-0.7s-0.5-0.2-0.9-0.2c-0.3,0-0.5,0.1-0.7,0.2S62.1,20,61.9,20.3
			z M64.2,21.7c-0.2,0.1-0.5,0.2-1,0.3s-0.8,0.2-0.9,0.3c-0.2,0.2-0.3,0.3-0.3,0.6c0,0.2,0.1,0.4,0.3,0.6s0.4,0.3,0.7,0.3
			c0.3,0,0.6-0.1,0.8-0.3c0.2-0.1,0.3-0.3,0.4-0.5c0-0.1,0.1-0.4,0.1-0.8V21.7z"/>
		<path class="st31" d="M66.4,27V26h6.8V27H66.4z"/>
		<path class="st31" d="M74,18.4h1.5v0.9c0.2-0.3,0.5-0.6,0.8-0.8s0.7-0.3,1.1-0.3c0.7,0,1.3,0.3,1.8,0.8s0.8,1.4,0.8,2.4
			c0,1-0.3,1.8-0.8,2.4s-1.1,0.9-1.8,0.9c-0.3,0-0.7-0.1-0.9-0.2s-0.6-0.4-0.9-0.7V27H74V18.4z M75.6,21.4c0,0.7,0.1,1.2,0.4,1.5
			s0.6,0.5,1,0.5c0.4,0,0.7-0.2,1-0.5s0.4-0.8,0.4-1.5c0-0.7-0.1-1.1-0.4-1.5s-0.6-0.5-1-0.5c-0.4,0-0.7,0.2-1,0.5
			S75.6,20.8,75.6,21.4z"/>
		<path class="st31" d="M83,24.6h-1.6v-6.2h1.5v0.9c0.3-0.4,0.5-0.7,0.7-0.8s0.4-0.2,0.7-0.2c0.4,0,0.7,0.1,1.1,0.3L84.8,20
			c-0.3-0.2-0.5-0.3-0.8-0.3c-0.2,0-0.4,0.1-0.6,0.2s-0.3,0.4-0.4,0.7s-0.1,1-0.1,2.1V24.6z"/>
		<path class="st31" d="M85.7,21.4c0-0.5,0.1-1.1,0.4-1.6s0.7-0.9,1.1-1.2s1-0.4,1.7-0.4c0.9,0,1.7,0.3,2.3,0.9s0.9,1.4,0.9,2.3
			c0,0.9-0.3,1.7-0.9,2.3s-1.4,0.9-2.3,0.9c-0.6,0-1.1-0.1-1.6-0.4s-0.9-0.6-1.2-1.1S85.7,22.2,85.7,21.4z M87.4,21.5
			c0,0.6,0.1,1.1,0.4,1.4s0.7,0.5,1.1,0.5s0.8-0.2,1.1-0.5s0.4-0.8,0.4-1.4c0-0.6-0.1-1.1-0.4-1.4s-0.7-0.5-1.1-0.5
			s-0.8,0.2-1.1,0.5S87.4,20.9,87.4,21.5z"/>
		<path class="st31" d="M92.6,18.4h1.8l1.5,4.4l1.5-4.4H99l-2.2,6l-0.4,1.1c-0.1,0.4-0.3,0.6-0.4,0.8s-0.3,0.3-0.5,0.5
			s-0.4,0.2-0.6,0.3s-0.5,0.1-0.8,0.1c-0.3,0-0.6,0-0.9-0.1L93,25.8c0.3,0.1,0.5,0.1,0.7,0.1c0.4,0,0.7-0.1,0.8-0.3s0.3-0.5,0.4-0.9
			L92.6,18.4z"/>
		<path class="st31" d="M103.7,22.7l1.6,0.3c-0.2,0.6-0.5,1.1-1,1.4s-1,0.5-1.7,0.5c-1.1,0-1.9-0.4-2.4-1.1
			c-0.4-0.6-0.6-1.3-0.6-2.1c0-1,0.3-1.8,0.8-2.4s1.2-0.9,2-0.9c0.9,0,1.7,0.3,2.2,0.9s0.8,1.5,0.8,2.8h-4.1c0,0.5,0.1,0.9,0.4,1.1
			s0.6,0.4,0.9,0.4c0.3,0,0.5-0.1,0.7-0.2S103.6,23,103.7,22.7z M103.8,21c0-0.5-0.1-0.8-0.4-1.1s-0.5-0.4-0.9-0.4
			c-0.4,0-0.7,0.1-0.9,0.4s-0.3,0.6-0.3,1.1H103.8z"/>
		<path class="st31" d="M112.2,20.3l-1.6,0.3c-0.1-0.3-0.2-0.6-0.4-0.7s-0.4-0.2-0.8-0.2c-0.4,0-0.7,0.1-1,0.4s-0.4,0.8-0.4,1.4
			c0,0.7,0.1,1.3,0.4,1.6s0.6,0.5,1,0.5c0.3,0,0.6-0.1,0.8-0.3s0.3-0.5,0.4-0.9l1.6,0.3c-0.2,0.7-0.5,1.3-1,1.7s-1.1,0.6-1.9,0.6
			c-0.9,0-1.6-0.3-2.2-0.9s-0.8-1.4-0.8-2.4c0-1,0.3-1.8,0.8-2.4s1.3-0.9,2.2-0.9c0.8,0,1.4,0.2,1.8,0.5S112,19.6,112.2,20.3z"/>
		<path class="st31" d="M116.3,18.4v1.3h-1.1v2.5c0,0.5,0,0.8,0,0.9s0.1,0.2,0.1,0.2s0.2,0.1,0.3,0.1c0.2,0,0.4-0.1,0.7-0.2l0.1,1.3
			c-0.4,0.2-0.8,0.2-1.3,0.2c-0.3,0-0.6,0-0.8-0.1s-0.4-0.2-0.5-0.4s-0.2-0.4-0.2-0.6c0-0.2-0.1-0.6-0.1-1.2v-2.7h-0.8v-1.3h0.8
			v-1.2l1.7-1v2.2H116.3z"/>
		<path class="st31" d="M117,21.4c0-0.5,0.1-1.1,0.4-1.6s0.7-0.9,1.1-1.2s1-0.4,1.7-0.4c0.9,0,1.7,0.3,2.3,0.9s0.9,1.4,0.9,2.3
			c0,0.9-0.3,1.7-0.9,2.3s-1.4,0.9-2.3,0.9c-0.6,0-1.1-0.1-1.6-0.4s-0.9-0.6-1.2-1.1S117,22.2,117,21.4z M118.7,21.5
			c0,0.6,0.1,1.1,0.4,1.4s0.7,0.5,1.1,0.5s0.8-0.2,1.1-0.5s0.4-0.8,0.4-1.4c0-0.6-0.1-1.1-0.4-1.4s-0.7-0.5-1.1-0.5
			s-0.8,0.2-1.1,0.5S118.7,20.9,118.7,21.5z"/>
	</g>
	<g class="st30">
		<path d="M84.4,613.3H87c0.6,0,1,0,1.4,0.1c0.4,0.1,0.8,0.3,1.1,0.7s0.5,0.7,0.7,1.2c0.2,0.5,0.2,1,0.2,1.7c0,0.6-0.1,1.1-0.2,1.5
			c-0.2,0.5-0.4,0.9-0.8,1.3c-0.3,0.2-0.6,0.4-1,0.6c-0.3,0.1-0.7,0.2-1.3,0.2h-2.7V613.3z M85.8,614.5v4.7h1.1c0.4,0,0.7,0,0.9-0.1
			c0.2-0.1,0.4-0.2,0.6-0.3s0.3-0.4,0.4-0.7c0.1-0.3,0.1-0.8,0.1-1.3s0-1-0.1-1.3s-0.2-0.5-0.4-0.7s-0.4-0.3-0.7-0.3
			c-0.2,0-0.6-0.1-1.2-0.1H85.8z"/>
		<path d="M91.6,614.6v-1.3H93v1.3H91.6z M91.6,620.4v-5.2H93v5.2H91.6z"/>
		<path d="M93.9,619l1.4-0.2c0.1,0.3,0.2,0.5,0.4,0.6c0.2,0.1,0.4,0.2,0.8,0.2c0.4,0,0.6-0.1,0.8-0.2c0.1-0.1,0.2-0.2,0.2-0.4
			c0-0.1,0-0.2-0.1-0.3c-0.1-0.1-0.2-0.1-0.5-0.2c-1.1-0.2-1.8-0.5-2.1-0.7c-0.4-0.3-0.6-0.7-0.6-1.2c0-0.4,0.2-0.8,0.5-1.1
			s0.9-0.5,1.7-0.5c0.7,0,1.2,0.1,1.6,0.3s0.6,0.6,0.7,1l-1.3,0.2c-0.1-0.2-0.2-0.4-0.3-0.5s-0.4-0.2-0.7-0.2
			c-0.4,0-0.6,0.1-0.8,0.2c-0.1,0.1-0.2,0.2-0.2,0.3c0,0.1,0,0.2,0.1,0.2c0.1,0.1,0.6,0.2,1.3,0.4s1.2,0.4,1.5,0.6
			c0.3,0.2,0.4,0.6,0.4,1c0,0.5-0.2,0.9-0.6,1.2s-1,0.5-1.8,0.5c-0.7,0-1.3-0.1-1.7-0.4S94,619.5,93.9,619z"/>
		<path d="M103,618.8l1.4,0.2c-0.2,0.5-0.5,0.9-0.8,1.1c-0.4,0.3-0.9,0.4-1.4,0.4c-0.9,0-1.6-0.3-2-0.9c-0.3-0.5-0.5-1.1-0.5-1.8
			c0-0.9,0.2-1.5,0.7-2c0.4-0.5,1-0.7,1.7-0.7c0.8,0,1.4,0.3,1.8,0.8c0.4,0.5,0.7,1.3,0.6,2.3H101c0,0.4,0.1,0.7,0.3,0.9
			c0.2,0.2,0.5,0.3,0.8,0.3c0.2,0,0.4-0.1,0.5-0.2S102.9,619.1,103,618.8z M103,617.4c0-0.4-0.1-0.7-0.3-0.9
			c-0.2-0.2-0.4-0.3-0.7-0.3c-0.3,0-0.5,0.1-0.7,0.3s-0.3,0.5-0.3,0.9H103z"/>
		<path d="M110.2,620.4h-1.4v-2.6c0-0.6,0-0.9-0.1-1.1c-0.1-0.2-0.2-0.3-0.3-0.4s-0.3-0.1-0.5-0.1c-0.2,0-0.5,0.1-0.6,0.2
			s-0.3,0.3-0.4,0.5s-0.1,0.6-0.1,1.2v2.3h-1.4v-5.2h1.3v0.8c0.5-0.6,1-0.9,1.7-0.9c0.3,0,0.6,0.1,0.8,0.2c0.3,0.1,0.4,0.2,0.6,0.4
			s0.2,0.4,0.3,0.6s0.1,0.5,0.1,0.9V620.4z M106.8,614.6h-0.6c0-0.1,0-0.1,0-0.2c0-0.3,0.1-0.6,0.2-0.8c0.2-0.2,0.4-0.3,0.6-0.3
			c0.1,0,0.2,0,0.3,0c0.1,0,0.3,0.1,0.5,0.2c0.3,0.1,0.5,0.2,0.6,0.2c0.1,0,0.2,0,0.3-0.1s0.1-0.2,0.1-0.3h0.6
			c0,0.4-0.1,0.8-0.2,0.9s-0.4,0.3-0.6,0.3c-0.1,0-0.2,0-0.3,0c-0.1,0-0.3-0.1-0.6-0.2s-0.5-0.2-0.7-0.2c-0.1,0-0.2,0-0.2,0.1
			C106.8,614.3,106.8,614.4,106.8,614.6z"/>
		<path d="M112.6,616.8l-1.2-0.2c0.1-0.5,0.4-0.9,0.7-1.1s0.8-0.4,1.5-0.4c0.6,0,1.1,0.1,1.4,0.2c0.3,0.1,0.5,0.3,0.6,0.6
			c0.1,0.2,0.2,0.6,0.2,1.2l0,1.6c0,0.5,0,0.8,0.1,1c0,0.2,0.1,0.4,0.2,0.7h-1.4c0-0.1-0.1-0.2-0.1-0.4c0-0.1,0-0.1,0-0.2
			c-0.2,0.2-0.5,0.4-0.8,0.5s-0.6,0.2-0.9,0.2c-0.5,0-1-0.1-1.3-0.4s-0.5-0.7-0.5-1.1c0-0.3,0.1-0.6,0.2-0.8
			c0.1-0.2,0.3-0.4,0.6-0.5c0.3-0.1,0.6-0.2,1.1-0.3c0.6-0.1,1.1-0.2,1.3-0.3v-0.1c0-0.3-0.1-0.5-0.2-0.6c-0.1-0.1-0.4-0.2-0.7-0.2
			c-0.2,0-0.4,0-0.6,0.1C112.8,616.4,112.7,616.6,112.6,616.8z M114.5,618c-0.2,0.1-0.5,0.1-0.8,0.2s-0.6,0.2-0.7,0.2
			c-0.2,0.1-0.3,0.3-0.3,0.5c0,0.2,0.1,0.4,0.2,0.5s0.3,0.2,0.5,0.2c0.2,0,0.5-0.1,0.7-0.2c0.2-0.1,0.3-0.3,0.3-0.5
			c0-0.1,0.1-0.3,0.1-0.7V618z"/>
		<path d="M121.9,620.4h-1.3v-0.8c-0.2,0.3-0.5,0.5-0.7,0.7c-0.3,0.1-0.6,0.2-0.9,0.2c-0.6,0-1.1-0.2-1.5-0.7
			c-0.4-0.5-0.6-1.1-0.6-2c0-0.9,0.2-1.5,0.6-2c0.4-0.5,0.9-0.7,1.6-0.7c0.6,0,1.1,0.2,1.5,0.7v-2.6h1.4V620.4z M118.3,617.7
			c0,0.6,0.1,1,0.2,1.2c0.2,0.4,0.5,0.5,0.9,0.5c0.3,0,0.6-0.1,0.8-0.4c0.2-0.3,0.3-0.7,0.3-1.2c0-0.6-0.1-1-0.3-1.3
			c-0.2-0.3-0.5-0.4-0.8-0.4c-0.3,0-0.6,0.1-0.8,0.4C118.4,616.8,118.3,617.2,118.3,617.7z"/>
		<path d="M123,617.8c0-0.5,0.1-0.9,0.3-1.3s0.5-0.8,1-1s0.9-0.3,1.4-0.3c0.8,0,1.4,0.3,1.9,0.8c0.5,0.5,0.8,1.2,0.8,1.9
			c0,0.8-0.3,1.4-0.8,2c-0.5,0.5-1.1,0.8-1.9,0.8c-0.5,0-0.9-0.1-1.4-0.3s-0.8-0.5-1-0.9C123.1,618.9,123,618.4,123,617.8z
			 M124.4,617.9c0,0.5,0.1,0.9,0.4,1.2s0.5,0.4,0.9,0.4s0.7-0.1,0.9-0.4s0.4-0.7,0.4-1.2c0-0.5-0.1-0.9-0.4-1.2s-0.5-0.4-0.9-0.4
			s-0.7,0.1-0.9,0.4S124.4,617.3,124.4,617.9z"/>
		<path d="M130.7,620.4h-1.4v-5.2h1.3v0.7c0.2-0.3,0.4-0.6,0.6-0.7s0.4-0.2,0.6-0.2c0.3,0,0.6,0.1,0.9,0.3l-0.4,1.2
			c-0.2-0.1-0.4-0.2-0.6-0.2c-0.2,0-0.4,0.1-0.5,0.2c-0.1,0.1-0.2,0.3-0.3,0.6s-0.1,0.9-0.1,1.7V620.4z"/>
		<path d="M134.3,616.8l-1.2-0.2c0.1-0.5,0.4-0.9,0.7-1.1s0.8-0.4,1.5-0.4c0.6,0,1.1,0.1,1.4,0.2c0.3,0.1,0.5,0.3,0.6,0.6
			c0.1,0.2,0.2,0.6,0.2,1.2l0,1.6c0,0.5,0,0.8,0.1,1c0,0.2,0.1,0.4,0.2,0.7h-1.4c0-0.1-0.1-0.2-0.1-0.4c0-0.1,0-0.1,0-0.2
			c-0.2,0.2-0.5,0.4-0.8,0.5s-0.6,0.2-0.9,0.2c-0.5,0-1-0.1-1.3-0.4s-0.5-0.7-0.5-1.1c0-0.3,0.1-0.6,0.2-0.8
			c0.1-0.2,0.3-0.4,0.6-0.5c0.3-0.1,0.6-0.2,1.1-0.3c0.6-0.1,1.1-0.2,1.3-0.3v-0.1c0-0.3-0.1-0.5-0.2-0.6c-0.1-0.1-0.4-0.2-0.7-0.2
			c-0.2,0-0.4,0-0.6,0.1C134.5,616.4,134.4,616.6,134.3,616.8z M136.2,618c-0.2,0.1-0.5,0.1-0.8,0.2s-0.6,0.2-0.7,0.2
			c-0.2,0.1-0.3,0.3-0.3,0.5c0,0.2,0.1,0.4,0.2,0.5s0.3,0.2,0.5,0.2c0.2,0,0.5-0.1,0.7-0.2c0.2-0.1,0.3-0.3,0.3-0.5
			c0-0.1,0.1-0.3,0.1-0.7V618z"/>
		<path d="M143.5,620.4l-2.6-7.2h1.6l1.8,5.3l1.8-5.3h1.5l-2.6,7.2H143.5z"/>
		<path d="M147.6,618.5v-1.4h2.7v1.4H147.6z"/>
		<path d="M151.1,620.4v-7.2h2.2l1.3,4.9l1.3-4.9h2.2v7.2h-1.3v-5.6l-1.4,5.6h-1.4l-1.4-5.6v5.6H151.1z"/>
	</g>
	<g class="st30">
		<path d="M676.9,613.3h2.6c0.6,0,1,0,1.4,0.1c0.4,0.1,0.8,0.3,1.1,0.7c0.3,0.3,0.5,0.7,0.7,1.2c0.2,0.5,0.2,1,0.2,1.7
			c0,0.6-0.1,1.1-0.2,1.5c-0.2,0.5-0.4,0.9-0.8,1.3c-0.3,0.2-0.6,0.4-1,0.6c-0.3,0.1-0.7,0.2-1.3,0.2h-2.7V613.3z M678.3,614.5v4.7
			h1.1c0.4,0,0.7,0,0.9-0.1c0.2-0.1,0.4-0.2,0.6-0.3s0.3-0.4,0.4-0.7c0.1-0.3,0.1-0.8,0.1-1.3s0-1-0.1-1.3s-0.2-0.5-0.4-0.7
			s-0.4-0.3-0.7-0.3c-0.2,0-0.6-0.1-1.2-0.1H678.3z"/>
		<path d="M684.1,614.6v-1.3h1.4v1.3H684.1z M684.1,620.4v-5.2h1.4v5.2H684.1z"/>
		<path d="M686.4,619l1.4-0.2c0.1,0.3,0.2,0.5,0.4,0.6c0.2,0.1,0.4,0.2,0.8,0.2c0.4,0,0.6-0.1,0.8-0.2c0.1-0.1,0.2-0.2,0.2-0.4
			c0-0.1,0-0.2-0.1-0.3c-0.1-0.1-0.2-0.1-0.5-0.2c-1.1-0.2-1.8-0.5-2.1-0.7c-0.4-0.3-0.6-0.7-0.6-1.2c0-0.4,0.2-0.8,0.5-1.1
			c0.4-0.3,0.9-0.5,1.7-0.5c0.7,0,1.2,0.1,1.6,0.3c0.3,0.2,0.6,0.6,0.7,1l-1.3,0.2c-0.1-0.2-0.2-0.4-0.3-0.5s-0.4-0.2-0.7-0.2
			c-0.4,0-0.6,0.1-0.8,0.2c-0.1,0.1-0.2,0.2-0.2,0.3c0,0.1,0,0.2,0.1,0.2c0.1,0.1,0.6,0.2,1.3,0.4s1.2,0.4,1.5,0.6
			c0.3,0.2,0.4,0.6,0.4,1c0,0.5-0.2,0.9-0.6,1.2c-0.4,0.3-1,0.5-1.8,0.5c-0.7,0-1.3-0.1-1.7-0.4S686.5,619.5,686.4,619z"/>
		<path d="M695.4,618.8l1.4,0.2c-0.2,0.5-0.5,0.9-0.8,1.1c-0.4,0.3-0.9,0.4-1.4,0.4c-0.9,0-1.6-0.3-2-0.9c-0.3-0.5-0.5-1.1-0.5-1.8
			c0-0.9,0.2-1.5,0.7-2c0.4-0.5,1-0.7,1.7-0.7c0.8,0,1.4,0.3,1.8,0.8c0.4,0.5,0.7,1.3,0.6,2.3h-3.4c0,0.4,0.1,0.7,0.3,0.9
			c0.2,0.2,0.5,0.3,0.8,0.3c0.2,0,0.4-0.1,0.5-0.2S695.3,619.1,695.4,618.8z M695.5,617.4c0-0.4-0.1-0.7-0.3-0.9
			c-0.2-0.2-0.4-0.3-0.7-0.3c-0.3,0-0.5,0.1-0.7,0.3s-0.3,0.5-0.3,0.9H695.5z"/>
		<path d="M702.7,620.4h-1.4v-2.6c0-0.6,0-0.9-0.1-1.1c-0.1-0.2-0.2-0.3-0.3-0.4s-0.3-0.1-0.5-0.1c-0.2,0-0.5,0.1-0.6,0.2
			c-0.2,0.1-0.3,0.3-0.4,0.5s-0.1,0.6-0.1,1.2v2.3H698v-5.2h1.3v0.8c0.5-0.6,1-0.9,1.7-0.9c0.3,0,0.6,0.1,0.8,0.2
			c0.3,0.1,0.4,0.2,0.6,0.4s0.2,0.4,0.3,0.6s0.1,0.5,0.1,0.9V620.4z M699.3,614.6h-0.6c0-0.1,0-0.1,0-0.2c0-0.3,0.1-0.6,0.2-0.8
			c0.2-0.2,0.4-0.3,0.6-0.3c0.1,0,0.2,0,0.3,0c0.1,0,0.3,0.1,0.5,0.2c0.3,0.1,0.5,0.2,0.6,0.2c0.1,0,0.2,0,0.3-0.1s0.1-0.2,0.1-0.3
			h0.6c0,0.4-0.1,0.8-0.2,0.9s-0.4,0.3-0.6,0.3c-0.1,0-0.2,0-0.3,0c-0.1,0-0.3-0.1-0.6-0.2c-0.3-0.1-0.5-0.2-0.7-0.2
			c-0.1,0-0.2,0-0.2,0.1C699.3,614.3,699.3,614.4,699.3,614.6z"/>
		<path d="M705.1,616.8l-1.2-0.2c0.1-0.5,0.4-0.9,0.7-1.1s0.8-0.4,1.5-0.4c0.6,0,1.1,0.1,1.4,0.2c0.3,0.1,0.5,0.3,0.6,0.6
			c0.1,0.2,0.2,0.6,0.2,1.2l0,1.6c0,0.5,0,0.8,0.1,1c0,0.2,0.1,0.4,0.2,0.7h-1.4c0-0.1-0.1-0.2-0.1-0.4c0-0.1,0-0.1,0-0.2
			c-0.2,0.2-0.5,0.4-0.8,0.5c-0.3,0.1-0.6,0.2-0.9,0.2c-0.5,0-1-0.1-1.3-0.4s-0.5-0.7-0.5-1.1c0-0.3,0.1-0.6,0.2-0.8
			c0.1-0.2,0.3-0.4,0.6-0.5c0.3-0.1,0.6-0.2,1.1-0.3c0.6-0.1,1.1-0.2,1.3-0.3v-0.1c0-0.3-0.1-0.5-0.2-0.6c-0.1-0.1-0.4-0.2-0.7-0.2
			c-0.2,0-0.4,0-0.6,0.1C705.3,616.4,705.2,616.6,705.1,616.8z M706.9,618c-0.2,0.1-0.5,0.1-0.8,0.2s-0.6,0.2-0.7,0.2
			c-0.2,0.1-0.3,0.3-0.3,0.5c0,0.2,0.1,0.4,0.2,0.5c0.1,0.1,0.3,0.2,0.5,0.2c0.2,0,0.5-0.1,0.7-0.2c0.2-0.1,0.3-0.3,0.3-0.5
			c0-0.1,0.1-0.3,0.1-0.7V618z"/>
		<path d="M714.4,620.4h-1.3v-0.8c-0.2,0.3-0.5,0.5-0.7,0.7c-0.3,0.1-0.6,0.2-0.9,0.2c-0.6,0-1.1-0.2-1.5-0.7
			c-0.4-0.5-0.6-1.1-0.6-2c0-0.9,0.2-1.5,0.6-2c0.4-0.5,0.9-0.7,1.6-0.7c0.6,0,1.1,0.2,1.5,0.7v-2.6h1.4V620.4z M710.7,617.7
			c0,0.6,0.1,1,0.2,1.2c0.2,0.4,0.5,0.5,0.9,0.5c0.3,0,0.6-0.1,0.8-0.4c0.2-0.3,0.3-0.7,0.3-1.2c0-0.6-0.1-1-0.3-1.3
			c-0.2-0.3-0.5-0.4-0.8-0.4c-0.3,0-0.6,0.1-0.8,0.4C710.8,616.8,710.7,617.2,710.7,617.7z"/>
		<path d="M715.4,617.8c0-0.5,0.1-0.9,0.3-1.3s0.5-0.8,1-1s0.9-0.3,1.4-0.3c0.8,0,1.4,0.3,1.9,0.8c0.5,0.5,0.8,1.2,0.8,1.9
			c0,0.8-0.3,1.4-0.8,2c-0.5,0.5-1.1,0.8-1.9,0.8c-0.5,0-0.9-0.1-1.4-0.3s-0.8-0.5-1-0.9C715.5,618.9,715.4,618.4,715.4,617.8z
			 M716.8,617.9c0,0.5,0.1,0.9,0.4,1.2s0.5,0.4,0.9,0.4c0.4,0,0.7-0.1,0.9-0.4s0.4-0.7,0.4-1.2c0-0.5-0.1-0.9-0.4-1.2
			s-0.5-0.4-0.9-0.4c-0.4,0-0.7,0.1-0.9,0.4S716.8,617.3,716.8,617.9z"/>
		<path d="M723.2,620.4h-1.4v-5.2h1.3v0.7c0.2-0.3,0.4-0.6,0.6-0.7s0.4-0.2,0.6-0.2c0.3,0,0.6,0.1,0.9,0.3l-0.4,1.2
			c-0.2-0.1-0.4-0.2-0.6-0.2c-0.2,0-0.4,0.1-0.5,0.2c-0.1,0.1-0.2,0.3-0.3,0.6s-0.1,0.9-0.1,1.7V620.4z"/>
		<path d="M726.8,616.8l-1.2-0.2c0.1-0.5,0.4-0.9,0.7-1.1s0.8-0.4,1.5-0.4c0.6,0,1.1,0.1,1.4,0.2c0.3,0.1,0.5,0.3,0.6,0.6
			c0.1,0.2,0.2,0.6,0.2,1.2l0,1.6c0,0.5,0,0.8,0.1,1c0,0.2,0.1,0.4,0.2,0.7h-1.4c0-0.1-0.1-0.2-0.1-0.4c0-0.1,0-0.1,0-0.2
			c-0.2,0.2-0.5,0.4-0.8,0.5c-0.3,0.1-0.6,0.2-0.9,0.2c-0.5,0-1-0.1-1.3-0.4s-0.5-0.7-0.5-1.1c0-0.3,0.1-0.6,0.2-0.8
			c0.1-0.2,0.3-0.4,0.6-0.5c0.3-0.1,0.6-0.2,1.1-0.3c0.6-0.1,1.1-0.2,1.3-0.3v-0.1c0-0.3-0.1-0.5-0.2-0.6c-0.1-0.1-0.4-0.2-0.7-0.2
			c-0.2,0-0.4,0-0.6,0.1C727,616.4,726.9,616.6,726.8,616.8z M728.6,618c-0.2,0.1-0.5,0.1-0.8,0.2s-0.6,0.2-0.7,0.2
			c-0.2,0.1-0.3,0.3-0.3,0.5c0,0.2,0.1,0.4,0.2,0.5c0.1,0.1,0.3,0.2,0.5,0.2c0.2,0,0.5-0.1,0.7-0.2c0.2-0.1,0.3-0.3,0.3-0.5
			c0-0.1,0.1-0.3,0.1-0.7V618z"/>
	</g>
	<g class="st30">
		<path d="M532.4,613.8h2.6c0.6,0,1.1,0,1.4,0.1c0.4,0.1,0.8,0.3,1.1,0.7c0.3,0.3,0.5,0.7,0.7,1.2c0.2,0.5,0.2,1,0.2,1.7
			c0,0.6-0.1,1.1-0.2,1.5c-0.2,0.5-0.4,0.9-0.8,1.3c-0.2,0.2-0.6,0.4-1,0.6c-0.3,0.1-0.7,0.2-1.3,0.2h-2.7V613.8z M533.9,615v4.7
			h1.1c0.4,0,0.7,0,0.9-0.1c0.2-0.1,0.4-0.2,0.6-0.3s0.3-0.4,0.4-0.7c0.1-0.3,0.1-0.8,0.1-1.3s0-1-0.1-1.3s-0.2-0.5-0.4-0.7
			s-0.4-0.3-0.7-0.3c-0.2,0-0.6-0.1-1.2-0.1H533.9z"/>
		<path d="M539.6,615.1v-1.3h1.4v1.3H539.6z M539.6,620.9v-5.2h1.4v5.2H539.6z"/>
		<path d="M541.9,619.5l1.4-0.2c0.1,0.3,0.2,0.5,0.4,0.6c0.2,0.1,0.4,0.2,0.8,0.2c0.4,0,0.6-0.1,0.8-0.2c0.1-0.1,0.2-0.2,0.2-0.4
			c0-0.1,0-0.2-0.1-0.3c-0.1-0.1-0.2-0.1-0.5-0.2c-1.1-0.2-1.8-0.5-2.1-0.7c-0.4-0.3-0.6-0.7-0.6-1.2c0-0.4,0.2-0.8,0.5-1.1
			c0.4-0.3,0.9-0.5,1.7-0.5c0.7,0,1.2,0.1,1.6,0.3c0.3,0.2,0.6,0.6,0.7,1l-1.3,0.2c-0.1-0.2-0.2-0.4-0.3-0.5s-0.4-0.2-0.7-0.2
			c-0.4,0-0.6,0.1-0.8,0.2c-0.1,0.1-0.2,0.2-0.2,0.3c0,0.1,0,0.2,0.1,0.2c0.1,0.1,0.6,0.2,1.3,0.4s1.2,0.4,1.5,0.6
			c0.3,0.2,0.4,0.6,0.4,1c0,0.5-0.2,0.9-0.6,1.2c-0.4,0.3-1,0.5-1.8,0.5c-0.7,0-1.3-0.1-1.7-0.4S542.1,620,541.9,619.5z"/>
		<path d="M551,619.3l1.4,0.2c-0.2,0.5-0.5,0.9-0.8,1.1c-0.4,0.3-0.9,0.4-1.4,0.4c-0.9,0-1.6-0.3-2-0.9c-0.3-0.5-0.5-1.1-0.5-1.8
			c0-0.9,0.2-1.5,0.7-2c0.4-0.5,1-0.7,1.7-0.7c0.8,0,1.4,0.3,1.8,0.8c0.4,0.5,0.7,1.3,0.6,2.3H549c0,0.4,0.1,0.7,0.3,0.9
			c0.2,0.2,0.5,0.3,0.8,0.3c0.2,0,0.4-0.1,0.5-0.2S550.9,619.6,551,619.3z M551.1,617.9c0-0.4-0.1-0.7-0.3-0.9
			c-0.2-0.2-0.4-0.3-0.7-0.3c-0.3,0-0.5,0.1-0.7,0.3s-0.3,0.5-0.3,0.9H551.1z"/>
		<path d="M558.3,620.9h-1.4v-2.6c0-0.6,0-0.9-0.1-1.1c-0.1-0.2-0.2-0.3-0.3-0.4s-0.3-0.1-0.5-0.1c-0.2,0-0.5,0.1-0.6,0.2
			c-0.2,0.1-0.3,0.3-0.4,0.5s-0.1,0.6-0.1,1.2v2.3h-1.4v-5.2h1.3v0.8c0.5-0.6,1-0.9,1.7-0.9c0.3,0,0.6,0.1,0.8,0.2
			c0.2,0.1,0.4,0.2,0.6,0.4s0.2,0.4,0.3,0.6s0.1,0.5,0.1,0.9V620.9z M554.8,615.1h-0.6c0-0.1,0-0.1,0-0.2c0-0.3,0.1-0.6,0.2-0.8
			c0.2-0.2,0.4-0.3,0.6-0.3c0.1,0,0.2,0,0.3,0c0.1,0,0.3,0.1,0.5,0.2c0.3,0.1,0.5,0.2,0.6,0.2c0.1,0,0.2,0,0.3-0.1s0.1-0.2,0.1-0.3
			h0.6c0,0.4-0.1,0.8-0.2,0.9s-0.4,0.3-0.6,0.3c-0.1,0-0.2,0-0.3,0c-0.1,0-0.3-0.1-0.6-0.2c-0.3-0.1-0.5-0.2-0.7-0.2
			c-0.1,0-0.2,0-0.2,0.1C554.9,614.8,554.8,614.9,554.8,615.1z"/>
		<path d="M560.7,617.3l-1.2-0.2c0.1-0.5,0.4-0.9,0.7-1.1s0.8-0.4,1.5-0.4c0.6,0,1.1,0.1,1.4,0.2c0.3,0.1,0.5,0.3,0.6,0.6
			c0.1,0.2,0.2,0.6,0.2,1.2l0,1.6c0,0.5,0,0.8,0.1,1c0,0.2,0.1,0.4,0.2,0.7h-1.4c0-0.1-0.1-0.2-0.1-0.4c0-0.1,0-0.1,0-0.2
			c-0.2,0.2-0.5,0.4-0.8,0.5c-0.3,0.1-0.6,0.2-0.9,0.2c-0.5,0-1-0.1-1.3-0.4s-0.5-0.7-0.5-1.1c0-0.3,0.1-0.6,0.2-0.8
			c0.1-0.2,0.3-0.4,0.6-0.5c0.3-0.1,0.6-0.2,1.1-0.3c0.6-0.1,1.1-0.2,1.3-0.3v-0.1c0-0.3-0.1-0.5-0.2-0.6c-0.1-0.1-0.4-0.2-0.7-0.2
			c-0.2,0-0.4,0-0.6,0.1C560.9,616.9,560.8,617.1,560.7,617.3z M562.5,618.5c-0.2,0.1-0.5,0.1-0.8,0.2s-0.6,0.2-0.7,0.2
			c-0.2,0.1-0.3,0.3-0.3,0.5c0,0.2,0.1,0.4,0.2,0.5c0.1,0.1,0.3,0.2,0.5,0.2c0.2,0,0.5-0.1,0.7-0.2c0.2-0.1,0.3-0.3,0.3-0.5
			c0-0.1,0.1-0.3,0.1-0.7V618.5z"/>
		<path d="M570,620.9h-1.3v-0.8c-0.2,0.3-0.5,0.5-0.8,0.7c-0.3,0.1-0.6,0.2-0.9,0.2c-0.6,0-1.1-0.2-1.5-0.7c-0.4-0.5-0.6-1.1-0.6-2
			c0-0.9,0.2-1.5,0.6-2c0.4-0.5,0.9-0.7,1.6-0.7c0.6,0,1.1,0.2,1.5,0.7v-2.6h1.4V620.9z M566.3,618.2c0,0.6,0.1,1,0.2,1.2
			c0.2,0.4,0.5,0.5,0.9,0.5c0.3,0,0.6-0.1,0.8-0.4c0.2-0.3,0.3-0.7,0.3-1.2c0-0.6-0.1-1-0.3-1.3c-0.2-0.3-0.5-0.4-0.8-0.4
			c-0.3,0-0.6,0.1-0.8,0.4C566.4,617.3,566.3,617.7,566.3,618.2z"/>
		<path d="M571,618.3c0-0.5,0.1-0.9,0.3-1.3s0.5-0.8,1-1s0.9-0.3,1.4-0.3c0.8,0,1.4,0.3,1.9,0.8c0.5,0.5,0.8,1.2,0.8,1.9
			c0,0.8-0.3,1.4-0.8,2c-0.5,0.5-1.1,0.8-1.9,0.8c-0.5,0-0.9-0.1-1.4-0.3s-0.8-0.5-1-0.9C571.1,619.4,571,618.9,571,618.3z
			 M572.4,618.4c0,0.5,0.1,0.9,0.4,1.2s0.5,0.4,0.9,0.4c0.4,0,0.7-0.1,0.9-0.4s0.4-0.7,0.4-1.2c0-0.5-0.1-0.9-0.4-1.2
			s-0.5-0.4-0.9-0.4c-0.4,0-0.7,0.1-0.9,0.4S572.4,617.8,572.4,618.4z"/>
		<path d="M578.7,620.9h-1.4v-5.2h1.3v0.7c0.2-0.3,0.4-0.6,0.6-0.7s0.4-0.2,0.6-0.2c0.3,0,0.6,0.1,0.9,0.3l-0.4,1.2
			c-0.2-0.1-0.4-0.2-0.6-0.2c-0.2,0-0.4,0.1-0.5,0.2c-0.1,0.1-0.2,0.3-0.3,0.6s-0.1,0.9-0.1,1.7V620.9z"/>
		<path d="M584.1,620.9v-7.2h1.4v7.2H584.1z"/>
		<path d="M586.7,619v-1.4h2.7v1.4H586.7z"/>
		<path d="M589.8,618.6l1.4-0.1c0.1,0.5,0.3,0.8,0.5,1s0.6,0.3,1,0.3c0.5,0,0.8-0.1,1.1-0.3c0.2-0.2,0.4-0.4,0.4-0.7
			c0-0.2,0-0.3-0.1-0.4c-0.1-0.1-0.3-0.2-0.5-0.3c-0.2-0.1-0.6-0.2-1.2-0.3c-0.8-0.2-1.3-0.4-1.6-0.7c-0.4-0.4-0.7-0.9-0.7-1.4
			c0-0.4,0.1-0.7,0.3-1c0.2-0.3,0.5-0.6,0.9-0.7s0.9-0.2,1.4-0.2c0.9,0,1.6,0.2,2,0.6s0.7,0.9,0.7,1.6l-1.4,0.1
			c-0.1-0.4-0.2-0.6-0.4-0.8c-0.2-0.2-0.5-0.2-0.9-0.2c-0.4,0-0.7,0.1-1,0.3c-0.2,0.1-0.2,0.3-0.2,0.4c0,0.2,0.1,0.3,0.2,0.4
			c0.2,0.2,0.6,0.3,1.3,0.5s1.2,0.3,1.6,0.5c0.3,0.2,0.6,0.4,0.8,0.7c0.2,0.3,0.3,0.7,0.3,1.1c0,0.4-0.1,0.8-0.3,1.2
			c-0.2,0.4-0.5,0.6-1,0.8c-0.4,0.2-0.9,0.3-1.6,0.3c-0.9,0-1.6-0.2-2.1-0.6C590.2,620,589.9,619.4,589.8,618.6z"/>
	</g>
	<g class="st30">
		<path d="M375,612.5h2.6c0.6,0,1,0,1.4,0.1c0.4,0.1,0.8,0.3,1.1,0.7s0.5,0.7,0.7,1.2c0.2,0.5,0.2,1,0.2,1.7c0,0.6-0.1,1.1-0.2,1.5
			c-0.2,0.5-0.4,0.9-0.8,1.3c-0.3,0.2-0.6,0.4-1,0.6c-0.3,0.1-0.7,0.2-1.3,0.2H375V612.5z M376.5,613.7v4.7h1.1c0.4,0,0.7,0,0.9-0.1
			c0.2-0.1,0.4-0.2,0.6-0.3s0.3-0.4,0.4-0.7c0.1-0.3,0.1-0.8,0.1-1.3s0-1-0.1-1.3s-0.2-0.5-0.4-0.7s-0.4-0.3-0.7-0.3
			c-0.2,0-0.6-0.1-1.2-0.1H376.5z"/>
		<path d="M382.2,613.8v-1.3h1.4v1.3H382.2z M382.2,619.6v-5.2h1.4v5.2H382.2z"/>
		<path d="M384.5,618.2l1.4-0.2c0.1,0.3,0.2,0.5,0.4,0.6c0.2,0.1,0.4,0.2,0.8,0.2c0.4,0,0.6-0.1,0.8-0.2c0.1-0.1,0.2-0.2,0.2-0.4
			c0-0.1,0-0.2-0.1-0.3c-0.1-0.1-0.2-0.1-0.5-0.2c-1.1-0.2-1.8-0.5-2.1-0.7c-0.4-0.3-0.6-0.7-0.6-1.2c0-0.4,0.2-0.8,0.5-1.1
			s0.9-0.5,1.7-0.5c0.7,0,1.2,0.1,1.6,0.3s0.6,0.6,0.7,1l-1.3,0.2c-0.1-0.2-0.2-0.4-0.3-0.5s-0.4-0.2-0.7-0.2
			c-0.4,0-0.6,0.1-0.8,0.2c-0.1,0.1-0.2,0.2-0.2,0.3c0,0.1,0,0.2,0.1,0.2c0.1,0.1,0.6,0.2,1.3,0.4s1.2,0.4,1.5,0.6
			c0.3,0.2,0.4,0.6,0.4,1c0,0.5-0.2,0.9-0.6,1.2s-1,0.5-1.8,0.5c-0.7,0-1.3-0.1-1.7-0.4S384.7,618.7,384.5,618.2z"/>
		<path d="M393.6,618l1.4,0.2c-0.2,0.5-0.5,0.9-0.8,1.1c-0.4,0.3-0.9,0.4-1.4,0.4c-0.9,0-1.6-0.3-2-0.9c-0.3-0.5-0.5-1.1-0.5-1.8
			c0-0.9,0.2-1.5,0.7-2c0.4-0.5,1-0.7,1.7-0.7c0.8,0,1.4,0.3,1.8,0.8c0.4,0.5,0.7,1.3,0.6,2.3h-3.4c0,0.4,0.1,0.7,0.3,0.9
			c0.2,0.2,0.5,0.3,0.8,0.3c0.2,0,0.4-0.1,0.5-0.2S393.5,618.3,393.6,618z M393.7,616.6c0-0.4-0.1-0.7-0.3-0.9
			c-0.2-0.2-0.4-0.3-0.7-0.3c-0.3,0-0.5,0.1-0.7,0.3s-0.3,0.5-0.3,0.9H393.7z"/>
		<path d="M400.9,619.6h-1.4V617c0-0.6,0-0.9-0.1-1.1c-0.1-0.2-0.2-0.3-0.3-0.4s-0.3-0.1-0.5-0.1c-0.2,0-0.5,0.1-0.6,0.2
			s-0.3,0.3-0.4,0.5s-0.1,0.6-0.1,1.2v2.3h-1.4v-5.2h1.3v0.8c0.5-0.6,1-0.9,1.7-0.9c0.3,0,0.6,0.1,0.8,0.2c0.3,0.1,0.4,0.2,0.6,0.4
			s0.2,0.4,0.3,0.6s0.1,0.5,0.1,0.9V619.6z M397.4,613.8h-0.6c0-0.1,0-0.1,0-0.2c0-0.3,0.1-0.6,0.2-0.8c0.2-0.2,0.4-0.3,0.6-0.3
			c0.1,0,0.2,0,0.3,0c0.1,0,0.3,0.1,0.5,0.2c0.3,0.1,0.5,0.2,0.6,0.2c0.1,0,0.2,0,0.3-0.1s0.1-0.2,0.1-0.3h0.6
			c0,0.4-0.1,0.8-0.2,0.9s-0.4,0.3-0.6,0.3c-0.1,0-0.2,0-0.3,0c-0.1,0-0.3-0.1-0.6-0.2s-0.5-0.2-0.7-0.2c-0.1,0-0.2,0-0.2,0.1
			C397.5,613.5,397.4,613.6,397.4,613.8z"/>
		<path d="M403.3,616l-1.2-0.2c0.1-0.5,0.4-0.9,0.7-1.1s0.8-0.4,1.5-0.4c0.6,0,1.1,0.1,1.4,0.2c0.3,0.1,0.5,0.3,0.6,0.6
			c0.1,0.2,0.2,0.6,0.2,1.2l0,1.6c0,0.5,0,0.8,0.1,1c0,0.2,0.1,0.4,0.2,0.7h-1.4c0-0.1-0.1-0.2-0.1-0.4c0-0.1,0-0.1,0-0.2
			c-0.2,0.2-0.5,0.4-0.8,0.5s-0.6,0.2-0.9,0.2c-0.5,0-1-0.1-1.3-0.4s-0.5-0.7-0.5-1.1c0-0.3,0.1-0.6,0.2-0.8
			c0.1-0.2,0.3-0.4,0.6-0.5c0.3-0.1,0.6-0.2,1.1-0.3c0.6-0.1,1.1-0.2,1.3-0.3v-0.1c0-0.3-0.1-0.5-0.2-0.6c-0.1-0.1-0.4-0.2-0.7-0.2
			c-0.2,0-0.4,0-0.6,0.1C403.5,615.6,403.4,615.8,403.3,616z M405.1,617.2c-0.2,0.1-0.5,0.1-0.8,0.2s-0.6,0.2-0.7,0.2
			c-0.2,0.1-0.3,0.3-0.3,0.5c0,0.2,0.1,0.4,0.2,0.5s0.3,0.2,0.5,0.2c0.2,0,0.5-0.1,0.7-0.2c0.2-0.1,0.3-0.3,0.3-0.5
			c0-0.1,0.1-0.3,0.1-0.7V617.2z"/>
		<path d="M412.6,619.6h-1.3v-0.8c-0.2,0.3-0.5,0.5-0.7,0.7c-0.3,0.1-0.6,0.2-0.9,0.2c-0.6,0-1.1-0.2-1.5-0.7
			c-0.4-0.5-0.6-1.1-0.6-2c0-0.9,0.2-1.5,0.6-2c0.4-0.5,0.9-0.7,1.6-0.7c0.6,0,1.1,0.2,1.5,0.7v-2.6h1.4V619.6z M408.9,616.9
			c0,0.6,0.1,1,0.2,1.2c0.2,0.4,0.5,0.5,0.9,0.5c0.3,0,0.6-0.1,0.8-0.4c0.2-0.3,0.3-0.7,0.3-1.2c0-0.6-0.1-1-0.3-1.3
			c-0.2-0.3-0.5-0.4-0.8-0.4c-0.3,0-0.6,0.1-0.8,0.4C409,616,408.9,616.4,408.9,616.9z"/>
		<path d="M413.6,617c0-0.5,0.1-0.9,0.3-1.3s0.5-0.8,1-1s0.9-0.3,1.4-0.3c0.8,0,1.4,0.3,1.9,0.8c0.5,0.5,0.8,1.2,0.8,1.9
			c0,0.8-0.3,1.4-0.8,2c-0.5,0.5-1.1,0.8-1.9,0.8c-0.5,0-0.9-0.1-1.4-0.3s-0.8-0.5-1-0.9C413.7,618.1,413.6,617.6,413.6,617z
			 M415,617.1c0,0.5,0.1,0.9,0.4,1.2s0.5,0.4,0.9,0.4s0.7-0.1,0.9-0.4s0.4-0.7,0.4-1.2c0-0.5-0.1-0.9-0.4-1.2s-0.5-0.4-0.9-0.4
			s-0.7,0.1-0.9,0.4S415,616.5,415,617.1z"/>
		<path d="M421.3,619.6H420v-5.2h1.3v0.7c0.2-0.3,0.4-0.6,0.6-0.7s0.4-0.2,0.6-0.2c0.3,0,0.6,0.1,0.9,0.3l-0.4,1.2
			c-0.2-0.1-0.4-0.2-0.6-0.2c-0.2,0-0.4,0.1-0.5,0.2c-0.1,0.1-0.2,0.3-0.3,0.6s-0.1,0.9-0.1,1.7V619.6z"/>
		<path d="M424.9,616l-1.2-0.2c0.1-0.5,0.4-0.9,0.7-1.1s0.8-0.4,1.5-0.4c0.6,0,1.1,0.1,1.4,0.2c0.3,0.1,0.5,0.3,0.6,0.6
			c0.1,0.2,0.2,0.6,0.2,1.2l0,1.6c0,0.5,0,0.8,0.1,1c0,0.2,0.1,0.4,0.2,0.7h-1.4c0-0.1-0.1-0.2-0.1-0.4c0-0.1,0-0.1,0-0.2
			c-0.2,0.2-0.5,0.4-0.8,0.5s-0.6,0.2-0.9,0.2c-0.5,0-1-0.1-1.3-0.4s-0.5-0.7-0.5-1.1c0-0.3,0.1-0.6,0.2-0.8
			c0.1-0.2,0.3-0.4,0.6-0.5c0.3-0.1,0.6-0.2,1.1-0.3c0.6-0.1,1.1-0.2,1.3-0.3v-0.1c0-0.3-0.1-0.5-0.2-0.6c-0.1-0.1-0.4-0.2-0.7-0.2
			c-0.2,0-0.4,0-0.6,0.1C425.1,615.6,425,615.8,424.9,616z M426.8,617.2c-0.2,0.1-0.5,0.1-0.8,0.2s-0.6,0.2-0.7,0.2
			c-0.2,0.1-0.3,0.3-0.3,0.5c0,0.2,0.1,0.4,0.2,0.5s0.3,0.2,0.5,0.2c0.2,0,0.5-0.1,0.7-0.2c0.2-0.1,0.3-0.3,0.3-0.5
			c0-0.1,0.1-0.3,0.1-0.7V617.2z"/>
		<path d="M432.2,619.6v-7.2h1.4v7.2H432.2z"/>
		<path d="M434.9,617.7v-1.4h2.7v1.4H434.9z"/>
		<path d="M438,617.3l1.4-0.1c0.1,0.5,0.3,0.8,0.5,1s0.6,0.3,1,0.3c0.5,0,0.8-0.1,1.1-0.3c0.2-0.2,0.4-0.4,0.4-0.7
			c0-0.2,0-0.3-0.1-0.4c-0.1-0.1-0.3-0.2-0.5-0.3c-0.2-0.1-0.6-0.2-1.2-0.3c-0.8-0.2-1.3-0.4-1.6-0.7c-0.4-0.4-0.7-0.9-0.7-1.4
			c0-0.4,0.1-0.7,0.3-1c0.2-0.3,0.5-0.6,0.9-0.7s0.9-0.2,1.4-0.2c0.9,0,1.6,0.2,2,0.6s0.7,0.9,0.7,1.6l-1.4,0.1
			c-0.1-0.4-0.2-0.6-0.4-0.8c-0.2-0.2-0.5-0.2-0.9-0.2c-0.4,0-0.7,0.1-1,0.3c-0.2,0.1-0.2,0.3-0.2,0.4c0,0.2,0.1,0.3,0.2,0.4
			c0.2,0.2,0.6,0.3,1.3,0.5s1.2,0.3,1.6,0.5c0.3,0.2,0.6,0.4,0.8,0.7c0.2,0.3,0.3,0.7,0.3,1.1c0,0.4-0.1,0.8-0.3,1.2s-0.6,0.6-1,0.8
			c-0.4,0.2-0.9,0.3-1.6,0.3c-0.9,0-1.6-0.2-2.1-0.6C438.4,618.7,438.1,618.1,438,617.3z"/>
	</g>
	<g class="st30">
		<path d="M235.2,613.3h2.6c0.6,0,1,0,1.4,0.1c0.4,0.1,0.8,0.3,1.1,0.7s0.5,0.7,0.7,1.2c0.2,0.5,0.2,1,0.2,1.7
			c0,0.6-0.1,1.1-0.2,1.5c-0.2,0.5-0.4,0.9-0.8,1.3c-0.3,0.2-0.6,0.4-1,0.6c-0.3,0.1-0.7,0.2-1.3,0.2h-2.7V613.3z M236.6,614.5v4.7
			h1.1c0.4,0,0.7,0,0.9-0.1c0.2-0.1,0.4-0.2,0.6-0.3s0.3-0.4,0.4-0.7c0.1-0.3,0.1-0.8,0.1-1.3s0-1-0.1-1.3s-0.2-0.5-0.4-0.7
			s-0.4-0.3-0.7-0.3c-0.2,0-0.6-0.1-1.2-0.1H236.6z"/>
		<path d="M242.4,614.6v-1.3h1.4v1.3H242.4z M242.4,620.4v-5.2h1.4v5.2H242.4z"/>
		<path d="M244.7,619l1.4-0.2c0.1,0.3,0.2,0.5,0.4,0.6c0.2,0.1,0.4,0.2,0.8,0.2c0.4,0,0.6-0.1,0.8-0.2c0.1-0.1,0.2-0.2,0.2-0.4
			c0-0.1,0-0.2-0.1-0.3c-0.1-0.1-0.2-0.1-0.5-0.2c-1.1-0.2-1.8-0.5-2.1-0.7c-0.4-0.3-0.6-0.7-0.6-1.2c0-0.4,0.2-0.8,0.5-1.1
			s0.9-0.5,1.7-0.5c0.7,0,1.2,0.1,1.6,0.3s0.6,0.6,0.7,1l-1.3,0.2c-0.1-0.2-0.2-0.4-0.3-0.5s-0.4-0.2-0.7-0.2
			c-0.4,0-0.6,0.1-0.8,0.2c-0.1,0.1-0.2,0.2-0.2,0.3c0,0.1,0,0.2,0.1,0.2c0.1,0.1,0.6,0.2,1.3,0.4s1.2,0.4,1.5,0.6
			c0.3,0.2,0.4,0.6,0.4,1c0,0.5-0.2,0.9-0.6,1.2s-1,0.5-1.8,0.5c-0.7,0-1.3-0.1-1.7-0.4S244.8,619.5,244.7,619z"/>
		<path d="M253.7,618.8l1.4,0.2c-0.2,0.5-0.5,0.9-0.8,1.1c-0.4,0.3-0.9,0.4-1.4,0.4c-0.9,0-1.6-0.3-2-0.9c-0.3-0.5-0.5-1.1-0.5-1.8
			c0-0.9,0.2-1.5,0.7-2c0.4-0.5,1-0.7,1.7-0.7c0.8,0,1.4,0.3,1.8,0.8c0.4,0.5,0.7,1.3,0.6,2.3h-3.4c0,0.4,0.1,0.7,0.3,0.9
			c0.2,0.2,0.5,0.3,0.8,0.3c0.2,0,0.4-0.1,0.5-0.2S253.7,619.1,253.7,618.8z M253.8,617.4c0-0.4-0.1-0.7-0.3-0.9
			c-0.2-0.2-0.4-0.3-0.7-0.3c-0.3,0-0.5,0.1-0.7,0.3s-0.3,0.5-0.3,0.9H253.8z"/>
		<path d="M261,620.4h-1.4v-2.6c0-0.6,0-0.9-0.1-1.1c-0.1-0.2-0.2-0.3-0.3-0.4s-0.3-0.1-0.5-0.1c-0.2,0-0.5,0.1-0.6,0.2
			s-0.3,0.3-0.4,0.5s-0.1,0.6-0.1,1.2v2.3h-1.4v-5.2h1.3v0.8c0.5-0.6,1-0.9,1.7-0.9c0.3,0,0.6,0.1,0.8,0.2c0.3,0.1,0.4,0.2,0.6,0.4
			s0.2,0.4,0.3,0.6s0.1,0.5,0.1,0.9V620.4z M257.6,614.6H257c0-0.1,0-0.1,0-0.2c0-0.3,0.1-0.6,0.2-0.8c0.2-0.2,0.4-0.3,0.6-0.3
			c0.1,0,0.2,0,0.3,0c0.1,0,0.3,0.1,0.5,0.2c0.3,0.1,0.5,0.2,0.6,0.2c0.1,0,0.2,0,0.3-0.1s0.1-0.2,0.1-0.3h0.6
			c0,0.4-0.1,0.8-0.2,0.9s-0.4,0.3-0.6,0.3c-0.1,0-0.2,0-0.3,0c-0.1,0-0.3-0.1-0.6-0.2s-0.5-0.2-0.7-0.2c-0.1,0-0.2,0-0.2,0.1
			C257.6,614.3,257.6,614.4,257.6,614.6z"/>
		<path d="M263.4,616.8l-1.2-0.2c0.1-0.5,0.4-0.9,0.7-1.1s0.8-0.4,1.5-0.4c0.6,0,1.1,0.1,1.4,0.2c0.3,0.1,0.5,0.3,0.6,0.6
			c0.1,0.2,0.2,0.6,0.2,1.2l0,1.6c0,0.5,0,0.8,0.1,1c0,0.2,0.1,0.4,0.2,0.7h-1.4c0-0.1-0.1-0.2-0.1-0.4c0-0.1,0-0.1,0-0.2
			c-0.2,0.2-0.5,0.4-0.8,0.5s-0.6,0.2-0.9,0.2c-0.5,0-1-0.1-1.3-0.4s-0.5-0.7-0.5-1.1c0-0.3,0.1-0.6,0.2-0.8
			c0.1-0.2,0.3-0.4,0.6-0.5c0.3-0.1,0.6-0.2,1.1-0.3c0.6-0.1,1.1-0.2,1.3-0.3v-0.1c0-0.3-0.1-0.5-0.2-0.6c-0.1-0.1-0.4-0.2-0.7-0.2
			c-0.2,0-0.4,0-0.6,0.1C263.6,616.4,263.5,616.6,263.4,616.8z M265.3,618c-0.2,0.1-0.5,0.1-0.8,0.2s-0.6,0.2-0.7,0.2
			c-0.2,0.1-0.3,0.3-0.3,0.5c0,0.2,0.1,0.4,0.2,0.5s0.3,0.2,0.5,0.2c0.2,0,0.5-0.1,0.7-0.2c0.2-0.1,0.3-0.3,0.3-0.5
			c0-0.1,0.1-0.3,0.1-0.7V618z"/>
		<path d="M272.7,620.4h-1.3v-0.8c-0.2,0.3-0.5,0.5-0.7,0.7c-0.3,0.1-0.6,0.2-0.9,0.2c-0.6,0-1.1-0.2-1.5-0.7
			c-0.4-0.5-0.6-1.1-0.6-2c0-0.9,0.2-1.5,0.6-2c0.4-0.5,0.9-0.7,1.6-0.7c0.6,0,1.1,0.2,1.5,0.7v-2.6h1.4V620.4z M269.1,617.7
			c0,0.6,0.1,1,0.2,1.2c0.2,0.4,0.5,0.5,0.9,0.5c0.3,0,0.6-0.1,0.8-0.4c0.2-0.3,0.3-0.7,0.3-1.2c0-0.6-0.1-1-0.3-1.3
			c-0.2-0.3-0.5-0.4-0.8-0.4c-0.3,0-0.6,0.1-0.8,0.4C269.2,616.8,269.1,617.2,269.1,617.7z"/>
		<path d="M273.8,617.8c0-0.5,0.1-0.9,0.3-1.3s0.5-0.8,1-1s0.9-0.3,1.4-0.3c0.8,0,1.4,0.3,1.9,0.8c0.5,0.5,0.8,1.2,0.8,1.9
			c0,0.8-0.3,1.4-0.8,2c-0.5,0.5-1.1,0.8-1.9,0.8c-0.5,0-0.9-0.1-1.4-0.3s-0.8-0.5-1-0.9C273.9,618.9,273.8,618.4,273.8,617.8z
			 M275.2,617.9c0,0.5,0.1,0.9,0.4,1.2s0.5,0.4,0.9,0.4s0.7-0.1,0.9-0.4s0.4-0.7,0.4-1.2c0-0.5-0.1-0.9-0.4-1.2s-0.5-0.4-0.9-0.4
			s-0.7,0.1-0.9,0.4S275.2,617.3,275.2,617.9z"/>
		<path d="M281.5,620.4h-1.4v-5.2h1.3v0.7c0.2-0.3,0.4-0.6,0.6-0.7s0.4-0.2,0.6-0.2c0.3,0,0.6,0.1,0.9,0.3l-0.4,1.2
			c-0.2-0.1-0.4-0.2-0.6-0.2c-0.2,0-0.4,0.1-0.5,0.2c-0.1,0.1-0.2,0.3-0.3,0.6s-0.1,0.9-0.1,1.7V620.4z"/>
		<path d="M288.7,620.4l-2.6-7.2h1.6l1.8,5.3l1.8-5.3h1.5l-2.6,7.2H288.7z"/>
		<path d="M292.8,618.5v-1.4h2.7v1.4H292.8z"/>
		<path d="M296.3,620.4v-7.2h2.2l1.3,4.9l1.3-4.9h2.2v7.2h-1.3v-5.6l-1.4,5.6H299l-1.4-5.6v5.6H296.3z"/>
	</g>
	<g class="st30">
		<path d="M819.6,613.3h2.6c0.6,0,1,0,1.4,0.1c0.4,0.1,0.8,0.3,1.1,0.7c0.3,0.3,0.5,0.7,0.7,1.2c0.2,0.5,0.2,1,0.2,1.7
			c0,0.6-0.1,1.1-0.2,1.5c-0.2,0.5-0.4,0.9-0.8,1.3c-0.2,0.2-0.6,0.4-1,0.6c-0.3,0.1-0.7,0.2-1.3,0.2h-2.7V613.3z M821.1,614.5v4.7
			h1.1c0.4,0,0.7,0,0.9-0.1c0.2-0.1,0.4-0.2,0.6-0.3c0.2-0.1,0.3-0.4,0.4-0.7c0.1-0.3,0.1-0.8,0.1-1.3s0-1-0.1-1.3s-0.2-0.5-0.4-0.7
			s-0.4-0.3-0.7-0.3c-0.2,0-0.6-0.1-1.2-0.1H821.1z"/>
		<path d="M826.8,614.6v-1.3h1.4v1.3H826.8z M826.8,620.4v-5.2h1.4v5.2H826.8z"/>
		<path d="M829.1,619l1.4-0.2c0.1,0.3,0.2,0.5,0.4,0.6c0.2,0.1,0.4,0.2,0.8,0.2c0.4,0,0.6-0.1,0.8-0.2c0.1-0.1,0.2-0.2,0.2-0.4
			c0-0.1,0-0.2-0.1-0.3c-0.1-0.1-0.2-0.1-0.5-0.2c-1.1-0.2-1.8-0.5-2.1-0.7c-0.4-0.3-0.6-0.7-0.6-1.2c0-0.4,0.2-0.8,0.5-1.1
			c0.4-0.3,0.9-0.5,1.7-0.5c0.7,0,1.2,0.1,1.6,0.3c0.3,0.2,0.6,0.6,0.7,1l-1.3,0.2c-0.1-0.2-0.2-0.4-0.3-0.5
			c-0.2-0.1-0.4-0.2-0.7-0.2c-0.4,0-0.6,0.1-0.8,0.2c-0.1,0.1-0.2,0.2-0.2,0.3c0,0.1,0,0.2,0.1,0.2c0.1,0.1,0.6,0.2,1.3,0.4
			c0.7,0.2,1.2,0.4,1.5,0.6c0.3,0.2,0.4,0.6,0.4,1c0,0.5-0.2,0.9-0.6,1.2c-0.4,0.3-1,0.5-1.8,0.5c-0.7,0-1.3-0.1-1.7-0.4
			C829.5,619.9,829.3,619.5,829.1,619z"/>
		<path d="M838.2,618.8l1.4,0.2c-0.2,0.5-0.5,0.9-0.8,1.1c-0.4,0.3-0.9,0.4-1.4,0.4c-0.9,0-1.6-0.3-2-0.9c-0.3-0.5-0.5-1.1-0.5-1.8
			c0-0.9,0.2-1.5,0.7-2c0.4-0.5,1-0.7,1.7-0.7c0.8,0,1.4,0.3,1.8,0.8c0.4,0.5,0.7,1.3,0.6,2.3h-3.4c0,0.4,0.1,0.7,0.3,0.9
			c0.2,0.2,0.5,0.3,0.8,0.3c0.2,0,0.4-0.1,0.5-0.2S838.1,619.1,838.2,618.8z M838.3,617.4c0-0.4-0.1-0.7-0.3-0.9
			c-0.2-0.2-0.4-0.3-0.7-0.3c-0.3,0-0.5,0.1-0.7,0.3s-0.3,0.5-0.3,0.9H838.3z"/>
		<path d="M845.5,620.4h-1.4v-2.6c0-0.6,0-0.9-0.1-1.1c-0.1-0.2-0.2-0.3-0.3-0.4s-0.3-0.1-0.5-0.1c-0.2,0-0.5,0.1-0.6,0.2
			c-0.2,0.1-0.3,0.3-0.4,0.5c-0.1,0.2-0.1,0.6-0.1,1.2v2.3h-1.4v-5.2h1.3v0.8c0.5-0.6,1-0.9,1.7-0.9c0.3,0,0.6,0.1,0.8,0.2
			c0.3,0.1,0.4,0.2,0.6,0.4c0.1,0.2,0.2,0.4,0.3,0.6c0,0.2,0.1,0.5,0.1,0.9V620.4z M842,614.6h-0.6c0-0.1,0-0.1,0-0.2
			c0-0.3,0.1-0.6,0.2-0.8c0.2-0.2,0.4-0.3,0.6-0.3c0.1,0,0.2,0,0.3,0c0.1,0,0.3,0.1,0.5,0.2c0.3,0.1,0.5,0.2,0.6,0.2
			c0.1,0,0.2,0,0.3-0.1c0.1-0.1,0.1-0.2,0.1-0.3h0.6c0,0.4-0.1,0.8-0.2,0.9s-0.4,0.3-0.6,0.3c-0.1,0-0.2,0-0.3,0
			c-0.1,0-0.3-0.1-0.6-0.2c-0.3-0.1-0.5-0.2-0.7-0.2c-0.1,0-0.2,0-0.2,0.1C842.1,614.3,842,614.4,842,614.6z"/>
		<path d="M847.9,616.8l-1.2-0.2c0.1-0.5,0.4-0.9,0.7-1.1s0.8-0.4,1.5-0.4c0.6,0,1.1,0.1,1.4,0.2c0.3,0.1,0.5,0.3,0.6,0.6
			c0.1,0.2,0.2,0.6,0.2,1.2l0,1.6c0,0.5,0,0.8,0.1,1c0,0.2,0.1,0.4,0.2,0.7H850c0-0.1-0.1-0.2-0.1-0.4c0-0.1,0-0.1,0-0.2
			c-0.2,0.2-0.5,0.4-0.8,0.5c-0.3,0.1-0.6,0.2-0.9,0.2c-0.5,0-1-0.1-1.3-0.4s-0.5-0.7-0.5-1.1c0-0.3,0.1-0.6,0.2-0.8
			c0.1-0.2,0.3-0.4,0.6-0.5c0.3-0.1,0.6-0.2,1.1-0.3c0.6-0.1,1.1-0.2,1.3-0.3v-0.1c0-0.3-0.1-0.5-0.2-0.6c-0.1-0.1-0.4-0.2-0.7-0.2
			c-0.2,0-0.4,0-0.6,0.1C848.1,616.4,848,616.6,847.9,616.8z M849.7,618c-0.2,0.1-0.5,0.1-0.8,0.2s-0.6,0.2-0.7,0.2
			c-0.2,0.1-0.3,0.3-0.3,0.5c0,0.2,0.1,0.4,0.2,0.5c0.1,0.1,0.3,0.2,0.5,0.2c0.2,0,0.5-0.1,0.7-0.2c0.2-0.1,0.3-0.3,0.3-0.5
			c0-0.1,0.1-0.3,0.1-0.7V618z"/>
		<path d="M857.2,620.4h-1.3v-0.8c-0.2,0.3-0.5,0.5-0.7,0.7c-0.3,0.1-0.6,0.2-0.9,0.2c-0.6,0-1.1-0.2-1.5-0.7
			c-0.4-0.5-0.6-1.1-0.6-2c0-0.9,0.2-1.5,0.6-2c0.4-0.5,0.9-0.7,1.6-0.7c0.6,0,1.1,0.2,1.5,0.7v-2.6h1.4V620.4z M853.5,617.7
			c0,0.6,0.1,1,0.2,1.2c0.2,0.4,0.5,0.5,0.9,0.5c0.3,0,0.6-0.1,0.8-0.4c0.2-0.3,0.3-0.7,0.3-1.2c0-0.6-0.1-1-0.3-1.3
			c-0.2-0.3-0.5-0.4-0.8-0.4c-0.3,0-0.6,0.1-0.8,0.4C853.6,616.8,853.5,617.2,853.5,617.7z"/>
		<path d="M858.2,617.8c0-0.5,0.1-0.9,0.3-1.3s0.5-0.8,1-1c0.4-0.2,0.9-0.3,1.4-0.3c0.8,0,1.4,0.3,1.9,0.8c0.5,0.5,0.8,1.2,0.8,1.9
			c0,0.8-0.3,1.4-0.8,2c-0.5,0.5-1.1,0.8-1.9,0.8c-0.5,0-0.9-0.1-1.4-0.3c-0.4-0.2-0.8-0.5-1-0.9
			C858.3,618.9,858.2,618.4,858.2,617.8z M859.6,617.9c0,0.5,0.1,0.9,0.4,1.2s0.5,0.4,0.9,0.4c0.4,0,0.7-0.1,0.9-0.4
			c0.2-0.3,0.4-0.7,0.4-1.2c0-0.5-0.1-0.9-0.4-1.2c-0.2-0.3-0.5-0.4-0.9-0.4c-0.4,0-0.7,0.1-0.9,0.4S859.6,617.3,859.6,617.9z"/>
		<path d="M866,620.4h-1.4v-5.2h1.3v0.7c0.2-0.3,0.4-0.6,0.6-0.7c0.2-0.1,0.4-0.2,0.6-0.2c0.3,0,0.6,0.1,0.9,0.3l-0.4,1.2
			c-0.2-0.1-0.4-0.2-0.6-0.2c-0.2,0-0.4,0.1-0.5,0.2c-0.1,0.1-0.2,0.3-0.3,0.6c-0.1,0.3-0.1,0.9-0.1,1.7V620.4z"/>
	</g>
	<g class="st30">
		<path d="M135.7,38.1v-0.8h4.6V38c-0.5,0.5-0.9,1.1-1.4,1.9s-0.8,1.6-1,2.5c-0.2,0.6-0.3,1.3-0.3,2h-0.9c0-0.6,0.1-1.2,0.3-2
			s0.5-1.6,0.9-2.3c0.4-0.7,0.8-1.4,1.3-1.9H135.7z"/>
	</g>
	<g class="st30">
		<path d="M138.4,604.3v-1.7h-3.1v-0.8l3.3-4.6h0.7v4.6h1v0.8h-1v1.7H138.4z M138.4,601.8v-3.2l-2.2,3.2H138.4z"/>
	</g>
	<g class="st30">
		<path d="M140.2,225.6l-0.9,0.1c-0.1-0.3-0.2-0.6-0.3-0.8c-0.2-0.3-0.5-0.4-0.9-0.4c-0.3,0-0.5,0.1-0.7,0.2
			c-0.3,0.2-0.5,0.5-0.7,0.9s-0.2,0.9-0.2,1.7c0.2-0.3,0.5-0.6,0.8-0.7s0.6-0.2,1-0.2c0.6,0,1.1,0.2,1.5,0.6c0.4,0.4,0.6,1,0.6,1.7
			c0,0.4-0.1,0.9-0.3,1.3c-0.2,0.4-0.5,0.7-0.8,0.9s-0.7,0.3-1.2,0.3c-0.7,0-1.3-0.3-1.8-0.8c-0.5-0.5-0.7-1.4-0.7-2.7
			c0-1.4,0.3-2.4,0.8-3c0.4-0.5,1-0.8,1.8-0.8c0.6,0,1,0.2,1.4,0.5S140.1,225.1,140.2,225.6z M136.6,228.7c0,0.3,0.1,0.6,0.2,0.9
			s0.3,0.5,0.5,0.6c0.2,0.1,0.5,0.2,0.7,0.2c0.4,0,0.7-0.1,1-0.4s0.4-0.7,0.4-1.2c0-0.5-0.1-0.9-0.4-1.2c-0.3-0.3-0.6-0.4-1-0.4
			c-0.4,0-0.7,0.1-1,0.4C136.7,227.9,136.6,228.2,136.6,228.7z"/>
	</g>
	<g class="st30">
		<path d="M88.2,313.1l0.9-0.1c0.1,0.4,0.2,0.8,0.5,1c0.2,0.2,0.5,0.3,0.9,0.3c0.4,0,0.8-0.2,1.1-0.5s0.4-0.7,0.4-1.3
			c0-0.5-0.1-0.9-0.4-1.2s-0.7-0.4-1.1-0.4c-0.3,0-0.5,0.1-0.8,0.2c-0.2,0.1-0.4,0.3-0.5,0.5l-0.8-0.1L89,308h3.6v0.8h-2.9l-0.4,1.9
			c0.4-0.3,0.9-0.4,1.4-0.4c0.6,0,1.2,0.2,1.6,0.6s0.6,1,0.6,1.7c0,0.6-0.2,1.2-0.6,1.7c-0.5,0.6-1.1,0.9-1.9,0.9
			c-0.7,0-1.2-0.2-1.6-0.5S88.2,313.7,88.2,313.1z"/>
		<path d="M94.2,315v-1h1v1H94.2z"/>
		<path d="M96.5,313.1l0.9-0.1c0.1,0.4,0.2,0.8,0.5,1c0.2,0.2,0.5,0.3,0.9,0.3c0.4,0,0.8-0.2,1.1-0.5s0.4-0.7,0.4-1.3
			c0-0.5-0.1-0.9-0.4-1.2s-0.7-0.4-1.1-0.4c-0.3,0-0.5,0.1-0.8,0.2c-0.2,0.1-0.4,0.3-0.5,0.5l-0.8-0.1l0.7-3.7h3.6v0.8H98l-0.4,1.9
			c0.4-0.3,0.9-0.4,1.4-0.4c0.6,0,1.2,0.2,1.6,0.6s0.6,1,0.6,1.7c0,0.6-0.2,1.2-0.6,1.7c-0.5,0.6-1.1,0.9-1.9,0.9
			c-0.7,0-1.2-0.2-1.6-0.5S96.6,313.7,96.5,313.1z"/>
		<path d="M102.1,313.1l0.9-0.1c0.1,0.4,0.2,0.8,0.5,1c0.2,0.2,0.5,0.3,0.9,0.3c0.4,0,0.8-0.2,1.1-0.5s0.4-0.7,0.4-1.3
			c0-0.5-0.1-0.9-0.4-1.2s-0.7-0.4-1.1-0.4c-0.3,0-0.5,0.1-0.8,0.2c-0.2,0.1-0.4,0.3-0.5,0.5l-0.8-0.1l0.7-3.7h3.6v0.8h-2.9
			l-0.4,1.9c0.4-0.3,0.9-0.4,1.4-0.4c0.6,0,1.2,0.2,1.6,0.6s0.6,1,0.6,1.7c0,0.6-0.2,1.2-0.6,1.7c-0.5,0.6-1.1,0.9-1.9,0.9
			c-0.7,0-1.2-0.2-1.6-0.5S102.1,313.7,102.1,313.1z"/>
	</g>
	<g class="st30">
		<path d="M108.3,130.3l-0.9,0.1c-0.1-0.3-0.2-0.6-0.3-0.8c-0.2-0.3-0.5-0.4-0.9-0.4c-0.3,0-0.5,0.1-0.7,0.2
			c-0.3,0.2-0.5,0.5-0.7,0.9s-0.2,0.9-0.2,1.7c0.2-0.3,0.5-0.6,0.8-0.7s0.6-0.2,1-0.2c0.6,0,1.1,0.2,1.5,0.6c0.4,0.4,0.6,1,0.6,1.7
			c0,0.4-0.1,0.9-0.3,1.3c-0.2,0.4-0.5,0.7-0.8,0.9s-0.7,0.3-1.2,0.3c-0.7,0-1.3-0.3-1.8-0.8c-0.5-0.5-0.7-1.4-0.7-2.7
			c0-1.4,0.3-2.4,0.8-3c0.4-0.5,1-0.8,1.8-0.8c0.6,0,1,0.2,1.4,0.5S108.2,129.7,108.3,130.3z M104.7,133.4c0,0.3,0.1,0.6,0.2,0.9
			s0.3,0.5,0.5,0.6c0.2,0.1,0.5,0.2,0.7,0.2c0.4,0,0.7-0.1,1-0.4s0.4-0.7,0.4-1.2c0-0.5-0.1-0.9-0.4-1.2c-0.3-0.3-0.6-0.4-1-0.4
			c-0.4,0-0.7,0.1-1,0.4C104.8,132.5,104.7,132.9,104.7,133.4z"/>
		<path d="M109.8,135.7v-1h1v1H109.8z"/>
		<path d="M112.1,133.8l0.9-0.1c0.1,0.4,0.2,0.8,0.5,1c0.2,0.2,0.5,0.3,0.9,0.3c0.4,0,0.8-0.2,1.1-0.5s0.4-0.7,0.4-1.3
			c0-0.5-0.1-0.9-0.4-1.2s-0.7-0.4-1.1-0.4c-0.3,0-0.5,0.1-0.8,0.2c-0.2,0.1-0.4,0.3-0.5,0.5l-0.8-0.1l0.7-3.7h3.6v0.8h-2.9
			l-0.4,1.9c0.4-0.3,0.9-0.4,1.4-0.4c0.6,0,1.2,0.2,1.6,0.6s0.6,1,0.6,1.7c0,0.6-0.2,1.2-0.6,1.7c-0.5,0.6-1.1,0.9-1.9,0.9
			c-0.7,0-1.2-0.2-1.6-0.5S112.1,134.4,112.1,133.8z"/>
	</g>
	<g class="st30">
		<path d="M715.7,38.1v-0.8h4.6V38c-0.5,0.5-0.9,1.1-1.4,1.9s-0.8,1.6-1,2.5c-0.2,0.6-0.3,1.3-0.3,2h-0.9c0-0.6,0.1-1.2,0.3-2
			c0.2-0.8,0.5-1.6,0.9-2.3c0.4-0.7,0.8-1.4,1.3-1.9H715.7z"/>
	</g>
	<g class="st30">
		<path d="M718.4,511v-1.7h-3.1v-0.8l3.3-4.6h0.7v4.6h1v0.8h-1v1.7H718.4z M718.4,508.5v-3.2l-2.2,3.2H718.4z"/>
		<path d="M721.7,511v-1h1v1H721.7z"/>
		<path d="M724,509.1l0.9-0.1c0.1,0.4,0.2,0.8,0.5,1c0.2,0.2,0.5,0.3,0.9,0.3c0.4,0,0.8-0.2,1.1-0.5s0.4-0.7,0.4-1.3
			c0-0.5-0.1-0.9-0.4-1.2s-0.7-0.4-1.1-0.4c-0.3,0-0.5,0.1-0.8,0.2c-0.2,0.1-0.4,0.3-0.5,0.5l-0.8-0.1l0.7-3.7h3.6v0.8h-2.9
			l-0.4,1.9c0.4-0.3,0.9-0.4,1.4-0.4c0.6,0,1.2,0.2,1.6,0.6s0.6,1,0.6,1.7c0,0.6-0.2,1.2-0.6,1.7c-0.5,0.6-1.1,0.9-1.9,0.9
			c-0.7,0-1.2-0.2-1.6-0.5S724,509.7,724,509.1z"/>
	</g>
	<g class="st30">
		<path d="M720.2,225.6l-0.9,0.1c-0.1-0.3-0.2-0.6-0.3-0.8c-0.2-0.3-0.5-0.4-0.9-0.4c-0.3,0-0.5,0.1-0.7,0.2
			c-0.3,0.2-0.5,0.5-0.7,0.9c-0.2,0.4-0.2,0.9-0.2,1.7c0.2-0.3,0.5-0.6,0.8-0.7c0.3-0.2,0.6-0.2,1-0.2c0.6,0,1.1,0.2,1.5,0.6
			c0.4,0.4,0.6,1,0.6,1.7c0,0.4-0.1,0.9-0.3,1.3c-0.2,0.4-0.5,0.7-0.8,0.9c-0.3,0.2-0.7,0.3-1.2,0.3c-0.7,0-1.3-0.3-1.8-0.8
			c-0.5-0.5-0.7-1.4-0.7-2.7c0-1.4,0.3-2.4,0.8-3c0.4-0.5,1-0.8,1.8-0.8c0.6,0,1,0.2,1.4,0.5S720.1,225.1,720.2,225.6z M716.6,228.7
			c0,0.3,0.1,0.6,0.2,0.9s0.3,0.5,0.5,0.6c0.2,0.1,0.5,0.2,0.7,0.2c0.4,0,0.7-0.1,1-0.4c0.3-0.3,0.4-0.7,0.4-1.2
			c0-0.5-0.1-0.9-0.4-1.2c-0.3-0.3-0.6-0.4-1-0.4c-0.4,0-0.7,0.1-1,0.4C716.7,227.9,716.6,228.2,716.6,228.7z"/>
	</g>
	<g class="st30">
		<path d="M668.2,294.5l0.9-0.1c0.1,0.4,0.2,0.8,0.5,1c0.2,0.2,0.5,0.3,0.9,0.3c0.4,0,0.8-0.2,1.1-0.5s0.4-0.7,0.4-1.3
			c0-0.5-0.1-0.9-0.4-1.2s-0.7-0.4-1.1-0.4c-0.3,0-0.5,0.1-0.8,0.2c-0.2,0.1-0.4,0.3-0.5,0.5l-0.8-0.1l0.7-3.7h3.6v0.8h-2.9
			l-0.4,1.9c0.4-0.3,0.9-0.4,1.4-0.4c0.6,0,1.2,0.2,1.6,0.6s0.6,1,0.6,1.7c0,0.6-0.2,1.2-0.6,1.7c-0.5,0.6-1.1,0.9-1.9,0.9
			c-0.7,0-1.2-0.2-1.6-0.5S668.2,295.1,668.2,294.5z"/>
		<path d="M674.2,296.3v-1h1v1H674.2z"/>
		<path d="M681.1,290.9l-0.9,0.1c-0.1-0.3-0.2-0.6-0.3-0.8c-0.2-0.3-0.5-0.4-0.9-0.4c-0.3,0-0.5,0.1-0.7,0.2
			c-0.3,0.2-0.5,0.5-0.7,0.9c-0.2,0.4-0.2,0.9-0.2,1.7c0.2-0.3,0.5-0.6,0.8-0.7c0.3-0.2,0.6-0.2,1-0.2c0.6,0,1.1,0.2,1.5,0.6
			c0.4,0.4,0.6,1,0.6,1.7c0,0.4-0.1,0.9-0.3,1.3c-0.2,0.4-0.5,0.7-0.8,0.9c-0.3,0.2-0.7,0.3-1.2,0.3c-0.7,0-1.3-0.3-1.8-0.8
			c-0.5-0.5-0.7-1.4-0.7-2.7c0-1.4,0.3-2.4,0.8-3c0.4-0.5,1-0.8,1.8-0.8c0.6,0,1,0.2,1.4,0.5S681,290.4,681.1,290.9z M677.5,294
			c0,0.3,0.1,0.6,0.2,0.9s0.3,0.5,0.5,0.6c0.2,0.1,0.5,0.2,0.7,0.2c0.4,0,0.7-0.1,1-0.4c0.3-0.3,0.4-0.7,0.4-1.2
			c0-0.5-0.1-0.9-0.4-1.2c-0.3-0.3-0.6-0.4-1-0.4c-0.4,0-0.7,0.1-1,0.4C677.6,293.2,677.5,293.6,677.5,294z"/>
		<path d="M682.1,294.5l0.9-0.1c0.1,0.4,0.2,0.8,0.5,1c0.2,0.2,0.5,0.3,0.9,0.3c0.4,0,0.8-0.2,1.1-0.5s0.4-0.7,0.4-1.3
			c0-0.5-0.1-0.9-0.4-1.2s-0.7-0.4-1.1-0.4c-0.3,0-0.5,0.1-0.8,0.2c-0.2,0.1-0.4,0.3-0.5,0.5l-0.8-0.1l0.7-3.7h3.6v0.8h-2.9
			l-0.4,1.9c0.4-0.3,0.9-0.4,1.4-0.4c0.6,0,1.2,0.2,1.6,0.6s0.6,1,0.6,1.7c0,0.6-0.2,1.2-0.6,1.7c-0.5,0.6-1.1,0.9-1.9,0.9
			c-0.7,0-1.2-0.2-1.6-0.5S682.1,295.1,682.1,294.5z"/>
	</g>
	<g class="st30">
		<path d="M682.7,102.3l-0.9,0.1c-0.1-0.3-0.2-0.6-0.3-0.8c-0.2-0.3-0.5-0.4-0.9-0.4c-0.3,0-0.5,0.1-0.7,0.2
			c-0.3,0.2-0.5,0.5-0.7,0.9c-0.2,0.4-0.2,0.9-0.2,1.7c0.2-0.3,0.5-0.6,0.8-0.7c0.3-0.2,0.6-0.2,1-0.2c0.6,0,1.1,0.2,1.5,0.6
			c0.4,0.4,0.6,1,0.6,1.7c0,0.4-0.1,0.9-0.3,1.3c-0.2,0.4-0.5,0.7-0.8,0.9c-0.3,0.2-0.7,0.3-1.2,0.3c-0.7,0-1.3-0.3-1.8-0.8
			c-0.5-0.5-0.7-1.4-0.7-2.7c0-1.4,0.3-2.4,0.8-3c0.4-0.5,1-0.8,1.8-0.8c0.6,0,1,0.2,1.4,0.5S682.6,101.7,682.7,102.3z M679.1,105.4
			c0,0.3,0.1,0.6,0.2,0.9s0.3,0.5,0.5,0.6c0.2,0.1,0.5,0.2,0.7,0.2c0.4,0,0.7-0.1,1-0.4c0.3-0.3,0.4-0.7,0.4-1.2
			c0-0.5-0.1-0.9-0.4-1.2c-0.3-0.3-0.6-0.4-1-0.4c-0.4,0-0.7,0.1-1,0.4C679.3,104.5,679.1,104.9,679.1,105.4z"/>
		<path d="M684.2,107.7v-1h1v1H684.2z"/>
		<path d="M691.1,102.3l-0.9,0.1c-0.1-0.3-0.2-0.6-0.3-0.8c-0.2-0.3-0.5-0.4-0.9-0.4c-0.3,0-0.5,0.1-0.7,0.2
			c-0.3,0.2-0.5,0.5-0.7,0.9c-0.2,0.4-0.2,0.9-0.2,1.7c0.2-0.3,0.5-0.6,0.8-0.7c0.3-0.2,0.6-0.2,1-0.2c0.6,0,1.1,0.2,1.5,0.6
			c0.4,0.4,0.6,1,0.6,1.7c0,0.4-0.1,0.9-0.3,1.3c-0.2,0.4-0.5,0.7-0.8,0.9c-0.3,0.2-0.7,0.3-1.2,0.3c-0.7,0-1.3-0.3-1.8-0.8
			c-0.5-0.5-0.7-1.4-0.7-2.7c0-1.4,0.3-2.4,0.8-3c0.4-0.5,1-0.8,1.8-0.8c0.6,0,1,0.2,1.4,0.5S691,101.7,691.1,102.3z M687.5,105.4
			c0,0.3,0.1,0.6,0.2,0.9s0.3,0.5,0.5,0.6c0.2,0.1,0.5,0.2,0.7,0.2c0.4,0,0.7-0.1,1-0.4c0.3-0.3,0.4-0.7,0.4-1.2
			c0-0.5-0.1-0.9-0.4-1.2c-0.3-0.3-0.6-0.4-1-0.4c-0.4,0-0.7,0.1-1,0.4C687.6,104.5,687.5,104.9,687.5,105.4z"/>
		<path d="M692.1,105.8l0.9-0.1c0.1,0.4,0.2,0.8,0.5,1c0.2,0.2,0.5,0.3,0.9,0.3c0.4,0,0.8-0.2,1.1-0.5s0.4-0.7,0.4-1.3
			c0-0.5-0.1-0.9-0.4-1.2s-0.7-0.4-1.1-0.4c-0.3,0-0.5,0.1-0.8,0.2c-0.2,0.1-0.4,0.3-0.5,0.5l-0.8-0.1l0.7-3.7h3.6v0.8h-2.9
			l-0.4,1.9c0.4-0.3,0.9-0.4,1.4-0.4c0.6,0,1.2,0.2,1.6,0.6s0.6,1,0.6,1.7c0,0.6-0.2,1.2-0.6,1.7c-0.5,0.6-1.1,0.9-1.9,0.9
			c-0.7,0-1.2-0.2-1.6-0.5S692.1,106.4,692.1,105.8z"/>
	</g>
	<g class="st30">
		<path d="M579.9,76.8l-0.9,0.1c-0.1-0.3-0.2-0.6-0.3-0.8c-0.2-0.3-0.5-0.4-0.9-0.4c-0.3,0-0.5,0.1-0.7,0.2
			c-0.3,0.2-0.5,0.5-0.7,0.9s-0.2,0.9-0.2,1.7c0.2-0.3,0.5-0.6,0.8-0.7s0.6-0.2,1-0.2c0.6,0,1.1,0.2,1.5,0.6c0.4,0.4,0.6,1,0.6,1.7
			c0,0.4-0.1,0.9-0.3,1.3c-0.2,0.4-0.5,0.7-0.8,0.9s-0.7,0.3-1.2,0.3c-0.7,0-1.3-0.3-1.8-0.8c-0.5-0.5-0.7-1.4-0.7-2.7
			c0-1.4,0.3-2.4,0.8-3c0.4-0.5,1-0.8,1.8-0.8c0.6,0,1,0.2,1.4,0.5C579.7,75.8,579.9,76.2,579.9,76.8z M576.3,79.9
			c0,0.3,0.1,0.6,0.2,0.9c0.1,0.3,0.3,0.5,0.5,0.6c0.2,0.1,0.5,0.2,0.7,0.2c0.4,0,0.7-0.1,1-0.4s0.4-0.7,0.4-1.2
			c0-0.5-0.1-0.9-0.4-1.2c-0.3-0.3-0.6-0.4-1-0.4c-0.4,0-0.7,0.1-1,0.4C576.5,79,576.3,79.4,576.3,79.9z"/>
		<path d="M581.4,82.2v-1h1v1H581.4z"/>
		<path d="M585.1,78.3c-0.4-0.1-0.6-0.3-0.8-0.6s-0.3-0.5-0.3-0.9c0-0.5,0.2-1,0.6-1.3s0.9-0.5,1.5-0.5c0.6,0,1.1,0.2,1.5,0.5
			c0.4,0.4,0.6,0.8,0.6,1.3c0,0.3-0.1,0.6-0.3,0.9c-0.2,0.2-0.4,0.4-0.8,0.6c0.4,0.1,0.8,0.4,1,0.7c0.2,0.3,0.3,0.7,0.3,1.1
			c0,0.6-0.2,1.1-0.6,1.5s-1,0.6-1.7,0.6s-1.3-0.2-1.7-0.6c-0.4-0.4-0.6-0.9-0.6-1.6c0-0.5,0.1-0.9,0.4-1.2
			C584.3,78.6,584.6,78.4,585.1,78.3z M584.6,80.1c0,0.3,0.1,0.5,0.2,0.7c0.1,0.2,0.3,0.4,0.5,0.5c0.2,0.1,0.5,0.2,0.8,0.2
			c0.4,0,0.8-0.1,1-0.4s0.4-0.6,0.4-1c0-0.4-0.1-0.8-0.4-1c-0.3-0.3-0.6-0.4-1.1-0.4c-0.4,0-0.8,0.1-1,0.4
			C584.7,79.4,584.6,79.7,584.6,80.1z M584.9,76.8c0,0.3,0.1,0.6,0.3,0.8s0.5,0.3,0.8,0.3c0.3,0,0.6-0.1,0.8-0.3
			c0.2-0.2,0.3-0.5,0.3-0.8c0-0.3-0.1-0.6-0.3-0.8c-0.2-0.2-0.5-0.3-0.8-0.3c-0.3,0-0.6,0.1-0.8,0.3S584.9,76.5,584.9,76.8z"/>
	</g>
	<g class="st30">
		<path d="M578.2,511.5v-1.7h-3.1V509l3.3-4.6h0.7v4.6h1v0.8h-1v1.7H578.2z M578.2,509v-3.2L576,509H578.2z"/>
		<path d="M581.4,511.5v-1h1v1H581.4z"/>
		<path d="M583.7,509.6l0.9-0.1c0.1,0.4,0.2,0.8,0.5,1c0.2,0.2,0.5,0.3,0.9,0.3c0.4,0,0.8-0.2,1.1-0.5s0.4-0.7,0.4-1.3
			c0-0.5-0.1-0.9-0.4-1.2c-0.3-0.3-0.7-0.4-1.1-0.4c-0.3,0-0.5,0.1-0.8,0.2c-0.2,0.1-0.4,0.3-0.5,0.5l-0.8-0.1l0.7-3.7h3.6v0.8h-2.9
			l-0.4,1.9c0.4-0.3,0.9-0.4,1.4-0.4c0.6,0,1.2,0.2,1.6,0.6s0.6,1,0.6,1.7c0,0.6-0.2,1.2-0.6,1.7c-0.5,0.6-1.1,0.9-1.9,0.9
			c-0.7,0-1.2-0.2-1.6-0.5C584,510.7,583.8,510.2,583.7,509.6z"/>
	</g>
	<g class="st30">
		<path d="M575.4,248.3l0.9-0.1c0.1,0.4,0.2,0.8,0.5,1c0.2,0.2,0.5,0.3,0.9,0.3c0.4,0,0.8-0.2,1.1-0.5s0.4-0.7,0.4-1.3
			c0-0.5-0.1-0.9-0.4-1.2c-0.3-0.3-0.7-0.4-1.1-0.4c-0.3,0-0.5,0.1-0.8,0.2c-0.2,0.1-0.4,0.3-0.5,0.5l-0.8-0.1l0.7-3.7h3.6v0.8h-2.9
			l-0.4,1.9c0.4-0.3,0.9-0.4,1.4-0.4c0.6,0,1.2,0.2,1.6,0.6s0.6,1,0.6,1.7c0,0.6-0.2,1.2-0.6,1.7c-0.5,0.6-1.1,0.9-1.9,0.9
			c-0.7,0-1.2-0.2-1.6-0.5C575.7,249.4,575.4,248.9,575.4,248.3z"/>
		<path d="M581.4,250.2v-1h1v1H581.4z"/>
		<path d="M583.8,248.5l0.8-0.1c0.1,0.4,0.2,0.7,0.4,0.9s0.5,0.3,0.8,0.3c0.3,0,0.5-0.1,0.7-0.2c0.2-0.1,0.4-0.3,0.5-0.5
			c0.1-0.2,0.2-0.5,0.3-0.8s0.1-0.7,0.1-1.1c0,0,0-0.1,0-0.2c-0.2,0.3-0.4,0.5-0.7,0.7c-0.3,0.2-0.6,0.3-1,0.3
			c-0.6,0-1.1-0.2-1.5-0.6s-0.6-1-0.6-1.7c0-0.7,0.2-1.3,0.6-1.8c0.4-0.4,1-0.7,1.6-0.7c0.5,0,0.9,0.1,1.3,0.4
			c0.4,0.3,0.7,0.6,0.9,1.1c0.2,0.5,0.3,1.1,0.3,2c0,0.9-0.1,1.6-0.3,2.2c-0.2,0.5-0.5,1-0.9,1.2c-0.4,0.3-0.9,0.4-1.4,0.4
			c-0.6,0-1-0.2-1.4-0.5C584.1,249.5,583.9,249.1,583.8,248.5z M587.4,245.4c0-0.5-0.1-0.9-0.4-1.2c-0.3-0.3-0.6-0.4-1-0.4
			c-0.4,0-0.7,0.2-1,0.5s-0.4,0.7-0.4,1.2c0,0.5,0.1,0.8,0.4,1.1c0.3,0.3,0.6,0.4,1,0.4c0.4,0,0.7-0.1,1-0.4
			C587.3,246.3,587.4,245.9,587.4,245.4z"/>
	</g>
	<g class="st30">
		<path d="M527.9,295l0.9-0.1c0.1,0.4,0.2,0.8,0.5,1c0.2,0.2,0.5,0.3,0.9,0.3c0.4,0,0.8-0.2,1.1-0.5s0.4-0.7,0.4-1.3
			c0-0.5-0.1-0.9-0.4-1.2c-0.3-0.3-0.7-0.4-1.1-0.4c-0.3,0-0.5,0.1-0.8,0.2c-0.2,0.1-0.4,0.3-0.5,0.5l-0.8-0.1l0.7-3.7h3.6v0.8h-2.9
			l-0.4,1.9c0.4-0.3,0.9-0.4,1.4-0.4c0.6,0,1.2,0.2,1.6,0.6s0.6,1,0.6,1.7c0,0.6-0.2,1.2-0.6,1.7c-0.5,0.6-1.1,0.9-1.9,0.9
			c-0.7,0-1.2-0.2-1.6-0.5C528.2,296.1,528,295.6,527.9,295z"/>
		<path d="M534,296.8v-1h1v1H534z"/>
		<path d="M540.8,291.4l-0.9,0.1c-0.1-0.3-0.2-0.6-0.3-0.8c-0.2-0.3-0.5-0.4-0.9-0.4c-0.3,0-0.5,0.1-0.7,0.2
			c-0.3,0.2-0.5,0.5-0.7,0.9s-0.2,0.9-0.2,1.7c0.2-0.3,0.5-0.6,0.8-0.7s0.6-0.2,1-0.2c0.6,0,1.1,0.2,1.5,0.6c0.4,0.4,0.6,1,0.6,1.7
			c0,0.4-0.1,0.9-0.3,1.3c-0.2,0.4-0.5,0.7-0.8,0.9s-0.7,0.3-1.2,0.3c-0.7,0-1.3-0.3-1.8-0.8c-0.5-0.5-0.7-1.4-0.7-2.7
			c0-1.4,0.3-2.4,0.8-3c0.4-0.5,1-0.8,1.8-0.8c0.6,0,1,0.2,1.4,0.5C540.5,290.5,540.7,290.9,540.8,291.4z M537.2,294.5
			c0,0.3,0.1,0.6,0.2,0.9c0.1,0.3,0.3,0.5,0.5,0.6c0.2,0.1,0.5,0.2,0.7,0.2c0.4,0,0.7-0.1,1-0.4s0.4-0.7,0.4-1.2
			c0-0.5-0.1-0.9-0.4-1.2c-0.3-0.3-0.6-0.4-1-0.4c-0.4,0-0.7,0.1-1,0.4C537.4,293.7,537.2,294.1,537.2,294.5z"/>
		<path d="M541.8,295l0.9-0.1c0.1,0.4,0.2,0.8,0.5,1c0.2,0.2,0.5,0.3,0.9,0.3c0.4,0,0.8-0.2,1.1-0.5s0.4-0.7,0.4-1.3
			c0-0.5-0.1-0.9-0.4-1.2c-0.3-0.3-0.7-0.4-1.1-0.4c-0.3,0-0.5,0.1-0.8,0.2c-0.2,0.1-0.4,0.3-0.5,0.5l-0.8-0.1l0.7-3.7h3.6v0.8h-2.9
			l-0.4,1.9c0.4-0.3,0.9-0.4,1.4-0.4c0.6,0,1.2,0.2,1.6,0.6s0.6,1,0.6,1.7c0,0.6-0.2,1.2-0.6,1.7c-0.5,0.6-1.1,0.9-1.9,0.9
			c-0.7,0-1.2-0.2-1.6-0.5C542.1,296.1,541.9,295.6,541.8,295z"/>
	</g>
	<g class="st30">
		<path d="M548,205.4l-0.9,0.1c-0.1-0.3-0.2-0.6-0.3-0.8c-0.2-0.3-0.5-0.4-0.9-0.4c-0.3,0-0.5,0.1-0.7,0.2c-0.3,0.2-0.5,0.5-0.7,0.9
			s-0.2,0.9-0.2,1.7c0.2-0.3,0.5-0.6,0.8-0.7s0.6-0.2,1-0.2c0.6,0,1.1,0.2,1.5,0.6c0.4,0.4,0.6,1,0.6,1.7c0,0.4-0.1,0.9-0.3,1.3
			c-0.2,0.4-0.5,0.7-0.8,0.9s-0.7,0.3-1.2,0.3c-0.7,0-1.3-0.3-1.8-0.8c-0.5-0.5-0.7-1.4-0.7-2.7c0-1.4,0.3-2.4,0.8-3
			c0.4-0.5,1-0.8,1.8-0.8c0.6,0,1,0.2,1.4,0.5C547.8,204.5,548,204.9,548,205.4z M544.4,208.5c0,0.3,0.1,0.6,0.2,0.9
			c0.1,0.3,0.3,0.5,0.5,0.6c0.2,0.1,0.5,0.2,0.7,0.2c0.4,0,0.7-0.1,1-0.4s0.4-0.7,0.4-1.2c0-0.5-0.1-0.9-0.4-1.2
			c-0.3-0.3-0.6-0.4-1-0.4c-0.4,0-0.7,0.1-1,0.4C544.6,207.7,544.4,208.1,544.4,208.5z"/>
		<path d="M549.5,210.8v-1h1v1H549.5z"/>
		<path d="M555.1,210.8h-0.9v-5.6c-0.2,0.2-0.5,0.4-0.8,0.6c-0.3,0.2-0.7,0.4-0.9,0.5v-0.8c0.5-0.2,0.9-0.5,1.3-0.8s0.6-0.6,0.8-1
			h0.6V210.8z"/>
	</g>
	<g class="st30">
		<path d="M420.8,37.3v-0.8h4.6v0.7c-0.5,0.5-0.9,1.1-1.4,1.9s-0.8,1.6-1,2.5c-0.2,0.6-0.3,1.3-0.3,2h-0.9c0-0.6,0.1-1.2,0.3-2
			s0.5-1.6,0.9-2.3c0.4-0.7,0.8-1.4,1.3-1.9H420.8z"/>
	</g>
	<g class="st30">
		<path d="M423.6,603.5v-1.7h-3.1V601l3.3-4.6h0.7v4.6h1v0.8h-1v1.7H423.6z M423.6,601v-3.2l-2.2,3.2H423.6z"/>
	</g>
	<g class="st30">
		<path d="M425.3,224.8l-0.9,0.1c-0.1-0.3-0.2-0.6-0.3-0.8c-0.2-0.3-0.5-0.4-0.9-0.4c-0.3,0-0.5,0.1-0.7,0.2
			c-0.3,0.2-0.5,0.5-0.7,0.9s-0.2,0.9-0.2,1.7c0.2-0.3,0.5-0.6,0.8-0.7s0.6-0.2,1-0.2c0.6,0,1.1,0.2,1.5,0.6c0.4,0.4,0.6,1,0.6,1.7
			c0,0.4-0.1,0.9-0.3,1.3c-0.2,0.4-0.5,0.7-0.8,0.9s-0.7,0.3-1.2,0.3c-0.7,0-1.3-0.3-1.8-0.8c-0.5-0.5-0.7-1.4-0.7-2.7
			c0-1.4,0.3-2.4,0.8-3c0.4-0.5,1-0.8,1.8-0.8c0.6,0,1,0.2,1.4,0.5S425.3,224.2,425.3,224.8z M421.7,227.9c0,0.3,0.1,0.6,0.2,0.9
			s0.3,0.5,0.5,0.6c0.2,0.1,0.5,0.2,0.7,0.2c0.4,0,0.7-0.1,1-0.4s0.4-0.7,0.4-1.2c0-0.5-0.1-0.9-0.4-1.2c-0.3-0.3-0.6-0.4-1-0.4
			c-0.4,0-0.7,0.1-1,0.4C421.9,227.1,421.7,227.4,421.7,227.9z"/>
	</g>
	<g class="st30">
		<path d="M378.9,321.7l0.9-0.1c0.1,0.4,0.2,0.8,0.5,1c0.2,0.2,0.5,0.3,0.9,0.3c0.4,0,0.8-0.2,1.1-0.5s0.4-0.7,0.4-1.3
			c0-0.5-0.1-0.9-0.4-1.2s-0.7-0.4-1.1-0.4c-0.3,0-0.5,0.1-0.8,0.2c-0.2,0.1-0.4,0.3-0.5,0.5l-0.8-0.1l0.7-3.7h3.6v0.8h-2.9
			l-0.4,1.9c0.4-0.3,0.9-0.4,1.4-0.4c0.6,0,1.2,0.2,1.6,0.6s0.6,1,0.6,1.7c0,0.6-0.2,1.2-0.6,1.7c-0.5,0.6-1.1,0.9-1.9,0.9
			c-0.7,0-1.2-0.2-1.6-0.5S378.9,322.3,378.9,321.7z"/>
		<path d="M384.9,323.5v-1h1v1H384.9z"/>
		<path d="M387.2,321.7l0.9-0.1c0.1,0.4,0.2,0.8,0.5,1c0.2,0.2,0.5,0.3,0.9,0.3c0.4,0,0.8-0.2,1.1-0.5s0.4-0.7,0.4-1.3
			c0-0.5-0.1-0.9-0.4-1.2s-0.7-0.4-1.1-0.4c-0.3,0-0.5,0.1-0.8,0.2c-0.2,0.1-0.4,0.3-0.5,0.5l-0.8-0.1l0.7-3.7h3.6v0.8h-2.9
			l-0.4,1.9c0.4-0.3,0.9-0.4,1.4-0.4c0.6,0,1.2,0.2,1.6,0.6s0.6,1,0.6,1.7c0,0.6-0.2,1.2-0.6,1.7c-0.5,0.6-1.1,0.9-1.9,0.9
			c-0.7,0-1.2-0.2-1.6-0.5S387.3,322.3,387.2,321.7z"/>
	</g>
	<g class="st30">
		<path d="M387.9,101.5l-0.9,0.1c-0.1-0.3-0.2-0.6-0.3-0.8c-0.2-0.3-0.5-0.4-0.9-0.4c-0.3,0-0.5,0.1-0.7,0.2
			c-0.3,0.2-0.5,0.5-0.7,0.9s-0.2,0.9-0.2,1.7c0.2-0.3,0.5-0.6,0.8-0.7s0.6-0.2,1-0.2c0.6,0,1.1,0.2,1.5,0.6c0.4,0.4,0.6,1,0.6,1.7
			c0,0.4-0.1,0.9-0.3,1.3c-0.2,0.4-0.5,0.7-0.8,0.9s-0.7,0.3-1.2,0.3c-0.7,0-1.3-0.3-1.8-0.8c-0.5-0.5-0.7-1.4-0.7-2.7
			c0-1.4,0.3-2.4,0.8-3c0.4-0.5,1-0.8,1.8-0.8c0.6,0,1,0.2,1.4,0.5S387.8,100.9,387.9,101.5z M384.3,104.6c0,0.3,0.1,0.6,0.2,0.9
			s0.3,0.5,0.5,0.6c0.2,0.1,0.5,0.2,0.7,0.2c0.4,0,0.7-0.1,1-0.4s0.4-0.7,0.4-1.2c0-0.5-0.1-0.9-0.4-1.2c-0.3-0.3-0.6-0.4-1-0.4
			c-0.4,0-0.7,0.1-1,0.4C384.4,103.7,384.3,104.1,384.3,104.6z"/>
		<path d="M389.4,106.9v-1h1v1H389.4z"/>
		<path d="M396.2,101.5l-0.9,0.1c-0.1-0.3-0.2-0.6-0.3-0.8c-0.2-0.3-0.5-0.4-0.9-0.4c-0.3,0-0.5,0.1-0.7,0.2
			c-0.3,0.2-0.5,0.5-0.7,0.9s-0.2,0.9-0.2,1.7c0.2-0.3,0.5-0.6,0.8-0.7s0.6-0.2,1-0.2c0.6,0,1.1,0.2,1.5,0.6c0.4,0.4,0.6,1,0.6,1.7
			c0,0.4-0.1,0.9-0.3,1.3c-0.2,0.4-0.5,0.7-0.8,0.9s-0.7,0.3-1.2,0.3c-0.7,0-1.3-0.3-1.8-0.8c-0.5-0.5-0.7-1.4-0.7-2.7
			c0-1.4,0.3-2.4,0.8-3c0.4-0.5,1-0.8,1.8-0.8c0.6,0,1,0.2,1.4,0.5S396.1,100.9,396.2,101.5z M392.6,104.6c0,0.3,0.1,0.6,0.2,0.9
			s0.3,0.5,0.5,0.6c0.2,0.1,0.5,0.2,0.7,0.2c0.4,0,0.7-0.1,1-0.4s0.4-0.7,0.4-1.2c0-0.5-0.1-0.9-0.4-1.2c-0.3-0.3-0.6-0.4-1-0.4
			c-0.4,0-0.7,0.1-1,0.4C392.7,103.7,392.6,104.1,392.6,104.6z"/>
		<path d="M397.2,105l0.9-0.1c0.1,0.4,0.2,0.8,0.5,1c0.2,0.2,0.5,0.3,0.9,0.3c0.4,0,0.8-0.2,1.1-0.5s0.4-0.7,0.4-1.3
			c0-0.5-0.1-0.9-0.4-1.2s-0.7-0.4-1.1-0.4c-0.3,0-0.5,0.1-0.8,0.2c-0.2,0.1-0.4,0.3-0.5,0.5l-0.8-0.1l0.7-3.7h3.6v0.8h-2.9
			l-0.4,1.9c0.4-0.3,0.9-0.4,1.4-0.4c0.6,0,1.2,0.2,1.6,0.6s0.6,1,0.6,1.7c0,0.6-0.2,1.2-0.6,1.7c-0.5,0.6-1.1,0.9-1.9,0.9
			c-0.7,0-1.2-0.2-1.6-0.5S397.3,105.6,397.2,105z"/>
	</g>
	<g class="st30">
		<path d="M288.2,132.3l-0.9,0.1c-0.1-0.3-0.2-0.6-0.3-0.8c-0.2-0.3-0.5-0.4-0.9-0.4c-0.3,0-0.5,0.1-0.7,0.2
			c-0.3,0.2-0.5,0.5-0.7,0.9s-0.2,0.9-0.2,1.7c0.2-0.3,0.5-0.6,0.8-0.7s0.6-0.2,1-0.2c0.6,0,1.1,0.2,1.5,0.6c0.4,0.4,0.6,1,0.6,1.7
			c0,0.4-0.1,0.9-0.3,1.3c-0.2,0.4-0.5,0.7-0.8,0.9s-0.7,0.3-1.2,0.3c-0.7,0-1.3-0.3-1.8-0.8c-0.5-0.5-0.7-1.4-0.7-2.7
			c0-1.4,0.3-2.4,0.8-3c0.4-0.5,1-0.8,1.8-0.8c0.6,0,1,0.2,1.4,0.5S288.1,131.7,288.2,132.3z M284.6,135.4c0,0.3,0.1,0.6,0.2,0.9
			s0.3,0.5,0.5,0.6c0.2,0.1,0.5,0.2,0.7,0.2c0.4,0,0.7-0.1,1-0.4s0.4-0.7,0.4-1.2c0-0.5-0.1-0.9-0.4-1.2c-0.3-0.3-0.6-0.4-1-0.4
			c-0.4,0-0.7,0.1-1,0.4C284.7,134.5,284.6,134.9,284.6,135.4z"/>
		<path d="M289.7,137.7v-1h1v1H289.7z"/>
		<path d="M292,135.8l0.9-0.1c0.1,0.4,0.2,0.8,0.5,1c0.2,0.2,0.5,0.3,0.9,0.3c0.4,0,0.8-0.2,1.1-0.5s0.4-0.7,0.4-1.3
			c0-0.5-0.1-0.9-0.4-1.2s-0.7-0.4-1.1-0.4c-0.3,0-0.5,0.1-0.8,0.2c-0.2,0.1-0.4,0.3-0.5,0.5l-0.8-0.1l0.7-3.7h3.6v0.8h-2.9
			l-0.4,1.9c0.4-0.3,0.9-0.4,1.4-0.4c0.6,0,1.2,0.2,1.6,0.6s0.6,1,0.6,1.7c0,0.6-0.2,1.2-0.6,1.7c-0.5,0.6-1.1,0.9-1.9,0.9
			c-0.7,0-1.2-0.2-1.6-0.5S292,136.4,292,135.8z"/>
	</g>
	<g class="st30">
		<path d="M286.4,604.3v-1.7h-3.1v-0.8l3.3-4.6h0.7v4.6h1v0.8h-1v1.7H286.4z M286.4,601.8v-3.2l-2.2,3.2H286.4z"/>
	</g>
	<g class="st30">
		<path d="M283.6,266.5l0.9-0.1c0.1,0.4,0.2,0.8,0.5,1c0.2,0.2,0.5,0.3,0.9,0.3c0.4,0,0.8-0.2,1.1-0.5s0.4-0.7,0.4-1.3
			c0-0.5-0.1-0.9-0.4-1.2s-0.7-0.4-1.1-0.4c-0.3,0-0.5,0.1-0.8,0.2c-0.2,0.1-0.4,0.3-0.5,0.5l-0.8-0.1l0.7-3.7h3.6v0.8h-2.9
			l-0.4,1.9c0.4-0.3,0.9-0.4,1.4-0.4c0.6,0,1.2,0.2,1.6,0.6s0.6,1,0.6,1.7c0,0.6-0.2,1.2-0.6,1.7c-0.5,0.6-1.1,0.9-1.9,0.9
			c-0.7,0-1.2-0.2-1.6-0.5S283.7,267.1,283.6,266.5z"/>
		<path d="M289.7,268.3v-1h1v1H289.7z"/>
		<path d="M293.3,264.5c-0.4-0.1-0.6-0.3-0.8-0.6s-0.3-0.5-0.3-0.9c0-0.5,0.2-1,0.6-1.3s0.9-0.5,1.5-0.5c0.6,0,1.1,0.2,1.5,0.5
			c0.4,0.4,0.6,0.8,0.6,1.3c0,0.3-0.1,0.6-0.3,0.9c-0.2,0.2-0.4,0.4-0.8,0.6c0.4,0.1,0.8,0.4,1,0.7s0.3,0.7,0.3,1.1
			c0,0.6-0.2,1.1-0.6,1.5s-1,0.6-1.7,0.6s-1.3-0.2-1.7-0.6c-0.4-0.4-0.6-0.9-0.6-1.6c0-0.5,0.1-0.9,0.4-1.2
			C292.5,264.8,292.9,264.6,293.3,264.5z M292.8,266.3c0,0.3,0.1,0.5,0.2,0.7s0.3,0.4,0.5,0.5c0.2,0.1,0.5,0.2,0.8,0.2
			c0.4,0,0.8-0.1,1-0.4s0.4-0.6,0.4-1c0-0.4-0.1-0.8-0.4-1s-0.6-0.4-1.1-0.4c-0.4,0-0.8,0.1-1,0.4S292.8,265.9,292.8,266.3z
			 M293.1,263c0,0.3,0.1,0.6,0.3,0.8s0.5,0.3,0.8,0.3c0.3,0,0.6-0.1,0.8-0.3c0.2-0.2,0.3-0.5,0.3-0.8c0-0.3-0.1-0.6-0.3-0.8
			c-0.2-0.2-0.5-0.3-0.8-0.3c-0.3,0-0.6,0.1-0.8,0.3S293.1,262.7,293.1,263z"/>
	</g>
	<g class="st30">
		<path d="M241.7,322.5l0.9-0.1c0.1,0.4,0.2,0.8,0.5,1c0.2,0.2,0.5,0.3,0.9,0.3c0.4,0,0.8-0.2,1.1-0.5s0.4-0.7,0.4-1.3
			c0-0.5-0.1-0.9-0.4-1.2s-0.7-0.4-1.1-0.4c-0.3,0-0.5,0.1-0.8,0.2c-0.2,0.1-0.4,0.3-0.5,0.5l-0.8-0.1l0.7-3.7h3.6v0.8h-2.9
			l-0.4,1.9c0.4-0.3,0.9-0.4,1.4-0.4c0.6,0,1.2,0.2,1.6,0.6s0.6,1,0.6,1.7c0,0.6-0.2,1.2-0.6,1.7c-0.5,0.6-1.1,0.9-1.9,0.9
			c-0.7,0-1.2-0.2-1.6-0.5S241.8,323.1,241.7,322.5z"/>
		<path d="M247.8,324.3v-1h1v1H247.8z"/>
		<path d="M250.1,322.5l0.9-0.1c0.1,0.4,0.2,0.8,0.5,1c0.2,0.2,0.5,0.3,0.9,0.3c0.4,0,0.8-0.2,1.1-0.5s0.4-0.7,0.4-1.3
			c0-0.5-0.1-0.9-0.4-1.2s-0.7-0.4-1.1-0.4c-0.3,0-0.5,0.1-0.8,0.2c-0.2,0.1-0.4,0.3-0.5,0.5l-0.8-0.1l0.7-3.7h3.6v0.8h-2.9
			l-0.4,1.9c0.4-0.3,0.9-0.4,1.4-0.4c0.6,0,1.2,0.2,1.6,0.6s0.6,1,0.6,1.7c0,0.6-0.2,1.2-0.6,1.7c-0.5,0.6-1.1,0.9-1.9,0.9
			c-0.7,0-1.2-0.2-1.6-0.5S250.1,323.1,250.1,322.5z"/>
	</g>
	<g class="st30">
		<path d="M264.6,223.6l-0.9,0.1c-0.1-0.3-0.2-0.6-0.3-0.8c-0.2-0.3-0.5-0.4-0.9-0.4c-0.3,0-0.5,0.1-0.7,0.2
			c-0.3,0.2-0.5,0.5-0.7,0.9s-0.2,0.9-0.2,1.7c0.2-0.3,0.5-0.6,0.8-0.7s0.6-0.2,1-0.2c0.6,0,1.1,0.2,1.5,0.6c0.4,0.4,0.6,1,0.6,1.7
			c0,0.4-0.1,0.9-0.3,1.3c-0.2,0.4-0.5,0.7-0.8,0.9s-0.7,0.3-1.2,0.3c-0.7,0-1.3-0.3-1.8-0.8c-0.5-0.5-0.7-1.4-0.7-2.7
			c0-1.4,0.3-2.4,0.8-3c0.4-0.5,1-0.8,1.8-0.8c0.6,0,1,0.2,1.4,0.5S264.5,223.1,264.6,223.6z M261,226.7c0,0.3,0.1,0.6,0.2,0.9
			s0.3,0.5,0.5,0.6c0.2,0.1,0.5,0.2,0.7,0.2c0.4,0,0.7-0.1,1-0.4s0.4-0.7,0.4-1.2c0-0.5-0.1-0.9-0.4-1.2c-0.3-0.3-0.6-0.4-1-0.4
			c-0.4,0-0.7,0.1-1,0.4C261.2,225.9,261,226.2,261,226.7z"/>
	</g>
	<g class="st30">
		<path d="M855.7,38.1v-0.8h4.6V38c-0.5,0.5-0.9,1.1-1.4,1.9c-0.4,0.8-0.8,1.6-1,2.5c-0.2,0.6-0.3,1.3-0.3,2h-0.9
			c0-0.6,0.1-1.2,0.3-2c0.2-0.8,0.5-1.6,0.9-2.3c0.4-0.7,0.8-1.4,1.3-1.9H855.7z"/>
	</g>
	<g class="st30">
		<path d="M858.4,473.7V472h-3.1v-0.8l3.3-4.6h0.7v4.6h1v0.8h-1v1.7H858.4z M858.4,471.2v-3.2l-2.2,3.2H858.4z"/>
		<path d="M861.7,473.7v-1h1v1H861.7z"/>
		<path d="M864,467.5v-0.8h4.6v0.7c-0.5,0.5-0.9,1.1-1.4,1.9c-0.4,0.8-0.8,1.6-1,2.5c-0.2,0.6-0.3,1.3-0.3,2H865
			c0-0.6,0.1-1.2,0.3-2c0.2-0.8,0.5-1.6,0.9-2.3c0.4-0.7,0.8-1.4,1.3-1.9H864z"/>
	</g>
	<g class="st30">
		<path d="M860.2,225.6l-0.9,0.1c-0.1-0.3-0.2-0.6-0.3-0.8c-0.2-0.3-0.5-0.4-0.9-0.4c-0.3,0-0.5,0.1-0.7,0.2
			c-0.3,0.2-0.5,0.5-0.7,0.9c-0.2,0.4-0.2,0.9-0.2,1.7c0.2-0.3,0.5-0.6,0.8-0.7c0.3-0.2,0.6-0.2,1-0.2c0.6,0,1.1,0.2,1.5,0.6
			c0.4,0.4,0.6,1,0.6,1.7c0,0.4-0.1,0.9-0.3,1.3c-0.2,0.4-0.5,0.7-0.8,0.9c-0.3,0.2-0.7,0.3-1.2,0.3c-0.7,0-1.3-0.3-1.8-0.8
			c-0.5-0.5-0.7-1.4-0.7-2.7c0-1.4,0.3-2.4,0.8-3c0.4-0.5,1-0.8,1.8-0.8c0.6,0,1,0.2,1.4,0.5C859.9,224.6,860.1,225.1,860.2,225.6z
			 M856.6,228.7c0,0.3,0.1,0.6,0.2,0.9c0.1,0.3,0.3,0.5,0.5,0.6c0.2,0.1,0.5,0.2,0.7,0.2c0.4,0,0.7-0.1,1-0.4
			c0.3-0.3,0.4-0.7,0.4-1.2c0-0.5-0.1-0.9-0.4-1.2c-0.3-0.3-0.6-0.4-1-0.4c-0.4,0-0.7,0.1-1,0.4
			C856.7,227.9,856.6,228.2,856.6,228.7z"/>
	</g>
	<g class="st30">
		<path d="M813.7,322.5l0.9-0.1c0.1,0.4,0.2,0.8,0.5,1c0.2,0.2,0.5,0.3,0.9,0.3c0.4,0,0.8-0.2,1.1-0.5s0.4-0.7,0.4-1.3
			c0-0.5-0.1-0.9-0.4-1.2s-0.7-0.4-1.1-0.4c-0.3,0-0.5,0.1-0.8,0.2c-0.2,0.1-0.4,0.3-0.5,0.5l-0.8-0.1l0.7-3.7h3.6v0.8h-2.9
			l-0.4,1.9c0.4-0.3,0.9-0.4,1.4-0.4c0.6,0,1.2,0.2,1.6,0.6s0.6,1,0.6,1.7c0,0.6-0.2,1.2-0.6,1.7c-0.5,0.6-1.1,0.9-1.9,0.9
			c-0.7,0-1.2-0.2-1.6-0.5S813.8,323.1,813.7,322.5z"/>
		<path d="M819.8,324.3v-1h1v1H819.8z"/>
		<path d="M822.1,322.5l0.9-0.1c0.1,0.4,0.2,0.8,0.5,1c0.2,0.2,0.5,0.3,0.9,0.3c0.4,0,0.8-0.2,1.1-0.5s0.4-0.7,0.4-1.3
			c0-0.5-0.1-0.9-0.4-1.2s-0.7-0.4-1.1-0.4c-0.3,0-0.5,0.1-0.8,0.2c-0.2,0.1-0.4,0.3-0.5,0.5l-0.8-0.1l0.7-3.7h3.6v0.8h-2.9
			l-0.4,1.9c0.4-0.3,0.9-0.4,1.4-0.4c0.6,0,1.2,0.2,1.6,0.6s0.6,1,0.6,1.7c0,0.6-0.2,1.2-0.6,1.7c-0.5,0.6-1.1,0.9-1.9,0.9
			c-0.7,0-1.2-0.2-1.6-0.5S822.1,323.1,822.1,322.5z"/>
	</g>
	<g class="st30">
		<path d="M828.3,186.3l-0.9,0.1c-0.1-0.3-0.2-0.6-0.3-0.8c-0.2-0.3-0.5-0.4-0.9-0.4c-0.3,0-0.5,0.1-0.7,0.2
			c-0.3,0.2-0.5,0.5-0.7,0.9c-0.2,0.4-0.2,0.9-0.2,1.7c0.2-0.3,0.5-0.6,0.8-0.7c0.3-0.2,0.6-0.2,1-0.2c0.6,0,1.1,0.2,1.5,0.6
			c0.4,0.4,0.6,1,0.6,1.7c0,0.4-0.1,0.9-0.3,1.3c-0.2,0.4-0.5,0.7-0.8,0.9c-0.3,0.2-0.7,0.3-1.2,0.3c-0.7,0-1.3-0.3-1.8-0.8
			c-0.5-0.5-0.7-1.4-0.7-2.7c0-1.4,0.3-2.4,0.8-3c0.4-0.5,1-0.8,1.8-0.8c0.6,0,1,0.2,1.4,0.5S828.2,185.7,828.3,186.3z M824.7,189.4
			c0,0.3,0.1,0.6,0.2,0.9s0.3,0.5,0.5,0.6c0.2,0.1,0.5,0.2,0.7,0.2c0.4,0,0.7-0.1,1-0.4c0.3-0.3,0.4-0.7,0.4-1.2
			c0-0.5-0.1-0.9-0.4-1.2c-0.3-0.3-0.6-0.4-1-0.4c-0.4,0-0.7,0.1-1,0.4C824.8,188.5,824.7,188.9,824.7,189.4z"/>
		<path d="M829.8,191.7v-1h1v1H829.8z"/>
		<path d="M836.7,190.8v0.8h-4.7c0-0.2,0-0.4,0.1-0.6c0.1-0.3,0.3-0.6,0.6-1s0.6-0.7,1.2-1.1c0.8-0.6,1.3-1.1,1.6-1.5
			c0.3-0.4,0.4-0.7,0.4-1.1c0-0.3-0.1-0.6-0.4-0.9c-0.2-0.2-0.6-0.4-1-0.4c-0.4,0-0.8,0.1-1,0.4s-0.4,0.6-0.4,1.1l-0.9-0.1
			c0.1-0.7,0.3-1.2,0.7-1.5c0.4-0.4,0.9-0.5,1.6-0.5c0.7,0,1.2,0.2,1.6,0.6s0.6,0.9,0.6,1.4c0,0.3-0.1,0.6-0.2,0.8s-0.3,0.6-0.6,0.9
			s-0.7,0.7-1.4,1.3c-0.5,0.4-0.9,0.7-1,0.9c-0.1,0.2-0.3,0.3-0.4,0.5H836.7z"/>
	</g>
</g>
</svg>
