<?xml version="1.0" encoding="utf-8"?>
<!-- Generator: Adobe Illustrator 28.1.0, SVG Export Plug-In . SVG Version: 6.00 Build 0)  -->
<svg version="1.1" xmlns="http://www.w3.org/2000/svg" xmlns:xlink="http://www.w3.org/1999/xlink" x="0px" y="0px"
	 viewBox="0 0 930.6 631.6" style="enable-background:new 0 0 930.6 631.6;" xml:space="preserve">
<style type="text/css">
	.st0{fill:none;stroke:#000000;}
	.st1{font-family:'ArialMT';}
	.st2{font-size:10px;}
	.st3{fill:#7B7B7B;}
	.st4{font-family:'Arial-BoldMT';}
	.st5{font-size:12px;}
	.st6{display:none;}
	.st7{display:inline;}
	.st8{fill:none;stroke:#000000;stroke-width:0.5;stroke-miterlimit:10;}
	.st9{opacity:0.11;fill:#00B9D4;}
	.st10{fill:none;stroke:#FF7F0E;stroke-dasharray:4;}
	.st11{fill:none;stroke:#FF7F0E;}
	.st12{fill:#FF7F0E;}
	.st13{fill:none;stroke:#FFFFFF;}
	.st14{fill:none;stroke:#D62728;stroke-dasharray:4;}
	.st15{fill:none;stroke:#D62728;}
	.st16{fill:#D62728;}
	.st17{fill:none;stroke:#8C564B;stroke-dasharray:4;}
	.st18{fill:none;stroke:#8C564B;}
	.st19{fill:#8C564B;}
	.st20{fill:none;stroke:#2CA02C;stroke-dasharray:4;}
	.st21{fill:none;stroke:#2CA02C;}
	.st22{fill:#2CA02C;}
	.st23{fill:none;stroke:#9467BD;stroke-dasharray:4;}
	.st24{fill:none;stroke:#9467BD;}
	.st25{fill:#9467BD;}
	.st26{fill:none;stroke:#1F77B4;stroke-dasharray:4;}
	.st27{fill:none;stroke:#1F77B4;}
	.st28{fill:#1F77B4;}
</style>
<g id="Layer_2">
</g>
<g id="Layer_3">
	<path class="st0" d="M35.2,604.8h6.5v-560h-6.5"/>
	<g transform="translate(0,560.5)">
		<line class="st0" x1="41.2" y1="44.3" x2="35.2" y2="44.3"/>
		<text transform="matrix(1 0 0 1 18.2994 47.5491)" class="st1 st2">4.0</text>
	</g>
	<g transform="translate(0,523.1666666666666)">
		<line class="st0" x1="41.2" y1="44.3" x2="35.2" y2="44.3"/>
		<text transform="matrix(1 0 0 1 18.2994 47.5491)" class="st1 st2">4.2</text>
	</g>
	<g transform="translate(0,485.8333333333333)">
		<line class="st0" x1="41.2" y1="44.3" x2="35.2" y2="44.3"/>
		<text transform="matrix(1 0 0 1 18.2994 47.549)" class="st1 st2">4.4</text>
	</g>
	<g transform="translate(0,448.5000000000001)">
		<line class="st0" x1="41.2" y1="44.3" x2="35.2" y2="44.3"/>
		<text transform="matrix(1 0 0 1 18.2994 47.5491)" class="st1 st2">4.6</text>
	</g>
	<g transform="translate(0,411.1666666666667)">
		<line class="st0" x1="41.2" y1="44.3" x2="35.2" y2="44.3"/>
		<text transform="matrix(1 0 0 1 18.2994 47.549)" class="st1 st2">4.8</text>
	</g>
	<g transform="translate(0,373.83333333333337)">
		<line class="st0" x1="41.2" y1="44.3" x2="35.2" y2="44.3"/>
		<text transform="matrix(1 0 0 1 18.2994 47.549)" class="st1 st2">5.0</text>
	</g>
	<g transform="translate(0,336.49999999999994)">
		<line class="st0" x1="41.2" y1="44.3" x2="35.2" y2="44.3"/>
		<text transform="matrix(1 0 0 1 18.2994 47.5491)" class="st1 st2">5.2</text>
	</g>
	<g transform="translate(0,299.16666666666663)">
		<line class="st0" x1="41.2" y1="44.3" x2="35.2" y2="44.3"/>
		<text transform="matrix(1 0 0 1 18.2994 47.549)" class="st1 st2">5.4</text>
	</g>
	<g transform="translate(0,261.83333333333337)">
		<line class="st0" x1="41.2" y1="44.3" x2="35.2" y2="44.3"/>
		<text transform="matrix(1 0 0 1 18.2994 47.549)" class="st1 st2">5.6</text>
	</g>
	<g transform="translate(0,224.5)">
		<line class="st0" x1="41.2" y1="44.3" x2="35.2" y2="44.3"/>
		<text transform="matrix(1 0 0 1 18.2994 47.549)" class="st1 st2">5.8</text>
	</g>
	<g transform="translate(0,187.16666666666669)">
		<line class="st0" x1="41.2" y1="44.3" x2="35.2" y2="44.3"/>
		<text transform="matrix(1 0 0 1 18.2994 47.5491)" class="st1 st2">6.0</text>
	</g>
	<g transform="translate(0,149.83333333333331)">
		<line class="st0" x1="41.2" y1="44.3" x2="35.2" y2="44.3"/>
		<text transform="matrix(1 0 0 1 18.2994 47.549)" class="st1 st2">6.2</text>
	</g>
	<g transform="translate(0,112.49999999999991)">
		<line class="st0" x1="41.2" y1="44.3" x2="35.2" y2="44.3"/>
		<text transform="matrix(1 0 0 1 18.2994 47.549)" class="st1 st2">6.4</text>
	</g>
	<g transform="translate(0,75.16666666666671)">
		<line class="st0" x1="41.2" y1="44.3" x2="35.2" y2="44.3"/>
		<text transform="matrix(1 0 0 1 18.2994 47.549)" class="st1 st2">6.6</text>
	</g>
	<g transform="translate(0,37.833333333333385)">
		<line class="st0" x1="41.2" y1="44.3" x2="35.2" y2="44.3"/>
		<text transform="matrix(1 0 0 1 18.2994 47.549)" class="st1 st2">6.8</text>
	</g>
	<g transform="translate(0,0.5)">
		<line class="st0" x1="41.2" y1="44.3" x2="35.2" y2="44.3"/>
		<text transform="matrix(1 0 0 1 18.2994 47.549)" class="st1 st2">7.0</text>
	</g>
	<text transform="matrix(1 0 0 1 41.2007 24.644)" class="st3 st4 st5">nota_proyecto</text>
	<path class="st0" d="M41.7,610.3v-5.5h874.6v5.5"/>
</g>
<g id="Layer_4" class="st6">
	<g class="st7">
		<rect x="41.2" y="31.6" class="st8" width="1749.1" height="600"/>
		<line class="st8" x1="41.2" y1="531.6" x2="1790.3" y2="531.6"/>
		<line class="st8" x1="41.2" y1="431.6" x2="1790.3" y2="431.6"/>
		<line class="st8" x1="41.2" y1="331.6" x2="1790.3" y2="331.6"/>
		<line class="st8" x1="41.2" y1="231.6" x2="1790.3" y2="231.6"/>
		<line class="st8" x1="41.2" y1="131.6" x2="1790.3" y2="131.6"/>
		<line class="st8" x1="1498.8" y1="31.6" x2="1498.8" y2="631.6"/>
		<line class="st8" x1="1207.3" y1="31.6" x2="1207.3" y2="631.6"/>
		<line class="st8" x1="915.8" y1="31.6" x2="915.8" y2="631.6"/>
		<line class="st8" x1="624.2" y1="31.6" x2="624.2" y2="631.6"/>
		<line class="st8" x1="332.7" y1="31.6" x2="332.7" y2="631.6"/>
	</g>
</g>
<g id="Layer_5">
	<rect x="41.2" y="31.6" class="st9" width="291.5" height="572.8"/>
	<rect x="624.7" y="31.6" class="st9" width="291.5" height="572.8"/>
</g>
<g id="Layer_1">
	<line class="st0" x1="121.7" y1="604.3" x2="121.7" y2="610.3"/>
	<text transform="matrix(1 0 0 1 83.6734 620.449)" class="st1 st2">Diseñadora V-M</text>
	<line class="st0" x1="701.7" y1="604.3" x2="701.7" y2="610.3"/>
	<text transform="matrix(1 0 0 1 676.1294 620.449)" class="st1 st2">Diseñadora</text>
	<line class="st0" x1="561.5" y1="604.8" x2="561.5" y2="610.8"/>
	<text transform="matrix(1 0 0 1 531.6948 620.9493)" class="st1 st2">Diseñador I-S</text>
	<line class="st0" x1="406.8" y1="603.5" x2="406.8" y2="609.5"/>
	<text transform="matrix(1 0 0 1 374.2977 619.6443)" class="st1 st2">Diseñadora I-S</text>
	<line class="st0" x1="269.7" y1="604.3" x2="269.7" y2="610.3"/>
	<text transform="matrix(1 0 0 1 234.4542 620.449)" class="st1 st2">Diseñador V-M</text>
	<g transform="translate(1320.5,0)">
		<line class="st0" x1="-478.8" y1="604.3" x2="-478.8" y2="610.3"/>
		<text transform="matrix(1 0 0 1 -501.5897 620.449)" class="st1 st2">Diseñador</text>
	</g>
	<g>
		<line class="st10" x1="121.2" y1="44.3" x2="121.2" y2="604.3"/>
		<line class="st11" x1="111.2" y1="44.3" x2="131.2" y2="44.3"/>
		<line class="st11" x1="111.2" y1="604.3" x2="131.2" y2="604.3"/>
		<rect x="111.2" y="137.7" class="st12" width="20" height="177.3"/>
		<line class="st13" x1="111.2" y1="231" x2="131.2" y2="231"/>
	</g>
	<line class="st14" x1="701.2" y1="44.3" x2="701.2" y2="511"/>
	<line class="st15" x1="691.2" y1="44.3" x2="711.2" y2="44.3"/>
	<line class="st15" x1="691.2" y1="511" x2="711.2" y2="511"/>
	<rect x="691.2" y="109.7" class="st16" width="20" height="186.7"/>
	<line class="st13" x1="691.2" y1="231" x2="711.2" y2="231"/>
	<line class="st17" x1="561" y1="82.2" x2="561" y2="511.5"/>
	<line class="st18" x1="551" y1="82.2" x2="571" y2="82.2"/>
	<line class="st18" x1="551" y1="511.5" x2="571" y2="511.5"/>
	<rect x="551" y="212.8" class="st19" width="20" height="84"/>
	<line class="st13" x1="551" y1="250.2" x2="571" y2="250.2"/>
	<line class="st20" x1="406.3" y1="43.5" x2="406.3" y2="603.5"/>
	<line class="st21" x1="396.3" y1="43.5" x2="416.3" y2="43.5"/>
	<line class="st21" x1="396.3" y1="603.5" x2="416.3" y2="603.5"/>
	<rect x="396.3" y="108.9" class="st22" width="20" height="214.7"/>
	<line class="st13" x1="396.3" y1="230.2" x2="416.3" y2="230.2"/>
	<line class="st23" x1="269.2" y1="137.7" x2="269.2" y2="604.3"/>
	<line class="st24" x1="259.2" y1="137.7" x2="279.2" y2="137.7"/>
	<line class="st24" x1="259.2" y1="604.3" x2="279.2" y2="604.3"/>
	<rect x="259.2" y="231" class="st25" width="20" height="93.3"/>
	<line class="st13" x1="259.2" y1="268.3" x2="279.2" y2="268.3"/>
	<line class="st26" x1="841.2" y1="44.3" x2="841.2" y2="473.7"/>
	<line class="st27" x1="831.2" y1="44.3" x2="851.2" y2="44.3"/>
	<line class="st27" x1="831.2" y1="473.7" x2="851.2" y2="473.7"/>
	<rect x="831.2" y="193.7" class="st28" width="20" height="130.7"/>
	<line class="st13" x1="831.2" y1="231" x2="851.2" y2="231"/>
	<g>
		<text transform="matrix(1 0 0 1 135.2007 44.349)" class="st1 st2">7</text>
		<text transform="matrix(1 0 0 1 135.2007 604.3491)" class="st1 st2">4</text>
		<text transform="matrix(1 0 0 1 135.2007 231.0157)" class="st1 st2">6</text>
		<text transform="matrix(1 0 0 1 87.7378 315.0157)" class="st1 st2">5.55</text>
		<text transform="matrix(1 0 0 1 103.2993 137.6823)" class="st1 st2">6.5</text>
	</g>
	<text transform="matrix(1 0 0 1 715.2007 44.349)" class="st1 st2">7</text>
	<text transform="matrix(1 0 0 1 715.2007 511.0157)" class="st1 st2">4.5</text>
	<text transform="matrix(1 0 0 1 715.2007 231.0157)" class="st1 st2">6</text>
	<text transform="matrix(1 0 0 1 667.7378 296.349)" class="st1 st2">5.65</text>
	<text transform="matrix(1 0 0 1 677.7378 109.6824)" class="st1 st2">6.65</text>
	<g>
		<text transform="matrix(1 0 0 1 574.9629 82.1827)" class="st1 st2">6.8</text>
		<text transform="matrix(1 0 0 1 574.9629 511.5159)" class="st1 st2">4.5</text>
		<text transform="matrix(1 0 0 1 574.9629 250.1826)" class="st1 st2">5.9</text>
		<text transform="matrix(1 0 0 1 527.5 296.8493)" class="st1 st2">5.65</text>
		<text transform="matrix(1 0 0 1 543.0615 212.8493)" class="st1 st2">6.1</text>
	</g>
	<g>
		<text transform="matrix(1 0 0 1 420.3466 43.5443)" class="st1 st2">7</text>
		<text transform="matrix(1 0 0 1 420.3466 603.5443)" class="st1 st2">4</text>
		<text transform="matrix(1 0 0 1 420.3466 230.2109)" class="st1 st2">6</text>
		<text transform="matrix(1 0 0 1 378.4453 323.5443)" class="st1 st2">5.5</text>
		<text transform="matrix(1 0 0 1 382.8837 108.8776)" class="st1 st2">6.65</text>
	</g>
	<g>
		<text transform="matrix(1 0 0 1 283.2008 137.6823)" class="st1 st2">6.5</text>
		<text transform="matrix(1 0 0 1 283.2008 604.3491)" class="st1 st2">4</text>
		<text transform="matrix(1 0 0 1 283.2008 268.349)" class="st1 st2">5.8</text>
		<text transform="matrix(1 0 0 1 241.2994 324.349)" class="st1 st2">5.5</text>
		<text transform="matrix(1 0 0 1 259.6393 231.0157)" class="st1 st2">6</text>
	</g>
	<g>
		<text transform="matrix(1 0 0 1 855.2008 44.349)" class="st1 st2">7</text>
		<text transform="matrix(1 0 0 1 855.2008 473.6824)" class="st1 st2">4.7</text>
		<text transform="matrix(1 0 0 1 855.2008 231.0157)" class="st1 st2">6</text>
		<text transform="matrix(1 0 0 1 813.2994 324.349)" class="st1 st2">5.5</text>
		<text transform="matrix(1 0 0 1 823.2994 193.6824)" class="st1 st2">6.2</text>
	</g>
</g>
</svg>
