<?xml version="1.0" encoding="utf-8"?>
<!-- Generator: Adobe Illustrator 26.3.0, SVG Export Plug-In . SVG Version: 6.00 Build 0)  -->
<svg version="1.1" id="Capa_1" xmlns="http://www.w3.org/2000/svg" xmlns:xlink="http://www.w3.org/1999/xlink" x="0px" y="0px"
	 viewBox="0 0 905 712" style="enable-background:new 0 0 905 712;" xml:space="preserve">
<style type="text/css">
	.st0{fill:none;stroke:#000000;}
	.st1{font-family:'Helvetica';}
	.st2{font-size:10px;}
	.st3{fill:#7B7B7B;}
	.st4{font-family:'Arial-BoldMT';}
	.st5{font-size:12px;}
	.st6{fill:#97B0D7;}
	.st7{fill:#041D42;}
	.st8{fill:#7D96BC;}
	.st9{fill:#9CB5DC;}
	.st10{fill:#768FB6;}
	.st11{fill:#B8D1F8;}
	.st12{fill:#BCD5FC;}
	.st13{fill:#627BA1;}
	.st14{fill:#95AED5;}
	.st15{fill:#B5CEF5;}
	.st16{fill:#9BB4DB;}
	.st17{fill:#B7D0F7;}
	.st18{fill:#B4CDF4;}
	.st19{fill:#526B91;}
	.st20{fill:#B1CAF0;}
	.st21{fill:#96AFD5;}
	.st22{fill:#B3CCF2;}
	.st23{fill:#9DB6DD;}
	.st24{fill:#93ACD3;}
	.st25{fill:#B2CBF2;}
	.st26{fill:#082146;}
	.st27{fill:#B9D2F9;}
	.st28{fill:#B6CFF6;}
	.st29{fill:#728BB2;}
	.st30{fill:#B0C9F0;}
	.st31{fill:#95AED4;}
	.st32{fill:#B1CAF1;}
	.st33{fill:#A1BAE1;}
	.st34{fill:#B3CCF3;}
	.st35{fill:#BAD3FA;}
	.st36{fill:#839CC2;}
	.st37{fill:#89A2C8;}
	.st38{fill:#A8C1E7;}
	.st39{fill:#A5BEE5;}
	.st40{fill:#99B2D8;}
	.st41{fill:#7F98BE;}
</style>
<g>
	<path class="st0" d="M88.5,100.5h700"/>
	<g transform="translate(14.780405405405416,0)">
		<line class="st0" x1="88" y1="100" x2="88" y2="94"/>
		<text transform="matrix(0.7071 -0.7071 0.7071 0.7071 86.5346 93.6362)" class="st1 st2">4</text>
	</g>
	<g transform="translate(39.6114864864865,0)">
		<line class="st0" x1="88" y1="100" x2="88" y2="94"/>
		<text transform="matrix(0.7071 -0.7071 0.7071 0.7071 86.5355 93.6362)" class="st1 st2">4.2</text>
	</g>
	<g transform="translate(64.44256756756758,0)">
		<line class="st0" x1="88" y1="100" x2="88" y2="94"/>
		<text transform="matrix(0.7071 -0.7071 0.7071 0.7071 86.5345 93.6362)" class="st1 st2">4.3</text>
	</g>
	<g transform="translate(89.27364864864866,0)">
		<line class="st0" x1="88" y1="100" x2="88" y2="94"/>
		<text transform="matrix(0.7071 -0.7071 0.7071 0.7071 86.5355 93.6362)" class="st1 st2">4.4</text>
	</g>
	<g transform="translate(114.10472972972974,0)">
		<line class="st0" x1="88" y1="100" x2="88" y2="94"/>
		<text transform="matrix(0.7071 -0.7071 0.7071 0.7071 86.5345 93.6362)" class="st1 st2">4.7</text>
	</g>
	<g transform="translate(138.93581081081084,0)">
		<line class="st0" x1="88" y1="100" x2="88" y2="94"/>
		<text transform="matrix(0.7071 -0.7071 0.7071 0.7071 86.5354 93.6362)" class="st1 st2">4.8</text>
	</g>
	<g transform="translate(163.7668918918919,0)">
		<line class="st0" x1="88" y1="100" x2="88" y2="94"/>
		<text transform="matrix(0.7071 -0.7071 0.7071 0.7071 86.5344 93.6362)" class="st1 st2">4.9</text>
	</g>
	<g transform="translate(188.59797297297297,0)">
		<line class="st0" x1="88" y1="100" x2="88" y2="94"/>
		<text transform="matrix(0.7071 -0.7071 0.7071 0.7071 86.5353 93.6362)" class="st1 st2">5</text>
	</g>
	<g transform="translate(213.42905405405406,0)">
		<line class="st0" x1="88" y1="100" x2="88" y2="94"/>
		<text transform="matrix(0.7071 -0.7071 0.7071 0.7071 86.5344 93.6362)" class="st1 st2">5.1</text>
	</g>
	<g transform="translate(238.26013513513516,0)">
		<line class="st0" x1="88" y1="100" x2="88" y2="94"/>
		<text transform="matrix(0.7071 -0.7071 0.7071 0.7071 86.5353 93.6362)" class="st1 st2">5.2</text>
	</g>
	<g transform="translate(263.0912162162162,0)">
		<line class="st0" x1="88" y1="100" x2="88" y2="94"/>
		<text transform="matrix(0.7071 -0.7071 0.7071 0.7071 86.5343 93.6362)" class="st1 st2">5.3</text>
	</g>
	<g transform="translate(287.9222972972973,0)">
		<line class="st0" x1="88" y1="100" x2="88" y2="94"/>
		<text transform="matrix(0.7071 -0.7071 0.7071 0.7071 86.5352 93.6362)" class="st1 st2">5.4</text>
	</g>
	<g transform="translate(312.7533783783784,0)">
		<line class="st0" x1="88" y1="100" x2="88" y2="94"/>
		<text transform="matrix(0.7071 -0.7071 0.7071 0.7071 86.5342 93.6362)" class="st1 st2">5.5</text>
	</g>
	<g transform="translate(337.5844594594595,0)">
		<line class="st0" x1="88" y1="100" x2="88" y2="94"/>
		<text transform="matrix(0.7071 -0.7071 0.7071 0.7071 86.5352 93.6362)" class="st1 st2">5.6</text>
	</g>
	<g transform="translate(362.4155405405405,0)">
		<line class="st0" x1="88" y1="100" x2="88" y2="94"/>
		<text transform="matrix(0.7071 -0.7071 0.7071 0.7071 86.5342 93.6362)" class="st1 st2">5.7</text>
	</g>
	<g transform="translate(387.2466216216216,0)">
		<line class="st0" x1="88" y1="100" x2="88" y2="94"/>
		<text transform="matrix(0.7071 -0.7071 0.7071 0.7071 86.5351 93.6362)" class="st1 st2">5.8</text>
	</g>
	<g transform="translate(412.0777027027027,0)">
		<line class="st0" x1="88" y1="100" x2="88" y2="94"/>
		<text transform="matrix(0.7071 -0.7071 0.7071 0.7071 86.5361 93.6362)" class="st1 st2">5.9</text>
	</g>
	<g transform="translate(436.9087837837838,0)">
		<line class="st0" x1="88" y1="100" x2="88" y2="94"/>
		<text transform="matrix(0.7071 -0.7071 0.7071 0.7071 86.5351 93.6362)" class="st1 st2">6</text>
	</g>
	<g transform="translate(461.7398648648649,0)">
		<line class="st0" x1="88" y1="100" x2="88" y2="94"/>
		<text transform="matrix(0.7071 -0.7071 0.7071 0.7071 86.5341 93.6362)" class="st1 st2">6.1</text>
	</g>
	<g transform="translate(486.57094594594594,0)">
		<line class="st0" x1="88" y1="100" x2="88" y2="94"/>
		<text transform="matrix(0.7071 -0.7071 0.7071 0.7071 86.535 93.6362)" class="st1 st2">6.2</text>
	</g>
	<g transform="translate(511.40202702702703,0)">
		<line class="st0" x1="88" y1="100" x2="88" y2="94"/>
		<text transform="matrix(0.7071 -0.7071 0.7071 0.7071 86.536 93.6362)" class="st1 st2">6.3</text>
	</g>
	<g transform="translate(536.2331081081081,0)">
		<line class="st0" x1="88" y1="100" x2="88" y2="94"/>
		<text transform="matrix(0.7071 -0.7071 0.7071 0.7071 86.535 93.6362)" class="st1 st2">6.4</text>
	</g>
	<g transform="translate(561.0641891891892,0)">
		<line class="st0" x1="88" y1="100" x2="88" y2="94"/>
		<text transform="matrix(0.7071 -0.7071 0.7071 0.7071 86.534 93.6362)" class="st1 st2">6.5</text>
	</g>
	<g transform="translate(585.8952702702702,0)">
		<line class="st0" x1="88" y1="100" x2="88" y2="94"/>
		<text transform="matrix(0.7071 -0.7071 0.7071 0.7071 86.5349 93.6362)" class="st1 st2">6.6</text>
	</g>
	<g transform="translate(610.7263513513512,0)">
		<line class="st0" x1="88" y1="100" x2="88" y2="94"/>
		<text transform="matrix(0.7071 -0.7071 0.7071 0.7071 86.5359 93.6362)" class="st1 st2">6.7</text>
	</g>
	<g transform="translate(635.5574324324323,0)">
		<line class="st0" x1="88" y1="100" x2="88" y2="94"/>
		<text transform="matrix(0.7071 -0.7071 0.7071 0.7071 86.5349 93.6362)" class="st1 st2">6.8</text>
	</g>
	<g transform="translate(660.3885135135135,0)">
		<line class="st0" x1="88" y1="100" x2="88" y2="94"/>
		<text transform="matrix(0.7071 -0.7071 0.7071 0.7071 86.5359 93.6362)" class="st1 st2">6.9</text>
	</g>
	<g transform="translate(685.2195945945946,0)">
		<line class="st0" x1="88" y1="100" x2="88" y2="94"/>
		<text transform="matrix(0.7071 -0.7071 0.7071 0.7071 86.5348 93.6362)" class="st1 st2">7</text>
	</g>
</g>
<g>
	<path class="st0" d="M88.5,100.5v575"/>
	<g transform="translate(0,14.758726899383941)">
		<line class="st0" x1="88" y1="100" x2="82" y2="100"/>
		<text transform="matrix(1 0 0 1 73.4385 103.1998)" class="st1 st2">4</text>
	</g>
	<g transform="translate(0,39.55338809034903)">
		<line class="st0" x1="88" y1="100" x2="82" y2="100"/>
		<text transform="matrix(1 0 0 1 65.0986 103.2)" class="st1 st2">4.5</text>
	</g>
	<g transform="translate(0,64.34804928131413)">
		<line class="st0" x1="88" y1="100" x2="82" y2="100"/>
		<text transform="matrix(1 0 0 1 65.0986 103.2003)" class="st1 st2">4.6</text>
	</g>
	<g transform="translate(0,89.14271047227923)">
		<line class="st0" x1="88" y1="100" x2="82" y2="100"/>
		<text transform="matrix(1 0 0 1 65.0986 103.2006)" class="st1 st2">4.7</text>
	</g>
	<g transform="translate(0,113.93737166324432)">
		<line class="st0" x1="88" y1="100" x2="82" y2="100"/>
		<text transform="matrix(1 0 0 1 65.0986 103.2008)" class="st1 st2">4.8</text>
	</g>
	<g transform="translate(0,138.7320328542094)">
		<line class="st0" x1="88" y1="100" x2="82" y2="100"/>
		<text transform="matrix(1 0 0 1 73.4385 103.1991)" class="st1 st2">5</text>
	</g>
	<g transform="translate(0,163.5266940451745)">
		<line class="st0" x1="88" y1="100" x2="82" y2="100"/>
		<text transform="matrix(1 0 0 1 65.0986 103.1994)" class="st1 st2">5.2</text>
	</g>
	<g transform="translate(0,188.3213552361396)">
		<line class="st0" x1="88" y1="100" x2="82" y2="100"/>
		<text transform="matrix(1 0 0 1 65.0986 103.1996)" class="st1 st2">5.3</text>
	</g>
	<g transform="translate(0,213.11601642710468)">
		<line class="st0" x1="88" y1="100" x2="82" y2="100"/>
		<text transform="matrix(1 0 0 1 65.0986 103.1999)" class="st1 st2">5.4</text>
	</g>
	<g transform="translate(0,237.91067761806977)">
		<line class="st0" x1="88" y1="100" x2="82" y2="100"/>
		<text transform="matrix(1 0 0 1 65.0986 103.2002)" class="st1 st2">5.5</text>
	</g>
	<g transform="translate(0,262.70533880903486)">
		<line class="st0" x1="88" y1="100" x2="82" y2="100"/>
		<text transform="matrix(1 0 0 1 65.0986 103.2004)" class="st1 st2">5.6</text>
	</g>
	<g transform="translate(0,287.49999999999994)">
		<line class="st0" x1="88" y1="100" x2="82" y2="100"/>
		<text transform="matrix(1 0 0 1 65.0986 103.2007)" class="st1 st2">5.7</text>
	</g>
	<g transform="translate(0,312.2946611909651)">
		<line class="st0" x1="88" y1="100" x2="82" y2="100"/>
		<text transform="matrix(1 0 0 1 65.0986 103.199)" class="st1 st2">5.8</text>
	</g>
	<g transform="translate(0,337.0893223819302)">
		<line class="st0" x1="88" y1="100" x2="82" y2="100"/>
		<text transform="matrix(1 0 0 1 65.0986 103.1992)" class="st1 st2">5.9</text>
	</g>
	<g transform="translate(0,361.88398357289526)">
		<line class="st0" x1="88" y1="100" x2="82" y2="100"/>
		<text transform="matrix(1 0 0 1 73.4385 103.1995)" class="st1 st2">6</text>
	</g>
	<g transform="translate(0,386.67864476386035)">
		<line class="st0" x1="88" y1="100" x2="82" y2="100"/>
		<text transform="matrix(1 0 0 1 65.0986 103.1998)" class="st1 st2">6.1</text>
	</g>
	<g transform="translate(0,411.47330595482543)">
		<line class="st0" x1="88" y1="100" x2="82" y2="100"/>
		<text transform="matrix(1 0 0 1 65.0986 103.2)" class="st1 st2">6.2</text>
	</g>
	<g transform="translate(0,436.2679671457905)">
		<line class="st0" x1="88" y1="100" x2="82" y2="100"/>
		<text transform="matrix(1 0 0 1 65.0986 103.2003)" class="st1 st2">6.3</text>
	</g>
	<g transform="translate(0,461.0626283367556)">
		<line class="st0" x1="88" y1="100" x2="82" y2="100"/>
		<text transform="matrix(1 0 0 1 65.0986 103.2006)" class="st1 st2">6.5</text>
	</g>
	<g transform="translate(0,485.8572895277207)">
		<line class="st0" x1="88" y1="100" x2="82" y2="100"/>
		<text transform="matrix(1 0 0 1 65.0986 103.2008)" class="st1 st2">6.6</text>
	</g>
	<g transform="translate(0,510.6519507186858)">
		<line class="st0" x1="88" y1="100" x2="82" y2="100"/>
		<text transform="matrix(1 0 0 1 65.0986 103.1991)" class="st1 st2">6.7</text>
	</g>
	<g transform="translate(0,535.446611909651)">
		<line class="st0" x1="88" y1="100" x2="82" y2="100"/>
		<text transform="matrix(1 0 0 1 65.0986 103.1994)" class="st1 st2">6.8</text>
	</g>
	<g transform="translate(0,560.241273100616)">
		<line class="st0" x1="88" y1="100" x2="82" y2="100"/>
		<text transform="matrix(1 0 0 1 73.4385 103.1996)" class="st1 st2">7</text>
	</g>
</g>
<text transform="matrix(6.123234e-17 -1 1 6.123234e-17 51.941 179.8438)" class="st3 st4 st5">Nota proyecto</text>
<rect x="693.9" y="556.3" class="st6" width="10.5" height="10.5"/>
<rect x="639.7" y="650.9" class="st7" width="19.6" height="19.6"/>
<rect x="518.9" y="555.1" class="st8" width="12.9" height="12.9"/>
<rect x="644.3" y="432.3" class="st9" width="10.5" height="10.5"/>
<rect x="518.9" y="654.3" class="st10" width="12.9" height="12.9"/>
<rect x="596.1" y="235.5" class="st11" width="7.4" height="7.4"/>
<rect x="745.1" y="111.5" class="st12" width="7.4" height="7.4"/>
<rect x="766.2" y="554.1" class="st13" width="14.8" height="14.8"/>
<rect x="643.1" y="133.6" class="st14" width="12.9" height="12.9"/>
<rect x="763.8" y="650.9" class="st7" width="19.6" height="19.6"/>
<rect x="645.8" y="359.5" class="st15" width="7.4" height="7.4"/>
<rect x="271.8" y="457.1" class="st16" width="10.5" height="10.5"/>
<rect x="472" y="260.3" class="st17" width="7.4" height="7.4"/>
<rect x="447.2" y="458.6" class="st18" width="7.4" height="7.4"/>
<rect x="765.4" y="454" class="st19" width="16.6" height="16.6"/>
<rect x="496.8" y="632.2" class="st20" width="7.4" height="7.4"/>
<rect x="745.1" y="458.6" class="st18" width="7.4" height="7.4"/>
<rect x="718.8" y="605.9" class="st21" width="10.5" height="10.5"/>
<rect x="496.8" y="533" class="st22" width="7.4" height="7.4"/>
<rect x="520.1" y="407.5" class="st23" width="10.5" height="10.5"/>
<rect x="594.6" y="655.5" class="st24" width="10.5" height="10.5"/>
<rect x="521.6" y="533" class="st22" width="7.4" height="7.4"/>
<rect x="544.9" y="457.1" class="st16" width="10.5" height="10.5"/>
<rect x="670.6" y="557.8" class="st25" width="7.4" height="7.4"/>
<rect x="596.1" y="384.3" class="st15" width="7.4" height="7.4"/>
<rect x="619.4" y="457.1" class="st16" width="10.5" height="10.5"/>
<rect x="593.4" y="555.1" class="st8" width="12.9" height="12.9"/>
<rect x="298.2" y="458.6" class="st18" width="7.4" height="7.4"/>
<rect x="517.1" y="454" class="st19" width="16.6" height="16.6"/>
<rect x="639" y="451.8" class="st26" width="21" height="21"/>
<rect x="571.3" y="185.9" class="st27" width="7.4" height="7.4"/>
<rect x="198.8" y="557.8" class="st25" width="7.4" height="7.4"/>
<rect x="99.5" y="334.7" class="st28" width="7.4" height="7.4"/>
<rect x="571.3" y="285.1" class="st17" width="7.4" height="7.4"/>
<rect x="393.8" y="331" class="st29" width="14.8" height="14.8"/>
<rect x="392.9" y="454" class="st19" width="16.6" height="16.6"/>
<rect x="621" y="657" class="st30" width="7.4" height="7.4"/>
<rect x="644.3" y="630.7" class="st31" width="10.5" height="10.5"/>
<rect x="645.8" y="260.3" class="st17" width="7.4" height="7.4"/>
<rect x="770" y="384.3" class="st15" width="7.4" height="7.4"/>
<rect x="770" y="359.5" class="st15" width="7.4" height="7.4"/>
<rect x="770" y="607.4" class="st32" width="7.4" height="7.4"/>
<rect x="544.9" y="556.3" class="st6" width="10.5" height="10.5"/>
<rect x="520.1" y="283.5" class="st33" width="10.5" height="10.5"/>
<rect x="645.8" y="235.5" class="st11" width="7.4" height="7.4"/>
<rect x="397.5" y="483.4" class="st34" width="7.4" height="7.4"/>
<rect x="469.3" y="654.3" class="st10" width="12.9" height="12.9"/>
<rect x="645.8" y="285.1" class="st17" width="7.4" height="7.4"/>
<rect x="397.5" y="111.5" class="st12" width="7.4" height="7.4"/>
<rect x="521.6" y="483.4" class="st34" width="7.4" height="7.4"/>
<rect x="248.5" y="334.7" class="st28" width="7.4" height="7.4"/>
<rect x="718.8" y="556.3" class="st6" width="10.5" height="10.5"/>
<rect x="273.3" y="161.1" class="st35" width="7.4" height="7.4"/>
<rect x="470.4" y="556.3" class="st6" width="10.5" height="10.5"/>
<rect x="397.5" y="384.3" class="st15" width="7.4" height="7.4"/>
<rect x="273.3" y="409" class="st15" width="7.4" height="7.4"/>
<rect x="645.8" y="409" class="st15" width="7.4" height="7.4"/>
<rect x="596.1" y="334.7" class="st28" width="7.4" height="7.4"/>
<rect x="472" y="632.2" class="st20" width="7.4" height="7.4"/>
<rect x="320.3" y="455.9" class="st36" width="12.9" height="12.9"/>
<rect x="720.3" y="210.7" class="st27" width="7.4" height="7.4"/>
<rect x="644.3" y="556.3" class="st6" width="10.5" height="10.5"/>
<rect x="447.2" y="359.5" class="st15" width="7.4" height="7.4"/>
<rect x="643.1" y="331.9" class="st37" width="12.9" height="12.9"/>
<rect x="745.1" y="409" class="st15" width="7.4" height="7.4"/>
<rect x="596.1" y="458.6" class="st18" width="7.4" height="7.4"/>
<rect x="520.1" y="134.8" class="st38" width="10.5" height="10.5"/>
<rect x="693.9" y="655.5" class="st24" width="10.5" height="10.5"/>
<rect x="472" y="334.7" class="st28" width="7.4" height="7.4"/>
<rect x="518.9" y="331.9" class="st37" width="12.9" height="12.9"/>
<rect x="596.1" y="409" class="st15" width="7.4" height="7.4"/>
<rect x="520.1" y="209.2" class="st39" width="10.5" height="10.5"/>
<rect x="645.8" y="508.2" class="st34" width="7.4" height="7.4"/>
<rect x="347.8" y="235.5" class="st11" width="7.4" height="7.4"/>
<rect x="768.4" y="531.5" class="st40" width="10.5" height="10.5"/>
<rect x="568.6" y="654.3" class="st10" width="12.9" height="12.9"/>
<rect x="397.5" y="557.8" class="st25" width="7.4" height="7.4"/>
<rect x="271.8" y="134.8" class="st38" width="10.5" height="10.5"/>
<rect x="643.1" y="530.3" class="st41" width="12.9" height="12.9"/>
<rect x="571.3" y="136.3" class="st35" width="7.4" height="7.4"/>
<rect x="645.8" y="384.3" class="st15" width="7.4" height="7.4"/>
<rect x="569.8" y="457.1" class="st16" width="10.5" height="10.5"/>
<rect x="445.6" y="407.5" class="st23" width="10.5" height="10.5"/>
<rect x="447.2" y="508.2" class="st34" width="7.4" height="7.4"/>
<rect x="447.2" y="334.7" class="st28" width="7.4" height="7.4"/>
<rect x="571.3" y="309.9" class="st28" width="7.4" height="7.4"/>
<rect x="223.7" y="409" class="st15" width="7.4" height="7.4"/>
<rect x="770" y="582.6" class="st32" width="7.4" height="7.4"/>
<rect x="770" y="632.2" class="st20" width="7.4" height="7.4"/>
<rect x="99.5" y="409" class="st15" width="7.4" height="7.4"/>
<rect x="347.8" y="508.2" class="st34" width="7.4" height="7.4"/>
<rect x="149.2" y="111.5" class="st12" width="7.4" height="7.4"/>
<rect x="174" y="210.7" class="st27" width="7.4" height="7.4"/>
<rect x="695.5" y="235.5" class="st11" width="7.4" height="7.4"/>
<rect x="447.2" y="557.8" class="st25" width="7.4" height="7.4"/>
<rect x="621" y="508.2" class="st34" width="7.4" height="7.4"/>
<rect x="594.6" y="531.5" class="st40" width="10.5" height="10.5"/>
<rect x="422.3" y="235.5" class="st11" width="7.4" height="7.4"/>
<rect x="223.7" y="136.3" class="st35" width="7.4" height="7.4"/>
<rect x="472" y="607.4" class="st32" width="7.4" height="7.4"/>
<rect x="472" y="136.3" class="st35" width="7.4" height="7.4"/>
<rect x="248.5" y="533" class="st22" width="7.4" height="7.4"/>
<rect x="521.6" y="508.2" class="st34" width="7.4" height="7.4"/>
<rect x="347.8" y="334.7" class="st28" width="7.4" height="7.4"/>
<rect x="273.3" y="111.5" class="st12" width="7.4" height="7.4"/>
<rect x="223.7" y="557.8" class="st25" width="7.4" height="7.4"/>
<rect x="347.8" y="458.6" class="st18" width="7.4" height="7.4"/>
<rect x="397.5" y="409" class="st15" width="7.4" height="7.4"/>
<rect x="645.8" y="607.4" class="st32" width="7.4" height="7.4"/>
<rect x="422.3" y="334.7" class="st28" width="7.4" height="7.4"/>
<rect x="397.5" y="508.2" class="st34" width="7.4" height="7.4"/>
<rect x="720.3" y="334.7" class="st28" width="7.4" height="7.4"/>
<rect x="397.5" y="161.1" class="st35" width="7.4" height="7.4"/>
<rect x="670.6" y="384.3" class="st15" width="7.4" height="7.4"/>
<rect x="621" y="359.5" class="st15" width="7.4" height="7.4"/>
<rect x="670.6" y="657" class="st30" width="7.4" height="7.4"/>
<rect x="124.3" y="235.5" class="st11" width="7.4" height="7.4"/>
<rect x="223.7" y="161.1" class="st35" width="7.4" height="7.4"/>
<rect x="521.6" y="235.5" class="st11" width="7.4" height="7.4"/>
<rect x="223.7" y="483.4" class="st34" width="7.4" height="7.4"/>
<rect x="571.3" y="334.7" class="st28" width="7.4" height="7.4"/>
<rect x="298.2" y="111.5" class="st12" width="7.4" height="7.4"/>
<rect x="223.7" y="235.5" class="st11" width="7.4" height="7.4"/>
<rect x="472" y="111.5" class="st12" width="7.4" height="7.4"/>
<rect x="372.7" y="334.7" class="st28" width="7.4" height="7.4"/>
<rect x="670.6" y="508.2" class="st34" width="7.4" height="7.4"/>
<rect x="347.8" y="657" class="st30" width="7.4" height="7.4"/>
<rect x="273.3" y="235.5" class="st11" width="7.4" height="7.4"/>
<g id="labels">
	<g transform="translate(611.1756756756756,461.5266940451745)">
	</g>
	<g transform="translate(561.5135135135135,560.7053388090349)">
	</g>
	<g transform="translate(437.3581081081081,461.5266940451745)">
	</g>
	<g transform="translate(561.5135135135135,337.5533880903491)">
	</g>
	<g transform="translate(437.3581081081081,560.7053388090349)">
	</g>
	<g transform="translate(511.85135135135135,139.1960985626283)">
	</g>
	<g transform="translate(660.8378378378379,15.22279260780283)">
	</g>
	<g transform="translate(685.668918918919,461.5266940451745)">
	</g>
	<g transform="translate(561.5135135135135,40.017453798767924)">
	</g>
	<g transform="translate(685.668918918919,560.7053388090349)">
	</g>
	<g transform="translate(561.5135135135135,263.16940451745376)">
	</g>
	<g transform="translate(189.0472972972973,362.34804928131416)">
	</g>
	<g transform="translate(387.69594594594594,163.9907597535934)">
	</g>
	<g transform="translate(362.86486486486484,362.34804928131416)">
	</g>
	<g transform="translate(685.668918918919,362.34804928131416)">
	</g>
	<g transform="translate(412.52702702702703,535.9106776180698)">
	</g>
	<g transform="translate(660.8378378378379,362.34804928131416)">
	</g>
	<g transform="translate(636.0067567567567,511.1160164271047)">
	</g>
	<g transform="translate(412.52702702702703,436.7320328542094)">
	</g>
	<g transform="translate(437.3581081081081,312.758726899384)">
	</g>
	<g transform="translate(511.85135135135135,560.7053388090349)">
	</g>
	<g transform="translate(437.3581081081081,436.7320328542094)">
	</g>
	<g transform="translate(462.1891891891892,362.34804928131416)">
	</g>
	<g transform="translate(586.3445945945946,461.5266940451745)">
	</g>
	<g transform="translate(511.85135135135135,287.96406570841884)">
	</g>
	<g transform="translate(536.6824324324325,362.34804928131416)">
	</g>
	<g transform="translate(511.85135135135135,461.5266940451745)">
	</g>
	<g transform="translate(213.8783783783784,362.34804928131416)">
	</g>
	<g transform="translate(437.3581081081081,362.34804928131416)">
	</g>
	<g transform="translate(561.5135135135135,362.34804928131416)">
	</g>
	<g transform="translate(487.02027027027026,89.60677618069812)">
	</g>
	<g transform="translate(114.55405405405406,461.5266940451745)">
	</g>
	<g transform="translate(15.22972972972974,238.37474332648867)">
	</g>
	<g transform="translate(487.02027027027026,188.7854209445585)">
	</g>
	<g transform="translate(313.2027027027027,238.37474332648867)">
	</g>
	<g transform="translate(313.2027027027027,362.34804928131416)">
	</g>
	<g transform="translate(536.6824324324325,560.7053388090349)">
	</g>
	<g transform="translate(561.5135135135135,535.9106776180698)">
	</g>
	<g transform="translate(561.5135135135135,163.9907597535934)">
	</g>
	<g transform="translate(685.668918918919,287.96406570841884)">
	</g>
	<g transform="translate(685.668918918919,263.16940451745376)">
	</g>
	<g transform="translate(685.668918918919,511.1160164271047)">
	</g>
	<g transform="translate(462.1891891891892,461.5266940451745)">
	</g>
	<g transform="translate(437.3581081081081,188.7854209445585)">
	</g>
	<g transform="translate(561.5135135135135,139.1960985626283)">
	</g>
	<g transform="translate(313.2027027027027,387.14271047227925)">
	</g>
	<g transform="translate(387.69594594594594,560.7053388090349)">
	</g>
	<g transform="translate(561.5135135135135,188.7854209445585)">
	</g>
	<g transform="translate(313.2027027027027,15.22279260780283)">
	</g>
	<g transform="translate(437.3581081081081,387.14271047227925)">
	</g>
	<g transform="translate(164.21621621621622,238.37474332648867)">
	</g>
	<g transform="translate(636.0067567567567,461.5266940451745)">
	</g>
	<g transform="translate(189.0472972972973,64.81211498973302)">
	</g>
	<g transform="translate(387.69594594594594,461.5266940451745)">
	</g>
	<g transform="translate(313.2027027027027,287.96406570841884)">
	</g>
	<g transform="translate(189.0472972972973,312.758726899384)">
	</g>
	<g transform="translate(561.5135135135135,312.758726899384)">
	</g>
	<g transform="translate(511.85135135135135,238.37474332648867)">
	</g>
	<g transform="translate(387.69594594594594,535.9106776180698)">
	</g>
	<g transform="translate(238.70945945945948,362.34804928131416)">
	</g>
	<g transform="translate(636.0067567567567,114.4014373716632)">
	</g>
	<g transform="translate(561.5135135135135,461.5266940451745)">
	</g>
	<g transform="translate(362.86486486486484,263.16940451745376)">
	</g>
	<g transform="translate(561.5135135135135,238.37474332648867)">
	</g>
	<g transform="translate(660.8378378378379,312.758726899384)">
	</g>
	<g transform="translate(511.85135135135135,362.34804928131416)">
	</g>
	<g transform="translate(437.3581081081081,40.017453798767924)">
	</g>
	<g transform="translate(611.1756756756756,560.7053388090349)">
	</g>
	<g transform="translate(387.69594594594594,238.37474332648867)">
	</g>
	<g transform="translate(437.3581081081081,238.37474332648867)">
	</g>
	<g transform="translate(511.85135135135135,312.758726899384)">
	</g>
	<g transform="translate(437.3581081081081,114.4014373716632)">
	</g>
	<g transform="translate(561.5135135135135,411.93737166324433)">
	</g>
	<g transform="translate(263.5405405405405,139.1960985626283)">
	</g>
	<g transform="translate(685.668918918919,436.7320328542094)">
	</g>
	<g transform="translate(487.02027027027026,560.7053388090349)">
	</g>
	<g transform="translate(313.2027027027027,461.5266940451745)">
	</g>
	<g transform="translate(189.0472972972973,40.017453798767924)">
	</g>
	<g transform="translate(561.5135135135135,436.7320328542094)">
	</g>
	<g transform="translate(487.02027027027026,40.017453798767924)">
	</g>
	<g transform="translate(561.5135135135135,287.96406570841884)">
	</g>
	<g transform="translate(487.02027027027026,362.34804928131416)">
	</g>
	<g transform="translate(362.86486486486484,312.758726899384)">
	</g>
	<g transform="translate(362.86486486486484,411.93737166324433)">
	</g>
	<g transform="translate(362.86486486486484,238.37474332648867)">
	</g>
	<g transform="translate(487.02027027027026,213.58008213552358)">
	</g>
	<g transform="translate(139.38513513513516,312.758726899384)">
	</g>
	<g transform="translate(685.668918918919,486.3213552361396)">
	</g>
	<g transform="translate(685.668918918919,535.9106776180698)">
	</g>
	<g transform="translate(15.22972972972974,312.758726899384)">
	</g>
	<g transform="translate(263.5405405405405,411.93737166324433)">
	</g>
	<g transform="translate(64.8918918918919,15.22279260780283)">
	</g>
	<g transform="translate(89.72297297297298,114.4014373716632)">
	</g>
	<g transform="translate(611.1756756756756,139.1960985626283)">
	</g>
	<g transform="translate(362.86486486486484,461.5266940451745)">
	</g>
	<g transform="translate(536.6824324324325,411.93737166324433)">
	</g>
	<g transform="translate(511.85135135135135,436.7320328542094)">
	</g>
	<g transform="translate(338.0337837837838,139.1960985626283)">
	</g>
	<g transform="translate(139.38513513513516,40.017453798767924)">
	</g>
	<g transform="translate(387.69594594594594,511.1160164271047)">
	</g>
	<g transform="translate(387.69594594594594,40.017453798767924)">
	</g>
	<g transform="translate(164.21621621621622,436.7320328542094)">
	</g>
	<g transform="translate(437.3581081081081,411.93737166324433)">
	</g>
	<g transform="translate(263.5405405405405,238.37474332648867)">
	</g>
	<g transform="translate(189.0472972972973,15.22279260780283)">
	</g>
	<g transform="translate(139.38513513513516,461.5266940451745)">
	</g>
	<g transform="translate(263.5405405405405,362.34804928131416)">
	</g>
	<g transform="translate(313.2027027027027,312.758726899384)">
	</g>
	<g transform="translate(561.5135135135135,511.1160164271047)">
	</g>
	<g transform="translate(338.0337837837838,238.37474332648867)">
	</g>
	<g transform="translate(313.2027027027027,411.93737166324433)">
	</g>
	<g transform="translate(636.0067567567567,238.37474332648867)">
	</g>
	<g transform="translate(313.2027027027027,64.81211498973302)">
	</g>
	<g transform="translate(586.3445945945946,287.96406570841884)">
	</g>
	<g transform="translate(536.6824324324325,263.16940451745376)">
	</g>
	<g transform="translate(586.3445945945946,560.7053388090349)">
	</g>
	<g transform="translate(40.06081081081082,139.1960985626283)">
	</g>
	<g transform="translate(139.38513513513516,64.81211498973302)">
	</g>
	<g transform="translate(437.3581081081081,139.1960985626283)">
	</g>
	<g transform="translate(139.38513513513516,387.14271047227925)">
	</g>
	<g transform="translate(487.02027027027026,238.37474332648867)">
	</g>
	<g transform="translate(213.8783783783784,15.22279260780283)">
	</g>
	<g transform="translate(139.38513513513516,139.1960985626283)">
	</g>
	<g transform="translate(387.69594594594594,15.22279260780283)">
	</g>
	<g transform="translate(288.3716216216216,238.37474332648867)">
	</g>
	<g transform="translate(586.3445945945946,411.93737166324433)">
	</g>
	<g transform="translate(263.5405405405405,560.7053388090349)">
	</g>
	<g transform="translate(189.0472972972973,139.1960985626283)">
	</g>
</g>
<text transform="matrix(1 0 0 1 684.9254 70.8574)" class="st3 st4 st5">Nota anteproyecto</text>
</svg>
