<?xml version="1.0" encoding="utf-8"?>
<!-- Generator: Adobe Illustrator 28.1.0, SVG Export Plug-In . SVG Version: 6.00 Build 0)  -->
<svg version="1.1" xmlns="http://www.w3.org/2000/svg" xmlns:xlink="http://www.w3.org/1999/xlink" x="0px" y="0px"
	 viewBox="0 0 923.6 642.2" style="enable-background:new 0 0 923.6 642.2;" xml:space="preserve">
<style type="text/css">
	.st0{fill:#FFFFFF;}
	.st1{fill:#D0021B;}
	.st2{fill:#4A90E2;}
	.st3{fill:none;stroke:#000000;}
	.st4{font-family:'ArialMT';}
	.st5{font-size:10px;}
	.st6{fill:#7B7B7B;}
	.st7{font-family:'Arial-BoldMT';}
	.st8{font-size:12px;}
	.st9{fill:none;stroke:#CCCCCC;}
	.st10{fill:none;}
	.st11{font-family:'MyriadPro-Regular';}
</style>
<g id="Layer_2">
	<rect class="st0" width="923.6" height="641.6"/>
</g>
<g id="Layer_1">
	<g id="viz">
		<g transform="translate(0,0)">
			<g transform="translate(50,20)">
				<g>
					<rect id="undefined_-_Reprueban" x="28.8" y="389.5" class="st1" width="36.7" height="208"/>
					<rect id="undefined_-_Aprueban" x="65.6" y="573.5" class="st2" width="36.7" height="24"/>
					
						<rect id="undefined_-_Reprueban_00000065757827128548767410000008902049890523015572_" x="131.1" y="325.5" class="st1" width="36.7" height="272"/>
					
						<rect id="undefined_-_Aprueban_00000098927563220856944580000009778930577668113580_" x="167.9" y="517.5" class="st2" width="36.7" height="80"/>
					
						<rect id="undefined_-_Reprueban_00000088833329626913927300000000037768768984385933_" x="233.5" y="125.5" class="st1" width="36.7" height="472"/>
					
						<rect id="undefined_-_Aprueban_00000137850775681212445020000013726165247332520072_" x="270.2" y="509.5" class="st2" width="36.7" height="88"/>
					
						<rect id="undefined_-_Reprueban_00000021112490650290324340000011124048174484996784_" x="335.8" y="221.5" class="st1" width="36.7" height="376"/>
					
						<rect id="undefined_-_Aprueban_00000145031220288131397340000006750662510828637071_" x="372.5" y="437.5" class="st2" width="36.7" height="160"/>
					
						<rect id="undefined_-_Reprueban_00000094579882626075146360000011029252862807260813_" x="438.1" y="253.5" class="st1" width="36.7" height="344"/>
					
						<rect id="undefined_-_Aprueban_00000129201375056193755910000006519139520199829672_" x="474.8" y="157.5" class="st2" width="36.7" height="440"/>
					
						<rect id="undefined_-_Reprueban_00000018958054533119125830000017933359971702547626_" x="540.4" y="429.5" class="st1" width="36.7" height="168"/>
					
						<rect id="undefined_-_Aprueban_00000015332373047041047200000017839031734925881226_" x="577.1" y="285.5" class="st2" width="36.7" height="312"/>
					
						<rect id="undefined_-_Reprueban_00000118376132800154286120000004290682442624020635_" x="642.7" y="189.5" class="st1" width="36.7" height="408"/>
					
						<rect id="undefined_-_Aprueban_00000159436223214462704580000007444907409736108193_" x="679.4" y="45.5" class="st2" width="36.7" height="552"/>
				</g>
				<g id="xAxis" transform="translate(0,560)">
					<path class="st3" d="M0.5,38h745"/>
					<g transform="translate(65.57373271889398,0)">
						<line class="st3" x1="0" y1="37.5" x2="0" y2="43.5"/>
						<text transform="matrix(1 0 0 1 -15.5688 53.6446)" class="st4 st5">2021-2</text>
					</g>
					<g transform="translate(167.88248847926266,0)">
						<line class="st3" x1="0" y1="37.5" x2="0" y2="43.5"/>
						<text transform="matrix(1 0 0 1 -15.5688 53.6446)" class="st4 st5">2022-1</text>
					</g>
					<g transform="translate(270.1912442396313,0)">
						<line class="st3" x1="0" y1="37.5" x2="0" y2="43.5"/>
						<text transform="matrix(1 0 0 1 -15.5688 53.6446)" class="st4 st5">2022-2</text>
					</g>
					<g transform="translate(372.5,0)">
						<line class="st3" x1="0" y1="37.5" x2="0" y2="43.5"/>
						<text transform="matrix(1 0 0 1 -15.5688 53.6446)" class="st4 st5">2023-1</text>
					</g>
					<g transform="translate(474.8087557603687,0)">
						<line class="st3" x1="0" y1="37.5" x2="0" y2="43.5"/>
						<text transform="matrix(1 0 0 1 -15.5689 53.6446)" class="st4 st5">2023-2</text>
					</g>
					<g transform="translate(577.1175115207374,0)">
						<line class="st3" x1="0" y1="37.5" x2="0" y2="43.5"/>
						<text transform="matrix(1 0 0 1 -15.5688 53.6446)" class="st4 st5">2024-1</text>
					</g>
					<g transform="translate(679.4262672811059,0)">
						<line class="st3" x1="0" y1="37.5" x2="0" y2="43.5"/>
						<text transform="matrix(1 0 0 1 -15.5688 53.6446)" class="st4 st5">2024-2</text>
					</g>
				</g>
				<g id="yAxis">
					<path class="st3" d="M0.5,598V38"/>
					<g transform="translate(0,560.5)">
						<line class="st3" x1="0" y1="37.5" x2="-6" y2="37.5"/>
						<text transform="matrix(1 0 0 1 -14.5615 40.7446)" class="st4 st5">0</text>
					</g>
					<g transform="translate(0,520.5)">
						<line class="st3" x1="0" y1="37.5" x2="-6" y2="37.5"/>
						<text transform="matrix(1 0 0 1 -14.5615 40.7446)" class="st4 st5">5</text>
					</g>
					<g transform="translate(0,480.50000000000006)">
						<line class="st3" x1="0" y1="37.5" x2="-6" y2="37.5"/>
						<text transform="matrix(1 0 0 1 -20.123 40.7446)" class="st4 st5">10</text>
					</g>
					<g transform="translate(0,440.5)">
						<line class="st3" x1="0" y1="37.5" x2="-6" y2="37.5"/>
						<text transform="matrix(1 0 0 1 -20.123 40.7446)" class="st4 st5">15</text>
					</g>
					<g transform="translate(0,400.5)">
						<line class="st3" x1="0" y1="37.5" x2="-6" y2="37.5"/>
						<text transform="matrix(1 0 0 1 -20.123 40.7446)" class="st4 st5">20</text>
					</g>
					<g transform="translate(0,360.49999999999994)">
						<line class="st3" x1="0" y1="37.5" x2="-6" y2="37.5"/>
						<text transform="matrix(1 0 0 1 -20.123 40.7446)" class="st4 st5">25</text>
					</g>
					<g transform="translate(0,320.5)">
						<line class="st3" x1="0" y1="37.5" x2="-6" y2="37.5"/>
						<text transform="matrix(1 0 0 1 -20.123 40.7446)" class="st4 st5">30</text>
					</g>
					<g transform="translate(0,280.5)">
						<line class="st3" x1="0" y1="37.5" x2="-6" y2="37.5"/>
						<text transform="matrix(1 0 0 1 -20.123 40.7446)" class="st4 st5">35</text>
					</g>
					<g transform="translate(0,240.50000000000003)">
						<line class="st3" x1="0" y1="37.5" x2="-6" y2="37.5"/>
						<text transform="matrix(1 0 0 1 -20.123 40.7446)" class="st4 st5">40</text>
					</g>
					<g transform="translate(0,200.49999999999997)">
						<line class="st3" x1="0" y1="37.5" x2="-6" y2="37.5"/>
						<text transform="matrix(1 0 0 1 -20.123 40.7446)" class="st4 st5">45</text>
					</g>
					<g transform="translate(0,160.5)">
						<line class="st3" x1="0" y1="37.5" x2="-6" y2="37.5"/>
						<text transform="matrix(1 0 0 1 -20.123 40.7446)" class="st4 st5">50</text>
					</g>
					<g transform="translate(0,120.50000000000001)">
						<line class="st3" x1="0" y1="37.5" x2="-6" y2="37.5"/>
						<text transform="matrix(1 0 0 1 -20.123 40.7446)" class="st4 st5">55</text>
					</g>
					<g transform="translate(0,80.50000000000003)">
						<line class="st3" x1="0" y1="37.5" x2="-6" y2="37.5"/>
						<text transform="matrix(1 0 0 1 -20.123 40.7446)" class="st4 st5">60</text>
					</g>
					<g transform="translate(0,40.499999999999986)">
						<line class="st3" x1="0" y1="37.5" x2="-6" y2="37.5"/>
						<text transform="matrix(1 0 0 1 -20.123 40.7446)" class="st4 st5">65</text>
					</g>
					<g transform="translate(0,0.5)">
						<line class="st3" x1="0" y1="37.5" x2="-6" y2="37.5"/>
						<text transform="matrix(1 0 0 1 -20.123 40.7445)" class="st4 st5">70</text>
					</g>
				</g>
				<text transform="matrix(1 0 0 1 719.6523 593.5446)" class="st6 st7 st8">Sets</text>
				<text transform="matrix(1 0 0 1 4 47.8395)" class="st6 st7 st8">Value</text>
			</g>
		</g>
		<g id="grid">
			<rect y="37.5" class="st9" width="805" height="600"/>
		</g>
	</g>
	<g transform="translate(0, 0)">
		<rect x="810" y="73.5" class="st2" width="15" height="15"/>
		<text transform="matrix(1 0 0 1 830 86.0446)" class="st4 st5">Aprueban</text>
	</g>
	<rect x="810" y="94.5" class="st1" width="15" height="15"/>
	<text transform="matrix(1 0 0 1 830 107.0446)" class="st4 st5">Reprueban</text>
	<text transform="matrix(1 0 0 1 810 57.5446)" class="st7 st8">Colors</text>
	<polyline class="st3" points="78.8,400.8 78.8,394.3 152.3,394.3 152.3,400.8 	"/>
	<polyline class="st3" points="181.1,340.8 181.1,334.3 254.6,334.3 254.6,340.8 	"/>
	<polyline class="st3" points="283.5,141.5 283.5,135.1 356.9,135.1 356.9,141.5 	"/>
	<polyline class="st3" points="385.8,237.7 385.8,231.3 459.2,231.3 459.2,237.7 	"/>
	<polyline class="st3" points="488.1,171.8 488.1,165.4 561.5,165.4 561.5,171.8 	"/>
	<polyline class="st3" points="590.4,302.3 590.4,295.8 663.9,295.8 663.9,302.3 	"/>
	<polyline class="st3" points="692.7,60.9 692.7,54.5 766.2,54.5 766.2,60.9 	"/>
	<rect x="81" y="381.8" class="st10" width="69.9" height="17.1"/>
	<text transform="matrix(1 0 0 1 109.7354 390.3615)" class="st11 st8">29</text>
	<rect x="183" y="321.1" class="st10" width="69.9" height="17.1"/>
	<text transform="matrix(1 0 0 1 211.7267 329.6387)" class="st11 st8">44</text>
	<rect x="283.5" y="121.2" class="st10" width="73.5" height="17.1"/>
	<text transform="matrix(1 0 0 1 314.0354 129.708)" class="st11 st8">70</text>
	<rect x="385.8" y="217.4" class="st10" width="73.5" height="17.1"/>
	<text transform="matrix(1 0 0 1 416.3441 225.9456)" class="st11 st8">67</text>
	<rect x="488.1" y="151.5" class="st10" width="73.5" height="17.1"/>
	<text transform="matrix(1 0 0 1 518.6529 160.005)" class="st11 st8">98</text>
	<rect x="590.4" y="281.4" class="st10" width="73.5" height="14.4"/>
	<text transform="matrix(1 0 0 1 620.9617 289.9195)" class="st11 st8">60</text>
	<rect x="692.7" y="40.6" class="st10" width="73.5" height="14.4"/>
	<text transform="matrix(1 0 0 1 720.1927 49.0955)" class="st11 st8">120</text>
	<polyline class="st3" points="810,126.4 810,123.1 825,123.1 825,126.4 	"/>
	<text transform="matrix(1 0 0 1 830 127.0446)" class="st4 st5">Inscrites</text>
</g>
</svg>
