<?xml version="1.0" encoding="utf-8"?>
<!-- Generator: Adobe Illustrator 26.3.0, SVG Export Plug-In . SVG Version: 6.00 Build 0)  -->
<svg version="1.1" xmlns="http://www.w3.org/2000/svg" xmlns:xlink="http://www.w3.org/1999/xlink" x="0px" y="0px"
	 viewBox="0 0 969.9 618" style="enable-background:new 0 0 969.9 618;" xml:space="preserve">
<style type="text/css">
	.st0{fill:#FFFFFF;}
	.st1{fill:#5A5AFF;}
	.st2{fill:#F95A5A;}
	.st3{fill:none;stroke:#000000;}
	.st4{fill:#5AF2EA;}
	.st5{fill:#07DB2E;}
	.st6{display:none;}
	.st7{display:inline;}
	.st8{font-family:'Helvetica';}
	.st9{font-size:10px;}
	.st10{display:inline;fill:#7B7B7B;}
	.st11{font-family:'Arial-BoldMT';}
	.st12{font-size:12px;}
	.st13{font-family:'ArialMT';}
	.st14{enable-background:new    ;}
	.st15{fill:#7B7B7B;}
	.st16{display:inline;fill:none;}
	.st17{font-family:'MyriadPro-Regular';}
	.st18{font-size:8px;}
	.st19{fill:none;stroke:#9B9B9B;stroke-width:0.75;stroke-miterlimit:10;stroke-dasharray:5;}
</style>
<g id="Capa_3">
	<rect class="st0" width="969.9" height="618"/>
</g>
<g id="Capa_1">
	<rect x="65.7" y="584" class="st1" width="88.5" height="14"/>
	<rect x="169.9" y="551.3" class="st1" width="88.5" height="46.7"/>
	<rect x="274" y="546.7" class="st1" width="88.5" height="51.3"/>
	<rect x="378.2" y="504.7" class="st1" width="88.5" height="93.3"/>
	<rect x="482.4" y="341.3" class="st1" width="88.5" height="256.7"/>
	<rect x="586.6" y="416" class="st1" width="88.5" height="182"/>
	<rect x="690.8" y="276" class="st1" width="88.5" height="322"/>
	<g id="Reprueban">
		<rect x="65.7" y="462.7" class="st2" width="88.5" height="121.3"/>
		<rect x="169.9" y="392.7" class="st2" width="88.5" height="158.7"/>
		<rect x="274" y="271.3" class="st2" width="88.5" height="275.3"/>
		<rect x="378.2" y="285.3" class="st2" width="88.5" height="219.3"/>
		<rect x="482.4" y="140.7" class="st2" width="88.5" height="200.7"/>
		<rect x="586.6" y="318" class="st2" width="88.5" height="98"/>
		<rect x="690.8" y="38" class="st2" width="88.5" height="238"/>
	</g>
	<path class="st3" d="M50.5,598.5v-560"/>
	<rect x="810" y="54" class="st1" width="15" height="15"/>
	<rect x="810" y="115" class="st2" width="15" height="15"/>
	<rect x="65.7" y="584" class="st4" width="88.5" height="5.9"/>
	<rect x="169.9" y="551.3" class="st5" width="88.5" height="23.3"/>
	<rect x="274" y="546.7" class="st5" width="88.5" height="18.7"/>
	<rect x="378.2" y="504.7" class="st4" width="88.5" height="18.4"/>
	<rect x="378.2" y="523" class="st5" width="88.5" height="33"/>
	<rect x="482.4" y="374.7" class="st5" width="88.5" height="106.9"/>
	<rect x="482.4" y="341.3" class="st4" width="88.5" height="33.3"/>
	<rect x="586.6" y="433.5" class="st5" width="88.5" height="66"/>
	<rect x="586.6" y="416" class="st4" width="88.5" height="17.5"/>
	<rect x="690.8" y="276" class="st4" width="88.5" height="32.7"/>
	<rect x="690.8" y="308.7" class="st5" width="88.5" height="130.7"/>
</g>
<g id="Capa_4" class="st6">
	<g id="xAxis" transform="translate(0,560)" class="st7">
		<path class="st3" d="M50.5,38.5h745"/>
		<g transform="translate(59.92725736812461,0)">
			<line class="st3" x1="50" y1="38" x2="50" y2="44"/>
			<text transform="matrix(1 0 0 1 34.4311 54.1)" class="st8 st9">2021-2</text>
		</g>
		<g transform="translate(164.11817157874972,0)">
			<line class="st3" x1="50" y1="38" x2="50" y2="44"/>
			<text transform="matrix(1 0 0 1 34.4312 54.1)" class="st8 st9">2022-1</text>
		</g>
		<g transform="translate(268.3090857893749,0)">
			<line class="st3" x1="50" y1="38" x2="50" y2="44"/>
			<text transform="matrix(1 0 0 1 34.4312 54.1)" class="st8 st9">2022-2</text>
		</g>
		<g transform="translate(372.5,0)">
			<line class="st3" x1="50" y1="38" x2="50" y2="44"/>
			<text transform="matrix(1 0 0 1 34.4312 54.1)" class="st8 st9">2023-1</text>
		</g>
		<g transform="translate(476.6909142106251,0)">
			<line class="st3" x1="50" y1="38" x2="50" y2="44"/>
			<text transform="matrix(1 0 0 1 34.4312 54.1)" class="st8 st9">2023-2</text>
		</g>
		<g transform="translate(580.8818284212502,0)">
			<line class="st3" x1="50" y1="38" x2="50" y2="44"/>
			<text transform="matrix(1 0 0 1 34.4312 54.1)" class="st8 st9">2024-1</text>
		</g>
		<g transform="translate(685.0727426318754,0)">
			<line class="st3" x1="50" y1="38" x2="50" y2="44"/>
			<text transform="matrix(1 0 0 1 34.4312 54.1)" class="st8 st9">2024-2</text>
		</g>
	</g>
	<g transform="translate(0,560.5)" class="st7">
		<line class="st3" x1="50" y1="38" x2="44" y2="38"/>
		<text transform="matrix(1 0 0 1 35.4385 41.2)" class="st8 st9">0</text>
	</g>
	<g transform="translate(0,513.8333333333333)" class="st7">
		<line class="st3" x1="50" y1="38" x2="44" y2="38"/>
		<text transform="matrix(1 0 0 1 29.877 41.2)" class="st8 st9">10</text>
	</g>
	<g transform="translate(0,467.1666666666667)" class="st7">
		<line class="st3" x1="50" y1="38" x2="44" y2="38"/>
		<text transform="matrix(1 0 0 1 29.877 41.2)" class="st8 st9">20</text>
	</g>
	<g transform="translate(0,420.5)" class="st7">
		<line class="st3" x1="50" y1="38" x2="44" y2="38"/>
		<text transform="matrix(1 0 0 1 29.877 41.2)" class="st8 st9">30</text>
	</g>
	<g transform="translate(0,373.83333333333337)" class="st7">
		<line class="st3" x1="50" y1="38" x2="44" y2="38"/>
		<text transform="matrix(1 0 0 1 29.877 41.2)" class="st8 st9">40</text>
	</g>
	<g transform="translate(0,327.16666666666663)" class="st7">
		<line class="st3" x1="50" y1="38" x2="44" y2="38"/>
		<text transform="matrix(1 0 0 1 29.877 41.2)" class="st8 st9">50</text>
	</g>
	<g transform="translate(0,280.5)" class="st7">
		<line class="st3" x1="50" y1="38" x2="44" y2="38"/>
		<text transform="matrix(1 0 0 1 29.877 41.2)" class="st8 st9">60</text>
	</g>
	<g transform="translate(0,233.83333333333331)" class="st7">
		<line class="st3" x1="50" y1="38" x2="44" y2="38"/>
		<text transform="matrix(1 0 0 1 29.877 41.2)" class="st8 st9">70</text>
	</g>
	<g transform="translate(0,187.16666666666669)" class="st7">
		<line class="st3" x1="50" y1="38" x2="44" y2="38"/>
		<text transform="matrix(1 0 0 1 29.877 41.2)" class="st8 st9">80</text>
	</g>
	<g transform="translate(0,140.5)" class="st7">
		<line class="st3" x1="50" y1="38" x2="44" y2="38"/>
		<text transform="matrix(1 0 0 1 29.877 41.2)" class="st8 st9">90</text>
	</g>
	<g transform="translate(0,93.83333333333331)" class="st7">
		<line class="st3" x1="50" y1="38" x2="44" y2="38"/>
		<text transform="matrix(1 0 0 1 24.3154 41.2)" class="st8 st9">100</text>
	</g>
	<g transform="translate(0,47.166666666666686)" class="st7">
		<line class="st3" x1="50" y1="38" x2="44" y2="38"/>
		<text transform="matrix(1 0 0 1 25.0527 41.2)" class="st8 st9">110</text>
	</g>
	<g transform="translate(0,0.5)" class="st7">
		<line class="st3" x1="50" y1="38" x2="44" y2="38"/>
		<text transform="matrix(1 0 0 1 24.3154 41.2)" class="st8 st9">120</text>
	</g>
	<text transform="matrix(1 0 0 1 800.9648 604)" class="st10 st11 st12">Semestre</text>
	<text transform="matrix(1 0 0 1 830 66.5)" class="st7 st13 st9">Aprueban</text>
	<text transform="matrix(1 0 0 1 830 87.5)" class="st7 st13 st9">Reprueban</text>
	<text transform="matrix(1 0 0 1 810 38)" class="st7 st11 st12">Colores</text>
	<text transform="matrix(1 0 0 1 13.127 28.252)" class="st10 st11 st12">Inscrites</text>
</g>
<g id="Capa_5">
	<path class="st3" d="M50.5,598.5h745"/>
	<line class="st3" x1="109.9" y1="598" x2="109.9" y2="604"/>
	<g class="st14">
		<path d="M95,612.5c0.2-0.4,0.6-0.9,1.3-1.2l0.9-0.5c0.4-0.2,0.7-0.5,0.9-0.6c0.3-0.3,0.4-0.6,0.4-0.9c0-0.4-0.1-0.7-0.4-1
			c-0.2-0.2-0.6-0.4-1-0.4c-0.6,0-1,0.2-1.2,0.7c-0.1,0.2-0.2,0.6-0.2,1h-0.9c0-0.6,0.1-1.1,0.3-1.5c0.4-0.7,1.1-1,2-1
			c0.8,0,1.4,0.2,1.8,0.6s0.6,0.9,0.6,1.4c0,0.6-0.2,1-0.6,1.4c-0.2,0.2-0.6,0.5-1.2,0.8l-0.7,0.4c-0.3,0.2-0.6,0.3-0.8,0.5
			c-0.3,0.3-0.5,0.6-0.6,0.9h3.8v0.8h-4.8C94.7,613.5,94.8,613,95,612.5z"/>
		<path d="M104.6,608.2c0.3,0.6,0.5,1.4,0.5,2.4c0,1-0.1,1.7-0.4,2.4c-0.4,0.9-1.1,1.3-2,1.3c-0.8,0-1.5-0.4-1.9-1.1
			c-0.3-0.6-0.5-1.4-0.5-2.5c0-0.8,0.1-1.5,0.3-2c0.4-1.1,1.1-1.6,2.1-1.6C103.5,607.1,104.2,607.5,104.6,608.2z M103.7,612.9
			c0.3-0.4,0.4-1.2,0.4-2.3c0-0.8-0.1-1.4-0.3-2c-0.2-0.5-0.6-0.8-1.1-0.8c-0.5,0-0.9,0.2-1.1,0.7c-0.2,0.5-0.4,1.2-0.4,2.2
			c0,0.7,0.1,1.3,0.2,1.7c0.2,0.7,0.6,1,1.2,1C103.1,613.5,103.4,613.3,103.7,612.9z"/>
		<path d="M106.2,612.5c0.2-0.4,0.6-0.9,1.3-1.2l0.9-0.5c0.4-0.2,0.7-0.5,0.9-0.6c0.3-0.3,0.4-0.6,0.4-0.9c0-0.4-0.1-0.7-0.4-1
			c-0.2-0.2-0.6-0.4-1-0.4c-0.6,0-1,0.2-1.2,0.7c-0.1,0.2-0.2,0.6-0.2,1H106c0-0.6,0.1-1.1,0.3-1.5c0.4-0.7,1.1-1,2-1
			c0.8,0,1.4,0.2,1.8,0.6s0.6,0.9,0.6,1.4c0,0.6-0.2,1-0.6,1.4c-0.2,0.2-0.6,0.5-1.2,0.8l-0.7,0.4c-0.3,0.2-0.6,0.3-0.8,0.5
			c-0.3,0.3-0.5,0.6-0.6,0.9h3.8v0.8h-4.8C105.8,613.5,106,613,106.2,612.5z"/>
		<path d="M112,609.1v-0.7c0.6-0.1,1.1-0.2,1.3-0.3c0.3-0.1,0.4-0.5,0.6-1h0.7v7h-0.9v-5H112z"/>
		<path d="M117,610.9h2.5v0.9H117V610.9z"/>
		<path d="M120.6,612.5c0.2-0.4,0.6-0.9,1.3-1.2l0.9-0.5c0.4-0.2,0.7-0.5,0.9-0.6c0.3-0.3,0.4-0.6,0.4-0.9c0-0.4-0.1-0.7-0.4-1
			c-0.2-0.2-0.6-0.4-1-0.4c-0.6,0-1,0.2-1.2,0.7c-0.1,0.2-0.2,0.6-0.2,1h-0.9c0-0.6,0.1-1.1,0.3-1.5c0.4-0.7,1.1-1,2-1
			c0.8,0,1.4,0.2,1.8,0.6s0.6,0.9,0.6,1.4c0,0.6-0.2,1-0.6,1.4c-0.2,0.2-0.6,0.5-1.2,0.8l-0.7,0.4c-0.3,0.2-0.6,0.3-0.8,0.5
			c-0.3,0.3-0.5,0.6-0.6,0.9h3.8v0.8h-4.8C120.3,613.5,120.4,613,120.6,612.5z"/>
	</g>
	<line class="st3" x1="214.1" y1="598" x2="214.1" y2="604"/>
	<g class="st14">
		<path d="M199.2,612.5c0.2-0.4,0.6-0.9,1.3-1.2l0.9-0.5c0.4-0.2,0.7-0.5,0.9-0.6c0.3-0.3,0.4-0.6,0.4-0.9c0-0.4-0.1-0.7-0.4-1
			c-0.2-0.2-0.6-0.4-1-0.4c-0.6,0-1,0.2-1.2,0.7c-0.1,0.2-0.2,0.6-0.2,1H199c0-0.6,0.1-1.1,0.3-1.5c0.4-0.7,1.1-1,2-1
			c0.8,0,1.4,0.2,1.8,0.6s0.6,0.9,0.6,1.4c0,0.6-0.2,1-0.6,1.4c-0.2,0.2-0.6,0.5-1.2,0.8l-0.7,0.4c-0.3,0.2-0.6,0.3-0.8,0.5
			c-0.3,0.3-0.5,0.6-0.6,0.9h3.8v0.8h-4.8C198.9,613.5,199,613,199.2,612.5z"/>
		<path d="M208.8,608.2c0.3,0.6,0.5,1.4,0.5,2.4c0,1-0.1,1.7-0.4,2.4c-0.4,0.9-1.1,1.3-2,1.3c-0.8,0-1.5-0.4-1.9-1.1
			c-0.3-0.6-0.5-1.4-0.5-2.5c0-0.8,0.1-1.5,0.3-2c0.4-1.1,1.1-1.6,2.1-1.6C207.7,607.1,208.4,607.5,208.8,608.2z M207.9,612.9
			c0.3-0.4,0.4-1.2,0.4-2.3c0-0.8-0.1-1.4-0.3-2c-0.2-0.5-0.6-0.8-1.1-0.8c-0.5,0-0.9,0.2-1.1,0.7c-0.2,0.5-0.4,1.2-0.4,2.2
			c0,0.7,0.1,1.3,0.2,1.7c0.2,0.7,0.6,1,1.2,1C207.3,613.5,207.6,613.3,207.9,612.9z"/>
		<path d="M210.4,612.5c0.2-0.4,0.6-0.9,1.3-1.2l0.9-0.5c0.4-0.2,0.7-0.5,0.9-0.6c0.3-0.3,0.4-0.6,0.4-0.9c0-0.4-0.1-0.7-0.4-1
			c-0.2-0.2-0.6-0.4-1-0.4c-0.6,0-1,0.2-1.2,0.7c-0.1,0.2-0.2,0.6-0.2,1h-0.9c0-0.6,0.1-1.1,0.3-1.5c0.4-0.7,1.1-1,2-1
			c0.8,0,1.4,0.2,1.8,0.6s0.6,0.9,0.6,1.4c0,0.6-0.2,1-0.6,1.4c-0.2,0.2-0.6,0.5-1.2,0.8l-0.7,0.4c-0.3,0.2-0.6,0.3-0.8,0.5
			c-0.3,0.3-0.5,0.6-0.6,0.9h3.8v0.8H210C210,613.5,210.1,613,210.4,612.5z"/>
		<path d="M215.9,612.5c0.2-0.4,0.6-0.9,1.3-1.2l0.9-0.5c0.4-0.2,0.7-0.5,0.9-0.6c0.3-0.3,0.4-0.6,0.4-0.9c0-0.4-0.1-0.7-0.4-1
			c-0.2-0.2-0.6-0.4-1-0.4c-0.6,0-1,0.2-1.2,0.7c-0.1,0.2-0.2,0.6-0.2,1h-0.9c0-0.6,0.1-1.1,0.3-1.5c0.4-0.7,1.1-1,2-1
			c0.8,0,1.4,0.2,1.8,0.6s0.6,0.9,0.6,1.4c0,0.6-0.2,1-0.6,1.4c-0.2,0.2-0.6,0.5-1.2,0.8l-0.7,0.4c-0.3,0.2-0.6,0.3-0.8,0.5
			c-0.3,0.3-0.5,0.6-0.6,0.9h3.8v0.8h-4.8C215.6,613.5,215.7,613,215.9,612.5z"/>
		<path d="M221.2,610.9h2.5v0.9h-2.5V610.9z"/>
		<path d="M225.1,609.1v-0.7c0.6-0.1,1.1-0.2,1.3-0.3c0.3-0.1,0.4-0.5,0.6-1h0.7v7h-0.9v-5H225.1z"/>
	</g>
	<line class="st3" x1="318.3" y1="598" x2="318.3" y2="604"/>
	<g class="st14">
		<path d="M303.4,612.5c0.2-0.4,0.6-0.9,1.3-1.2l0.9-0.5c0.4-0.2,0.7-0.5,0.9-0.6c0.3-0.3,0.4-0.6,0.4-0.9c0-0.4-0.1-0.7-0.4-1
			c-0.2-0.2-0.6-0.4-1-0.4c-0.6,0-1,0.2-1.2,0.7c-0.1,0.2-0.2,0.6-0.2,1h-0.9c0-0.6,0.1-1.1,0.3-1.5c0.4-0.7,1.1-1,2-1
			c0.8,0,1.4,0.2,1.8,0.6s0.6,0.9,0.6,1.4c0,0.6-0.2,1-0.6,1.4c-0.2,0.2-0.6,0.5-1.2,0.8l-0.7,0.4c-0.3,0.2-0.6,0.3-0.8,0.5
			c-0.3,0.3-0.5,0.6-0.6,0.9h3.8v0.8h-4.8C303.1,613.5,303.2,613,303.4,612.5z"/>
		<path d="M313,608.2c0.3,0.6,0.5,1.4,0.5,2.4c0,1-0.1,1.7-0.4,2.4c-0.4,0.9-1.1,1.3-2,1.3c-0.8,0-1.5-0.4-1.9-1.1
			c-0.3-0.6-0.5-1.4-0.5-2.5c0-0.8,0.1-1.5,0.3-2c0.4-1.1,1.1-1.6,2.1-1.6C311.9,607.1,312.6,607.5,313,608.2z M312.1,612.9
			c0.3-0.4,0.4-1.2,0.4-2.3c0-0.8-0.1-1.4-0.3-2c-0.2-0.5-0.6-0.8-1.1-0.8c-0.5,0-0.9,0.2-1.1,0.7c-0.2,0.5-0.4,1.2-0.4,2.2
			c0,0.7,0.1,1.3,0.2,1.7c0.2,0.7,0.6,1,1.2,1C311.5,613.5,311.8,613.3,312.1,612.9z"/>
		<path d="M314.5,612.5c0.2-0.4,0.6-0.9,1.3-1.2l0.9-0.5c0.4-0.2,0.7-0.5,0.9-0.6c0.3-0.3,0.4-0.6,0.4-0.9c0-0.4-0.1-0.7-0.4-1
			c-0.2-0.2-0.6-0.4-1-0.4c-0.6,0-1,0.2-1.2,0.7c-0.1,0.2-0.2,0.6-0.2,1h-0.9c0-0.6,0.1-1.1,0.3-1.5c0.4-0.7,1.1-1,2-1
			c0.8,0,1.4,0.2,1.8,0.6s0.6,0.9,0.6,1.4c0,0.6-0.2,1-0.6,1.4c-0.2,0.2-0.6,0.5-1.2,0.8l-0.7,0.4c-0.3,0.2-0.6,0.3-0.8,0.5
			c-0.3,0.3-0.5,0.6-0.6,0.9h3.8v0.8h-4.8C314.2,613.5,314.3,613,314.5,612.5z"/>
		<path d="M320.1,612.5c0.2-0.4,0.6-0.9,1.3-1.2l0.9-0.5c0.4-0.2,0.7-0.5,0.9-0.6c0.3-0.3,0.4-0.6,0.4-0.9c0-0.4-0.1-0.7-0.4-1
			c-0.2-0.2-0.6-0.4-1-0.4c-0.6,0-1,0.2-1.2,0.7c-0.1,0.2-0.2,0.6-0.2,1h-0.9c0-0.6,0.1-1.1,0.3-1.5c0.4-0.7,1.1-1,2-1
			c0.8,0,1.4,0.2,1.8,0.6s0.6,0.9,0.6,1.4c0,0.6-0.2,1-0.6,1.4c-0.2,0.2-0.6,0.5-1.2,0.8l-0.7,0.4c-0.3,0.2-0.6,0.3-0.8,0.5
			c-0.3,0.3-0.5,0.6-0.6,0.9h3.8v0.8h-4.8C319.8,613.5,319.9,613,320.1,612.5z"/>
		<path d="M325.4,610.9h2.5v0.9h-2.5V610.9z"/>
		<path d="M329,612.5c0.2-0.4,0.6-0.9,1.3-1.2l0.9-0.5c0.4-0.2,0.7-0.5,0.9-0.6c0.3-0.3,0.4-0.6,0.4-0.9c0-0.4-0.1-0.7-0.4-1
			c-0.2-0.2-0.6-0.4-1-0.4c-0.6,0-1,0.2-1.2,0.7c-0.1,0.2-0.2,0.6-0.2,1h-0.9c0-0.6,0.1-1.1,0.3-1.5c0.4-0.7,1.1-1,2-1
			c0.8,0,1.4,0.2,1.8,0.6s0.6,0.9,0.6,1.4c0,0.6-0.2,1-0.6,1.4c-0.2,0.2-0.6,0.5-1.2,0.8l-0.7,0.4c-0.3,0.2-0.6,0.3-0.8,0.5
			c-0.3,0.3-0.5,0.6-0.6,0.9h3.8v0.8h-4.8C328.7,613.5,328.8,613,329,612.5z"/>
	</g>
	<line class="st3" x1="422.5" y1="598" x2="422.5" y2="604"/>
	<g class="st14">
		<path d="M407.6,612.5c0.2-0.4,0.6-0.9,1.3-1.2l0.9-0.5c0.4-0.2,0.7-0.5,0.9-0.6c0.3-0.3,0.4-0.6,0.4-0.9c0-0.4-0.1-0.7-0.4-1
			c-0.2-0.2-0.6-0.4-1-0.4c-0.6,0-1,0.2-1.2,0.7c-0.1,0.2-0.2,0.6-0.2,1h-0.9c0-0.6,0.1-1.1,0.3-1.5c0.4-0.7,1.1-1,2-1
			c0.8,0,1.4,0.2,1.8,0.6s0.6,0.9,0.6,1.4c0,0.6-0.2,1-0.6,1.4c-0.2,0.2-0.6,0.5-1.2,0.8l-0.7,0.4c-0.3,0.2-0.6,0.3-0.8,0.5
			c-0.3,0.3-0.5,0.6-0.6,0.9h3.8v0.8h-4.8C407.3,613.5,407.4,613,407.6,612.5z"/>
		<path d="M417.2,608.2c0.3,0.6,0.5,1.4,0.5,2.4c0,1-0.1,1.7-0.4,2.4c-0.4,0.9-1.1,1.3-2,1.3c-0.8,0-1.5-0.4-1.9-1.1
			c-0.3-0.6-0.5-1.4-0.5-2.5c0-0.8,0.1-1.5,0.3-2c0.4-1.1,1.1-1.6,2.1-1.6C416.1,607.1,416.8,607.5,417.2,608.2z M416.3,612.9
			c0.3-0.4,0.4-1.2,0.4-2.3c0-0.8-0.1-1.4-0.3-2c-0.2-0.5-0.6-0.8-1.1-0.8c-0.5,0-0.9,0.2-1.1,0.7c-0.2,0.5-0.4,1.2-0.4,2.2
			c0,0.7,0.1,1.3,0.2,1.7c0.2,0.7,0.6,1,1.2,1C415.6,613.5,416,613.3,416.3,612.9z"/>
		<path d="M418.7,612.5c0.2-0.4,0.6-0.9,1.3-1.2l0.9-0.5c0.4-0.2,0.7-0.5,0.9-0.6c0.3-0.3,0.4-0.6,0.4-0.9c0-0.4-0.1-0.7-0.4-1
			c-0.2-0.2-0.6-0.4-1-0.4c-0.6,0-1,0.2-1.2,0.7c-0.1,0.2-0.2,0.6-0.2,1h-0.9c0-0.6,0.1-1.1,0.3-1.5c0.4-0.7,1.1-1,2-1
			c0.8,0,1.4,0.2,1.8,0.6s0.6,0.9,0.6,1.4c0,0.6-0.2,1-0.6,1.4c-0.2,0.2-0.6,0.5-1.2,0.8l-0.7,0.4c-0.3,0.2-0.6,0.3-0.8,0.5
			c-0.3,0.3-0.5,0.6-0.6,0.9h3.8v0.8h-4.8C418.4,613.5,418.5,613,418.7,612.5z"/>
		<path d="M424.4,613.6c-0.4-0.5-0.6-1-0.6-1.7h0.9c0,0.5,0.1,0.8,0.3,1c0.2,0.4,0.6,0.6,1.2,0.6c0.5,0,0.8-0.1,1.1-0.4
			s0.4-0.6,0.4-1c0-0.5-0.1-0.8-0.4-1s-0.7-0.3-1.2-0.3c-0.1,0-0.1,0-0.2,0c-0.1,0-0.1,0-0.2,0v-0.8c0.1,0,0.2,0,0.2,0s0.1,0,0.2,0
			c0.3,0,0.6-0.1,0.8-0.2c0.4-0.2,0.6-0.5,0.6-1c0-0.3-0.1-0.6-0.4-0.8s-0.5-0.3-0.9-0.3c-0.6,0-1,0.2-1.2,0.6
			c-0.1,0.2-0.2,0.5-0.2,0.9H424c0-0.5,0.1-1,0.3-1.3c0.4-0.7,1-1,1.9-1c0.7,0,1.3,0.2,1.7,0.5c0.4,0.3,0.6,0.8,0.6,1.4
			c0,0.4-0.1,0.8-0.3,1c-0.1,0.2-0.3,0.3-0.6,0.4c0.4,0.1,0.7,0.3,0.9,0.6c0.2,0.3,0.3,0.6,0.3,1.1c0,0.7-0.2,1.2-0.7,1.6
			s-1.1,0.6-1.9,0.6C425.4,614.3,424.8,614.1,424.4,613.6z"/>
		<path d="M429.6,610.9h2.5v0.9h-2.5V610.9z"/>
		<path d="M433.5,609.1v-0.7c0.6-0.1,1.1-0.2,1.3-0.3c0.3-0.1,0.4-0.5,0.6-1h0.7v7h-0.9v-5H433.5z"/>
	</g>
	<line class="st3" x1="526.7" y1="598" x2="526.7" y2="604"/>
	<g class="st14">
		<path d="M511.8,612.5c0.2-0.4,0.6-0.9,1.3-1.2l0.9-0.5c0.4-0.2,0.7-0.5,0.9-0.6c0.3-0.3,0.4-0.6,0.4-0.9c0-0.4-0.1-0.7-0.4-1
			c-0.2-0.2-0.6-0.4-1-0.4c-0.6,0-1,0.2-1.2,0.7c-0.1,0.2-0.2,0.6-0.2,1h-0.9c0-0.6,0.1-1.1,0.3-1.5c0.4-0.7,1.1-1,2-1
			c0.8,0,1.4,0.2,1.8,0.6c0.4,0.4,0.6,0.9,0.6,1.4c0,0.6-0.2,1-0.6,1.4c-0.2,0.2-0.6,0.5-1.2,0.8l-0.7,0.4c-0.3,0.2-0.6,0.3-0.8,0.5
			c-0.3,0.3-0.5,0.6-0.6,0.9h3.8v0.8h-4.8C511.5,613.5,511.6,613,511.8,612.5z"/>
		<path d="M521.4,608.2c0.3,0.6,0.5,1.4,0.5,2.4c0,1-0.1,1.7-0.4,2.4c-0.4,0.9-1.1,1.3-2,1.3c-0.8,0-1.5-0.4-1.9-1.1
			c-0.3-0.6-0.5-1.4-0.5-2.5c0-0.8,0.1-1.5,0.3-2c0.4-1.1,1.1-1.6,2.1-1.6C520.3,607.1,520.9,607.5,521.4,608.2z M520.5,612.9
			c0.3-0.4,0.4-1.2,0.4-2.3c0-0.8-0.1-1.4-0.3-2c-0.2-0.5-0.6-0.8-1.1-0.8c-0.5,0-0.9,0.2-1.1,0.7c-0.2,0.5-0.4,1.2-0.4,2.2
			c0,0.7,0.1,1.3,0.2,1.7c0.2,0.7,0.6,1,1.2,1C519.8,613.5,520.2,613.3,520.5,612.9z"/>
		<path d="M522.9,612.5c0.2-0.4,0.6-0.9,1.3-1.2l0.9-0.5c0.4-0.2,0.7-0.5,0.9-0.6c0.3-0.3,0.4-0.6,0.4-0.9c0-0.4-0.1-0.7-0.4-1
			c-0.2-0.2-0.6-0.4-1-0.4c-0.6,0-1,0.2-1.2,0.7c-0.1,0.2-0.2,0.6-0.2,1h-0.9c0-0.6,0.1-1.1,0.3-1.5c0.4-0.7,1.1-1,2-1
			c0.8,0,1.4,0.2,1.8,0.6c0.4,0.4,0.6,0.9,0.6,1.4c0,0.6-0.2,1-0.6,1.4c-0.2,0.2-0.6,0.5-1.2,0.8l-0.7,0.4c-0.3,0.2-0.6,0.3-0.8,0.5
			c-0.3,0.3-0.5,0.6-0.6,0.9h3.8v0.8h-4.8C522.6,613.5,522.7,613,522.9,612.5z"/>
		<path d="M528.6,613.6c-0.4-0.5-0.6-1-0.6-1.7h0.9c0,0.5,0.1,0.8,0.3,1c0.2,0.4,0.6,0.6,1.2,0.6c0.5,0,0.8-0.1,1.1-0.4
			s0.4-0.6,0.4-1c0-0.5-0.1-0.8-0.4-1c-0.3-0.2-0.7-0.3-1.2-0.3c-0.1,0-0.1,0-0.2,0c-0.1,0-0.1,0-0.2,0v-0.8c0.1,0,0.2,0,0.2,0
			s0.1,0,0.2,0c0.3,0,0.6-0.1,0.8-0.2c0.4-0.2,0.6-0.5,0.6-1c0-0.3-0.1-0.6-0.4-0.8s-0.5-0.3-0.9-0.3c-0.6,0-1,0.2-1.2,0.6
			c-0.1,0.2-0.2,0.5-0.2,0.9h-0.9c0-0.5,0.1-1,0.3-1.3c0.4-0.7,1-1,1.9-1c0.7,0,1.3,0.2,1.7,0.5c0.4,0.3,0.6,0.8,0.6,1.4
			c0,0.4-0.1,0.8-0.3,1c-0.1,0.2-0.3,0.3-0.6,0.4c0.4,0.1,0.7,0.3,0.9,0.6c0.2,0.3,0.3,0.6,0.3,1.1c0,0.7-0.2,1.2-0.7,1.6
			s-1.1,0.6-1.9,0.6C529.6,614.3,529,614.1,528.6,613.6z"/>
		<path d="M533.8,610.9h2.5v0.9h-2.5V610.9z"/>
		<path d="M537.4,612.5c0.2-0.4,0.6-0.9,1.3-1.2l0.9-0.5c0.4-0.2,0.7-0.5,0.9-0.6c0.3-0.3,0.4-0.6,0.4-0.9c0-0.4-0.1-0.7-0.4-1
			c-0.2-0.2-0.6-0.4-1-0.4c-0.6,0-1,0.2-1.2,0.7c-0.1,0.2-0.2,0.6-0.2,1h-0.9c0-0.6,0.1-1.1,0.3-1.5c0.4-0.7,1.1-1,2-1
			c0.8,0,1.4,0.2,1.8,0.6c0.4,0.4,0.6,0.9,0.6,1.4c0,0.6-0.2,1-0.6,1.4c-0.2,0.2-0.6,0.5-1.2,0.8l-0.7,0.4c-0.3,0.2-0.6,0.3-0.8,0.5
			c-0.3,0.3-0.5,0.6-0.6,0.9h3.8v0.8H537C537,613.5,537.2,613,537.4,612.5z"/>
	</g>
	<line class="st3" x1="630.9" y1="598" x2="630.9" y2="604"/>
	<g class="st14">
		<path d="M616,612.5c0.2-0.4,0.6-0.9,1.3-1.2l0.9-0.5c0.4-0.2,0.7-0.5,0.9-0.6c0.3-0.3,0.4-0.6,0.4-0.9c0-0.4-0.1-0.7-0.4-1
			c-0.2-0.2-0.6-0.4-1-0.4c-0.6,0-1,0.2-1.2,0.7c-0.1,0.2-0.2,0.6-0.2,1h-0.9c0-0.6,0.1-1.1,0.3-1.5c0.4-0.7,1.1-1,2-1
			c0.8,0,1.4,0.2,1.8,0.6s0.6,0.9,0.6,1.4c0,0.6-0.2,1-0.6,1.4c-0.2,0.2-0.6,0.5-1.2,0.8l-0.7,0.4c-0.3,0.2-0.6,0.3-0.8,0.5
			c-0.3,0.3-0.5,0.6-0.6,0.9h3.8v0.8h-4.8C615.7,613.5,615.8,613,616,612.5z"/>
		<path d="M625.5,608.2c0.3,0.6,0.5,1.4,0.5,2.4c0,1-0.1,1.7-0.4,2.4c-0.4,0.9-1.1,1.3-2,1.3c-0.8,0-1.5-0.4-1.9-1.1
			c-0.3-0.6-0.5-1.4-0.5-2.5c0-0.8,0.1-1.5,0.3-2c0.4-1.1,1.1-1.6,2.1-1.6C624.5,607.1,625.1,607.5,625.5,608.2z M624.7,612.9
			c0.3-0.4,0.4-1.2,0.4-2.3c0-0.8-0.1-1.4-0.3-2c-0.2-0.5-0.6-0.8-1.1-0.8c-0.5,0-0.9,0.2-1.1,0.7c-0.2,0.5-0.4,1.2-0.4,2.2
			c0,0.7,0.1,1.3,0.2,1.7c0.2,0.7,0.6,1,1.2,1C624,613.5,624.4,613.3,624.7,612.9z"/>
		<path d="M627.1,612.5c0.2-0.4,0.6-0.9,1.3-1.2l0.9-0.5c0.4-0.2,0.7-0.5,0.9-0.6c0.3-0.3,0.4-0.6,0.4-0.9c0-0.4-0.1-0.7-0.4-1
			c-0.2-0.2-0.6-0.4-1-0.4c-0.6,0-1,0.2-1.2,0.7c-0.1,0.2-0.2,0.6-0.2,1h-0.9c0-0.6,0.1-1.1,0.3-1.5c0.4-0.7,1.1-1,2-1
			c0.8,0,1.4,0.2,1.8,0.6s0.6,0.9,0.6,1.4c0,0.6-0.2,1-0.6,1.4c-0.2,0.2-0.6,0.5-1.2,0.8l-0.7,0.4c-0.3,0.2-0.6,0.3-0.8,0.5
			c-0.3,0.3-0.5,0.6-0.6,0.9h3.8v0.8h-4.8C626.8,613.5,626.9,613,627.1,612.5z"/>
		<path d="M635.3,614.1v-1.7h-3.1v-0.9l3.2-4.4h0.7v4.5h1v0.8h-1v1.7H635.3z M635.3,611.6v-3.2l-2.2,3.2H635.3z"/>
		<path d="M638,610.9h2.5v0.9H638V610.9z"/>
		<path d="M641.8,609.1v-0.7c0.6-0.1,1.1-0.2,1.3-0.3c0.3-0.1,0.4-0.5,0.6-1h0.7v7h-0.9v-5H641.8z"/>
	</g>
	<line class="st3" x1="735.1" y1="598" x2="735.1" y2="604"/>
	<g class="st14">
		<path d="M720.2,612.5c0.2-0.4,0.6-0.9,1.3-1.2l0.9-0.5c0.4-0.2,0.7-0.5,0.9-0.6c0.3-0.3,0.4-0.6,0.4-0.9c0-0.4-0.1-0.7-0.4-1
			c-0.2-0.2-0.6-0.4-1-0.4c-0.6,0-1,0.2-1.2,0.7c-0.1,0.2-0.2,0.6-0.2,1H720c0-0.6,0.1-1.1,0.3-1.5c0.4-0.7,1.1-1,2-1
			c0.8,0,1.4,0.2,1.8,0.6c0.4,0.4,0.6,0.9,0.6,1.4c0,0.6-0.2,1-0.6,1.4c-0.2,0.2-0.6,0.5-1.2,0.8l-0.7,0.4c-0.3,0.2-0.6,0.3-0.8,0.5
			c-0.3,0.3-0.5,0.6-0.6,0.9h3.8v0.8h-4.8C719.8,613.5,720,613,720.2,612.5z"/>
		<path d="M729.7,608.2c0.3,0.6,0.5,1.4,0.5,2.4c0,1-0.1,1.7-0.4,2.4c-0.4,0.9-1.1,1.3-2,1.3c-0.8,0-1.5-0.4-1.9-1.1
			c-0.3-0.6-0.5-1.4-0.5-2.5c0-0.8,0.1-1.5,0.3-2c0.4-1.1,1.1-1.6,2.1-1.6C728.7,607.1,729.3,607.5,729.7,608.2z M728.8,612.9
			c0.3-0.4,0.4-1.2,0.4-2.3c0-0.8-0.1-1.4-0.3-2c-0.2-0.5-0.6-0.8-1.1-0.8c-0.5,0-0.9,0.2-1.1,0.7c-0.2,0.5-0.4,1.2-0.4,2.2
			c0,0.7,0.1,1.3,0.2,1.7c0.2,0.7,0.6,1,1.2,1C728.2,613.5,728.6,613.3,728.8,612.9z"/>
		<path d="M731.3,612.5c0.2-0.4,0.6-0.9,1.3-1.2l0.9-0.5c0.4-0.2,0.7-0.5,0.9-0.6c0.3-0.3,0.4-0.6,0.4-0.9c0-0.4-0.1-0.7-0.4-1
			c-0.2-0.2-0.6-0.4-1-0.4c-0.6,0-1,0.2-1.2,0.7c-0.1,0.2-0.2,0.6-0.2,1h-0.9c0-0.6,0.1-1.1,0.3-1.5c0.4-0.7,1.1-1,2-1
			c0.8,0,1.4,0.2,1.8,0.6c0.4,0.4,0.6,0.9,0.6,1.4c0,0.6-0.2,1-0.6,1.4c-0.2,0.2-0.6,0.5-1.2,0.8l-0.7,0.4c-0.3,0.2-0.6,0.3-0.8,0.5
			c-0.3,0.3-0.5,0.6-0.6,0.9h3.8v0.8h-4.8C731,613.5,731.1,613,731.3,612.5z"/>
		<path d="M739.5,614.1v-1.7h-3.1v-0.9l3.2-4.4h0.7v4.5h1v0.8h-1v1.7H739.5z M739.5,611.6v-3.2l-2.2,3.2H739.5z"/>
		<path d="M742.2,610.9h2.5v0.9h-2.5V610.9z"/>
		<path d="M745.8,612.5c0.2-0.4,0.6-0.9,1.3-1.2l0.9-0.5c0.4-0.2,0.7-0.5,0.9-0.6c0.3-0.3,0.4-0.6,0.4-0.9c0-0.4-0.1-0.7-0.4-1
			c-0.2-0.2-0.6-0.4-1-0.4c-0.6,0-1,0.2-1.2,0.7c-0.1,0.2-0.2,0.6-0.2,1h-0.9c0-0.6,0.1-1.1,0.3-1.5c0.4-0.7,1.1-1,2-1
			c0.8,0,1.4,0.2,1.8,0.6c0.4,0.4,0.6,0.9,0.6,1.4c0,0.6-0.2,1-0.6,1.4c-0.2,0.2-0.6,0.5-1.2,0.8l-0.7,0.4c-0.3,0.2-0.6,0.3-0.8,0.5
			c-0.3,0.3-0.5,0.6-0.6,0.9h3.8v0.8h-4.8C745.4,613.5,745.5,613,745.8,612.5z"/>
	</g>
	<line class="st3" x1="50" y1="598.5" x2="44" y2="598.5"/>
	<g class="st14">
		<path d="M40.1,595.8c0.3,0.6,0.5,1.4,0.5,2.4c0,1-0.1,1.7-0.4,2.4c-0.4,0.9-1.1,1.3-2,1.3c-0.8,0-1.5-0.4-1.9-1.1
			c-0.3-0.6-0.5-1.4-0.5-2.5c0-0.8,0.1-1.5,0.3-2c0.4-1.1,1.1-1.6,2.1-1.6C39,594.7,39.7,595.1,40.1,595.8z M39.2,600.5
			c0.3-0.4,0.4-1.2,0.4-2.3c0-0.8-0.1-1.4-0.3-2c-0.2-0.5-0.6-0.8-1.1-0.8c-0.5,0-0.9,0.2-1.1,0.7c-0.2,0.5-0.4,1.2-0.4,2.2
			c0,0.7,0.1,1.3,0.2,1.7c0.2,0.7,0.6,1,1.2,1C38.6,601.1,39,600.9,39.2,600.5z"/>
	</g>
	<line class="st3" x1="50" y1="551.8" x2="44" y2="551.8"/>
	<g class="st14">
		<path d="M30.8,550.1v-0.7c0.6-0.1,1.1-0.2,1.3-0.3c0.3-0.1,0.4-0.5,0.6-1h0.7v7h-0.9v-5H30.8z"/>
		<path d="M40.1,549.2c0.3,0.6,0.5,1.4,0.5,2.4c0,1-0.1,1.7-0.4,2.4c-0.4,0.9-1.1,1.3-2,1.3c-0.8,0-1.5-0.4-1.9-1.1
			c-0.3-0.6-0.5-1.4-0.5-2.5c0-0.8,0.1-1.5,0.3-2c0.4-1.1,1.1-1.6,2.1-1.6C39,548,39.7,548.4,40.1,549.2z M39.2,553.8
			c0.3-0.4,0.4-1.2,0.4-2.3c0-0.8-0.1-1.4-0.3-2c-0.2-0.5-0.6-0.8-1.1-0.8c-0.5,0-0.9,0.2-1.1,0.7c-0.2,0.5-0.4,1.2-0.4,2.2
			c0,0.7,0.1,1.3,0.2,1.7c0.2,0.7,0.6,1,1.2,1C38.6,554.4,39,554.2,39.2,553.8z"/>
	</g>
	<line class="st3" x1="50" y1="505.2" x2="44" y2="505.2"/>
	<g class="st14">
		<path d="M30.6,506.8c0.2-0.4,0.6-0.9,1.3-1.2l0.9-0.5c0.4-0.2,0.7-0.5,0.9-0.6c0.3-0.3,0.4-0.6,0.4-0.9c0-0.4-0.1-0.7-0.4-1
			c-0.2-0.2-0.6-0.4-1-0.4c-0.6,0-1,0.2-1.2,0.7c-0.1,0.2-0.2,0.6-0.2,1h-0.9c0-0.6,0.1-1.1,0.3-1.5c0.4-0.7,1.1-1,2-1
			c0.8,0,1.4,0.2,1.8,0.6s0.6,0.9,0.6,1.4c0,0.6-0.2,1-0.6,1.4c-0.2,0.2-0.6,0.5-1.2,0.8l-0.7,0.4c-0.3,0.2-0.6,0.3-0.8,0.5
			c-0.3,0.3-0.5,0.6-0.6,0.9H35v0.8h-4.8C30.2,507.8,30.3,507.2,30.6,506.8z"/>
		<path d="M40.1,502.5c0.3,0.6,0.5,1.4,0.5,2.4c0,1-0.1,1.7-0.4,2.4c-0.4,0.9-1.1,1.3-2,1.3c-0.8,0-1.5-0.4-1.9-1.1
			c-0.3-0.6-0.5-1.4-0.5-2.5c0-0.8,0.1-1.5,0.3-2c0.4-1.1,1.1-1.6,2.1-1.6C39,501.4,39.7,501.7,40.1,502.5z M39.2,507.2
			c0.3-0.4,0.4-1.2,0.4-2.3c0-0.8-0.1-1.4-0.3-2c-0.2-0.5-0.6-0.8-1.1-0.8c-0.5,0-0.9,0.2-1.1,0.7c-0.2,0.5-0.4,1.2-0.4,2.2
			c0,0.7,0.1,1.3,0.2,1.7c0.2,0.7,0.6,1,1.2,1C38.6,507.8,39,507.6,39.2,507.2z"/>
	</g>
	<line class="st3" x1="50" y1="458.5" x2="44" y2="458.5"/>
	<g class="st14">
		<path d="M30.7,461.2c-0.4-0.5-0.6-1-0.6-1.7H31c0,0.5,0.1,0.8,0.3,1c0.2,0.4,0.6,0.6,1.2,0.6c0.5,0,0.8-0.1,1.1-0.4s0.4-0.6,0.4-1
			c0-0.5-0.1-0.8-0.4-1s-0.7-0.3-1.2-0.3c-0.1,0-0.1,0-0.2,0c-0.1,0-0.1,0-0.2,0v-0.8c0.1,0,0.2,0,0.2,0s0.1,0,0.2,0
			c0.3,0,0.6-0.1,0.8-0.2c0.4-0.2,0.6-0.5,0.6-1c0-0.3-0.1-0.6-0.4-0.8s-0.5-0.3-0.9-0.3c-0.6,0-1,0.2-1.2,0.6
			c-0.1,0.2-0.2,0.5-0.2,0.9h-0.9c0-0.5,0.1-1,0.3-1.3c0.4-0.7,1-1,1.9-1c0.7,0,1.3,0.2,1.7,0.5c0.4,0.3,0.6,0.8,0.6,1.4
			c0,0.4-0.1,0.8-0.3,1c-0.1,0.2-0.3,0.3-0.6,0.4c0.4,0.1,0.7,0.3,0.9,0.6c0.2,0.3,0.3,0.6,0.3,1.1c0,0.7-0.2,1.2-0.7,1.6
			s-1.1,0.6-1.9,0.6C31.6,461.9,31,461.7,30.7,461.2z"/>
		<path d="M40.1,455.8c0.3,0.6,0.5,1.4,0.5,2.4c0,1-0.1,1.7-0.4,2.4c-0.4,0.9-1.1,1.3-2,1.3c-0.8,0-1.5-0.4-1.9-1.1
			c-0.3-0.6-0.5-1.4-0.5-2.5c0-0.8,0.1-1.5,0.3-2c0.4-1.1,1.1-1.6,2.1-1.6C39,454.7,39.7,455.1,40.1,455.8z M39.2,460.5
			c0.3-0.4,0.4-1.2,0.4-2.3c0-0.8-0.1-1.4-0.3-2c-0.2-0.5-0.6-0.8-1.1-0.8c-0.5,0-0.9,0.2-1.1,0.7c-0.2,0.5-0.4,1.2-0.4,2.2
			c0,0.7,0.1,1.3,0.2,1.7c0.2,0.7,0.6,1,1.2,1C38.6,461.1,39,460.9,39.2,460.5z"/>
	</g>
	<line class="st3" x1="50" y1="411.8" x2="44" y2="411.8"/>
	<g class="st14">
		<path d="M33.2,415v-1.7h-3.1v-0.9l3.2-4.4h0.7v4.5h1v0.8h-1v1.7H33.2z M33.2,412.6v-3.2l-2.2,3.2H33.2z"/>
		<path d="M40.1,409.2c0.3,0.6,0.5,1.4,0.5,2.4c0,1-0.1,1.7-0.4,2.4c-0.4,0.9-1.1,1.3-2,1.3c-0.8,0-1.5-0.4-1.9-1.1
			c-0.3-0.6-0.5-1.4-0.5-2.5c0-0.8,0.1-1.5,0.3-2c0.4-1.1,1.1-1.6,2.1-1.6C39,408,39.7,408.4,40.1,409.2z M39.2,413.8
			c0.3-0.4,0.4-1.2,0.4-2.3c0-0.8-0.1-1.4-0.3-2c-0.2-0.5-0.6-0.8-1.1-0.8c-0.5,0-0.9,0.2-1.1,0.7c-0.2,0.5-0.4,1.2-0.4,2.2
			c0,0.7,0.1,1.3,0.2,1.7c0.2,0.7,0.6,1,1.2,1C38.6,414.4,39,414.2,39.2,413.8z"/>
	</g>
	<line class="st3" x1="50" y1="365.2" x2="44" y2="365.2"/>
	<g class="st14">
		<path d="M31.1,366.6c0.1,0.5,0.3,0.8,0.7,1c0.2,0.1,0.4,0.1,0.7,0.1c0.5,0,0.9-0.2,1.2-0.5s0.4-0.7,0.4-1.1c0-0.5-0.1-0.9-0.4-1.1
			s-0.7-0.4-1.1-0.4c-0.3,0-0.6,0.1-0.8,0.2s-0.4,0.3-0.6,0.5l-0.8,0l0.5-3.8h3.6v0.8h-3l-0.3,1.9c0.2-0.1,0.3-0.2,0.5-0.3
			c0.3-0.1,0.6-0.2,0.9-0.2c0.6,0,1.2,0.2,1.6,0.6s0.7,0.9,0.7,1.6c0,0.7-0.2,1.2-0.6,1.7s-1.1,0.8-2,0.8c-0.6,0-1.1-0.2-1.5-0.5
			c-0.4-0.3-0.7-0.8-0.7-1.5H31.1z"/>
		<path d="M40.1,362.5c0.3,0.6,0.5,1.4,0.5,2.4c0,1-0.1,1.7-0.4,2.4c-0.4,0.9-1.1,1.3-2,1.3c-0.8,0-1.5-0.4-1.9-1.1
			c-0.3-0.6-0.5-1.4-0.5-2.5c0-0.8,0.1-1.5,0.3-2c0.4-1.1,1.1-1.6,2.1-1.6C39,361.4,39.7,361.7,40.1,362.5z M39.2,367.2
			c0.3-0.4,0.4-1.2,0.4-2.3c0-0.8-0.1-1.4-0.3-2c-0.2-0.5-0.6-0.8-1.1-0.8c-0.5,0-0.9,0.2-1.1,0.7c-0.2,0.5-0.4,1.2-0.4,2.2
			c0,0.7,0.1,1.3,0.2,1.7c0.2,0.7,0.6,1,1.2,1C38.6,367.8,39,367.6,39.2,367.2z"/>
	</g>
	<line class="st3" x1="50" y1="318.5" x2="44" y2="318.5"/>
	<g class="st14">
		<path d="M34.4,315.3c0.3,0.4,0.5,0.8,0.5,1.3H34c-0.1-0.3-0.1-0.5-0.2-0.6c-0.2-0.3-0.5-0.4-1-0.4c-0.5,0-0.9,0.2-1.2,0.7
			c-0.3,0.5-0.5,1.1-0.5,2c0.2-0.3,0.5-0.5,0.8-0.7c0.3-0.1,0.6-0.2,0.9-0.2c0.6,0,1.1,0.2,1.5,0.6s0.7,0.9,0.7,1.7
			c0,0.6-0.2,1.2-0.6,1.7c-0.4,0.5-1,0.7-1.8,0.7c-0.7,0-1.2-0.2-1.7-0.7c-0.5-0.5-0.7-1.3-0.7-2.5c0-0.9,0.1-1.6,0.3-2.2
			c0.4-1.2,1.2-1.7,2.2-1.7C33.6,314.7,34.1,314.9,34.4,315.3z M33.8,320.6c0.2-0.3,0.3-0.7,0.3-1.1c0-0.4-0.1-0.7-0.3-1
			c-0.2-0.3-0.6-0.5-1.1-0.5c-0.4,0-0.7,0.1-1,0.4s-0.4,0.6-0.4,1.1c0,0.4,0.1,0.8,0.4,1.1c0.3,0.3,0.6,0.5,1.1,0.5
			C33.2,321.1,33.5,320.9,33.8,320.6z"/>
		<path d="M40.1,315.8c0.3,0.6,0.5,1.4,0.5,2.4c0,1-0.1,1.7-0.4,2.4c-0.4,0.9-1.1,1.3-2,1.3c-0.8,0-1.5-0.4-1.9-1.1
			c-0.3-0.6-0.5-1.4-0.5-2.5c0-0.8,0.1-1.5,0.3-2c0.4-1.1,1.1-1.6,2.1-1.6C39,314.7,39.7,315.1,40.1,315.8z M39.2,320.5
			c0.3-0.4,0.4-1.2,0.4-2.3c0-0.8-0.1-1.4-0.3-2c-0.2-0.5-0.6-0.8-1.1-0.8c-0.5,0-0.9,0.2-1.1,0.7c-0.2,0.5-0.4,1.2-0.4,2.2
			c0,0.7,0.1,1.3,0.2,1.7c0.2,0.7,0.6,1,1.2,1C38.6,321.1,39,320.9,39.2,320.5z"/>
	</g>
	<line class="st3" x1="50" y1="271.8" x2="44" y2="271.8"/>
	<g class="st14">
		<path d="M35.1,268.2v0.8c-0.2,0.2-0.5,0.6-0.9,1.1s-0.7,1.1-1,1.7c-0.3,0.6-0.5,1.2-0.6,1.7c-0.1,0.3-0.2,0.8-0.4,1.6h-1
			c0.2-1.3,0.7-2.7,1.5-4c0.4-0.8,0.9-1.4,1.4-2h-3.9v-0.9H35.1z"/>
		<path d="M40.1,269.2c0.3,0.6,0.5,1.4,0.5,2.4c0,1-0.1,1.7-0.4,2.4c-0.4,0.9-1.1,1.3-2,1.3c-0.8,0-1.5-0.4-1.9-1.1
			c-0.3-0.6-0.5-1.4-0.5-2.5c0-0.8,0.1-1.5,0.3-2c0.4-1.1,1.1-1.6,2.1-1.6C39,268,39.7,268.4,40.1,269.2z M39.2,273.8
			c0.3-0.4,0.4-1.2,0.4-2.3c0-0.8-0.1-1.4-0.3-2c-0.2-0.5-0.6-0.8-1.1-0.8c-0.5,0-0.9,0.2-1.1,0.7c-0.2,0.5-0.4,1.2-0.4,2.2
			c0,0.7,0.1,1.3,0.2,1.7c0.2,0.7,0.6,1,1.2,1C38.6,274.4,39,274.2,39.2,273.8z"/>
	</g>
	<line class="st3" x1="50" y1="225.2" x2="44" y2="225.2"/>
	<g class="st14">
		<path d="M30.8,224.3c-0.3-0.3-0.4-0.6-0.4-1c0-0.5,0.2-1,0.6-1.3s0.9-0.6,1.6-0.6c0.7,0,1.2,0.2,1.6,0.5c0.4,0.4,0.6,0.8,0.6,1.2
			c0,0.4-0.1,0.8-0.3,1.1c-0.1,0.2-0.3,0.3-0.6,0.4c0.3,0.1,0.5,0.3,0.7,0.5c0.3,0.3,0.5,0.7,0.5,1.3c0,0.6-0.2,1.1-0.6,1.6
			c-0.4,0.4-1,0.6-1.8,0.6c-0.7,0-1.3-0.2-1.7-0.6c-0.5-0.4-0.7-0.9-0.7-1.6c0-0.4,0.1-0.8,0.3-1.1c0.2-0.3,0.5-0.5,0.9-0.7
			C31.2,224.5,31,224.4,30.8,224.3z M33.7,227.4c0.3-0.2,0.4-0.5,0.4-1c0-0.5-0.1-0.8-0.4-1s-0.6-0.4-1.1-0.4c-0.4,0-0.8,0.1-1,0.4
			c-0.3,0.2-0.4,0.6-0.4,1c0,0.4,0.1,0.7,0.4,0.9c0.2,0.3,0.6,0.4,1.1,0.4C33.1,227.8,33.4,227.7,33.7,227.4z M33.5,224
			c0.2-0.2,0.3-0.5,0.3-0.8c0-0.3-0.1-0.5-0.3-0.7s-0.5-0.3-1-0.3c-0.4,0-0.7,0.1-0.9,0.3s-0.3,0.5-0.3,0.8c0,0.3,0.1,0.6,0.4,0.8
			s0.5,0.3,0.9,0.3C33,224.3,33.3,224.2,33.5,224z"/>
		<path d="M40.1,222.5c0.3,0.6,0.5,1.4,0.5,2.4c0,1-0.1,1.7-0.4,2.4c-0.4,0.9-1.1,1.3-2,1.3c-0.8,0-1.5-0.4-1.9-1.1
			c-0.3-0.6-0.5-1.4-0.5-2.5c0-0.8,0.1-1.5,0.3-2c0.4-1.1,1.1-1.6,2.1-1.6C39,221.4,39.7,221.7,40.1,222.5z M39.2,227.2
			c0.3-0.4,0.4-1.2,0.4-2.3c0-0.8-0.1-1.4-0.3-2c-0.2-0.5-0.6-0.8-1.1-0.8c-0.5,0-0.9,0.2-1.1,0.7c-0.2,0.5-0.4,1.2-0.4,2.2
			c0,0.7,0.1,1.3,0.2,1.7c0.2,0.7,0.6,1,1.2,1C38.6,227.8,39,227.6,39.2,227.2z"/>
	</g>
	<line class="st3" x1="50" y1="178.5" x2="44" y2="178.5"/>
	<g class="st14">
		<path d="M31.2,180c0,0.5,0.2,0.8,0.6,1c0.2,0.1,0.4,0.1,0.6,0.1c0.4,0,0.8-0.2,1.1-0.5c0.3-0.3,0.5-1.1,0.6-2.1
			c-0.2,0.3-0.4,0.5-0.7,0.7c-0.3,0.1-0.6,0.2-0.9,0.2c-0.7,0-1.2-0.2-1.6-0.6s-0.6-1-0.6-1.6c0-0.6,0.2-1.2,0.6-1.7s1-0.7,1.7-0.7
			c1,0,1.7,0.5,2.1,1.4c0.2,0.5,0.3,1.1,0.3,1.9c0,0.9-0.1,1.6-0.4,2.3c-0.4,1.1-1.1,1.7-2.2,1.7c-0.7,0-1.2-0.2-1.6-0.5
			s-0.5-0.8-0.5-1.3H31.2z M33.5,178.2c0.3-0.2,0.4-0.6,0.4-1.2c0-0.5-0.1-0.9-0.4-1.1c-0.3-0.3-0.6-0.4-1-0.4c-0.4,0-0.8,0.1-1,0.4
			c-0.3,0.3-0.4,0.7-0.4,1.2c0,0.5,0.1,0.8,0.3,1.1c0.2,0.3,0.6,0.4,1.1,0.4C32.9,178.6,33.2,178.5,33.5,178.2z"/>
		<path d="M40.1,175.8c0.3,0.6,0.5,1.4,0.5,2.4c0,1-0.1,1.7-0.4,2.4c-0.4,0.9-1.1,1.3-2,1.3c-0.8,0-1.5-0.4-1.9-1.1
			c-0.3-0.6-0.5-1.4-0.5-2.5c0-0.8,0.1-1.5,0.3-2c0.4-1.1,1.1-1.6,2.1-1.6C39,174.7,39.7,175.1,40.1,175.8z M39.2,180.5
			c0.3-0.4,0.4-1.2,0.4-2.3c0-0.8-0.1-1.4-0.3-2c-0.2-0.5-0.6-0.8-1.1-0.8c-0.5,0-0.9,0.2-1.1,0.7c-0.2,0.5-0.4,1.2-0.4,2.2
			c0,0.7,0.1,1.3,0.2,1.7c0.2,0.7,0.6,1,1.2,1C38.6,181.1,39,180.9,39.2,180.5z"/>
	</g>
	<line class="st3" x1="50" y1="131.8" x2="44" y2="131.8"/>
	<g class="st14">
		<path d="M25.3,130.1v-0.7c0.6-0.1,1.1-0.2,1.3-0.3c0.3-0.1,0.4-0.5,0.6-1h0.7v7h-0.9v-5H25.3z"/>
		<path d="M34.5,129.2c0.3,0.6,0.5,1.4,0.5,2.4c0,1-0.1,1.7-0.4,2.4c-0.4,0.9-1.1,1.3-2,1.3c-0.8,0-1.5-0.4-1.9-1.1
			c-0.3-0.6-0.5-1.4-0.5-2.5c0-0.8,0.1-1.5,0.3-2c0.4-1.1,1.1-1.6,2.1-1.6C33.5,128,34.1,128.4,34.5,129.2z M33.7,133.8
			c0.3-0.4,0.4-1.2,0.4-2.3c0-0.8-0.1-1.4-0.3-2c-0.2-0.5-0.6-0.8-1.1-0.8c-0.5,0-0.9,0.2-1.1,0.7c-0.2,0.5-0.4,1.2-0.4,2.2
			c0,0.7,0.1,1.3,0.2,1.7c0.2,0.7,0.6,1,1.2,1C33,134.4,33.4,134.2,33.7,133.8z"/>
		<path d="M40.1,129.2c0.3,0.6,0.5,1.4,0.5,2.4c0,1-0.1,1.7-0.4,2.4c-0.4,0.9-1.1,1.3-2,1.3c-0.8,0-1.5-0.4-1.9-1.1
			c-0.3-0.6-0.5-1.4-0.5-2.5c0-0.8,0.1-1.5,0.3-2c0.4-1.1,1.1-1.6,2.1-1.6C39,128,39.7,128.4,40.1,129.2z M39.2,133.8
			c0.3-0.4,0.4-1.2,0.4-2.3c0-0.8-0.1-1.4-0.3-2c-0.2-0.5-0.6-0.8-1.1-0.8c-0.5,0-0.9,0.2-1.1,0.7c-0.2,0.5-0.4,1.2-0.4,2.2
			c0,0.7,0.1,1.3,0.2,1.7c0.2,0.7,0.6,1,1.2,1C38.6,134.4,39,134.2,39.2,133.8z"/>
	</g>
	<line class="st3" x1="50" y1="85.2" x2="44" y2="85.2"/>
	<g class="st14">
		<path d="M26,83.4v-0.7c0.6-0.1,1.1-0.2,1.3-0.3c0.3-0.1,0.4-0.5,0.6-1h0.7v7h-0.9v-5H26z"/>
		<path d="M30.8,83.4v-0.7c0.6-0.1,1.1-0.2,1.3-0.3c0.3-0.1,0.4-0.5,0.6-1h0.7v7h-0.9v-5H30.8z"/>
		<path d="M40.1,82.5c0.3,0.6,0.5,1.4,0.5,2.4c0,1-0.1,1.7-0.4,2.4c-0.4,0.9-1.1,1.3-2,1.3c-0.8,0-1.5-0.4-1.9-1.1
			c-0.3-0.6-0.5-1.4-0.5-2.5c0-0.8,0.1-1.5,0.3-2c0.4-1.1,1.1-1.6,2.1-1.6C39,81.4,39.7,81.7,40.1,82.5z M39.2,87.2
			c0.3-0.4,0.4-1.2,0.4-2.3c0-0.8-0.1-1.4-0.3-2c-0.2-0.5-0.6-0.8-1.1-0.8c-0.5,0-0.9,0.2-1.1,0.7c-0.2,0.5-0.4,1.2-0.4,2.2
			c0,0.7,0.1,1.3,0.2,1.7c0.2,0.7,0.6,1,1.2,1C38.6,87.8,39,87.6,39.2,87.2z"/>
	</g>
	<line class="st3" x1="50" y1="38.5" x2="44" y2="38.5"/>
	<g class="st14">
		<path d="M25.3,36.7v-0.7c0.6-0.1,1.1-0.2,1.3-0.3c0.3-0.1,0.4-0.5,0.6-1h0.7v7h-0.9v-5H25.3z"/>
		<path d="M30.6,40.1c0.2-0.4,0.6-0.9,1.3-1.2l0.9-0.5c0.4-0.2,0.7-0.5,0.9-0.6c0.3-0.3,0.4-0.6,0.4-0.9c0-0.4-0.1-0.7-0.4-1
			c-0.2-0.2-0.6-0.4-1-0.4c-0.6,0-1,0.2-1.2,0.7c-0.1,0.2-0.2,0.6-0.2,1h-0.9c0-0.6,0.1-1.1,0.3-1.5c0.4-0.7,1.1-1,2-1
			c0.8,0,1.4,0.2,1.8,0.6s0.6,0.9,0.6,1.4c0,0.6-0.2,1-0.6,1.4c-0.2,0.2-0.6,0.5-1.2,0.8l-0.7,0.4c-0.3,0.2-0.6,0.3-0.8,0.5
			c-0.3,0.3-0.5,0.6-0.6,0.9H35v0.8h-4.8C30.2,41.1,30.3,40.6,30.6,40.1z"/>
		<path d="M40.1,35.8c0.3,0.6,0.5,1.4,0.5,2.4c0,1-0.1,1.7-0.4,2.4c-0.4,0.9-1.1,1.3-2,1.3c-0.8,0-1.5-0.4-1.9-1.1
			c-0.3-0.6-0.5-1.4-0.5-2.5c0-0.8,0.1-1.5,0.3-2c0.4-1.1,1.1-1.6,2.1-1.6C39,34.7,39.7,35.1,40.1,35.8z M39.2,40.5
			c0.3-0.4,0.4-1.2,0.4-2.3c0-0.8-0.1-1.4-0.3-2c-0.2-0.5-0.6-0.8-1.1-0.8c-0.5,0-0.9,0.2-1.1,0.7c-0.2,0.5-0.4,1.2-0.4,2.2
			c0,0.7,0.1,1.3,0.2,1.7c0.2,0.7,0.6,1,1.2,1C38.6,41.1,39,40.9,39.2,40.5z"/>
	</g>
	<g class="st14">
		<path class="st15" d="M801.4,601.2l1.7-0.2c0.1,0.6,0.3,1,0.6,1.2s0.7,0.4,1.3,0.4c0.6,0,1-0.1,1.3-0.4s0.4-0.5,0.4-0.8
			c0-0.2-0.1-0.4-0.2-0.5s-0.3-0.3-0.6-0.4c-0.2-0.1-0.7-0.2-1.4-0.4c-0.9-0.2-1.6-0.5-2-0.8c-0.5-0.5-0.8-1-0.8-1.7
			c0-0.4,0.1-0.8,0.4-1.2s0.6-0.7,1.1-0.9s1-0.3,1.7-0.3c1.1,0,1.9,0.2,2.4,0.7s0.8,1.1,0.9,1.9l-1.7,0.1c-0.1-0.4-0.2-0.8-0.5-1
			s-0.6-0.3-1.1-0.3c-0.5,0-0.9,0.1-1.2,0.3c-0.2,0.1-0.3,0.3-0.3,0.5c0,0.2,0.1,0.4,0.3,0.5c0.2,0.2,0.8,0.4,1.6,0.6
			s1.5,0.4,1.9,0.6s0.7,0.5,0.9,0.9s0.3,0.8,0.3,1.4c0,0.5-0.1,1-0.4,1.4s-0.7,0.7-1.2,1s-1.1,0.3-1.9,0.3c-1.1,0-1.9-0.3-2.5-0.8
			S801.5,602.2,801.4,601.2z"/>
		<path class="st15" d="M813.4,602l1.6,0.3c-0.2,0.6-0.5,1.1-1,1.4s-1,0.5-1.7,0.5c-1.1,0-1.9-0.4-2.4-1.1c-0.4-0.6-0.6-1.3-0.6-2.1
			c0-1,0.3-1.8,0.8-2.4s1.2-0.9,2-0.9c0.9,0,1.7,0.3,2.2,0.9s0.8,1.5,0.8,2.8H811c0,0.5,0.1,0.9,0.4,1.1s0.6,0.4,0.9,0.4
			c0.3,0,0.5-0.1,0.7-0.2S813.3,602.3,813.4,602z M813.5,600.4c0-0.5-0.1-0.8-0.4-1.1s-0.5-0.4-0.9-0.4c-0.4,0-0.7,0.1-0.9,0.4
			s-0.3,0.6-0.3,1.1H813.5z"/>
		<path class="st15" d="M816.4,597.8h1.5v0.8c0.5-0.7,1.2-1,1.9-1c0.4,0,0.7,0.1,1,0.2s0.5,0.4,0.7,0.7c0.3-0.3,0.6-0.6,0.9-0.7
			s0.7-0.2,1-0.2c0.5,0,0.8,0.1,1.2,0.3s0.6,0.5,0.7,0.8c0.1,0.3,0.2,0.7,0.2,1.3v4h-1.6v-3.6c0-0.6-0.1-1-0.2-1.2
			c-0.2-0.2-0.4-0.4-0.7-0.4c-0.2,0-0.4,0.1-0.7,0.2s-0.3,0.3-0.4,0.6s-0.1,0.7-0.1,1.3v3h-1.6v-3.4c0-0.6,0-1-0.1-1.2
			s-0.1-0.3-0.3-0.4s-0.3-0.1-0.5-0.1c-0.3,0-0.5,0.1-0.7,0.2s-0.3,0.3-0.4,0.6s-0.1,0.7-0.1,1.3v3h-1.6V597.8z"/>
		<path class="st15" d="M830.8,602l1.6,0.3c-0.2,0.6-0.5,1.1-1,1.4s-1,0.5-1.7,0.5c-1.1,0-1.9-0.4-2.4-1.1c-0.4-0.6-0.6-1.3-0.6-2.1
			c0-1,0.3-1.8,0.8-2.4s1.2-0.9,2-0.9c0.9,0,1.7,0.3,2.2,0.9s0.8,1.5,0.8,2.8h-4.1c0,0.5,0.1,0.9,0.4,1.1s0.6,0.4,0.9,0.4
			c0.3,0,0.5-0.1,0.7-0.2S830.7,602.3,830.8,602z M830.9,600.4c0-0.5-0.1-0.8-0.4-1.1s-0.5-0.4-0.9-0.4c-0.4,0-0.7,0.1-0.9,0.4
			s-0.3,0.6-0.3,1.1H830.9z"/>
		<path class="st15" d="M833.3,602.2l1.7-0.3c0.1,0.3,0.2,0.6,0.4,0.7s0.5,0.2,0.9,0.2c0.4,0,0.7-0.1,1-0.2c0.1-0.1,0.2-0.3,0.2-0.4
			c0-0.1,0-0.2-0.1-0.3c-0.1-0.1-0.3-0.2-0.6-0.2c-1.3-0.3-2.2-0.6-2.5-0.8c-0.5-0.3-0.7-0.8-0.7-1.4c0-0.5,0.2-1,0.6-1.4
			s1.1-0.6,2-0.6c0.9,0,1.5,0.1,1.9,0.4s0.7,0.7,0.9,1.2l-1.6,0.3c-0.1-0.2-0.2-0.4-0.4-0.6s-0.5-0.2-0.8-0.2
			c-0.4,0-0.7,0.1-0.9,0.2c-0.1,0.1-0.2,0.2-0.2,0.3c0,0.1,0.1,0.2,0.2,0.3c0.1,0.1,0.7,0.3,1.5,0.5s1.5,0.4,1.8,0.7
			c0.3,0.3,0.5,0.7,0.5,1.2c0,0.6-0.2,1.1-0.7,1.5s-1.2,0.6-2.1,0.6c-0.8,0-1.5-0.2-2-0.5S833.4,602.8,833.3,602.2z"/>
		<path class="st15" d="M843.4,597.8v1.3h-1.1v2.5c0,0.5,0,0.8,0,0.9s0.1,0.2,0.1,0.2s0.2,0.1,0.3,0.1c0.2,0,0.4-0.1,0.7-0.2
			l0.1,1.3c-0.4,0.2-0.8,0.2-1.3,0.2c-0.3,0-0.6,0-0.8-0.1s-0.4-0.2-0.5-0.4s-0.2-0.4-0.2-0.6c0-0.2-0.1-0.6-0.1-1.2v-2.7h-0.8v-1.3
			h0.8v-1.2l1.7-1v2.2H843.4z"/>
		<path class="st15" d="M846.1,604h-1.6v-6.2h1.5v0.9c0.3-0.4,0.5-0.7,0.7-0.8s0.4-0.2,0.7-0.2c0.4,0,0.7,0.1,1.1,0.3l-0.5,1.4
			c-0.3-0.2-0.5-0.3-0.8-0.3c-0.2,0-0.4,0.1-0.6,0.2s-0.3,0.4-0.4,0.7s-0.1,1-0.1,2.1V604z"/>
		<path class="st15" d="M852.8,602l1.6,0.3c-0.2,0.6-0.5,1.1-1,1.4s-1,0.5-1.7,0.5c-1.1,0-1.9-0.4-2.4-1.1c-0.4-0.6-0.6-1.3-0.6-2.1
			c0-1,0.3-1.8,0.8-2.4s1.2-0.9,2-0.9c0.9,0,1.7,0.3,2.2,0.9s0.8,1.5,0.8,2.8h-4.1c0,0.5,0.1,0.9,0.4,1.1s0.6,0.4,0.9,0.4
			c0.3,0,0.5-0.1,0.7-0.2S852.7,602.3,852.8,602z M852.9,600.4c0-0.5-0.1-0.8-0.4-1.1s-0.5-0.4-0.9-0.4c-0.4,0-0.7,0.1-0.9,0.4
			s-0.3,0.6-0.3,1.1H852.9z"/>
	</g>
	<g class="st14">
		<path d="M816.4,34.8l1.7,0.5c-0.3,0.9-0.7,1.6-1.3,2.1s-1.4,0.7-2.3,0.7c-1.1,0-2.1-0.4-2.8-1.2s-1.1-1.8-1.1-3.2
			c0-1.4,0.4-2.5,1.1-3.3s1.7-1.2,2.9-1.2c1.1,0,1.9,0.3,2.6,0.9c0.4,0.4,0.7,0.9,0.9,1.6l-1.7,0.4c-0.1-0.4-0.3-0.8-0.6-1.1
			s-0.7-0.4-1.2-0.4c-0.6,0-1.2,0.2-1.5,0.7s-0.6,1.2-0.6,2.2c0,1.1,0.2,1.9,0.6,2.3s0.9,0.7,1.5,0.7c0.5,0,0.9-0.1,1.2-0.4
			S816.2,35.5,816.4,34.8z"/>
		<path d="M819.1,34.8c0-0.5,0.1-1.1,0.4-1.6s0.7-0.9,1.1-1.2s1-0.4,1.7-0.4c0.9,0,1.7,0.3,2.3,0.9s0.9,1.4,0.9,2.3
			c0,0.9-0.3,1.7-0.9,2.3s-1.4,0.9-2.3,0.9c-0.6,0-1.1-0.1-1.6-0.4s-0.9-0.6-1.2-1.1S819.1,35.5,819.1,34.8z M820.8,34.9
			c0,0.6,0.1,1.1,0.4,1.4s0.7,0.5,1.1,0.5s0.8-0.2,1.1-0.5s0.4-0.8,0.4-1.4c0-0.6-0.1-1.1-0.4-1.4s-0.7-0.5-1.1-0.5
			s-0.8,0.2-1.1,0.5S820.8,34.3,820.8,34.9z"/>
		<path d="M826.9,38v-8.6h1.6V38H826.9z"/>
		<path d="M829.8,34.8c0-0.5,0.1-1.1,0.4-1.6s0.7-0.9,1.1-1.2s1-0.4,1.7-0.4c0.9,0,1.7,0.3,2.3,0.9s0.9,1.4,0.9,2.3
			c0,0.9-0.3,1.7-0.9,2.3s-1.4,0.9-2.3,0.9c-0.6,0-1.1-0.1-1.6-0.4s-0.9-0.6-1.2-1.1S829.8,35.5,829.8,34.8z M831.5,34.9
			c0,0.6,0.1,1.1,0.4,1.4s0.7,0.5,1.1,0.5s0.8-0.2,1.1-0.5s0.4-0.8,0.4-1.4c0-0.6-0.1-1.1-0.4-1.4S833.5,33,833,33s-0.8,0.2-1.1,0.5
			S831.5,34.3,831.5,34.9z"/>
		<path d="M839.1,38h-1.6v-6.2h1.5v0.9c0.3-0.4,0.5-0.7,0.7-0.8s0.4-0.2,0.7-0.2c0.4,0,0.7,0.1,1.1,0.3l-0.5,1.4
			c-0.3-0.2-0.5-0.3-0.8-0.3c-0.2,0-0.4,0.1-0.6,0.2s-0.3,0.4-0.4,0.7s-0.1,1-0.1,2.1V38z"/>
		<path d="M845.8,36l1.6,0.3c-0.2,0.6-0.5,1.1-1,1.4s-1,0.5-1.7,0.5c-1.1,0-1.9-0.4-2.4-1.1c-0.4-0.6-0.6-1.3-0.6-2.1
			c0-1,0.3-1.8,0.8-2.4s1.2-0.9,2-0.9c0.9,0,1.7,0.3,2.2,0.9s0.8,1.5,0.8,2.8h-4.1c0,0.5,0.1,0.9,0.4,1.1s0.6,0.4,0.9,0.4
			c0.3,0,0.5-0.1,0.7-0.2S845.7,36.3,845.8,36z M845.9,34.4c0-0.5-0.1-0.8-0.4-1.1s-0.5-0.4-0.9-0.4c-0.4,0-0.7,0.1-0.9,0.4
			s-0.3,0.6-0.3,1.1H845.9z"/>
		<path d="M848.3,36.2l1.7-0.3c0.1,0.3,0.2,0.6,0.4,0.7s0.5,0.2,0.9,0.2c0.4,0,0.7-0.1,1-0.2c0.1-0.1,0.2-0.3,0.2-0.4
			c0-0.1,0-0.2-0.1-0.3c-0.1-0.1-0.3-0.2-0.6-0.2c-1.3-0.3-2.2-0.6-2.5-0.8c-0.5-0.3-0.7-0.8-0.7-1.4c0-0.5,0.2-1,0.6-1.4
			s1.1-0.6,2-0.6c0.9,0,1.5,0.1,1.9,0.4s0.7,0.7,0.9,1.2l-1.6,0.3c-0.1-0.2-0.2-0.4-0.4-0.6s-0.5-0.2-0.8-0.2
			c-0.4,0-0.7,0.1-0.9,0.2c-0.1,0.1-0.2,0.2-0.2,0.3c0,0.1,0.1,0.2,0.2,0.3c0.1,0.1,0.7,0.3,1.5,0.5s1.5,0.4,1.8,0.7
			c0.3,0.3,0.5,0.7,0.5,1.2c0,0.6-0.2,1.1-0.7,1.5s-1.2,0.6-2.1,0.6c-0.8,0-1.5-0.2-2-0.5S848.4,36.8,848.3,36.2z"/>
	</g>
	<g class="st14">
		<path class="st15" d="M13.9,25.3v-8.6h1.7v8.6H13.9z"/>
		<path class="st15" d="M23,25.3h-1.6v-3.2c0-0.7,0-1.1-0.1-1.3s-0.2-0.4-0.3-0.5s-0.3-0.2-0.6-0.2c-0.3,0-0.5,0.1-0.8,0.2
			s-0.4,0.4-0.5,0.6S19,21.7,19,22.4v2.8h-1.6V19h1.5v0.9c0.5-0.7,1.2-1.1,2.1-1.1c0.4,0,0.7,0.1,1,0.2s0.5,0.3,0.7,0.5
			s0.3,0.4,0.3,0.7s0.1,0.6,0.1,1.1V25.3z"/>
		<path class="st15" d="M24.1,23.5l1.7-0.3c0.1,0.3,0.2,0.6,0.4,0.7s0.5,0.2,0.9,0.2c0.4,0,0.7-0.1,1-0.2c0.1-0.1,0.2-0.3,0.2-0.4
			c0-0.1,0-0.2-0.1-0.3c-0.1-0.1-0.3-0.2-0.6-0.2c-1.3-0.3-2.2-0.6-2.5-0.8c-0.5-0.3-0.7-0.8-0.7-1.4c0-0.5,0.2-1,0.6-1.4
			s1.1-0.6,2-0.6c0.9,0,1.5,0.1,1.9,0.4s0.7,0.7,0.9,1.2l-1.6,0.3c-0.1-0.2-0.2-0.4-0.4-0.6s-0.5-0.2-0.8-0.2
			c-0.4,0-0.7,0.1-0.9,0.2c-0.1,0.1-0.2,0.2-0.2,0.3c0,0.1,0.1,0.2,0.2,0.3c0.1,0.1,0.7,0.3,1.5,0.5s1.5,0.4,1.8,0.7
			c0.3,0.3,0.5,0.7,0.5,1.2c0,0.6-0.2,1.1-0.7,1.5s-1.2,0.6-2.1,0.6c-0.8,0-1.5-0.2-2-0.5S24.2,24.1,24.1,23.5z"/>
		<path class="st15" d="M36.8,20.9l-1.6,0.3c-0.1-0.3-0.2-0.6-0.4-0.7s-0.4-0.2-0.8-0.2c-0.4,0-0.7,0.1-1,0.4s-0.4,0.8-0.4,1.4
			c0,0.7,0.1,1.3,0.4,1.6s0.6,0.5,1,0.5c0.3,0,0.6-0.1,0.8-0.3s0.3-0.5,0.4-0.9l1.6,0.3c-0.2,0.7-0.5,1.3-1,1.7s-1.1,0.6-1.9,0.6
			c-0.9,0-1.6-0.3-2.2-0.9S31,23.2,31,22.1c0-1,0.3-1.8,0.8-2.4s1.3-0.9,2.2-0.9c0.8,0,1.4,0.2,1.8,0.5S36.6,20.2,36.8,20.9z"/>
		<path class="st15" d="M39.6,25.3h-1.6V19h1.5v0.9c0.3-0.4,0.5-0.7,0.7-0.8s0.4-0.2,0.7-0.2c0.4,0,0.7,0.1,1.1,0.3l-0.5,1.4
			c-0.3-0.2-0.5-0.3-0.8-0.3c-0.2,0-0.4,0.1-0.6,0.2s-0.3,0.4-0.4,0.7s-0.1,1-0.1,2.1V25.3z"/>
		<path class="st15" d="M42.7,18.2v-1.5h1.6v1.5H42.7z M42.7,25.3V19h1.6v6.2H42.7z"/>
		<path class="st15" d="M48.9,19v1.3h-1.1v2.5c0,0.5,0,0.8,0,0.9s0.1,0.2,0.1,0.2s0.2,0.1,0.3,0.1c0.2,0,0.4-0.1,0.7-0.2l0.1,1.3
			c-0.4,0.2-0.8,0.2-1.3,0.2c-0.3,0-0.6,0-0.8-0.1s-0.4-0.2-0.5-0.4s-0.2-0.4-0.2-0.6c0-0.2-0.1-0.6-0.1-1.2v-2.7h-0.8V19h0.8v-1.2
			l1.7-1V19H48.9z"/>
		<path class="st15" d="M53.6,23.3l1.6,0.3c-0.2,0.6-0.5,1.1-1,1.4s-1,0.5-1.7,0.5c-1.1,0-1.9-0.4-2.4-1.1c-0.4-0.6-0.6-1.3-0.6-2.1
			c0-1,0.3-1.8,0.8-2.4s1.2-0.9,2-0.9c0.9,0,1.7,0.3,2.2,0.9s0.8,1.5,0.8,2.8h-4.1c0,0.5,0.1,0.9,0.4,1.1s0.6,0.4,0.9,0.4
			c0.3,0,0.5-0.1,0.7-0.2S53.5,23.6,53.6,23.3z M53.7,21.6c0-0.5-0.1-0.8-0.4-1.1s-0.5-0.4-0.9-0.4c-0.4,0-0.7,0.1-0.9,0.4
			s-0.3,0.6-0.3,1.1H53.7z"/>
		<path class="st15" d="M56.1,23.5l1.7-0.3c0.1,0.3,0.2,0.6,0.4,0.7s0.5,0.2,0.9,0.2c0.4,0,0.7-0.1,1-0.2c0.1-0.1,0.2-0.3,0.2-0.4
			c0-0.1,0-0.2-0.1-0.3c-0.1-0.1-0.3-0.2-0.6-0.2c-1.3-0.3-2.2-0.6-2.5-0.8c-0.5-0.3-0.7-0.8-0.7-1.4c0-0.5,0.2-1,0.6-1.4
			s1.1-0.6,2-0.6c0.9,0,1.5,0.1,1.9,0.4s0.7,0.7,0.9,1.2l-1.6,0.3c-0.1-0.2-0.2-0.4-0.4-0.6s-0.5-0.2-0.8-0.2
			c-0.4,0-0.7,0.1-0.9,0.2c-0.1,0.1-0.2,0.2-0.2,0.3c0,0.1,0.1,0.2,0.2,0.3c0.1,0.1,0.7,0.3,1.5,0.5s1.5,0.4,1.8,0.7
			c0.3,0.3,0.5,0.7,0.5,1.2c0,0.6-0.2,1.1-0.7,1.5s-1.2,0.6-2.1,0.6c-0.8,0-1.5-0.2-2-0.5S56.2,24.1,56.1,23.5z"/>
	</g>
	<rect x="810" y="74" class="st5" width="15" height="15"/>
	<rect x="810" y="94" class="st4" width="15" height="15"/>
	<g>
		<path d="M831.4,62l-0.8,2.5h-1.1l2.7-8.1h1.3l2.8,8.1h-1.1l-0.9-2.5H831.4z M834.1,61.2l-0.8-2.3c-0.2-0.5-0.3-1-0.4-1.5h0
			c-0.1,0.5-0.3,1-0.4,1.5l-0.8,2.3H834.1z"/>
		<path d="M837.4,60.7c0-0.7,0-1.3,0-1.9h0.9l0,1h0c0.4-0.7,1.1-1.1,2.1-1.1c1.4,0,2.5,1.2,2.5,3c0,2.1-1.3,3.1-2.6,3.1
			c-0.8,0-1.4-0.3-1.8-0.9h0v3.2h-1V60.7z M838.4,62.2c0,0.2,0,0.3,0,0.4c0.2,0.7,0.8,1.2,1.6,1.2c1.1,0,1.8-0.9,1.8-2.2
			c0-1.2-0.6-2.2-1.7-2.2c-0.7,0-1.4,0.5-1.6,1.3c0,0.1-0.1,0.3-0.1,0.4V62.2z"/>
		<path d="M844.2,60.6c0-0.7,0-1.3,0-1.8h0.9l0,1.1h0c0.3-0.8,0.9-1.3,1.6-1.3c0.1,0,0.2,0,0.3,0v1c-0.1,0-0.2,0-0.4,0
			c-0.7,0-1.3,0.6-1.4,1.4c0,0.1,0,0.3,0,0.5v3.1h-1V60.6z"/>
		<path d="M853,63c0,0.6,0,1.1,0,1.6h-0.9l-0.1-0.9h0c-0.3,0.5-0.9,1.1-1.9,1.1c-0.9,0-2-0.5-2-2.5v-3.4h1.1V62
			c0,1.1,0.3,1.8,1.3,1.8c0.7,0,1.2-0.5,1.4-1c0.1-0.2,0.1-0.3,0.1-0.5v-3.6h1.1V63z"/>
		<path d="M855.4,61.9c0,1.4,0.9,2,2,2c0.8,0,1.2-0.1,1.6-0.3l0.2,0.8c-0.4,0.2-1,0.4-1.9,0.4c-1.8,0-2.9-1.2-2.9-2.9s1-3.1,2.7-3.1
			c1.9,0,2.4,1.7,2.4,2.7c0,0.2,0,0.4,0,0.5H855.4z M858.5,61.1c0-0.7-0.3-1.7-1.5-1.7c-1.1,0-1.5,1-1.6,1.7H858.5z"/>
		<path d="M860.7,64.6c0-0.4,0-1,0-1.5v-7h1v3.6h0c0.4-0.6,1-1.1,2-1.1c1.4,0,2.5,1.2,2.4,3c0,2.1-1.3,3.1-2.6,3.1
			c-0.8,0-1.5-0.3-1.9-1.1h0l0,1H860.7z M861.8,62.2c0,0.1,0,0.3,0,0.4c0.2,0.7,0.8,1.2,1.6,1.2c1.1,0,1.8-0.9,1.8-2.2
			c0-1.2-0.6-2.2-1.7-2.2c-0.7,0-1.4,0.5-1.6,1.3c0,0.1-0.1,0.3-0.1,0.4V62.2z"/>
		<path d="M870.8,64.6l-0.1-0.7h0c-0.3,0.5-0.9,0.9-1.8,0.9c-1.2,0-1.8-0.8-1.8-1.7c0-1.4,1.2-2.2,3.5-2.2v-0.1
			c0-0.5-0.1-1.3-1.3-1.3c-0.5,0-1.1,0.2-1.5,0.4l-0.2-0.7c0.5-0.3,1.2-0.5,1.9-0.5c1.8,0,2.2,1.2,2.2,2.4v2.2c0,0.5,0,1,0.1,1.4
			H870.8z M870.7,61.6c-1.2,0-2.5,0.2-2.5,1.3c0,0.7,0.5,1,1,1c0.8,0,1.2-0.5,1.4-1c0-0.1,0.1-0.2,0.1-0.3V61.6z"/>
		<path d="M873.4,60.3c0-0.6,0-1.1,0-1.6h0.9l0.1,1h0c0.3-0.6,1-1.1,1.9-1.1c0.8,0,2.1,0.5,2.1,2.5v3.5h-1.1v-3.3
			c0-0.9-0.3-1.7-1.3-1.7c-0.7,0-1.2,0.5-1.4,1.1c0,0.1-0.1,0.3-0.1,0.5v3.5h-1.1V60.3z"/>
		<path d="M884.9,56.2c-0.9,1.2-1.5,2.7-1.5,4.9c0,2.1,0.7,3.7,1.5,4.9h-0.8c-0.8-1-1.6-2.5-1.6-4.9c0-2.4,0.8-3.9,1.6-4.9H884.9z"
			/>
		<path d="M888.4,64.6l-2.6-8.1h1.1l1.3,4c0.3,1.1,0.6,2.1,0.9,3h0c0.2-0.9,0.6-2,0.9-3l1.4-4h1.1l-2.9,8.1H888.4z"/>
		<path d="M895.6,60.9v0.8h-3v-0.8H895.6z"/>
		<path d="M903.7,61c-0.1-1.1-0.1-2.5-0.1-3.5h0c-0.3,0.9-0.6,2-1,3.1l-1.4,3.9h-0.8l-1.3-3.9c-0.4-1.1-0.7-2.2-0.9-3.1h0
			c0,1-0.1,2.4-0.2,3.6l-0.2,3.5h-1l0.6-8.1h1.3l1.4,3.9c0.3,1,0.6,1.9,0.8,2.7h0c0.2-0.8,0.5-1.7,0.9-2.7l1.4-3.9h1.3l0.5,8.1h-1
			L903.7,61z"/>
		<path d="M905.8,66c0.9-1.2,1.5-2.7,1.5-4.9c0-2.1-0.6-3.7-1.5-4.9h0.8c0.8,1,1.6,2.5,1.6,4.9c0,2.4-0.8,3.9-1.6,4.9H905.8z"/>
	</g>
	<g>
		<path d="M831.4,82l-0.8,2.5h-1.1l2.7-8.1h1.3l2.8,8.1h-1.1l-0.9-2.5H831.4z M834.1,81.2l-0.8-2.3c-0.2-0.5-0.3-1-0.4-1.5h0
			c-0.1,0.5-0.3,1-0.4,1.5l-0.8,2.3H834.1z"/>
		<path d="M837.4,80.7c0-0.7,0-1.3,0-1.9h0.9l0,1h0c0.4-0.7,1.1-1.1,2.1-1.1c1.4,0,2.5,1.2,2.5,3c0,2.1-1.3,3.1-2.6,3.1
			c-0.8,0-1.4-0.3-1.8-0.9h0v3.2h-1V80.7z M838.4,82.2c0,0.2,0,0.3,0,0.4c0.2,0.7,0.8,1.2,1.6,1.2c1.1,0,1.8-0.9,1.8-2.2
			c0-1.2-0.6-2.2-1.7-2.2c-0.7,0-1.4,0.5-1.6,1.3c0,0.1-0.1,0.3-0.1,0.4V82.2z"/>
		<path d="M844.2,80.6c0-0.7,0-1.3,0-1.8h0.9l0,1.1h0c0.3-0.8,0.9-1.3,1.6-1.3c0.1,0,0.2,0,0.3,0v1c-0.1,0-0.2,0-0.4,0
			c-0.7,0-1.3,0.6-1.4,1.4c0,0.1,0,0.3,0,0.5v3.1h-1V80.6z"/>
		<path d="M853,83c0,0.6,0,1.1,0,1.6h-0.9l-0.1-0.9h0c-0.3,0.5-0.9,1.1-1.9,1.1c-0.9,0-2-0.5-2-2.5v-3.4h1.1V82
			c0,1.1,0.3,1.8,1.3,1.8c0.7,0,1.2-0.5,1.4-1c0.1-0.2,0.1-0.3,0.1-0.5v-3.6h1.1V83z"/>
		<path d="M855.4,81.9c0,1.4,0.9,2,2,2c0.8,0,1.2-0.1,1.6-0.3l0.2,0.8c-0.4,0.2-1,0.4-1.9,0.4c-1.8,0-2.9-1.2-2.9-2.9s1-3.1,2.7-3.1
			c1.9,0,2.4,1.7,2.4,2.7c0,0.2,0,0.4,0,0.5H855.4z M858.5,81.1c0-0.7-0.3-1.7-1.5-1.7c-1.1,0-1.5,1-1.6,1.7H858.5z"/>
		<path d="M860.7,84.6c0-0.4,0-1,0-1.5v-7h1v3.6h0c0.4-0.6,1-1.1,2-1.1c1.4,0,2.5,1.2,2.4,3c0,2.1-1.3,3.1-2.6,3.1
			c-0.8,0-1.5-0.3-1.9-1.1h0l0,1H860.7z M861.8,82.2c0,0.1,0,0.3,0,0.4c0.2,0.7,0.8,1.2,1.6,1.2c1.1,0,1.8-0.9,1.8-2.2
			c0-1.2-0.6-2.2-1.7-2.2c-0.7,0-1.4,0.5-1.6,1.3c0,0.1-0.1,0.3-0.1,0.4V82.2z"/>
		<path d="M870.8,84.6l-0.1-0.7h0c-0.3,0.5-0.9,0.9-1.8,0.9c-1.2,0-1.8-0.8-1.8-1.7c0-1.4,1.2-2.2,3.5-2.2v-0.1
			c0-0.5-0.1-1.3-1.3-1.3c-0.5,0-1.1,0.2-1.5,0.4l-0.2-0.7c0.5-0.3,1.2-0.5,1.9-0.5c1.8,0,2.2,1.2,2.2,2.4v2.2c0,0.5,0,1,0.1,1.4
			H870.8z M870.7,81.6c-1.2,0-2.5,0.2-2.5,1.3c0,0.7,0.5,1,1,1c0.8,0,1.2-0.5,1.4-1c0-0.1,0.1-0.2,0.1-0.3V81.6z"/>
		<path d="M873.4,80.3c0-0.6,0-1.1,0-1.6h0.9l0.1,1h0c0.3-0.6,1-1.1,1.9-1.1c0.8,0,2.1,0.5,2.1,2.5v3.5h-1.1v-3.3
			c0-0.9-0.3-1.7-1.3-1.7c-0.7,0-1.2,0.5-1.4,1.1c0,0.1-0.1,0.3-0.1,0.5v3.5h-1.1V80.3z"/>
		<path d="M884.9,76.2c-0.9,1.2-1.5,2.7-1.5,4.9c0,2.1,0.7,3.7,1.5,4.9h-0.8c-0.8-1-1.6-2.5-1.6-4.9c0-2.4,0.8-3.9,1.6-4.9H884.9z"
			/>
		<path d="M887.1,76.5v8.1h-1v-8.1H887.1z"/>
		<path d="M891.3,80.9v0.8h-3v-0.8H891.3z"/>
		<path d="M892.5,83.3c0.5,0.3,1.2,0.5,1.9,0.5c1.1,0,1.7-0.6,1.7-1.4c0-0.8-0.4-1.2-1.5-1.6c-1.3-0.5-2.1-1.2-2.1-2.3
			c0-1.3,1-2.2,2.6-2.2c0.8,0,1.4,0.2,1.8,0.4l-0.3,0.9c-0.3-0.1-0.8-0.4-1.5-0.4c-1.1,0-1.5,0.7-1.5,1.2c0,0.8,0.5,1.1,1.6,1.6
			c1.4,0.5,2.1,1.2,2.1,2.4c0,1.2-0.9,2.3-2.8,2.3c-0.8,0-1.6-0.2-2.1-0.5L892.5,83.3z"/>
		<path d="M897.8,86c0.9-1.2,1.5-2.7,1.5-4.9c0-2.1-0.6-3.7-1.5-4.9h0.8c0.8,1,1.6,2.5,1.6,4.9c0,2.4-0.8,3.9-1.6,4.9H897.8z"/>
	</g>
	<g>
		<path d="M831.4,102l-0.8,2.5h-1.1l2.7-8.1h1.3l2.8,8.1h-1.1l-0.9-2.5H831.4z M834.1,101.2l-0.8-2.3c-0.2-0.5-0.3-1-0.4-1.5h0
			c-0.1,0.5-0.3,1-0.4,1.5l-0.8,2.3H834.1z"/>
		<path d="M837.4,100.7c0-0.7,0-1.3,0-1.9h0.9l0,1h0c0.4-0.7,1.1-1.1,2.1-1.1c1.4,0,2.5,1.2,2.5,3c0,2.1-1.3,3.1-2.6,3.1
			c-0.8,0-1.4-0.3-1.8-0.9h0v3.2h-1V100.7z M838.4,102.2c0,0.2,0,0.3,0,0.4c0.2,0.7,0.8,1.2,1.6,1.2c1.1,0,1.8-0.9,1.8-2.2
			c0-1.2-0.6-2.2-1.7-2.2c-0.7,0-1.4,0.5-1.6,1.3c0,0.1-0.1,0.3-0.1,0.4V102.2z"/>
		<path d="M844.2,100.6c0-0.7,0-1.3,0-1.8h0.9l0,1.1h0c0.3-0.8,0.9-1.3,1.6-1.3c0.1,0,0.2,0,0.3,0v1c-0.1,0-0.2,0-0.4,0
			c-0.7,0-1.3,0.6-1.4,1.4c0,0.1,0,0.3,0,0.5v3.1h-1V100.6z"/>
		<path d="M853,103c0,0.6,0,1.1,0,1.6h-0.9l-0.1-0.9h0c-0.3,0.5-0.9,1.1-1.9,1.1c-0.9,0-2-0.5-2-2.5v-3.4h1.1v3.2
			c0,1.1,0.3,1.8,1.3,1.8c0.7,0,1.2-0.5,1.4-1c0.1-0.2,0.1-0.3,0.1-0.5v-3.6h1.1V103z"/>
		<path d="M855.4,101.9c0,1.4,0.9,2,2,2c0.8,0,1.2-0.1,1.6-0.3l0.2,0.8c-0.4,0.2-1,0.4-1.9,0.4c-1.8,0-2.9-1.2-2.9-2.9
			s1-3.1,2.7-3.1c1.9,0,2.4,1.7,2.4,2.7c0,0.2,0,0.4,0,0.5H855.4z M858.5,101.1c0-0.7-0.3-1.7-1.5-1.7c-1.1,0-1.5,1-1.6,1.7H858.5z"
			/>
		<path d="M860.7,104.6c0-0.4,0-1,0-1.5v-7h1v3.6h0c0.4-0.6,1-1.1,2-1.1c1.4,0,2.5,1.2,2.4,3c0,2.1-1.3,3.1-2.6,3.1
			c-0.8,0-1.5-0.3-1.9-1.1h0l0,1H860.7z M861.8,102.2c0,0.1,0,0.3,0,0.4c0.2,0.7,0.8,1.2,1.6,1.2c1.1,0,1.8-0.9,1.8-2.2
			c0-1.2-0.6-2.2-1.7-2.2c-0.7,0-1.4,0.5-1.6,1.3c0,0.1-0.1,0.3-0.1,0.4V102.2z"/>
		<path d="M870.8,104.6l-0.1-0.7h0c-0.3,0.5-0.9,0.9-1.8,0.9c-1.2,0-1.8-0.8-1.8-1.7c0-1.4,1.2-2.2,3.5-2.2v-0.1
			c0-0.5-0.1-1.3-1.3-1.3c-0.5,0-1.1,0.2-1.5,0.4l-0.2-0.7c0.5-0.3,1.2-0.5,1.9-0.5c1.8,0,2.2,1.2,2.2,2.4v2.2c0,0.5,0,1,0.1,1.4
			H870.8z M870.7,101.6c-1.2,0-2.5,0.2-2.5,1.3c0,0.7,0.5,1,1,1c0.8,0,1.2-0.5,1.4-1c0-0.1,0.1-0.2,0.1-0.3V101.6z"/>
		<path d="M873.4,100.3c0-0.6,0-1.1,0-1.6h0.9l0.1,1h0c0.3-0.6,1-1.1,1.9-1.1c0.8,0,2.1,0.5,2.1,2.5v3.5h-1.1v-3.3
			c0-0.9-0.3-1.7-1.3-1.7c-0.7,0-1.2,0.5-1.4,1.1c0,0.1-0.1,0.3-0.1,0.5v3.5h-1.1V100.3z"/>
		<path d="M884.9,96.2c-0.9,1.2-1.5,2.7-1.5,4.9c0,2.1,0.7,3.7,1.5,4.9h-0.8c-0.8-1-1.6-2.5-1.6-4.9c0-2.4,0.8-3.9,1.6-4.9H884.9z"
			/>
		<path d="M885.9,103.5c0.3,0.2,0.9,0.4,1.4,0.4c0.8,0,1.1-0.4,1.1-0.9c0-0.5-0.3-0.8-1.1-1.1c-1-0.4-1.5-0.9-1.5-1.6
			c0-0.9,0.8-1.7,2-1.7c0.6,0,1.1,0.2,1.4,0.4l-0.3,0.8c-0.2-0.1-0.6-0.3-1.2-0.3c-0.6,0-1,0.4-1,0.8c0,0.5,0.3,0.7,1.1,1
			c1,0.4,1.5,0.9,1.5,1.8c0,1-0.8,1.7-2.2,1.7c-0.6,0-1.2-0.2-1.6-0.4L885.9,103.5z"/>
		<path d="M891.9,97.1c0,0.4-0.3,0.6-0.7,0.6c-0.4,0-0.6-0.3-0.6-0.6c0-0.4,0.3-0.7,0.7-0.7C891.7,96.5,891.9,96.8,891.9,97.1z
			 M890.8,104.6v-5.8h1.1v5.8H890.8z"/>
		<path d="M893.6,100.3c0-0.6,0-1.1,0-1.6h0.9l0.1,1h0c0.3-0.6,1-1.1,1.9-1.1c0.8,0,2.1,0.5,2.1,2.5v3.5h-1.1v-3.3
			c0-0.9-0.3-1.7-1.3-1.7c-0.7,0-1.2,0.5-1.4,1.1c0,0.1-0.1,0.3-0.1,0.5v3.5h-1.1V100.3z"/>
		<path d="M902.8,100.3c0-0.6,0-1.1,0-1.6h0.9l0,0.9h0c0.3-0.6,0.9-1.1,1.8-1.1c0.8,0,1.4,0.5,1.6,1.2h0c0.2-0.3,0.4-0.6,0.6-0.8
			c0.3-0.3,0.7-0.4,1.3-0.4c0.8,0,1.9,0.5,1.9,2.5v3.4h-1v-3.3c0-1.1-0.4-1.8-1.3-1.8c-0.6,0-1.1,0.4-1.2,1c0,0.1-0.1,0.3-0.1,0.5
			v3.6h-1v-3.5c0-0.9-0.4-1.6-1.2-1.6c-0.7,0-1.1,0.5-1.3,1.1c-0.1,0.2-0.1,0.3-0.1,0.5v3.5h-1V100.3z"/>
		<path d="M913.4,101.9c0,1.4,0.9,2,2,2c0.8,0,1.2-0.1,1.6-0.3l0.2,0.8c-0.4,0.2-1,0.4-1.9,0.4c-1.8,0-2.9-1.2-2.9-2.9
			s1-3.1,2.7-3.1c1.9,0,2.4,1.7,2.4,2.7c0,0.2,0,0.4,0,0.5H913.4z M916.5,101.1c0-0.7-0.3-1.7-1.5-1.7c-1.1,0-1.5,1-1.6,1.7H916.5z"
			/>
		<path d="M918.8,100.3c0-0.6,0-1.1,0-1.6h0.9l0.1,1h0c0.3-0.6,1-1.1,1.9-1.1c0.8,0,2.1,0.5,2.1,2.5v3.5h-1.1v-3.3
			c0-0.9-0.3-1.7-1.3-1.7c-0.7,0-1.2,0.5-1.4,1.1c0,0.1-0.1,0.3-0.1,0.5v3.5h-1.1V100.3z"/>
		<path d="M929.6,104.4c-0.3,0.1-0.9,0.3-1.7,0.3c-1.8,0-2.9-1.2-2.9-3c0-1.8,1.2-3.1,3.1-3.1c0.6,0,1.2,0.2,1.5,0.3l-0.2,0.8
			c-0.3-0.1-0.6-0.3-1.2-0.3c-1.3,0-2.1,1-2.1,2.2c0,1.3,0.9,2.2,2,2.2c0.6,0,1-0.2,1.3-0.3L929.6,104.4z"/>
		<path d="M932,97.1c0,0.4-0.3,0.6-0.7,0.6c-0.4,0-0.6-0.3-0.6-0.6c0-0.4,0.3-0.7,0.7-0.7C931.7,96.5,932,96.8,932,97.1z
			 M930.8,104.6v-5.8h1.1v5.8H930.8z"/>
		<path d="M938.9,101.6c0,2.1-1.5,3.1-2.9,3.1c-1.6,0-2.8-1.2-2.8-3c0-1.9,1.3-3.1,2.9-3.1C937.8,98.6,938.9,99.8,938.9,101.6z
			 M934.3,101.7c0,1.3,0.7,2.2,1.8,2.2c1,0,1.8-0.9,1.8-2.3c0-1-0.5-2.2-1.7-2.2C934.8,99.4,934.3,100.6,934.3,101.7z M937.6,96.3
			l-1.5,1.7h-0.8l1.1-1.7H937.6z"/>
		<path d="M940.2,100.3c0-0.6,0-1.1,0-1.6h0.9l0.1,1h0c0.3-0.6,1-1.1,1.9-1.1c0.8,0,2.1,0.5,2.1,2.5v3.5h-1.1v-3.3
			c0-0.9-0.3-1.7-1.3-1.7c-0.7,0-1.2,0.5-1.4,1.1c0,0.1-0.1,0.3-0.1,0.5v3.5h-1.1V100.3z"/>
		<path d="M946.2,106c0.9-1.2,1.5-2.7,1.5-4.9c0-2.1-0.6-3.7-1.5-4.9h0.8c0.8,1,1.6,2.5,1.6,4.9c0,2.4-0.8,3.9-1.6,4.9H946.2z"/>
	</g>
	<g>
		<path d="M830.1,117.6c0.5-0.1,1.3-0.2,2-0.2c1.1,0,1.8,0.2,2.3,0.7c0.4,0.4,0.6,0.9,0.6,1.5c0,1.1-0.7,1.8-1.5,2.1v0
			c0.6,0.2,1,0.8,1.2,1.6c0.3,1.1,0.5,1.9,0.6,2.2h-1.1c-0.1-0.2-0.3-0.9-0.5-1.9c-0.2-1.1-0.7-1.5-1.6-1.6h-1v3.5h-1V117.6z
			 M831.2,121.3h1.1c1.1,0,1.8-0.6,1.8-1.5c0-1-0.8-1.5-1.9-1.5c-0.5,0-0.9,0-1,0.1V121.3z"/>
		<path d="M837.2,122.9c0,1.4,0.9,2,2,2c0.8,0,1.2-0.1,1.6-0.3l0.2,0.8c-0.4,0.2-1,0.4-1.9,0.4c-1.8,0-2.9-1.2-2.9-2.9
			s1-3.1,2.7-3.1c1.9,0,2.4,1.7,2.4,2.7c0,0.2,0,0.4,0,0.5H837.2z M840.3,122.1c0-0.7-0.3-1.7-1.5-1.7c-1.1,0-1.5,1-1.6,1.7H840.3z"
			/>
		<path d="M842.6,121.7c0-0.7,0-1.3,0-1.9h0.9l0,1h0c0.4-0.7,1.1-1.1,2.1-1.1c1.4,0,2.5,1.2,2.5,3c0,2.1-1.3,3.1-2.6,3.1
			c-0.8,0-1.4-0.3-1.8-0.9h0v3.2h-1V121.7z M843.7,123.2c0,0.2,0,0.3,0,0.4c0.2,0.7,0.8,1.2,1.6,1.2c1.1,0,1.8-0.9,1.8-2.2
			c0-1.2-0.6-2.2-1.7-2.2c-0.7,0-1.4,0.5-1.6,1.3c0,0.1-0.1,0.3-0.1,0.4V123.2z"/>
		<path d="M849.4,121.6c0-0.7,0-1.3,0-1.8h0.9l0,1.1h0c0.3-0.8,0.9-1.3,1.6-1.3c0.1,0,0.2,0,0.3,0v1c-0.1,0-0.2,0-0.4,0
			c-0.7,0-1.3,0.6-1.4,1.4c0,0.1,0,0.3,0,0.5v3.1h-1V121.6z"/>
		<path d="M858.2,124c0,0.6,0,1.1,0,1.6h-0.9l-0.1-0.9h0c-0.3,0.5-0.9,1.1-1.9,1.1c-0.9,0-2-0.5-2-2.5v-3.4h1.1v3.2
			c0,1.1,0.3,1.8,1.3,1.8c0.7,0,1.2-0.5,1.4-1c0.1-0.2,0.1-0.3,0.1-0.5v-3.6h1.1V124z"/>
		<path d="M860.6,122.9c0,1.4,0.9,2,2,2c0.8,0,1.2-0.1,1.6-0.3l0.2,0.8c-0.4,0.2-1,0.4-1.9,0.4c-1.8,0-2.9-1.2-2.9-2.9
			s1-3.1,2.7-3.1c1.9,0,2.4,1.7,2.4,2.7c0,0.2,0,0.4,0,0.5H860.6z M863.7,122.1c0-0.7-0.3-1.7-1.5-1.7c-1.1,0-1.5,1-1.6,1.7H863.7z"
			/>
		<path d="M865.9,125.6c0-0.4,0-1,0-1.5v-7h1v3.6h0c0.4-0.6,1-1.1,2-1.1c1.4,0,2.5,1.2,2.4,3c0,2.1-1.3,3.1-2.6,3.1
			c-0.8,0-1.5-0.3-1.9-1.1h0l0,1H865.9z M867,123.2c0,0.1,0,0.3,0,0.4c0.2,0.7,0.8,1.2,1.6,1.2c1.1,0,1.8-0.9,1.8-2.2
			c0-1.2-0.6-2.2-1.7-2.2c-0.7,0-1.4,0.5-1.6,1.3c0,0.1-0.1,0.3-0.1,0.4V123.2z"/>
		<path d="M876,125.6l-0.1-0.7h0c-0.3,0.5-0.9,0.9-1.8,0.9c-1.2,0-1.8-0.8-1.8-1.7c0-1.4,1.2-2.2,3.5-2.2v-0.1
			c0-0.5-0.1-1.3-1.3-1.3c-0.5,0-1.1,0.2-1.5,0.4l-0.2-0.7c0.5-0.3,1.2-0.5,1.9-0.5c1.8,0,2.2,1.2,2.2,2.4v2.2c0,0.5,0,1,0.1,1.4
			H876z M875.9,122.6c-1.2,0-2.5,0.2-2.5,1.3c0,0.7,0.5,1,1,1c0.8,0,1.2-0.5,1.4-1c0-0.1,0.1-0.2,0.1-0.3V122.6z"/>
		<path d="M878.6,121.3c0-0.6,0-1.1,0-1.6h0.9l0.1,1h0c0.3-0.6,1-1.1,1.9-1.1c0.8,0,2.1,0.5,2.1,2.5v3.5h-1.1v-3.3
			c0-0.9-0.3-1.7-1.3-1.7c-0.7,0-1.2,0.5-1.4,1.1c0,0.1-0.1,0.3-0.1,0.5v3.5h-1.1V121.3z"/>
	</g>
	<g>
		<path d="M109.9,583.9L109.9,583.9l-1.2,0.6l-0.2-0.7l1.5-0.8h0.8v6.8h-0.9V583.9z"/>
	</g>
	<g>
		<path d="M108.1,597c0.3,0.2,0.9,0.4,1.5,0.4c1.2,0,1.5-0.8,1.5-1.3c0-0.9-0.9-1.4-1.8-1.4h-0.5V594h0.5c0.7,0,1.5-0.3,1.5-1.1
			c0-0.5-0.3-1-1.2-1c-0.5,0-1.1,0.2-1.4,0.4l-0.2-0.7c0.4-0.3,1-0.5,1.8-0.5c1.3,0,1.9,0.8,1.9,1.6c0,0.7-0.4,1.3-1.3,1.6v0
			c0.8,0.2,1.5,0.8,1.5,1.7c0,1.1-0.8,2-2.5,2c-0.8,0-1.4-0.2-1.8-0.5L108.1,597z"/>
	</g>
	<g>
		<path d="M215.7,560.5h-3l-0.3,2c0.2,0,0.3,0,0.6,0c0.6,0,1.2,0.1,1.7,0.4c0.6,0.3,1.1,1,1.1,2c0,1.5-1.2,2.7-2.9,2.7
			c-0.9,0-1.6-0.2-1.9-0.5l0.3-0.8c0.3,0.2,1,0.4,1.7,0.4c1,0,1.8-0.6,1.8-1.7c0-1-0.7-1.7-2.2-1.7c-0.4,0-0.8,0-1.1,0.1l0.5-3.7
			h3.7V560.5z"/>
	</g>
	<g>
		<path d="M215.7,583.5h-3l-0.3,2c0.2,0,0.3,0,0.6,0c0.6,0,1.2,0.1,1.7,0.4c0.6,0.3,1.1,1,1.1,2c0,1.5-1.2,2.7-2.9,2.7
			c-0.9,0-1.6-0.2-1.9-0.5l0.3-0.8c0.3,0.2,1,0.4,1.7,0.4c1,0,1.8-0.6,1.8-1.7c0-1-0.7-1.7-2.2-1.7c-0.4,0-0.8,0-1.1,0.1l0.5-3.7
			h3.7V583.5z"/>
	</g>
	<g>
		<path d="M319.3,560.4v-2.1h-3.6v-0.7l3.5-5h1.1v4.8h1.1v0.8h-1.1v2.1H319.3z M319.3,557.5v-2.6c0-0.4,0-0.8,0-1.2h0
			c-0.2,0.5-0.4,0.8-0.6,1.2l-1.9,2.7v0H319.3z"/>
	</g>
	<g>
		<path d="M321.1,576.6v0.7l-3.4,7.1h-1.1l3.4-6.9v0h-3.8v-0.9H321.1z"/>
	</g>
	<g>
		<path d="M425.1,536.6v0.7l-3.4,7.1h-1.1l3.4-6.9v0h-3.8v-0.9H425.1z"/>
	</g>
	<g>
		<path d="M420.6,583.7c0.2,0,0.5,0,0.9,0c0.6-0.1,1.2-0.3,1.6-0.8c0.5-0.5,0.9-1.2,1-2.1h0c-0.4,0.5-1.1,0.8-1.8,0.8
			c-1.4,0-2.3-1.1-2.3-2.4c0-1.5,1.1-2.8,2.7-2.8s2.6,1.3,2.6,3.3c0,1.7-0.6,2.9-1.3,3.7c-0.6,0.6-1.4,0.9-2.3,1
			c-0.4,0.1-0.7,0.1-1,0.1V583.7z M421,579.2c0,1,0.6,1.7,1.5,1.7c0.7,0,1.3-0.3,1.5-0.8c0.1-0.1,0.1-0.2,0.1-0.4
			c0-1.3-0.5-2.4-1.6-2.4C421.6,577.3,421,578.1,421,579.2z"/>
	</g>
	<g>
		<path d="M423.3,517.4v-2.1h-3.6v-0.7l3.5-5h1.1v4.8h1.1v0.8h-1.1v2.1H423.3z M423.3,514.5v-2.6c0-0.4,0-0.8,0-1.2h0
			c-0.2,0.5-0.4,0.8-0.6,1.2l-1.9,2.7v0H423.3z"/>
	</g>
	<g>
		<path d="M520.9,433.4v-0.6l0.8-0.8c2-1.9,2.9-2.9,2.9-4.1c0-0.8-0.4-1.5-1.5-1.5c-0.7,0-1.3,0.4-1.7,0.7l-0.3-0.7
			c0.5-0.5,1.3-0.8,2.2-0.8c1.7,0,2.4,1.2,2.4,2.3c0,1.4-1,2.6-2.7,4.2l-0.6,0.6v0h3.5v0.9H520.9z"/>
		<path d="M527.3,432.2c0.3,0.2,1,0.5,1.7,0.5c1.4,0,1.8-0.9,1.8-1.5c0-1.1-1-1.6-2-1.6h-0.6v-0.8h0.6c0.8,0,1.7-0.4,1.7-1.3
			c0-0.6-0.4-1.2-1.4-1.2c-0.6,0-1.2,0.3-1.6,0.5l-0.3-0.8c0.4-0.3,1.2-0.6,2-0.6c1.5,0,2.2,0.9,2.2,1.9c0,0.8-0.5,1.5-1.4,1.8v0
			c1,0.2,1.7,0.9,1.7,2c0,1.2-1,2.3-2.8,2.3c-0.9,0-1.6-0.3-2-0.5L527.3,432.2z"/>
	</g>
	<g>
		<path d="M520.9,544.4v-0.6l0.8-0.8c2-1.9,2.9-2.9,2.9-4.1c0-0.8-0.4-1.5-1.5-1.5c-0.7,0-1.3,0.4-1.7,0.7l-0.3-0.7
			c0.5-0.5,1.3-0.8,2.2-0.8c1.7,0,2.4,1.2,2.4,2.3c0,1.4-1,2.6-2.7,4.2l-0.6,0.6v0h3.5v0.9H520.9z"/>
		<path d="M531.7,537.5h-3l-0.3,2c0.2,0,0.3,0,0.6,0c0.6,0,1.2,0.1,1.7,0.4c0.6,0.3,1.1,1,1.1,2c0,1.5-1.2,2.7-2.9,2.7
			c-0.9,0-1.6-0.2-1.9-0.5l0.3-0.8c0.3,0.2,1,0.4,1.7,0.4c1,0,1.8-0.6,1.8-1.7c0-1-0.7-1.7-2.2-1.7c-0.4,0-0.8,0-1.1,0.1l0.5-3.7
			h3.7V537.5z"/>
	</g>
	<g>
		<path d="M529.1,353.6v0.7l-3.4,7.1h-1.1l3.4-6.9v0h-3.8v-0.9H529.1z"/>
	</g>
	<g>
		<path d="M627.2,466.6L627.2,466.6l-1.4,0.7l-0.2-0.8l1.7-0.9h0.9v7.8h-1V466.6z"/>
		<path d="M634.3,473.4v-2.1h-3.6v-0.7l3.5-5h1.1v4.8h1.1v0.8h-1.1v2.1H634.3z M634.3,470.5v-2.6c0-0.4,0-0.8,0-1.2h0
			c-0.2,0.5-0.4,0.8-0.6,1.2l-1.9,2.7v0H634.3z"/>
	</g>
	<g>
		<path d="M624.9,559.4v-0.6l0.8-0.8c2-1.9,2.9-2.9,2.9-4.1c0-0.8-0.4-1.5-1.5-1.5c-0.7,0-1.3,0.4-1.7,0.7l-0.3-0.7
			c0.5-0.5,1.3-0.8,2.2-0.8c1.7,0,2.4,1.2,2.4,2.3c0,1.4-1,2.6-2.7,4.2l-0.6,0.6v0h3.5v0.9H624.9z"/>
		<path d="M633.4,552.6L633.4,552.6l-1.4,0.7l-0.2-0.8l1.7-0.9h0.9v7.8h-1V552.6z"/>
	</g>
	<g>
		<path d="M631.3,428.4v-2.1h-3.6v-0.7l3.5-5h1.1v4.8h1.1v0.8h-1.1v2.1H631.3z M631.3,425.5v-2.6c0-0.4,0-0.8,0-1.2h0
			c-0.2,0.5-0.4,0.8-0.6,1.2l-1.9,2.7v0H631.3z"/>
	</g>
	<g>
		<path d="M728.9,376.4v-0.6l0.8-0.8c2-1.9,2.9-2.9,2.9-4.1c0-0.8-0.4-1.5-1.5-1.5c-0.7,0-1.3,0.4-1.7,0.7l-0.3-0.7
			c0.5-0.5,1.3-0.8,2.2-0.8c1.7,0,2.4,1.2,2.4,2.3c0,1.4-1,2.6-2.7,4.2l-0.6,0.6v0h3.5v0.9H728.9z"/>
		<path d="M735,374.4c0-1,0.6-1.7,1.5-2.1l0,0c-0.9-0.4-1.2-1.1-1.2-1.8c0-1.2,1-2.1,2.4-2.1c1.5,0,2.3,0.9,2.3,1.9
			c0,0.7-0.3,1.4-1.3,1.8v0c1,0.4,1.6,1.1,1.6,2c0,1.4-1.2,2.3-2.7,2.3C736,376.5,735,375.6,735,374.4z M739.2,374.4
			c0-0.9-0.7-1.4-1.7-1.7c-0.9,0.3-1.4,0.9-1.4,1.6c0,0.8,0.6,1.5,1.6,1.5C738.6,375.8,739.2,375.2,739.2,374.4z M736.3,370.5
			c0,0.8,0.6,1.2,1.5,1.4c0.7-0.2,1.2-0.7,1.2-1.4c0-0.6-0.4-1.3-1.3-1.3C736.8,369.2,736.3,369.8,736.3,370.5z"/>
	</g>
	<g>
		<path d="M729.2,518.2c0.3,0.2,1,0.5,1.7,0.5c1.4,0,1.8-0.9,1.8-1.5c0-1.1-1-1.6-2-1.6h-0.6v-0.8h0.6c0.8,0,1.7-0.4,1.7-1.3
			c0-0.6-0.4-1.2-1.4-1.2c-0.6,0-1.2,0.3-1.6,0.5l-0.3-0.8c0.4-0.3,1.2-0.6,2-0.6c1.5,0,2.2,0.9,2.2,1.9c0,0.8-0.5,1.5-1.4,1.8v0
			c1,0.2,1.7,0.9,1.7,2c0,1.2-1,2.3-2.8,2.3c-0.9,0-1.6-0.3-2-0.5L729.2,518.2z"/>
		<path d="M738.3,519.4v-2.1h-3.6v-0.7l3.5-5h1.1v4.8h1.1v0.8h-1.1v2.1H738.3z M738.3,516.5v-2.6c0-0.4,0-0.8,0-1.2h0
			c-0.2,0.5-0.4,0.8-0.6,1.2l-1.9,2.7v0H738.3z"/>
	</g>
	<g>
		<path d="M737.1,288.6v0.7l-3.4,7.1h-1.1l3.4-6.9v0h-3.8v-0.9H737.1z"/>
	</g>
</g>
<g id="Capa_6" class="st6">
	<rect x="89.1" y="584.4" class="st16" width="45" height="15.7"/>
	<text transform="matrix(1 0 0 1 109.5127 590.0371)" class="st7 st17 st18">1</text>
	<rect x="89.1" y="591.4" class="st16" width="45" height="15.7"/>
	<text transform="matrix(1 0 0 1 109.5127 597.0371)" class="st7 st17 st18">3</text>
	<rect x="196.4" y="558.9" class="st16" width="34.3" height="12.4"/>
	<text transform="matrix(1 0 0 1 210.4684 567.4023)" class="st7 st17 st12">5</text>
	<rect x="196.4" y="581.9" class="st16" width="34.3" height="12.4"/>
	<text transform="matrix(1 0 0 1 210.4684 590.4023)" class="st7 st17 st12">5</text>
	<rect x="301.4" y="551.9" class="st16" width="34.3" height="12.4"/>
	<text transform="matrix(1 0 0 1 315.4684 560.4023)" class="st7 st17 st12">4</text>
	<rect x="301.4" y="575.9" class="st16" width="34.3" height="12.4"/>
	<text transform="matrix(1 0 0 1 315.4684 584.4023)" class="st7 st17 st12">7</text>
	<rect x="405.4" y="535.9" class="st16" width="34.3" height="12.4"/>
	<text transform="matrix(1 0 0 1 419.4684 544.4023)" class="st7 st17 st12">7</text>
	<rect x="405.4" y="575.9" class="st16" width="34.3" height="12.4"/>
	<text transform="matrix(1 0 0 1 419.4684 584.4023)" class="st7 st17 st12">9</text>
	<rect x="405.4" y="508.9" class="st16" width="34.3" height="12.4"/>
	<text transform="matrix(1 0 0 1 419.4684 517.4023)" class="st7 st17 st12">4</text>
	<rect x="509.4" y="424.9" class="st16" width="34.3" height="12.4"/>
	<text transform="matrix(1 0 0 1 520.3903 433.4023)" class="st7 st17 st12">23</text>
	<rect x="509.4" y="535.9" class="st16" width="34.3" height="12.4"/>
	<text transform="matrix(1 0 0 1 520.3903 544.4023)" class="st7 st17 st12">25</text>
	<rect x="509.4" y="352.9" class="st16" width="34.3" height="12.4"/>
	<text transform="matrix(1 0 0 1 523.4684 361.4023)" class="st7 st17 st12">7</text>
	<rect x="613.4" y="464.9" class="st16" width="34.3" height="12.4"/>
	<text transform="matrix(1 0 0 1 624.3903 473.4023)" class="st7 st17 st12">14</text>
	<rect x="613.4" y="550.9" class="st16" width="34.3" height="12.4"/>
	<text transform="matrix(1 0 0 1 624.3903 559.4023)" class="st7 st17 st12">21</text>
	<rect x="613.4" y="419.9" class="st16" width="34.3" height="12.4"/>
	<text transform="matrix(1 0 0 1 627.4684 428.4023)" class="st7 st17 st12">4</text>
	<rect x="717.4" y="367.9" class="st16" width="34.3" height="12.4"/>
	<text transform="matrix(1 0 0 1 728.3903 376.4023)" class="st7 st17 st12">28</text>
	<rect x="717.4" y="510.9" class="st16" width="34.3" height="12.4"/>
	<text transform="matrix(1 0 0 1 728.3903 519.4023)" class="st7 st17 st12">34</text>
	<rect x="717.4" y="287.9" class="st16" width="34.3" height="12.4"/>
	<text transform="matrix(1 0 0 1 731.4684 296.4023)" class="st7 st17 st12">7</text>
</g>
<g id="Capa_2">
	<g>
		<path d="M103.7,532.7v-0.6l0.8-0.8c2-1.9,2.9-2.9,2.9-4.1c0-0.8-0.4-1.5-1.5-1.5c-0.7,0-1.3,0.4-1.7,0.7l-0.3-0.7
			c0.5-0.5,1.3-0.8,2.2-0.8c1.7,0,2.4,1.2,2.4,2.3c0,1.4-1,2.6-2.7,4.2l-0.6,0.6v0h3.5v0.9H103.7z"/>
		<path d="M114.3,525.7c-0.2,0-0.5,0-0.8,0c-1.7,0.3-2.5,1.5-2.7,2.8h0c0.4-0.5,1-0.9,1.9-0.9c1.4,0,2.4,1,2.4,2.5
			c0,1.4-1,2.7-2.6,2.7c-1.7,0-2.8-1.3-2.8-3.3c0-1.5,0.6-2.7,1.3-3.5c0.6-0.6,1.5-1,2.5-1.2c0.3,0,0.6-0.1,0.8-0.1V525.7z
			 M114,530.2c0-1.1-0.6-1.8-1.6-1.8c-0.6,0-1.2,0.4-1.5,1c-0.1,0.1-0.1,0.3-0.1,0.5c0,1.3,0.6,2.2,1.7,2.2
			C113.4,532,114,531.3,114,530.2z"/>
	</g>
	<g>
		<path d="M208.7,480.9c0.3,0.2,1,0.5,1.7,0.5c1.4,0,1.8-0.9,1.8-1.5c0-1.1-1-1.6-2-1.6h-0.6v-0.8h0.6c0.8,0,1.7-0.4,1.7-1.3
			c0-0.6-0.4-1.2-1.4-1.2c-0.6,0-1.2,0.3-1.6,0.5l-0.3-0.8c0.4-0.3,1.2-0.6,2-0.6c1.5,0,2.2,0.9,2.2,1.9c0,0.8-0.5,1.5-1.4,1.8v0
			c1,0.2,1.7,0.9,1.7,2c0,1.2-1,2.3-2.8,2.3c-0.9,0-1.6-0.3-2-0.5L208.7,480.9z"/>
		<path d="M217.9,482.1v-2.1h-3.6v-0.7l3.5-5h1.1v4.8h1.1v0.8h-1.1v2.1H217.9z M217.9,479.1v-2.6c0-0.4,0-0.8,0-1.2h0
			c-0.2,0.5-0.4,0.8-0.6,1.2l-1.9,2.7v0H217.9z"/>
	</g>
	<g>
		<path d="M317.1,414.4h-3l-0.3,2c0.2,0,0.3,0,0.6,0c0.6,0,1.2,0.1,1.7,0.4c0.6,0.3,1.1,1,1.1,2c0,1.5-1.2,2.7-2.9,2.7
			c-0.9,0-1.6-0.2-1.9-0.5l0.3-0.8c0.3,0.2,1,0.4,1.7,0.4c1,0,1.8-0.6,1.8-1.7c0-1-0.7-1.7-2.2-1.7c-0.4,0-0.8,0-1.1,0.1l0.5-3.7
			h3.7V414.4z"/>
		<path d="M319.2,420.5c0.2,0,0.5,0,0.9,0c0.6-0.1,1.2-0.3,1.6-0.8c0.5-0.5,0.9-1.2,1-2.1h0c-0.4,0.5-1.1,0.8-1.8,0.8
			c-1.4,0-2.3-1.1-2.3-2.4c0-1.5,1.1-2.8,2.7-2.8s2.6,1.3,2.6,3.3c0,1.7-0.6,2.9-1.3,3.7c-0.6,0.6-1.4,0.9-2.3,1
			c-0.4,0.1-0.7,0.1-1,0.1V420.5z M319.6,416.1c0,1,0.6,1.7,1.5,1.7c0.7,0,1.3-0.3,1.5-0.8c0.1-0.1,0.1-0.2,0.1-0.4
			c0-1.3-0.5-2.4-1.6-2.4C320.2,414.2,319.6,415,319.6,416.1z"/>
	</g>
	<g>
		<path d="M419.9,405.8v-2.1h-3.6V403l3.5-5h1.1v4.8h1.1v0.8h-1.1v2.1H419.9z M419.9,402.9v-2.6c0-0.4,0-0.8,0-1.2h0
			c-0.2,0.5-0.4,0.8-0.6,1.2l-1.9,2.7v0H419.9z"/>
		<path d="M427.8,398v0.7l-3.4,7.1h-1.1l3.4-6.9v0h-3.8V398H427.8z"/>
	</g>
	<g>
		<path d="M524.8,240.1v-2.1h-3.6v-0.7l3.5-5h1.1v4.8h1.1v0.8h-1.1v2.1H524.8z M524.8,237.1v-2.6c0-0.4,0-0.8,0-1.2h0
			c-0.2,0.5-0.4,0.8-0.6,1.2l-1.9,2.7v0H524.8z"/>
		<path d="M527.9,238.9c0.3,0.2,1,0.5,1.7,0.5c1.4,0,1.8-0.9,1.8-1.5c0-1.1-1-1.6-2-1.6h-0.6v-0.8h0.6c0.8,0,1.7-0.4,1.7-1.3
			c0-0.6-0.4-1.2-1.4-1.2c-0.6,0-1.2,0.3-1.6,0.5l-0.3-0.8c0.4-0.3,1.2-0.6,2-0.6c1.5,0,2.2,0.9,2.2,1.9c0,0.8-0.5,1.5-1.4,1.8v0
			c1,0.2,1.7,0.9,1.7,2c0,1.2-1,2.3-2.8,2.3c-0.9,0-1.6-0.3-2-0.5L527.9,238.9z"/>
	</g>
	<g>
		<path d="M625.3,372.5v-0.6l0.8-0.8c2-1.9,2.9-2.9,2.9-4.1c0-0.8-0.4-1.5-1.5-1.5c-0.7,0-1.3,0.4-1.7,0.7l-0.3-0.7
			c0.5-0.5,1.3-0.8,2.2-0.8c1.7,0,2.4,1.2,2.4,2.3c0,1.4-1,2.6-2.7,4.2l-0.6,0.6v0h3.5v0.9H625.3z"/>
		<path d="M633.7,365.7L633.7,365.7l-1.4,0.7l-0.2-0.8l1.7-0.9h0.9v7.8h-1V365.7z"/>
	</g>
	<g>
		<path d="M734.1,157.1h-3l-0.3,2c0.2,0,0.3,0,0.6,0c0.6,0,1.2,0.1,1.7,0.4c0.6,0.3,1.1,1,1.1,2c0,1.5-1.2,2.7-2.9,2.7
			c-0.9,0-1.6-0.2-1.9-0.5l0.3-0.8c0.3,0.2,1,0.4,1.7,0.4c1,0,1.8-0.6,1.8-1.7c0-1-0.7-1.7-2.2-1.7c-0.4,0-0.8,0-1.1,0.1l0.5-3.7
			h3.7V157.1z"/>
		<path d="M737.9,157.1L737.9,157.1l-1.4,0.7l-0.2-0.8l1.7-0.9h0.9v7.8h-1V157.1z"/>
	</g>
	<line class="st19" x1="69.7" y1="462.7" x2="50.5" y2="462.7"/>
</g>
</svg>
