<?xml version="1.0" encoding="utf-8"?>
<!-- Generator: Adobe Illustrator 26.3.0, SVG Export Plug-In . SVG Version: 6.00 Build 0)  -->
<svg version="1.1" xmlns="http://www.w3.org/2000/svg" xmlns:xlink="http://www.w3.org/1999/xlink" x="0px" y="0px"
	 viewBox="0 0 1045.5 644.8" style="enable-background:new 0 0 1045.5 644.8;" xml:space="preserve">
<style type="text/css">
	.st0{fill:#FFFFFF;}
	.st1{fill:#AFBDC8;}
	.st2{fill:none;stroke:#000000;}
	.st3{font-family:'Helvetica';}
	.st4{font-size:10px;}
	.st5{enable-background:new    ;}
	.st6{fill:#7B7B7B;}
	.st7{fill:#5A5AFF;}
	.st8{fill:#07DB2E;}
	.st9{fill:#5AF2EA;}
</style>
<g id="Capa_5">
	<rect class="st0" width="1045.5" height="644.8"/>
</g>
<g id="Capa_1">
	<rect id="undefined_-_Reprueban" x="107" y="395.6" class="st1" width="48.1" height="208"/>
	
		<rect id="undefined_-_Reprueban_00000180364464198471724570000013461238996278383497_" x="212.2" y="331.6" class="st1" width="48.1" height="272"/>
	
		<rect id="undefined_-_Reprueban_00000076567615927559394810000017528506150877354677_" x="317.3" y="131.6" class="st1" width="48.1" height="472"/>
	
		<rect id="undefined_-_Reprueban_00000032637992834577426110000002748826587063934131_" x="422.5" y="227.6" class="st1" width="48.1" height="376"/>
	
		<rect id="undefined_-_Reprueban_00000047742775516721719900000015367870873932462998_" x="527.7" y="259.6" class="st1" width="48.1" height="344"/>
	
		<rect id="undefined_-_Reprueban_00000096759318067678206610000015966468506788114578_" x="632.8" y="435.6" class="st1" width="48.1" height="168"/>
	
		<rect id="undefined_-_Reprueban_00000052821967356413694600000013759211475736499383_" x="738" y="195.6" class="st1" width="48.1" height="408"/>
	<g id="xAxis" transform="translate(0,560)">
		<path class="st2" d="M50.5,44.1h745"/>
		<g transform="translate(57.025388404698724,0)">
			<line class="st2" x1="50" y1="43.6" x2="50" y2="49.6"/>
			<text transform="matrix(1 0 0 1 34.4312 59.6548)" class="st3 st4">2021-2</text>
		</g>
		<g transform="translate(162.18359226979914,0)">
			<line class="st2" x1="50" y1="43.6" x2="50" y2="49.6"/>
			<text transform="matrix(1 0 0 1 34.4312 59.6548)" class="st3 st4">2022-1</text>
		</g>
		<g transform="translate(267.34179613489954,0)">
			<line class="st2" x1="50" y1="43.6" x2="50" y2="49.6"/>
			<text transform="matrix(1 0 0 1 34.4312 59.6548)" class="st3 st4">2022-2</text>
		</g>
		<g transform="translate(372.5,0)">
			<line class="st2" x1="50" y1="43.6" x2="50" y2="49.6"/>
			<text transform="matrix(1 0 0 1 34.4312 59.6548)" class="st3 st4">2023-1</text>
		</g>
		<g transform="translate(477.6582038651004,0)">
			<line class="st2" x1="50" y1="43.6" x2="50" y2="49.6"/>
			<text transform="matrix(1 0 0 1 34.4312 59.6548)" class="st3 st4">2023-2</text>
		</g>
		<g transform="translate(582.8164077302008,0)">
			<line class="st2" x1="50" y1="43.6" x2="50" y2="49.6"/>
			<text transform="matrix(1 0 0 1 34.4312 59.6548)" class="st3 st4">2024-1</text>
		</g>
		<g transform="translate(687.9746115953012,0)">
			<line class="st2" x1="50" y1="43.6" x2="50" y2="49.6"/>
			<text transform="matrix(1 0 0 1 34.4312 59.6548)" class="st3 st4">2024-2</text>
		</g>
	</g>
	<g id="yAxis">
		<path class="st2" d="M50.5,604.1v-560"/>
		<g transform="translate(0,560.5)">
			<line class="st2" x1="50" y1="43.6" x2="44" y2="43.6"/>
			<text transform="matrix(1 0 0 1 35.4385 46.7548)" class="st3 st4">0</text>
		</g>
		<g transform="translate(0,520.5)">
			<line class="st2" x1="50" y1="43.6" x2="44" y2="43.6"/>
			<text transform="matrix(1 0 0 1 35.4385 46.7548)" class="st3 st4">5</text>
		</g>
		<g transform="translate(0,480.50000000000006)">
			<line class="st2" x1="50" y1="43.6" x2="44" y2="43.6"/>
			<text transform="matrix(1 0 0 1 29.877 46.7548)" class="st3 st4">10</text>
		</g>
		<g transform="translate(0,440.5)">
			<line class="st2" x1="50" y1="43.6" x2="44" y2="43.6"/>
			<text transform="matrix(1 0 0 1 29.877 46.7548)" class="st3 st4">15</text>
		</g>
		<g transform="translate(0,400.5)">
			<line class="st2" x1="50" y1="43.6" x2="44" y2="43.6"/>
			<text transform="matrix(1 0 0 1 29.877 46.7548)" class="st3 st4">20</text>
		</g>
		<g transform="translate(0,360.49999999999994)">
			<line class="st2" x1="50" y1="43.6" x2="44" y2="43.6"/>
			<text transform="matrix(1 0 0 1 29.877 46.7548)" class="st3 st4">25</text>
		</g>
		<g transform="translate(0,320.5)">
			<line class="st2" x1="50" y1="43.6" x2="44" y2="43.6"/>
			<text transform="matrix(1 0 0 1 29.877 46.7548)" class="st3 st4">30</text>
		</g>
		<g transform="translate(0,280.5)">
			<line class="st2" x1="50" y1="43.6" x2="44" y2="43.6"/>
			<text transform="matrix(1 0 0 1 29.877 46.7548)" class="st3 st4">35</text>
		</g>
		<g transform="translate(0,240.50000000000003)">
			<line class="st2" x1="50" y1="43.6" x2="44" y2="43.6"/>
			<text transform="matrix(1 0 0 1 29.877 46.7548)" class="st3 st4">40</text>
		</g>
		<g transform="translate(0,200.49999999999997)">
			<line class="st2" x1="50" y1="43.6" x2="44" y2="43.6"/>
			<text transform="matrix(1 0 0 1 29.877 46.7548)" class="st3 st4">45</text>
		</g>
		<g transform="translate(0,160.5)">
			<line class="st2" x1="50" y1="43.6" x2="44" y2="43.6"/>
			<text transform="matrix(1 0 0 1 29.877 46.7548)" class="st3 st4">50</text>
		</g>
		<g transform="translate(0,120.50000000000001)">
			<line class="st2" x1="50" y1="43.6" x2="44" y2="43.6"/>
			<text transform="matrix(1 0 0 1 29.877 46.7548)" class="st3 st4">55</text>
		</g>
		<g transform="translate(0,80.50000000000003)">
			<line class="st2" x1="50" y1="43.6" x2="44" y2="43.6"/>
			<text transform="matrix(1 0 0 1 29.877 46.7548)" class="st3 st4">60</text>
		</g>
		<g transform="translate(0,40.499999999999986)">
			<line class="st2" x1="50" y1="43.6" x2="44" y2="43.6"/>
			<text transform="matrix(1 0 0 1 29.877 46.7548)" class="st3 st4">65</text>
		</g>
		<g transform="translate(0,0.5)">
			<line class="st2" x1="50" y1="43.6" x2="44" y2="43.6"/>
			<text transform="matrix(1 0 0 1 29.877 46.7547)" class="st3 st4">70</text>
		</g>
	</g>
	<g class="st5">
		<path class="st6" d="M807.7,603.8l1.7-0.2c0.1,0.6,0.3,1,0.6,1.2s0.7,0.4,1.3,0.4c0.6,0,1-0.1,1.3-0.4s0.4-0.5,0.4-0.8
			c0-0.2-0.1-0.4-0.2-0.5s-0.3-0.3-0.6-0.4c-0.2-0.1-0.7-0.2-1.4-0.4c-0.9-0.2-1.6-0.5-2-0.8c-0.5-0.5-0.8-1-0.8-1.7
			c0-0.4,0.1-0.8,0.4-1.2s0.6-0.7,1.1-0.9s1-0.3,1.7-0.3c1.1,0,1.9,0.2,2.4,0.7s0.8,1.1,0.9,1.9l-1.7,0.1c-0.1-0.4-0.2-0.8-0.5-1
			s-0.6-0.3-1.1-0.3c-0.5,0-0.9,0.1-1.2,0.3c-0.2,0.1-0.3,0.3-0.3,0.5c0,0.2,0.1,0.4,0.3,0.5c0.2,0.2,0.8,0.4,1.6,0.6
			s1.5,0.4,1.9,0.6s0.7,0.5,0.9,0.9s0.3,0.8,0.3,1.4c0,0.5-0.1,1-0.4,1.4s-0.7,0.7-1.2,1s-1.1,0.3-1.9,0.3c-1.1,0-1.9-0.3-2.5-0.8
			S807.8,604.7,807.7,603.8z"/>
		<path class="st6" d="M819.7,604.6l1.6,0.3c-0.2,0.6-0.5,1.1-1,1.4s-1,0.5-1.7,0.5c-1.1,0-1.9-0.4-2.4-1.1
			c-0.4-0.6-0.6-1.3-0.6-2.1c0-1,0.3-1.8,0.8-2.4s1.2-0.9,2-0.9c0.9,0,1.7,0.3,2.2,0.9s0.8,1.5,0.8,2.8h-4.1c0,0.5,0.1,0.9,0.4,1.1
			s0.6,0.4,0.9,0.4c0.3,0,0.5-0.1,0.7-0.2S819.6,604.9,819.7,604.6z M819.8,602.9c0-0.5-0.1-0.8-0.4-1.1s-0.5-0.4-0.9-0.4
			c-0.4,0-0.7,0.1-0.9,0.4s-0.3,0.6-0.3,1.1H819.8z"/>
		<path class="st6" d="M822.7,600.3h1.5v0.8c0.5-0.7,1.2-1,1.9-1c0.4,0,0.7,0.1,1,0.2s0.5,0.4,0.7,0.7c0.3-0.3,0.6-0.6,0.9-0.7
			s0.7-0.2,1-0.2c0.5,0,0.8,0.1,1.2,0.3s0.6,0.5,0.7,0.8c0.1,0.3,0.2,0.7,0.2,1.3v4h-1.6V603c0-0.6-0.1-1-0.2-1.2
			c-0.2-0.2-0.4-0.4-0.7-0.4c-0.2,0-0.4,0.1-0.7,0.2s-0.3,0.3-0.4,0.6s-0.1,0.7-0.1,1.3v3h-1.6v-3.4c0-0.6,0-1-0.1-1.2
			s-0.1-0.3-0.3-0.4s-0.3-0.1-0.5-0.1c-0.3,0-0.5,0.1-0.7,0.2s-0.3,0.3-0.4,0.6s-0.1,0.7-0.1,1.3v3h-1.6V600.3z"/>
		<path class="st6" d="M837.1,604.6l1.6,0.3c-0.2,0.6-0.5,1.1-1,1.4s-1,0.5-1.7,0.5c-1.1,0-1.9-0.4-2.4-1.1
			c-0.4-0.6-0.6-1.3-0.6-2.1c0-1,0.3-1.8,0.8-2.4s1.2-0.9,2-0.9c0.9,0,1.7,0.3,2.2,0.9s0.8,1.5,0.8,2.8h-4.1c0,0.5,0.1,0.9,0.4,1.1
			s0.6,0.4,0.9,0.4c0.3,0,0.5-0.1,0.7-0.2S837,604.9,837.1,604.6z M837.2,602.9c0-0.5-0.1-0.8-0.4-1.1s-0.5-0.4-0.9-0.4
			c-0.4,0-0.7,0.1-0.9,0.4s-0.3,0.6-0.3,1.1H837.2z"/>
		<path class="st6" d="M839.6,604.8l1.7-0.3c0.1,0.3,0.2,0.6,0.4,0.7s0.5,0.2,0.9,0.2c0.4,0,0.7-0.1,1-0.2c0.1-0.1,0.2-0.3,0.2-0.4
			c0-0.1,0-0.2-0.1-0.3c-0.1-0.1-0.3-0.2-0.6-0.2c-1.3-0.3-2.2-0.6-2.5-0.8c-0.5-0.3-0.7-0.8-0.7-1.4c0-0.5,0.2-1,0.6-1.4
			s1.1-0.6,2-0.6c0.9,0,1.5,0.1,1.9,0.4s0.7,0.7,0.9,1.2l-1.6,0.3c-0.1-0.2-0.2-0.4-0.4-0.6s-0.5-0.2-0.8-0.2
			c-0.4,0-0.7,0.1-0.9,0.2c-0.1,0.1-0.2,0.2-0.2,0.3c0,0.1,0.1,0.2,0.2,0.3c0.1,0.1,0.7,0.3,1.5,0.5s1.5,0.4,1.8,0.7
			c0.3,0.3,0.5,0.7,0.5,1.2c0,0.6-0.2,1.1-0.7,1.5s-1.2,0.6-2.1,0.6c-0.8,0-1.5-0.2-2-0.5S839.7,605.4,839.6,604.8z"/>
		<path class="st6" d="M849.7,600.3v1.3h-1.1v2.5c0,0.5,0,0.8,0,0.9s0.1,0.2,0.1,0.2s0.2,0.1,0.3,0.1c0.2,0,0.4-0.1,0.7-0.2l0.1,1.3
			c-0.4,0.2-0.8,0.2-1.3,0.2c-0.3,0-0.6,0-0.8-0.1s-0.4-0.2-0.5-0.4s-0.2-0.4-0.2-0.6c0-0.2-0.1-0.6-0.1-1.2v-2.7h-0.8v-1.3h0.8
			v-1.2l1.7-1v2.2H849.7z"/>
		<path class="st6" d="M852.4,606.6h-1.6v-6.2h1.5v0.9c0.3-0.4,0.5-0.7,0.7-0.8s0.4-0.2,0.7-0.2c0.4,0,0.7,0.1,1.1,0.3l-0.5,1.4
			c-0.3-0.2-0.5-0.3-0.8-0.3c-0.2,0-0.4,0.1-0.6,0.2s-0.3,0.4-0.4,0.7s-0.1,1-0.1,2.1V606.6z"/>
		<path class="st6" d="M859.1,604.6l1.6,0.3c-0.2,0.6-0.5,1.1-1,1.4s-1,0.5-1.7,0.5c-1.1,0-1.9-0.4-2.4-1.1
			c-0.4-0.6-0.6-1.3-0.6-2.1c0-1,0.3-1.8,0.8-2.4s1.2-0.9,2-0.9c0.9,0,1.7,0.3,2.2,0.9s0.8,1.5,0.8,2.8h-4.1c0,0.5,0.1,0.9,0.4,1.1
			s0.6,0.4,0.9,0.4c0.3,0,0.5-0.1,0.7-0.2S859,604.9,859.1,604.6z M859.2,602.9c0-0.5-0.1-0.8-0.4-1.1s-0.5-0.4-0.9-0.4
			c-0.4,0-0.7,0.1-0.9,0.4s-0.3,0.6-0.3,1.1H859.2z"/>
		<path class="st6" d="M861.6,604.8l1.7-0.3c0.1,0.3,0.2,0.6,0.4,0.7s0.5,0.2,0.9,0.2c0.4,0,0.7-0.1,1-0.2c0.1-0.1,0.2-0.3,0.2-0.4
			c0-0.1,0-0.2-0.1-0.3c-0.1-0.1-0.3-0.2-0.6-0.2c-1.3-0.3-2.2-0.6-2.5-0.8c-0.5-0.3-0.7-0.8-0.7-1.4c0-0.5,0.2-1,0.6-1.4
			s1.1-0.6,2-0.6c0.9,0,1.5,0.1,1.9,0.4s0.7,0.7,0.9,1.2l-1.6,0.3c-0.1-0.2-0.2-0.4-0.4-0.6s-0.5-0.2-0.8-0.2
			c-0.4,0-0.7,0.1-0.9,0.2c-0.1,0.1-0.2,0.2-0.2,0.3c0,0.1,0.1,0.2,0.2,0.3c0.1,0.1,0.7,0.3,1.5,0.5s1.5,0.4,1.8,0.7
			c0.3,0.3,0.5,0.7,0.5,1.2c0,0.6-0.2,1.1-0.7,1.5s-1.2,0.6-2.1,0.6c-0.8,0-1.5-0.2-2-0.5S861.7,605.4,861.6,604.8z"/>
	</g>
	<g class="st5">
		<path class="st6" d="M25.7,28.4v-8.6h1.7v8.6H25.7z"/>
		<path class="st6" d="M34.7,28.4H33v-3.2c0-0.7,0-1.1-0.1-1.3s-0.2-0.4-0.3-0.5s-0.3-0.2-0.6-0.2c-0.3,0-0.5,0.1-0.8,0.2
			s-0.4,0.4-0.5,0.6s-0.1,0.7-0.1,1.4v2.8H29v-6.2h1.5v0.9c0.5-0.7,1.2-1.1,2.1-1.1c0.4,0,0.7,0.1,1,0.2s0.5,0.3,0.7,0.5
			s0.3,0.4,0.3,0.7s0.1,0.6,0.1,1.1V28.4z"/>
		<path class="st6" d="M35.8,26.6l1.7-0.3c0.1,0.3,0.2,0.6,0.4,0.7s0.5,0.2,0.9,0.2c0.4,0,0.7-0.1,1-0.2c0.1-0.1,0.2-0.3,0.2-0.4
			c0-0.1,0-0.2-0.1-0.3c-0.1-0.1-0.3-0.2-0.6-0.2c-1.3-0.3-2.2-0.6-2.5-0.8C36.3,25,36,24.5,36,23.9c0-0.5,0.2-1,0.6-1.4
			s1.1-0.6,2-0.6c0.9,0,1.5,0.1,1.9,0.4s0.7,0.7,0.9,1.2l-1.6,0.3c-0.1-0.2-0.2-0.4-0.4-0.6s-0.5-0.2-0.8-0.2
			c-0.4,0-0.7,0.1-0.9,0.2c-0.1,0.1-0.2,0.2-0.2,0.3c0,0.1,0.1,0.2,0.2,0.3c0.1,0.1,0.7,0.3,1.5,0.5s1.5,0.4,1.8,0.7
			c0.3,0.3,0.5,0.7,0.5,1.2c0,0.6-0.2,1.1-0.7,1.5s-1.2,0.6-2.1,0.6c-0.8,0-1.5-0.2-2-0.5S35.9,27.2,35.8,26.6z"/>
		<path class="st6" d="M48.5,24l-1.6,0.3c-0.1-0.3-0.2-0.6-0.4-0.7s-0.4-0.2-0.8-0.2c-0.4,0-0.7,0.1-1,0.4s-0.4,0.8-0.4,1.4
			c0,0.7,0.1,1.3,0.4,1.6s0.6,0.5,1,0.5c0.3,0,0.6-0.1,0.8-0.3s0.3-0.5,0.4-0.9l1.6,0.3c-0.2,0.7-0.5,1.3-1,1.7s-1.1,0.6-1.9,0.6
			c-0.9,0-1.6-0.3-2.2-0.9s-0.8-1.4-0.8-2.4c0-1,0.3-1.8,0.8-2.4s1.3-0.9,2.2-0.9c0.8,0,1.4,0.2,1.8,0.5S48.3,23.3,48.5,24z"/>
		<path class="st6" d="M51.3,28.4h-1.6v-6.2h1.5V23c0.3-0.4,0.5-0.7,0.7-0.8s0.4-0.2,0.7-0.2c0.4,0,0.7,0.1,1.1,0.3l-0.5,1.4
			c-0.3-0.2-0.5-0.3-0.8-0.3c-0.2,0-0.4,0.1-0.6,0.2s-0.3,0.4-0.4,0.7s-0.1,1-0.1,2.1V28.4z"/>
		<path class="st6" d="M54.4,21.3v-1.5H56v1.5H54.4z M54.4,28.4v-6.2H56v6.2H54.4z"/>
		<path class="st6" d="M60.6,22.2v1.3h-1.1V26c0,0.5,0,0.8,0,0.9s0.1,0.2,0.1,0.2s0.2,0.1,0.3,0.1c0.2,0,0.4-0.1,0.7-0.2l0.1,1.3
			c-0.4,0.2-0.8,0.2-1.3,0.2c-0.3,0-0.6,0-0.8-0.1s-0.4-0.2-0.5-0.4s-0.2-0.4-0.2-0.6c0-0.2-0.1-0.6-0.1-1.2v-2.7H57v-1.3h0.8v-1.2
			l1.7-1v2.2H60.6z"/>
		<path class="st6" d="M65.3,26.4l1.6,0.3c-0.2,0.6-0.5,1.1-1,1.4s-1,0.5-1.7,0.5c-1.1,0-1.9-0.4-2.4-1.1c-0.4-0.6-0.6-1.3-0.6-2.1
			c0-1,0.3-1.8,0.8-2.4s1.2-0.9,2-0.9c0.9,0,1.7,0.3,2.2,0.9s0.8,1.5,0.8,2.8h-4.1c0,0.5,0.1,0.9,0.4,1.1s0.6,0.4,0.9,0.4
			c0.3,0,0.5-0.1,0.7-0.2S65.2,26.7,65.3,26.4z M65.4,24.7c0-0.5-0.1-0.8-0.4-1.1s-0.5-0.4-0.9-0.4c-0.4,0-0.7,0.1-0.9,0.4
			s-0.3,0.6-0.3,1.1H65.4z"/>
		<path class="st6" d="M67.8,26.6l1.7-0.3c0.1,0.3,0.2,0.6,0.4,0.7s0.5,0.2,0.9,0.2c0.4,0,0.7-0.1,1-0.2c0.1-0.1,0.2-0.3,0.2-0.4
			c0-0.1,0-0.2-0.1-0.3c-0.1-0.1-0.3-0.2-0.6-0.2c-1.3-0.3-2.2-0.6-2.5-0.8C68.3,25,68,24.5,68,23.9c0-0.5,0.2-1,0.6-1.4
			s1.1-0.6,2-0.6c0.9,0,1.5,0.1,1.9,0.4s0.7,0.7,0.9,1.2l-1.6,0.3c-0.1-0.2-0.2-0.4-0.4-0.6s-0.5-0.2-0.8-0.2
			c-0.4,0-0.7,0.1-0.9,0.2c-0.1,0.1-0.2,0.2-0.2,0.3c0,0.1,0.1,0.2,0.2,0.3c0.1,0.1,0.7,0.3,1.5,0.5s1.5,0.4,1.8,0.7
			c0.3,0.3,0.5,0.7,0.5,1.2c0,0.6-0.2,1.1-0.7,1.5s-1.2,0.6-2.1,0.6c-0.8,0-1.5-0.2-2-0.5S68,27.2,67.8,26.6z"/>
	</g>
	<rect x="880" y="54" class="st7" width="15" height="15"/>
	<rect x="880" y="115" class="st1" width="15" height="15"/>
	<g class="st5">
		<path d="M886.4,34.8l1.7,0.5c-0.3,0.9-0.7,1.6-1.3,2.1s-1.4,0.7-2.3,0.7c-1.1,0-2.1-0.4-2.8-1.2s-1.1-1.8-1.1-3.2s0.4-2.5,1.1-3.3
			s1.7-1.2,2.9-1.2c1.1,0,1.9,0.3,2.6,0.9c0.4,0.4,0.7,0.9,0.9,1.6l-1.7,0.4c-0.1-0.4-0.3-0.8-0.6-1.1s-0.7-0.4-1.2-0.4
			c-0.6,0-1.2,0.2-1.5,0.7s-0.6,1.2-0.6,2.2c0,1.1,0.2,1.9,0.6,2.3s0.9,0.7,1.5,0.7c0.5,0,0.9-0.1,1.2-0.4S886.2,35.5,886.4,34.8z"
			/>
		<path d="M889.1,34.8c0-0.5,0.1-1.1,0.4-1.6s0.7-0.9,1.1-1.2s1-0.4,1.7-0.4c0.9,0,1.7,0.3,2.3,0.9c0.6,0.6,0.9,1.4,0.9,2.3
			c0,0.9-0.3,1.7-0.9,2.3s-1.4,0.9-2.3,0.9c-0.6,0-1.1-0.1-1.6-0.4s-0.9-0.6-1.2-1.1S889.1,35.5,889.1,34.8z M890.8,34.9
			c0,0.6,0.1,1.1,0.4,1.4s0.7,0.5,1.1,0.5s0.8-0.2,1.1-0.5s0.4-0.8,0.4-1.4c0-0.6-0.1-1.1-0.4-1.4s-0.7-0.5-1.1-0.5
			s-0.8,0.2-1.1,0.5S890.8,34.3,890.8,34.9z"/>
		<path d="M896.9,38v-8.6h1.6V38H896.9z"/>
		<path d="M899.8,34.8c0-0.5,0.1-1.1,0.4-1.6s0.7-0.9,1.1-1.2s1-0.4,1.7-0.4c0.9,0,1.7,0.3,2.3,0.9c0.6,0.6,0.9,1.4,0.9,2.3
			c0,0.9-0.3,1.7-0.9,2.3S903.9,38,903,38c-0.6,0-1.1-0.1-1.6-0.4s-0.9-0.6-1.2-1.1S899.8,35.5,899.8,34.8z M901.5,34.9
			c0,0.6,0.1,1.1,0.4,1.4s0.7,0.5,1.1,0.5s0.8-0.2,1.1-0.5s0.4-0.8,0.4-1.4c0-0.6-0.1-1.1-0.4-1.4S903.5,33,903,33s-0.8,0.2-1.1,0.5
			S901.5,34.3,901.5,34.9z"/>
		<path d="M909.1,38h-1.6v-6.2h1.5v0.9c0.3-0.4,0.5-0.7,0.7-0.8s0.4-0.2,0.7-0.2c0.4,0,0.7,0.1,1.1,0.3l-0.5,1.4
			c-0.3-0.2-0.5-0.3-0.8-0.3c-0.2,0-0.4,0.1-0.6,0.2s-0.3,0.4-0.4,0.7s-0.1,1-0.1,2.1L909.1,38L909.1,38z"/>
		<path d="M915.8,36l1.6,0.3c-0.2,0.6-0.5,1.1-1,1.4s-1,0.5-1.7,0.5c-1.1,0-1.9-0.4-2.4-1.1c-0.4-0.6-0.6-1.3-0.6-2.1
			c0-1,0.3-1.8,0.8-2.4s1.2-0.9,2-0.9c0.9,0,1.7,0.3,2.2,0.9s0.8,1.5,0.8,2.8h-4.1c0,0.5,0.1,0.9,0.4,1.1s0.6,0.4,0.9,0.4
			c0.3,0,0.5-0.1,0.7-0.2S915.7,36.3,915.8,36z M915.9,34.4c0-0.5-0.1-0.8-0.4-1.1s-0.5-0.4-0.9-0.4s-0.7,0.1-0.9,0.4
			s-0.3,0.6-0.3,1.1H915.9z"/>
		<path d="M918.3,36.2l1.7-0.3c0.1,0.3,0.2,0.6,0.4,0.7s0.5,0.2,0.9,0.2s0.7-0.1,1-0.2c0.1-0.1,0.2-0.3,0.2-0.4c0-0.1,0-0.2-0.1-0.3
			s-0.3-0.2-0.6-0.2c-1.3-0.3-2.2-0.6-2.5-0.8c-0.5-0.3-0.7-0.8-0.7-1.4c0-0.5,0.2-1,0.6-1.4s1.1-0.6,2-0.6s1.5,0.1,1.9,0.4
			s0.7,0.7,0.9,1.2l-1.6,0.3c-0.1-0.2-0.2-0.4-0.4-0.6s-0.5-0.2-0.8-0.2c-0.4,0-0.7,0.1-0.9,0.2c-0.1,0.1-0.2,0.2-0.2,0.3
			s0.1,0.2,0.2,0.3c0.1,0.1,0.7,0.3,1.5,0.5s1.5,0.4,1.8,0.7s0.5,0.7,0.5,1.2c0,0.6-0.2,1.1-0.7,1.5s-1.2,0.6-2.1,0.6
			c-0.8,0-1.5-0.2-2-0.5S918.4,36.8,918.3,36.2z"/>
	</g>
	<rect x="880" y="74" class="st8" width="15" height="15"/>
	<rect x="880" y="94" class="st9" width="15" height="15"/>
	<g>
		<path d="M901.4,62l-0.8,2.5h-1.1l2.7-8.1h1.3l2.8,8.1h-1.1l-0.9-2.5H901.4z M904.1,61.2l-0.8-2.3c-0.2-0.5-0.3-1-0.4-1.5l0,0
			c-0.1,0.5-0.3,1-0.4,1.5l-0.8,2.3H904.1z"/>
		<path d="M907.4,60.7c0-0.7,0-1.3,0-1.9h0.9v1l0,0c0.4-0.7,1.1-1.1,2.1-1.1c1.4,0,2.5,1.2,2.5,3c0,2.1-1.3,3.1-2.6,3.1
			c-0.8,0-1.4-0.3-1.8-0.9l0,0v3.2h-1v-6.4H907.4z M908.4,62.2c0,0.2,0,0.3,0,0.4c0.2,0.7,0.8,1.2,1.6,1.2c1.1,0,1.8-0.9,1.8-2.2
			c0-1.2-0.6-2.2-1.7-2.2c-0.7,0-1.4,0.5-1.6,1.3c0,0.1-0.1,0.3-0.1,0.4V62.2z"/>
		<path d="M914.2,60.6c0-0.7,0-1.3,0-1.8h0.9v1.1l0,0c0.3-0.8,0.9-1.3,1.6-1.3c0.1,0,0.2,0,0.3,0v1c-0.1,0-0.2,0-0.4,0
			c-0.7,0-1.3,0.6-1.4,1.4c0,0.1,0,0.3,0,0.5v3.1h-1L914.2,60.6L914.2,60.6z"/>
		<path d="M923,63c0,0.6,0,1.1,0,1.6h-0.9l-0.1-0.9l0,0c-0.3,0.5-0.9,1.1-1.9,1.1c-0.9,0-2-0.5-2-2.5v-3.4h1.1V62
			c0,1.1,0.3,1.8,1.3,1.8c0.7,0,1.2-0.5,1.4-1c0.1-0.2,0.1-0.3,0.1-0.5v-3.6h1.1L923,63L923,63z"/>
		<path d="M925.4,61.9c0,1.4,0.9,2,2,2c0.8,0,1.2-0.1,1.6-0.3l0.2,0.8c-0.4,0.2-1,0.4-1.9,0.4c-1.8,0-2.9-1.2-2.9-2.9s1-3.1,2.7-3.1
			c1.9,0,2.4,1.7,2.4,2.7c0,0.2,0,0.4,0,0.5h-4.1V61.9z M928.5,61.1c0-0.7-0.3-1.7-1.5-1.7c-1.1,0-1.5,1-1.6,1.7H928.5z"/>
		<path d="M930.7,64.6c0-0.4,0-1,0-1.5v-7h1v3.6l0,0c0.4-0.6,1-1.1,2-1.1c1.4,0,2.5,1.2,2.4,3c0,2.1-1.3,3.1-2.6,3.1
			c-0.8,0-1.5-0.3-1.9-1.1l0,0v1H930.7z M931.8,62.2c0,0.1,0,0.3,0,0.4c0.2,0.7,0.8,1.2,1.6,1.2c1.1,0,1.8-0.9,1.8-2.2
			c0-1.2-0.6-2.2-1.7-2.2c-0.7,0-1.4,0.5-1.6,1.3c0,0.1-0.1,0.3-0.1,0.4V62.2z"/>
		<path d="M940.8,64.6l-0.1-0.7l0,0c-0.3,0.5-0.9,0.9-1.8,0.9c-1.2,0-1.8-0.8-1.8-1.7c0-1.4,1.2-2.2,3.5-2.2v-0.1
			c0-0.5-0.1-1.3-1.3-1.3c-0.5,0-1.1,0.2-1.5,0.4l-0.2-0.7c0.5-0.3,1.2-0.5,1.9-0.5c1.8,0,2.2,1.2,2.2,2.4v2.2c0,0.5,0,1,0.1,1.4
			L940.8,64.6L940.8,64.6z M940.7,61.6c-1.2,0-2.5,0.2-2.5,1.3c0,0.7,0.5,1,1,1c0.8,0,1.2-0.5,1.4-1c0-0.1,0.1-0.2,0.1-0.3V61.6z"/>
		<path d="M943.4,60.3c0-0.6,0-1.1,0-1.6h0.9l0.1,1l0,0c0.3-0.6,1-1.1,1.9-1.1c0.8,0,2.1,0.5,2.1,2.5v3.5h-1.1v-3.3
			c0-0.9-0.3-1.7-1.3-1.7c-0.7,0-1.2,0.5-1.4,1.1c0,0.1-0.1,0.3-0.1,0.5v3.5h-1.1L943.4,60.3L943.4,60.3z"/>
		<path d="M954.9,56.2c-0.9,1.2-1.5,2.7-1.5,4.9c0,2.1,0.7,3.7,1.5,4.9h-0.8c-0.8-1-1.6-2.5-1.6-4.9s0.8-3.9,1.6-4.9
			C954.1,56.2,954.9,56.2,954.9,56.2z"/>
		<path d="M958.4,64.6l-2.6-8.1h1.1l1.3,4c0.3,1.1,0.6,2.1,0.9,3l0,0c0.2-0.9,0.6-2,0.9-3l1.4-4h1.1l-2.9,8.1H958.4z"/>
		<path d="M965.6,60.9v0.8h-3v-0.8H965.6z"/>
		<path d="M973.7,61c-0.1-1.1-0.1-2.5-0.1-3.5l0,0c-0.3,0.9-0.6,2-1,3.1l-1.4,3.9h-0.8l-1.3-3.9c-0.4-1.1-0.7-2.2-0.9-3.1l0,0
			c0,1-0.1,2.4-0.2,3.6l-0.2,3.5h-1l0.6-8.1h1.3l1.4,3.9c0.3,1,0.6,1.9,0.8,2.7l0,0c0.2-0.8,0.5-1.7,0.9-2.7l1.4-3.9h1.3l0.5,8.1h-1
			L973.7,61z"/>
		<path d="M975.8,66c0.9-1.2,1.5-2.7,1.5-4.9c0-2.1-0.6-3.7-1.5-4.9h0.8c0.8,1,1.6,2.5,1.6,4.9s-0.8,3.9-1.6,4.9H975.8z"/>
	</g>
	<g>
		<path d="M901.4,82l-0.8,2.5h-1.1l2.7-8.1h1.3l2.8,8.1h-1.1l-0.9-2.5H901.4z M904.1,81.2l-0.8-2.3c-0.2-0.5-0.3-1-0.4-1.5l0,0
			c-0.1,0.5-0.3,1-0.4,1.5l-0.8,2.3H904.1z"/>
		<path d="M907.4,80.7c0-0.7,0-1.3,0-1.9h0.9v1l0,0c0.4-0.7,1.1-1.1,2.1-1.1c1.4,0,2.5,1.2,2.5,3c0,2.1-1.3,3.1-2.6,3.1
			c-0.8,0-1.4-0.3-1.8-0.9l0,0v3.2h-1v-6.4H907.4z M908.4,82.2c0,0.2,0,0.3,0,0.4c0.2,0.7,0.8,1.2,1.6,1.2c1.1,0,1.8-0.9,1.8-2.2
			c0-1.2-0.6-2.2-1.7-2.2c-0.7,0-1.4,0.5-1.6,1.3c0,0.1-0.1,0.3-0.1,0.4V82.2z"/>
		<path d="M914.2,80.6c0-0.7,0-1.3,0-1.8h0.9v1.1l0,0c0.3-0.8,0.9-1.3,1.6-1.3c0.1,0,0.2,0,0.3,0v1c-0.1,0-0.2,0-0.4,0
			c-0.7,0-1.3,0.6-1.4,1.4c0,0.1,0,0.3,0,0.5v3.1h-1L914.2,80.6L914.2,80.6z"/>
		<path d="M923,83c0,0.6,0,1.1,0,1.6h-0.9l-0.1-0.9l0,0c-0.3,0.5-0.9,1.1-1.9,1.1c-0.9,0-2-0.5-2-2.5v-3.4h1.1V82
			c0,1.1,0.3,1.8,1.3,1.8c0.7,0,1.2-0.5,1.4-1c0.1-0.2,0.1-0.3,0.1-0.5v-3.6h1.1L923,83L923,83z"/>
		<path d="M925.4,81.9c0,1.4,0.9,2,2,2c0.8,0,1.2-0.1,1.6-0.3l0.2,0.8c-0.4,0.2-1,0.4-1.9,0.4c-1.8,0-2.9-1.2-2.9-2.9s1-3.1,2.7-3.1
			c1.9,0,2.4,1.7,2.4,2.7c0,0.2,0,0.4,0,0.5L925.4,81.9L925.4,81.9z M928.5,81.1c0-0.7-0.3-1.7-1.5-1.7c-1.1,0-1.5,1-1.6,1.7H928.5z
			"/>
		<path d="M930.7,84.6c0-0.4,0-1,0-1.5v-7h1v3.6l0,0c0.4-0.6,1-1.1,2-1.1c1.4,0,2.5,1.2,2.4,3c0,2.1-1.3,3.1-2.6,3.1
			c-0.8,0-1.5-0.3-1.9-1.1l0,0v1H930.7z M931.8,82.2c0,0.1,0,0.3,0,0.4c0.2,0.7,0.8,1.2,1.6,1.2c1.1,0,1.8-0.9,1.8-2.2
			c0-1.2-0.6-2.2-1.7-2.2c-0.7,0-1.4,0.5-1.6,1.3c0,0.1-0.1,0.3-0.1,0.4V82.2z"/>
		<path d="M940.8,84.6l-0.1-0.7l0,0c-0.3,0.5-0.9,0.9-1.8,0.9c-1.2,0-1.8-0.8-1.8-1.7c0-1.4,1.2-2.2,3.5-2.2v-0.1
			c0-0.5-0.1-1.3-1.3-1.3c-0.5,0-1.1,0.2-1.5,0.4l-0.2-0.7c0.5-0.3,1.2-0.5,1.9-0.5c1.8,0,2.2,1.2,2.2,2.4v2.2c0,0.5,0,1,0.1,1.4h-1
			V84.6z M940.7,81.6c-1.2,0-2.5,0.2-2.5,1.3c0,0.7,0.5,1,1,1c0.8,0,1.2-0.5,1.4-1c0-0.1,0.1-0.2,0.1-0.3V81.6z"/>
		<path d="M943.4,80.3c0-0.6,0-1.1,0-1.6h0.9l0.1,1l0,0c0.3-0.6,1-1.1,1.9-1.1c0.8,0,2.1,0.5,2.1,2.5v3.5h-1.1v-3.3
			c0-0.9-0.3-1.7-1.3-1.7c-0.7,0-1.2,0.5-1.4,1.1c0,0.1-0.1,0.3-0.1,0.5v3.5h-1.1L943.4,80.3L943.4,80.3z"/>
		<path d="M954.9,76.2c-0.9,1.2-1.5,2.7-1.5,4.9c0,2.1,0.7,3.7,1.5,4.9h-0.8c-0.8-1-1.6-2.5-1.6-4.9s0.8-3.9,1.6-4.9H954.9z"/>
		<path d="M957.1,76.5v8.1h-1v-8.1H957.1z"/>
		<path d="M961.3,80.9v0.8h-3v-0.8H961.3z"/>
		<path d="M962.5,83.3c0.5,0.3,1.2,0.5,1.9,0.5c1.1,0,1.7-0.6,1.7-1.4s-0.4-1.2-1.5-1.6c-1.3-0.5-2.1-1.2-2.1-2.3
			c0-1.3,1-2.2,2.6-2.2c0.8,0,1.4,0.2,1.8,0.4l-0.3,0.9c-0.3-0.1-0.8-0.4-1.5-0.4c-1.1,0-1.5,0.7-1.5,1.2c0,0.8,0.5,1.1,1.6,1.6
			c1.4,0.5,2.1,1.2,2.1,2.4c0,1.2-0.9,2.3-2.8,2.3c-0.8,0-1.6-0.2-2.1-0.5L962.5,83.3z"/>
		<path d="M967.8,86c0.9-1.2,1.5-2.7,1.5-4.9c0-2.1-0.6-3.7-1.5-4.9h0.8c0.8,1,1.6,2.5,1.6,4.9s-0.8,3.9-1.6,4.9H967.8z"/>
	</g>
	<g>
		<path d="M901.4,102l-0.8,2.5h-1.1l2.7-8.1h1.3l2.8,8.1h-1.1l-0.9-2.5H901.4z M904.1,101.2l-0.8-2.3c-0.2-0.5-0.3-1-0.4-1.5l0,0
			c-0.1,0.5-0.3,1-0.4,1.5l-0.8,2.3H904.1z"/>
		<path d="M907.4,100.7c0-0.7,0-1.3,0-1.9h0.9v1l0,0c0.4-0.7,1.1-1.1,2.1-1.1c1.4,0,2.5,1.2,2.5,3c0,2.1-1.3,3.1-2.6,3.1
			c-0.8,0-1.4-0.3-1.8-0.9l0,0v3.2h-1v-6.4H907.4z M908.4,102.2c0,0.2,0,0.3,0,0.4c0.2,0.7,0.8,1.2,1.6,1.2c1.1,0,1.8-0.9,1.8-2.2
			c0-1.2-0.6-2.2-1.7-2.2c-0.7,0-1.4,0.5-1.6,1.3c0,0.1-0.1,0.3-0.1,0.4V102.2z"/>
		<path d="M914.2,100.6c0-0.7,0-1.3,0-1.8h0.9v1.1l0,0c0.3-0.8,0.9-1.3,1.6-1.3c0.1,0,0.2,0,0.3,0v1c-0.1,0-0.2,0-0.4,0
			c-0.7,0-1.3,0.6-1.4,1.4c0,0.1,0,0.3,0,0.5v3.1h-1L914.2,100.6L914.2,100.6z"/>
		<path d="M923,103c0,0.6,0,1.1,0,1.6h-0.9l-0.1-0.9l0,0c-0.3,0.5-0.9,1.1-1.9,1.1c-0.9,0-2-0.5-2-2.5v-3.4h1.1v3.2
			c0,1.1,0.3,1.8,1.3,1.8c0.7,0,1.2-0.5,1.4-1c0.1-0.2,0.1-0.3,0.1-0.5v-3.6h1.1L923,103L923,103z"/>
		<path d="M925.4,101.9c0,1.4,0.9,2,2,2c0.8,0,1.2-0.1,1.6-0.3l0.2,0.8c-0.4,0.2-1,0.4-1.9,0.4c-1.8,0-2.9-1.2-2.9-2.9
			s1-3.1,2.7-3.1c1.9,0,2.4,1.7,2.4,2.7c0,0.2,0,0.4,0,0.5L925.4,101.9L925.4,101.9z M928.5,101.1c0-0.7-0.3-1.7-1.5-1.7
			c-1.1,0-1.5,1-1.6,1.7H928.5z"/>
		<path d="M930.7,104.6c0-0.4,0-1,0-1.5v-7h1v3.6l0,0c0.4-0.6,1-1.1,2-1.1c1.4,0,2.5,1.2,2.4,3c0,2.1-1.3,3.1-2.6,3.1
			c-0.8,0-1.5-0.3-1.9-1.1l0,0v1H930.7z M931.8,102.2c0,0.1,0,0.3,0,0.4c0.2,0.7,0.8,1.2,1.6,1.2c1.1,0,1.8-0.9,1.8-2.2
			c0-1.2-0.6-2.2-1.7-2.2c-0.7,0-1.4,0.5-1.6,1.3c0,0.1-0.1,0.3-0.1,0.4V102.2z"/>
		<path d="M940.8,104.6l-0.1-0.7l0,0c-0.3,0.5-0.9,0.9-1.8,0.9c-1.2,0-1.8-0.8-1.8-1.7c0-1.4,1.2-2.2,3.5-2.2v-0.1
			c0-0.5-0.1-1.3-1.3-1.3c-0.5,0-1.1,0.2-1.5,0.4l-0.2-0.7c0.5-0.3,1.2-0.5,1.9-0.5c1.8,0,2.2,1.2,2.2,2.4v2.2c0,0.5,0,1,0.1,1.4h-1
			V104.6z M940.7,101.6c-1.2,0-2.5,0.2-2.5,1.3c0,0.7,0.5,1,1,1c0.8,0,1.2-0.5,1.4-1c0-0.1,0.1-0.2,0.1-0.3V101.6z"/>
		<path d="M943.4,100.3c0-0.6,0-1.1,0-1.6h0.9l0.1,1l0,0c0.3-0.6,1-1.1,1.9-1.1c0.8,0,2.1,0.5,2.1,2.5v3.5h-1.1v-3.3
			c0-0.9-0.3-1.7-1.3-1.7c-0.7,0-1.2,0.5-1.4,1.1c0,0.1-0.1,0.3-0.1,0.5v3.5h-1.1L943.4,100.3L943.4,100.3z"/>
		<path d="M954.9,96.2c-0.9,1.2-1.5,2.7-1.5,4.9c0,2.1,0.7,3.7,1.5,4.9h-0.8c-0.8-1-1.6-2.5-1.6-4.9s0.8-3.9,1.6-4.9H954.9z"/>
		<path d="M955.9,103.5c0.3,0.2,0.9,0.4,1.4,0.4c0.8,0,1.1-0.4,1.1-0.9s-0.3-0.8-1.1-1.1c-1-0.4-1.5-0.9-1.5-1.6
			c0-0.9,0.8-1.7,2-1.7c0.6,0,1.1,0.2,1.4,0.4l-0.3,0.8c-0.2-0.1-0.6-0.3-1.2-0.3c-0.6,0-1,0.4-1,0.8c0,0.5,0.3,0.7,1.1,1
			c1,0.4,1.5,0.9,1.5,1.8c0,1-0.8,1.7-2.2,1.7c-0.6,0-1.2-0.2-1.6-0.4L955.9,103.5z"/>
		<path d="M961.9,97.1c0,0.4-0.3,0.6-0.7,0.6s-0.6-0.3-0.6-0.6c0-0.4,0.3-0.7,0.7-0.7C961.7,96.5,961.9,96.8,961.9,97.1z
			 M960.8,104.6v-5.8h1.1v5.8H960.8z"/>
		<path d="M963.6,100.3c0-0.6,0-1.1,0-1.6h0.9l0.1,1l0,0c0.3-0.6,1-1.1,1.9-1.1c0.8,0,2.1,0.5,2.1,2.5v3.5h-1.1v-3.3
			c0-0.9-0.3-1.7-1.3-1.7c-0.7,0-1.2,0.5-1.4,1.1c0,0.1-0.1,0.3-0.1,0.5v3.5h-1.1L963.6,100.3L963.6,100.3z"/>
		<path d="M972.8,100.3c0-0.6,0-1.1,0-1.6h0.9v0.9l0,0c0.3-0.6,0.9-1.1,1.8-1.1c0.8,0,1.4,0.5,1.6,1.2l0,0c0.2-0.3,0.4-0.6,0.6-0.8
			c0.3-0.3,0.7-0.4,1.3-0.4c0.8,0,1.9,0.5,1.9,2.5v3.4h-1v-3.3c0-1.1-0.4-1.8-1.3-1.8c-0.6,0-1.1,0.4-1.2,1c0,0.1-0.1,0.3-0.1,0.5
			v3.6h-1v-3.5c0-0.9-0.4-1.6-1.2-1.6c-0.7,0-1.1,0.5-1.3,1.1c-0.1,0.2-0.1,0.3-0.1,0.5v3.5h-1L972.8,100.3L972.8,100.3z"/>
		<path d="M983.4,101.9c0,1.4,0.9,2,2,2c0.8,0,1.2-0.1,1.6-0.3l0.2,0.8c-0.4,0.2-1,0.4-1.9,0.4c-1.8,0-2.9-1.2-2.9-2.9
			s1-3.1,2.7-3.1c1.9,0,2.4,1.7,2.4,2.7c0,0.2,0,0.4,0,0.5L983.4,101.9L983.4,101.9z M986.5,101.1c0-0.7-0.3-1.7-1.5-1.7
			c-1.1,0-1.5,1-1.6,1.7H986.5z"/>
		<path d="M988.8,100.3c0-0.6,0-1.1,0-1.6h0.9l0.1,1l0,0c0.3-0.6,1-1.1,1.9-1.1c0.8,0,2.1,0.5,2.1,2.5v3.5h-1.1v-3.3
			c0-0.9-0.3-1.7-1.3-1.7c-0.7,0-1.2,0.5-1.4,1.1c0,0.1-0.1,0.3-0.1,0.5v3.5h-1.1L988.8,100.3L988.8,100.3z"/>
		<path d="M999.6,104.4c-0.3,0.1-0.9,0.3-1.7,0.3c-1.8,0-2.9-1.2-2.9-3s1.2-3.1,3.1-3.1c0.6,0,1.2,0.2,1.5,0.3l-0.2,0.8
			c-0.3-0.1-0.6-0.3-1.2-0.3c-1.3,0-2.1,1-2.1,2.2c0,1.3,0.9,2.2,2,2.2c0.6,0,1-0.2,1.3-0.3L999.6,104.4z"/>
		<path d="M1002,97.1c0,0.4-0.3,0.6-0.7,0.6s-0.6-0.3-0.6-0.6c0-0.4,0.3-0.7,0.7-0.7C1001.7,96.5,1002,96.8,1002,97.1z
			 M1000.8,104.6v-5.8h1.1v5.8H1000.8z"/>
		<path d="M1008.9,101.6c0,2.1-1.5,3.1-2.9,3.1c-1.6,0-2.8-1.2-2.8-3c0-1.9,1.3-3.1,2.9-3.1C1007.8,98.6,1008.9,99.8,1008.9,101.6z
			 M1004.3,101.7c0,1.3,0.7,2.2,1.8,2.2c1,0,1.8-0.9,1.8-2.3c0-1-0.5-2.2-1.7-2.2C1004.8,99.4,1004.3,100.6,1004.3,101.7z
			 M1007.6,96.3l-1.5,1.7h-0.8l1.1-1.7H1007.6z"/>
		<path d="M1010.2,100.3c0-0.6,0-1.1,0-1.6h0.9l0.1,1l0,0c0.3-0.6,1-1.1,1.9-1.1c0.8,0,2.1,0.5,2.1,2.5v3.5h-1.1v-3.3
			c0-0.9-0.3-1.7-1.3-1.7c-0.7,0-1.2,0.5-1.4,1.1c0,0.1-0.1,0.3-0.1,0.5v3.5h-1.1L1010.2,100.3L1010.2,100.3z"/>
		<path d="M1016.2,106c0.9-1.2,1.5-2.7,1.5-4.9c0-2.1-0.6-3.7-1.5-4.9h0.8c0.8,1,1.6,2.5,1.6,4.9s-0.8,3.9-1.6,4.9H1016.2z"/>
	</g>
	<g>
		<path d="M900.1,117.6c0.5-0.1,1.3-0.2,2-0.2c1.1,0,1.8,0.2,2.3,0.7c0.4,0.4,0.6,0.9,0.6,1.5c0,1.1-0.7,1.8-1.5,2.1l0,0
			c0.6,0.2,1,0.8,1.2,1.6c0.3,1.1,0.5,1.9,0.6,2.2h-1.1c-0.1-0.2-0.3-0.9-0.5-1.9c-0.2-1.1-0.7-1.5-1.6-1.6h-1v3.5h-1V117.6z
			 M901.2,121.3h1.1c1.1,0,1.8-0.6,1.8-1.5c0-1-0.8-1.5-1.9-1.5c-0.5,0-0.9,0-1,0.1L901.2,121.3L901.2,121.3z"/>
		<path d="M907.2,122.9c0,1.4,0.9,2,2,2c0.8,0,1.2-0.1,1.6-0.3l0.2,0.8c-0.4,0.2-1,0.4-1.9,0.4c-1.8,0-2.9-1.2-2.9-2.9
			s1-3.1,2.7-3.1c1.9,0,2.4,1.7,2.4,2.7c0,0.2,0,0.4,0,0.5L907.2,122.9L907.2,122.9z M910.3,122.1c0-0.7-0.3-1.7-1.5-1.7
			c-1.1,0-1.5,1-1.6,1.7H910.3z"/>
		<path d="M912.6,121.7c0-0.7,0-1.3,0-1.9h0.9v1l0,0c0.4-0.7,1.1-1.1,2.1-1.1c1.4,0,2.5,1.2,2.5,3c0,2.1-1.3,3.1-2.6,3.1
			c-0.8,0-1.4-0.3-1.8-0.9l0,0v3.2h-1v-6.4H912.6z M913.7,123.2c0,0.2,0,0.3,0,0.4c0.2,0.7,0.8,1.2,1.6,1.2c1.1,0,1.8-0.9,1.8-2.2
			c0-1.2-0.6-2.2-1.7-2.2c-0.7,0-1.4,0.5-1.6,1.3c0,0.1-0.1,0.3-0.1,0.4V123.2z"/>
		<path d="M919.4,121.6c0-0.7,0-1.3,0-1.8h0.9v1.1l0,0c0.3-0.8,0.9-1.3,1.6-1.3c0.1,0,0.2,0,0.3,0v1c-0.1,0-0.2,0-0.4,0
			c-0.7,0-1.3,0.6-1.4,1.4c0,0.1,0,0.3,0,0.5v3.1h-1L919.4,121.6L919.4,121.6z"/>
		<path d="M928.2,124c0,0.6,0,1.1,0,1.6h-0.9l-0.1-0.9l0,0c-0.3,0.5-0.9,1.1-1.9,1.1c-0.9,0-2-0.5-2-2.5v-3.4h1.1v3.2
			c0,1.1,0.3,1.8,1.3,1.8c0.7,0,1.2-0.5,1.4-1c0.1-0.2,0.1-0.3,0.1-0.5v-3.6h1.1L928.2,124L928.2,124z"/>
		<path d="M930.6,122.9c0,1.4,0.9,2,2,2c0.8,0,1.2-0.1,1.6-0.3l0.2,0.8c-0.4,0.2-1,0.4-1.9,0.4c-1.8,0-2.9-1.2-2.9-2.9
			s1-3.1,2.7-3.1c1.9,0,2.4,1.7,2.4,2.7c0,0.2,0,0.4,0,0.5L930.6,122.9L930.6,122.9z M933.7,122.1c0-0.7-0.3-1.7-1.5-1.7
			c-1.1,0-1.5,1-1.6,1.7H933.7z"/>
		<path d="M935.9,125.6c0-0.4,0-1,0-1.5v-7h1v3.6l0,0c0.4-0.6,1-1.1,2-1.1c1.4,0,2.5,1.2,2.4,3c0,2.1-1.3,3.1-2.6,3.1
			c-0.8,0-1.5-0.3-1.9-1.1l0,0v1H935.9z M937,123.2c0,0.1,0,0.3,0,0.4c0.2,0.7,0.8,1.2,1.6,1.2c1.1,0,1.8-0.9,1.8-2.2
			c0-1.2-0.6-2.2-1.7-2.2c-0.7,0-1.4,0.5-1.6,1.3c0,0.1-0.1,0.3-0.1,0.4V123.2z"/>
		<path d="M946,125.6l-0.1-0.7l0,0c-0.3,0.5-0.9,0.9-1.8,0.9c-1.2,0-1.8-0.8-1.8-1.7c0-1.4,1.2-2.2,3.5-2.2v-0.1
			c0-0.5-0.1-1.3-1.3-1.3c-0.5,0-1.1,0.2-1.5,0.4l-0.2-0.7c0.5-0.3,1.2-0.5,1.9-0.5c1.8,0,2.2,1.2,2.2,2.4v2.2c0,0.5,0,1,0.1,1.4h-1
			V125.6z M945.9,122.6c-1.2,0-2.5,0.2-2.5,1.3c0,0.7,0.5,1,1,1c0.8,0,1.2-0.5,1.4-1c0-0.1,0.1-0.2,0.1-0.3V122.6z"/>
		<path d="M948.6,121.3c0-0.6,0-1.1,0-1.6h0.9l0.1,1l0,0c0.3-0.6,1-1.1,1.9-1.1c0.8,0,2.1,0.5,2.1,2.5v3.5h-1.1v-3.3
			c0-0.9-0.3-1.7-1.3-1.7c-0.7,0-1.2,0.5-1.4,1.1c0,0.1-0.1,0.3-0.1,0.5v3.5h-1.1L948.6,121.3L948.6,121.3z"/>
	</g>
</g>
<g id="Capa_2">
	<g>
		<rect x="59.4" y="579.6" class="st7" width="48.1" height="24"/>
		<rect x="59.4" y="579.6" class="st9" width="48.1" height="10.1"/>
	</g>
	<g>
		<rect x="164.6" y="523.6" class="st7" width="48.1" height="80"/>
		<rect x="164.6" y="523.6" class="st8" width="48.1" height="39.9"/>
	</g>
	<g>
		<rect x="269.7" y="515.6" class="st7" width="48.1" height="88"/>
		<rect x="269.7" y="515.6" class="st8" width="48.1" height="32.1"/>
	</g>
	<g>
		<rect x="374.9" y="443.6" class="st7" width="48.1" height="160"/>
		<rect x="374.9" y="443.6" class="st9" width="48.1" height="31.6"/>
		<rect x="374.9" y="475" class="st8" width="48.1" height="56.6"/>
	</g>
	<g>
		<rect x="480.1" y="163.6" class="st7" width="48.1" height="440"/>
		<rect x="480.1" y="220.9" class="st8" width="48.1" height="183.2"/>
		<rect x="480.1" y="163.6" class="st9" width="48.1" height="57.1"/>
	</g>
	<g>
		<rect x="585.3" y="291.6" class="st7" width="48.1" height="312"/>
		<rect x="585.3" y="321.6" class="st8" width="48.1" height="113.1"/>
		<rect x="585.3" y="291.6" class="st9" width="48.1" height="30"/>
	</g>
	<g>
		<rect x="690.5" y="51.6" class="st7" width="48.1" height="552"/>
		<rect x="690.5" y="51.6" class="st9" width="48.1" height="56.1"/>
		<rect x="690.5" y="107.7" class="st8" width="48.1" height="224.1"/>
	</g>
</g>
<g id="Capa_3">
	<g>
		<path d="M190.8,540.8h-3l-0.3,2c0.2,0,0.3,0,0.6,0c0.6,0,1.2,0.1,1.7,0.4c0.6,0.3,1.1,1,1.1,2c0,1.5-1.2,2.7-2.9,2.7
			c-0.9,0-1.6-0.2-1.9-0.5l0.3-0.8c0.3,0.2,1,0.4,1.7,0.4c1,0,1.8-0.6,1.8-1.7c0-1-0.7-1.7-2.2-1.7c-0.4,0-0.8,0-1.1,0.1l0.5-3.7
			h3.7V540.8L190.8,540.8z"/>
	</g>
	<g>
		<path d="M190.8,581.8h-3l-0.3,2c0.2,0,0.3,0,0.6,0c0.6,0,1.2,0.1,1.7,0.4c0.6,0.3,1.1,1,1.1,2c0,1.5-1.2,2.7-2.9,2.7
			c-0.9,0-1.6-0.2-1.9-0.5l0.3-0.8c0.3,0.2,1,0.4,1.7,0.4c1,0,1.8-0.6,1.8-1.7c0-1-0.7-1.7-2.2-1.7c-0.4,0-0.8,0-1.1,0.1l0.5-3.7
			h3.7V581.8L190.8,581.8z"/>
	</g>
	<g>
		<path d="M294.5,537.5v-2.1h-3.6v-0.7l3.5-5h1.1v4.8h1.1v0.8h-1.1v2.1h-1V537.5z M294.5,534.6V532c0-0.4,0-0.8,0-1.2l0,0
			c-0.2,0.5-0.4,0.8-0.6,1.2l-1.9,2.7l0,0h2.5V534.6z"/>
	</g>
	<g>
		<path d="M296.3,571.7v0.7l-3.4,7.1h-1.1l3.4-6.9l0,0h-3.8v-0.9L296.3,571.7L296.3,571.7z"/>
	</g>
	<g>
		<path d="M401.8,501.1v0.7l-3.4,7.1h-1.1l3.4-6.9l0,0h-3.8v-0.9L401.8,501.1L401.8,501.1z"/>
	</g>
	<g>
		<path d="M397.3,574.2c0.2,0,0.5,0,0.9,0c0.6-0.1,1.2-0.3,1.6-0.8c0.5-0.5,0.9-1.2,1-2.1l0,0c-0.4,0.5-1.1,0.8-1.8,0.8
			c-1.4,0-2.3-1.1-2.3-2.4c0-1.5,1.1-2.8,2.7-2.8s2.6,1.3,2.6,3.3c0,1.7-0.6,2.9-1.3,3.7c-0.6,0.6-1.4,0.9-2.3,1
			c-0.4,0.1-0.7,0.1-1,0.1v-0.8H397.3z M397.7,569.7c0,1,0.6,1.7,1.5,1.7c0.7,0,1.3-0.3,1.5-0.8c0.1-0.1,0.1-0.2,0.1-0.4
			c0-1.3-0.5-2.4-1.6-2.4C398.3,567.8,397.7,568.6,397.7,569.7z"/>
	</g>
	<g>
		<path d="M400.1,463.9v-2.1h-3.6v-0.7l3.5-5h1.1v4.8h1.1v0.8h-1.1v2.1h-1V463.9z M400.1,461v-2.6c0-0.4,0-0.8,0-1.2l0,0
			c-0.2,0.5-0.4,0.8-0.6,1.2l-1.9,2.7l0,0L400.1,461L400.1,461z"/>
	</g>
	<g>
		<path d="M498.8,317.9v-0.6l0.8-0.8c2-1.9,2.9-2.9,2.9-4.1c0-0.8-0.4-1.5-1.5-1.5c-0.7,0-1.3,0.4-1.7,0.7l-0.3-0.7
			c0.5-0.5,1.3-0.8,2.2-0.8c1.7,0,2.4,1.2,2.4,2.3c0,1.4-1,2.6-2.7,4.2l-0.6,0.6l0,0h3.5v0.9h-5V317.9z"/>
		<path d="M505.2,316.7c0.3,0.2,1,0.5,1.7,0.5c1.4,0,1.8-0.9,1.8-1.5c0-1.1-1-1.6-2-1.6h-0.6v-0.8h0.6c0.8,0,1.7-0.4,1.7-1.3
			c0-0.6-0.4-1.2-1.4-1.2c-0.6,0-1.2,0.3-1.6,0.5l-0.3-0.8c0.4-0.3,1.2-0.6,2-0.6c1.5,0,2.2,0.9,2.2,1.9c0,0.8-0.5,1.5-1.4,1.8l0,0
			c1,0.2,1.7,0.9,1.7,2c0,1.2-1,2.3-2.8,2.3c-0.9,0-1.6-0.3-2-0.5L505.2,316.7z"/>
	</g>
	<g>
		<path d="M498.7,508.9v-0.6l0.8-0.8c2-1.9,2.9-2.9,2.9-4.1c0-0.8-0.4-1.5-1.5-1.5c-0.7,0-1.3,0.4-1.7,0.7l-0.3-0.7
			c0.5-0.5,1.3-0.8,2.2-0.8c1.7,0,2.4,1.2,2.4,2.3c0,1.4-1,2.6-2.7,4.2l-0.6,0.6l0,0h3.5v0.9h-5V508.9z"/>
		<path d="M509.5,502h-3l-0.3,2c0.2,0,0.3,0,0.6,0c0.6,0,1.2,0.1,1.7,0.4c0.6,0.3,1.1,1,1.1,2c0,1.5-1.2,2.7-2.9,2.7
			c-0.9,0-1.6-0.2-1.9-0.5l0.3-0.8c0.3,0.2,1,0.4,1.7,0.4c1,0,1.8-0.6,1.8-1.7c0-1-0.7-1.7-2.2-1.7c-0.4,0-0.8,0-1.1,0.1l0.5-3.7
			h3.7L509.5,502L509.5,502z"/>
	</g>
	<g>
		<path d="M506.6,188.1v0.7l-3.4,7.1h-1.1l3.4-6.9l0,0h-3.8v-0.9L506.6,188.1L506.6,188.1z"/>
	</g>
	<g>
		<path d="M604.7,377.6L604.7,377.6l-1.4,0.7l-0.2-0.8l1.7-0.9h0.9v7.8h-1V377.6z"/>
		<path d="M611.8,384.4v-2.1h-3.6v-0.7l3.5-5h1.1v4.8h1.1v0.8h-1.1v2.1h-1V384.4z M611.8,381.5v-2.6c0-0.4,0-0.8,0-1.2l0,0
			c-0.2,0.5-0.4,0.8-0.6,1.2l-1.9,2.7l0,0h2.5V381.5z"/>
	</g>
	<g>
		<path d="M603.7,524.4v-0.6l0.8-0.8c2-1.9,2.9-2.9,2.9-4.1c0-0.8-0.4-1.5-1.5-1.5c-0.7,0-1.3,0.4-1.7,0.7l-0.3-0.7
			c0.5-0.5,1.3-0.8,2.2-0.8c1.7,0,2.4,1.2,2.4,2.3c0,1.4-1,2.6-2.7,4.2l-0.6,0.6l0,0h3.5v0.9h-5V524.4z"/>
		<path d="M612.2,517.6L612.2,517.6l-1.4,0.7l-0.2-0.8l1.7-0.9h0.9v7.8h-1V517.6z"/>
	</g>
	<g>
		<path d="M609.2,310.4v-2.1h-3.6v-0.7l3.5-5h1.1v4.8h1.1v0.8h-1.1v2.1h-1V310.4z M609.2,307.5v-2.6c0-0.4,0-0.8,0-1.2l0,0
			c-0.2,0.5-0.4,0.8-0.6,1.2l-1.9,2.7l0,0h2.5V307.5z"/>
	</g>
	<g>
		<path d="M709.1,240v-0.6l0.8-0.8c2-1.9,2.9-2.9,2.9-4.1c0-0.8-0.4-1.5-1.5-1.5c-0.7,0-1.3,0.4-1.7,0.7l-0.3-0.7
			c0.5-0.5,1.3-0.8,2.2-0.8c1.7,0,2.4,1.2,2.4,2.3c0,1.4-1,2.6-2.7,4.2l-0.6,0.6l0,0h3.5v0.9h-5V240z"/>
		<path d="M715.2,238c0-1,0.6-1.7,1.5-2.1l0,0c-0.9-0.4-1.2-1.1-1.2-1.8c0-1.2,1-2.1,2.4-2.1c1.5,0,2.3,0.9,2.3,1.9
			c0,0.7-0.3,1.4-1.3,1.8l0,0c1,0.4,1.6,1.1,1.6,2c0,1.4-1.2,2.3-2.7,2.3C716.2,240.1,715.2,239.2,715.2,238z M719.4,238
			c0-0.9-0.7-1.4-1.7-1.7c-0.9,0.3-1.4,0.9-1.4,1.6c0,0.8,0.6,1.5,1.6,1.5C718.8,239.4,719.4,238.8,719.4,238z M716.5,234.1
			c0,0.8,0.6,1.2,1.5,1.4c0.7-0.2,1.2-0.7,1.2-1.4c0-0.6-0.4-1.3-1.3-1.3C717,232.8,716.5,233.4,716.5,234.1z"/>
	</g>
	<g>
		<path d="M709.4,474.4c0.3,0.2,1,0.5,1.7,0.5c1.4,0,1.8-0.9,1.8-1.5c0-1.1-1-1.6-2-1.6h-0.6V471h0.6c0.8,0,1.7-0.4,1.7-1.3
			c0-0.6-0.4-1.2-1.4-1.2c-0.6,0-1.2,0.3-1.6,0.5l-0.3-0.8c0.4-0.3,1.2-0.6,2-0.6c1.5,0,2.2,0.9,2.2,1.9c0,0.8-0.5,1.5-1.4,1.8l0,0
			c1,0.2,1.7,0.9,1.7,2c0,1.2-1,2.3-2.8,2.3c-0.9,0-1.6-0.3-2-0.5L709.4,474.4z"/>
		<path d="M718.5,475.6v-2.1h-3.6v-0.7l3.5-5h1.1v4.8h1.1v0.8h-1.1v2.1h-1V475.6z M718.5,472.7v-2.6c0-0.4,0-0.8,0-1.2l0,0
			c-0.2,0.5-0.4,0.8-0.6,1.2l-1.9,2.7l0,0h2.5V472.7z"/>
	</g>
	<g>
		<path d="M717.2,73.5v0.7l-3.4,7.1h-1.1l3.4-6.9l0,0h-3.8v-0.9L717.2,73.5L717.2,73.5z"/>
	</g>
	<path d="M83.2,581.5L83.2,581.5l-1.4,0.7l-0.2-0.8l1.7-0.9h0.9v7.8h-1V581.5z"/>
	<path d="M81.9,601.1c0.3,0.2,1,0.5,1.7,0.5c1.4,0,1.8-0.9,1.8-1.5c0-1.1-1-1.6-2-1.6h-0.6v-0.8h0.6c0.8,0,1.7-0.4,1.7-1.3
		c0-0.6-0.4-1.2-1.4-1.2c-0.6,0-1.2,0.3-1.6,0.5l-0.3-0.8c0.4-0.3,1.2-0.6,2-0.6c1.5,0,2.2,0.9,2.2,1.9c0,0.8-0.5,1.5-1.4,1.8l0,0
		c1,0.2,1.7,0.9,1.7,2c0,1.2-1,2.3-2.8,2.3c-0.9,0-1.6-0.3-2-0.5L81.9,601.1z"/>
</g>
<g id="Capa_4">
	<g>
		<path d="M125.4,513.5v-0.6l0.8-0.8c2-1.9,2.9-2.9,2.9-4.1c0-0.8-0.4-1.5-1.5-1.5c-0.7,0-1.3,0.4-1.7,0.7l-0.3-0.7
			c0.5-0.5,1.3-0.8,2.2-0.8c1.7,0,2.4,1.2,2.4,2.3c0,1.4-1,2.6-2.7,4.2l-0.6,0.6l0,0h3.5v0.9h-5V513.5z"/>
		<path d="M136,506.5c-0.2,0-0.5,0-0.8,0c-1.7,0.3-2.5,1.5-2.7,2.8l0,0c0.4-0.5,1-0.9,1.9-0.9c1.4,0,2.4,1,2.4,2.5
			c0,1.4-1,2.7-2.6,2.7c-1.7,0-2.8-1.3-2.8-3.3c0-1.5,0.6-2.7,1.3-3.5c0.6-0.6,1.5-1,2.5-1.2c0.3,0,0.6-0.1,0.8-0.1
			C136,505.5,136,506.5,136,506.5z M135.7,511c0-1.1-0.6-1.8-1.6-1.8c-0.6,0-1.2,0.4-1.5,1c-0.1,0.1-0.1,0.3-0.1,0.5
			c0,1.3,0.6,2.2,1.7,2.2C135.1,512.8,135.7,512.1,135.7,511z"/>
	</g>
	<g>
		<path d="M231.7,466.9c0.3,0.2,1,0.5,1.7,0.5c1.4,0,1.8-0.9,1.8-1.5c0-1.1-1-1.6-2-1.6h-0.6v-0.8h0.6c0.8,0,1.7-0.4,1.7-1.3
			c0-0.6-0.4-1.2-1.4-1.2c-0.6,0-1.2,0.3-1.6,0.5l-0.3-0.8c0.4-0.3,1.2-0.6,2-0.6c1.5,0,2.2,0.9,2.2,1.9c0,0.8-0.5,1.5-1.4,1.8l0,0
			c1,0.2,1.7,0.9,1.7,2c0,1.2-1,2.3-2.8,2.3c-0.9,0-1.6-0.3-2-0.5L231.7,466.9z"/>
		<path d="M240.9,468.1V466h-3.6v-0.7l3.5-5h1.1v4.8h1.1v0.8h-1.1v2.1h-1V468.1z M240.9,465.1v-2.6c0-0.4,0-0.8,0-1.2l0,0
			c-0.2,0.5-0.4,0.8-0.6,1.2l-1.9,2.7l0,0h2.5V465.1z"/>
	</g>
	<g>
		<path d="M341.5,356.7h-3l-0.3,2c0.2,0,0.3,0,0.6,0c0.6,0,1.2,0.1,1.7,0.4c0.6,0.3,1.1,1,1.1,2c0,1.5-1.2,2.7-2.9,2.7
			c-0.9,0-1.6-0.2-1.9-0.5l0.3-0.8c0.3,0.2,1,0.4,1.7,0.4c1,0,1.8-0.6,1.8-1.7c0-1-0.7-1.7-2.2-1.7c-0.4,0-0.8,0-1.1,0.1l0.5-3.7
			h3.7L341.5,356.7L341.5,356.7z"/>
		<path d="M343.6,362.8c0.2,0,0.5,0,0.9,0c0.6-0.1,1.2-0.3,1.6-0.8c0.5-0.5,0.9-1.2,1-2.1l0,0c-0.4,0.5-1.1,0.8-1.8,0.8
			c-1.4,0-2.3-1.1-2.3-2.4c0-1.5,1.1-2.8,2.7-2.8s2.6,1.3,2.6,3.3c0,1.7-0.6,2.9-1.3,3.7c-0.6,0.6-1.4,0.9-2.3,1
			c-0.4,0.1-0.7,0.1-1,0.1v-0.8H343.6z M344,358.4c0,1,0.6,1.7,1.5,1.7c0.7,0,1.3-0.3,1.5-0.8c0.1-0.1,0.1-0.2,0.1-0.4
			c0-1.3-0.5-2.4-1.6-2.4C344.6,356.5,344,357.3,344,358.4z"/>
	</g>
	<g>
		<path d="M445.3,418.1V416h-3.6v-0.7l3.5-5h1.1v4.8h1.1v0.8h-1.1v2.1h-1V418.1z M445.3,415.2v-2.6c0-0.4,0-0.8,0-1.2l0,0
			c-0.2,0.5-0.4,0.8-0.6,1.2l-1.9,2.7l0,0h2.5V415.2z"/>
		<path d="M453.2,410.3v0.7l-3.4,7.1h-1.1l3.4-6.9l0,0h-3.8v-0.9H453.2z"/>
	</g>
	<g>
		<path d="M549.2,432.4v-2.1h-3.6v-0.7l3.5-5h1.1v4.8h1.1v0.8h-1.1v2.1L549.2,432.4L549.2,432.4z M549.2,429.4v-2.6
			c0-0.4,0-0.8,0-1.2l0,0c-0.2,0.5-0.4,0.8-0.6,1.2l-1.9,2.7l0,0h2.5V429.4z"/>
		<path d="M552.3,431.2c0.3,0.2,1,0.5,1.7,0.5c1.4,0,1.8-0.9,1.8-1.5c0-1.1-1-1.6-2-1.6h-0.6v-0.8h0.6c0.8,0,1.7-0.4,1.7-1.3
			c0-0.6-0.4-1.2-1.4-1.2c-0.6,0-1.2,0.3-1.6,0.5l-0.3-0.8c0.4-0.3,1.2-0.6,2-0.6c1.5,0,2.2,0.9,2.2,1.9c0,0.8-0.5,1.5-1.4,1.8l0,0
			c1,0.2,1.7,0.9,1.7,2c0,1.2-1,2.3-2.8,2.3c-0.9,0-1.6-0.3-2-0.5L552.3,431.2z"/>
	</g>
	<g>
		<path d="M649.7,524.8v-0.6l0.8-0.8c2-1.9,2.9-2.9,2.9-4.1c0-0.8-0.4-1.5-1.5-1.5c-0.7,0-1.3,0.4-1.7,0.7l-0.3-0.7
			c0.5-0.5,1.3-0.8,2.2-0.8c1.7,0,2.4,1.2,2.4,2.3c0,1.4-1,2.6-2.7,4.2l-0.6,0.6l0,0h3.5v0.9h-5V524.8z"/>
		<path d="M658.1,518L658.1,518l-1.4,0.7l-0.2-0.8l1.7-0.9h0.9v7.8h-1V518z"/>
	</g>
	<g>
		<path d="M760.5,402.4h-3l-0.3,2c0.2,0,0.3,0,0.6,0c0.6,0,1.2,0.1,1.7,0.4c0.6,0.3,1.1,1,1.1,2c0,1.5-1.2,2.7-2.9,2.7
			c-0.9,0-1.6-0.2-1.9-0.5l0.3-0.8c0.3,0.2,1,0.4,1.7,0.4c1,0,1.8-0.6,1.8-1.7c0-1-0.7-1.7-2.2-1.7c-0.4,0-0.8,0-1.1,0.1l0.5-3.7
			h3.7L760.5,402.4L760.5,402.4z"/>
		<path d="M764.3,402.4L764.3,402.4l-1.4,0.7l-0.2-0.8l1.7-0.9h0.9v7.8h-1V402.4z"/>
	</g>
</g>
</svg>
